<svg width="844" height="595" viewBox="0 0 844 595" fill="none" xmlns="http://www.w3.org/2000/svg">
<g clip-path="url(#clip0_101_286)">
<path d="M626.254 490.749C612.037 505.404 599.316 514.018 589.576 520.521C494.587 583.946 386.004 565.666 352.433 559.418C298.27 549.337 252.549 542.225 213.267 506.735C124.005 426.091 128.347 257.86 196.554 153.649C204.641 141.293 272.744 40.342 381.562 26.1173C384.224 25.7693 386.21 25.5712 387.949 25.387C404.783 23.6047 509.099 14.1979 594.159 85.4608C606.335 95.6617 625.929 114.062 644.099 142.124C710.539 244.734 710.749 403.655 626.254 490.749Z" fill="url(#paint0_linear_101_286)"/>
<path d="M574.745 222.015L623.196 210.736C623.196 210.736 655.591 207.824 659.972 236.618C664.353 265.411 663.084 435.996 661.712 471.176C661.261 482.773 661.316 493.487 662.303 502.829C664.358 522.289 649.174 539.287 629.608 539.626L539.408 541.187L574.745 222.015Z" fill="url(#paint1_linear_101_286)"/>
<path d="M548.969 555.05C548.969 555.05 558.648 419.334 627.491 336.604C628.389 335.525 629.944 335.796 630.419 337.122C637.92 358.079 680.084 492.85 548.969 555.05Z" fill="#BDD0FB"/>
<path d="M624.52 375.987C623.94 383.906 622.794 391.719 621.465 399.517C620.091 407.304 618.478 415.052 616.579 422.734C612.79 438.098 608.05 453.248 602.22 467.991C599.282 475.35 596.165 482.647 592.676 489.77C590.985 493.356 589.098 496.849 587.289 500.376C585.368 503.846 583.492 507.34 581.411 510.72C573.354 524.378 563.915 537.248 553.141 548.831C552.819 549.176 552.279 549.196 551.934 548.874C551.609 548.572 551.572 548.076 551.837 547.73L551.845 547.719C561.432 535.292 570.07 522.229 577.562 508.515C579.493 505.121 581.211 501.609 583.05 498.167C584.759 494.655 586.544 491.183 588.136 487.615C588.934 485.832 589.8 484.083 590.574 482.289L592.932 476.926C593.706 475.133 594.432 473.319 595.184 471.517C595.944 469.717 596.655 467.898 597.356 466.074C598.813 462.449 600.165 458.782 601.53 455.119C602.833 451.434 604.135 447.748 605.353 444.031C607.865 436.624 610.096 429.123 612.25 421.595C614.358 414.056 616.32 406.469 618.081 398.831C619.876 391.205 621.471 383.505 622.823 375.802L622.828 375.778C622.909 375.313 623.351 375.003 623.816 375.084C624.251 375.16 624.55 375.557 624.52 375.987Z" fill="url(#paint2_linear_101_286)"/>
<path d="M557.502 540.194C557.502 540.194 628.47 420.821 705.681 418.951C707.051 418.917 708.092 420.176 707.809 421.517C704.522 437.121 681.534 518.803 557.502 540.194Z" fill="#91B3FA"/>
<path d="M689.334 437.89C684.656 442.802 679.838 447.529 674.954 452.207C672.488 454.516 670.02 456.826 667.528 459.108C665.014 461.365 662.528 463.656 659.989 465.886C649.857 474.833 639.41 483.425 628.687 491.658C623.367 495.829 617.855 499.747 612.416 503.761L604.096 509.558C602.707 510.521 601.327 511.497 599.923 512.437L595.676 515.208C584.456 522.759 572.733 529.529 560.926 536.103C560.514 536.332 559.995 536.185 559.765 535.773C559.539 535.367 559.68 534.856 560.078 534.623L560.101 534.609L568.813 529.499L573.168 526.944C574.608 526.072 576.021 525.155 577.448 524.263L586.007 518.904C588.828 517.068 591.614 515.178 594.42 513.318L598.62 510.517L602.757 507.621L611.024 501.821C616.428 497.804 621.904 493.886 627.191 489.714C632.548 485.635 637.787 481.405 643.031 477.179L650.796 470.72L658.465 464.146C661.02 461.952 663.52 459.696 666.051 457.475C668.558 455.228 671.041 452.953 673.524 450.679C678.467 446.112 683.378 441.484 688.098 436.714L688.11 436.702C688.441 436.367 688.981 436.364 689.316 436.695C689.648 437.022 689.654 437.554 689.334 437.89Z" fill="#BDD0FB"/>
<path d="M476.247 224.358C476.247 224.358 564.469 229.206 623.196 210.736C623.196 210.736 584.155 208.061 584.155 298.199C584.155 367.115 594.376 498.654 585.452 523.624C576.528 548.593 543.16 582.159 495.326 553.312C447.493 524.466 476.247 224.358 476.247 224.358Z" fill="#7D97F4"/>
<path d="M452.792 89.2199C452.792 89.2199 550.131 99.8302 562.67 83.3314C562.67 83.3314 552.695 53.6379 523.073 55.6136C493.451 57.5894 452.792 89.2199 452.792 89.2199Z" fill="url(#paint3_linear_101_286)"/>
<path d="M136.213 122.627C144.701 218.018 162.53 419.785 170.286 518.071C172.015 539.982 189.578 557.29 211.512 558.697C289.646 563.712 465.486 573.443 532.965 564.39C517.507 556.769 507.773 540.975 507.913 523.742L511.496 82.7048C511.623 67.1208 527.145 55.923 541.739 61.3913C550.933 64.8366 557.895 72.176 562.67 83.3318C556.299 64.7662 546.279 51.183 523.073 55.6139C523.073 55.6139 296.106 57.883 185.969 64.7119C156.042 66.5673 133.556 92.7603 136.213 122.627Z" fill="#91B3FA"/>
<path opacity="0.53" d="M192.359 77.3363L497.335 65.5951C484.756 158.718 490.065 348.355 494.864 535.248C495.149 546.328 501.647 556.299 511.668 561.035C511.668 561.035 308.251 563.379 220.848 557.179C200.268 555.72 183.48 540.148 180.423 519.744C168.423 439.672 139.716 232.817 145.691 123.304C147.059 98.2253 167.262 78.3025 192.359 77.3363Z" fill="url(#paint4_linear_101_286)"/>
<path d="M188.323 221.779L191.882 255.94C192.535 262.201 197.691 267.031 203.982 267.273L223.871 268.036C231.044 268.311 237.01 262.57 237.01 255.391V218.541C237.01 211.143 230.692 205.324 223.32 205.93L199.871 207.857C192.799 208.438 187.587 214.721 188.323 221.779Z" fill="url(#paint5_linear_101_286)"/>
<path d="M258.263 211.25C291.366 210.22 418.439 206.089 450.527 205.045C454.575 204.913 457.92 208.159 457.92 212.209C457.92 216.064 454.871 219.228 451.019 219.371L258.879 226.504C255.177 226.641 251.981 223.936 251.505 220.264L251.385 219.334C250.84 215.135 254.03 211.381 258.263 211.25Z" fill="url(#paint6_linear_101_286)"/>
<path d="M256.183 256.284C256.746 257.227 257.771 257.795 258.868 257.771L390.802 254.904C392.459 254.868 393.784 253.515 393.784 251.857V243.159C393.784 241.431 392.349 240.048 390.622 240.113L262.367 244.908C256.654 245.122 253.256 251.375 256.183 256.284Z" fill="url(#paint7_linear_101_286)"/>
<path d="M188.323 316.588L191.882 350.749C192.535 357.011 197.691 361.841 203.982 362.082L223.871 362.845C231.044 363.12 237.01 357.379 237.01 350.201V313.35C237.01 305.953 230.692 300.133 223.32 300.739L199.871 302.666C192.799 303.247 187.587 309.53 188.323 316.588Z" fill="url(#paint8_linear_101_286)"/>
<path d="M258.263 306.059C291.366 305.029 418.439 300.898 450.527 299.854C454.575 299.723 457.92 302.968 457.92 307.018C457.92 310.873 454.871 314.037 451.019 314.18L258.879 321.313C255.177 321.451 251.981 318.746 251.505 315.073L251.385 314.143C250.84 309.944 254.03 306.19 258.263 306.059Z" fill="url(#paint9_linear_101_286)"/>
<path opacity="0.78" d="M256.183 351.094C256.746 352.036 257.771 352.604 258.868 352.58L390.802 349.714C392.459 349.678 393.784 348.324 393.784 346.666V337.968C393.784 336.24 392.349 334.857 390.622 334.922L262.367 339.717C256.654 339.931 253.256 346.184 256.183 351.094Z" fill="white"/>
<path d="M188.323 411.397L191.882 445.558C192.535 451.82 197.691 456.65 203.982 456.891L223.871 457.654C231.044 457.929 237.01 452.189 237.01 445.01V408.159C237.01 400.762 230.692 394.942 223.32 395.548L199.871 397.475C192.799 398.056 187.587 404.339 188.323 411.397Z" fill="url(#paint10_linear_101_286)"/>
<path d="M258.263 400.868C291.366 399.838 418.439 395.707 450.527 394.663C454.575 394.532 457.92 397.777 457.92 401.827C457.92 405.682 454.871 408.846 451.019 408.989L258.879 416.122C255.177 416.26 251.981 413.555 251.505 409.882L251.385 408.953C250.84 404.753 254.03 400.999 258.263 400.868Z" fill="url(#paint11_linear_101_286)"/>
<path d="M256.183 445.903C256.746 446.845 257.771 447.413 258.868 447.389L390.802 444.523C392.459 444.487 393.784 443.133 393.784 441.475V432.777C393.784 431.049 392.349 429.666 390.622 429.731L262.367 434.526C256.654 434.74 253.256 440.993 256.183 445.903Z" fill="url(#paint12_linear_101_286)"/>
<path d="M572.696 421.398C571.89 421.398 571.228 420.751 571.212 419.941C571.211 419.895 571.122 415.217 570.672 399.187C570.649 398.367 571.295 397.684 572.114 397.662C572.915 397.621 573.618 398.284 573.64 399.104C574.09 415.155 574.181 419.839 574.182 419.885C574.197 420.704 573.545 421.382 572.725 421.398C572.716 421.398 572.706 421.398 572.696 421.398Z" fill="white"/>
<path d="M571.618 382.269C570.818 382.269 570.159 381.634 570.135 380.829C569.816 370.395 569.318 358.86 568.791 346.646C568.08 330.145 567.344 313.082 566.955 296.645C565.93 253.264 573.086 236.611 579.269 230.28C582.629 226.839 585.446 226.739 585.756 226.739C586.576 226.739 587.241 227.404 587.241 228.224C587.241 229.034 586.592 229.693 585.786 229.709C585.448 229.733 568.389 231.608 569.925 296.575C570.313 312.983 571.047 330.031 571.759 346.519C572.286 358.741 572.784 370.286 573.102 380.739C573.128 381.559 572.484 382.243 571.664 382.268C571.649 382.269 571.633 382.269 571.618 382.269Z" fill="white"/>
<path d="M356.459 542.261C354.954 542.261 353.447 541.549 351.856 540.088C346.009 534.716 344.498 526.461 344.088 518.608C341.389 521.627 338.629 524.568 335.899 527.477L334.388 526.059C337.594 522.644 340.842 519.183 343.976 515.607C343.717 504.852 344.213 493.981 345.452 483.291C346.212 476.736 347.307 469.799 350.148 463.471C351.054 461.454 352.557 458.561 355.143 456.753C357.841 454.867 361.378 454.662 363.746 456.252C366.407 458.041 367.124 461.429 367.432 463.822C369.241 477.889 363.753 490.781 358.831 499.119C355.176 505.31 350.754 510.974 346.069 516.361C346.312 524.399 347.426 533.205 353.257 538.563C354.486 539.691 355.556 540.227 356.557 540.188C358.201 540.128 359.53 538.533 360.615 536.98C365.545 529.918 369.38 522.262 372.061 514.142C372.374 511.698 373.057 509.302 374.096 507.065L376.042 507.746C375.479 510.064 374.828 512.349 374.091 514.6C373.817 516.9 373.9 519.243 374.356 521.517C374.599 522.726 375.619 526.716 378.565 527.277C380.763 527.692 383.053 526.03 385.583 522.185L395.954 506.422L394.644 512.065C394.182 514.058 393.406 518.814 396.187 519.958C397.77 520.61 399.442 519.668 401.379 518.576C403.305 517.491 405.294 516.366 407.558 516.67L408.626 516.812L408.443 517.873C408.338 518.48 407.5 523.816 410.268 524.428C411.536 524.709 412.595 523.831 414.192 522.355C415.448 521.194 416.746 519.994 418.454 519.58L418.941 521.594C417.757 521.881 416.709 522.85 415.599 523.875C414.023 525.333 412.24 526.984 409.821 526.451C406.669 525.754 405.894 522.203 406.236 518.737C404.994 518.918 403.724 519.633 402.396 520.381C400.292 521.565 397.908 522.908 395.398 521.874C393.327 521.022 392.205 518.965 392.119 516.019L387.314 523.323C385.374 526.272 382.322 530.105 378.177 529.312C375.332 528.77 373.144 526.008 372.325 521.924C372.211 521.354 372.118 520.781 372.046 520.205C369.503 526.52 366.249 532.528 362.313 538.165C361.017 540.022 359.2 542.164 356.632 542.257C356.574 542.26 356.516 542.261 356.459 542.261ZM360.064 457.242C358.702 457.242 357.329 457.753 356.33 458.451C354.164 459.965 352.843 462.526 352.038 464.32C349.312 470.39 348.25 477.14 347.51 483.529C346.37 493.362 345.865 503.351 346.004 513.257C350.061 508.472 353.862 503.462 357.047 498.066C361.804 490.007 367.111 477.569 365.378 464.086C364.97 460.919 364.084 458.976 362.59 457.972C361.823 457.456 360.945 457.242 360.064 457.242Z" fill="url(#paint13_linear_101_286)"/>
<path opacity="0.78" d="M447.356 168.566L204.402 175.775C195.675 176.034 188.346 169.259 187.918 160.539L187.026 142.364C186.586 133.382 193.621 125.794 202.612 125.557L446.772 119.101C455.901 118.86 463.386 126.283 463.221 135.414L462.906 152.835C462.751 161.388 455.906 168.312 447.356 168.566Z" fill="white"/>
<path d="M370.826 359.983C370.826 359.983 362.723 354.667 361.601 355.893C361.202 356.329 360.269 357.811 359.4 359.429C358.787 360.57 358.976 361.975 359.877 362.907L361.966 365.066C363.956 367.124 367.325 366.976 369.082 364.716C369.968 363.576 370.674 362.038 370.826 359.983Z" fill="url(#paint14_linear_101_286)"/>
<path d="M379.088 349.885C379.088 349.885 376.307 342.565 373.059 343.235C369.811 343.906 366.257 346.401 366.257 346.401L361.039 353.458C361.039 353.458 375.688 359.229 380.839 355.922C380.839 355.922 395.802 358.507 414.696 355.407C411.961 349.632 410.331 343.851 409.374 339.363C399.804 344.78 389.496 348.827 379.088 349.885Z" fill="url(#paint15_linear_101_286)"/>
<path d="M458.345 296.788C458.345 296.788 436.923 323.77 409.374 339.364C410.331 343.851 411.961 349.632 414.696 355.407C428.987 353.062 445.527 347.465 459.549 335.03L458.345 296.788Z" fill="url(#paint16_linear_101_286)"/>
<path d="M485.061 416.378C480.872 396.478 476.682 384.957 462.655 347.238C458.24 335.369 454.231 323.359 456.169 310.844L458.345 296.788C458.345 296.788 485.606 287.563 515.824 296.4C515.824 296.4 557.052 314.309 529.049 402.762C516.427 416.884 501.655 420.908 485.061 416.378Z" fill="url(#paint17_linear_101_286)"/>
<path d="M462.985 278.848L470.054 295.831C470.501 296.904 471.466 297.668 472.611 297.864C476.686 298.563 486.544 299.655 493.017 295.398C493.789 294.891 493.985 293.843 493.457 293.085L480.398 274.336L462.985 278.848Z" fill="url(#paint18_linear_101_286)"/>
<path d="M470.296 252.865C469.999 253.145 457.767 277.167 457.767 277.167L471.631 283.859L486.608 262.815C486.608 262.815 475.266 248.187 470.296 252.865Z" fill="url(#paint19_linear_101_286)"/>
<path d="M480.307 265.34L473.392 276.866C473.287 277.041 473.162 277.199 473.013 277.338C472.19 278.105 469.374 280.333 467.196 277.299C465.341 274.713 463.599 272.362 461.734 271.393C460.644 270.826 459.304 271.279 458.75 272.375C457.611 274.633 455.404 279.236 454.018 283.601C453.671 284.695 454.235 285.869 455.299 286.3C458.106 287.437 463.655 289.494 468.579 290.174C469.387 290.285 470.188 289.944 470.67 289.285C472.788 286.383 478.758 278.273 480.796 276.243C482.689 274.357 486.183 275.069 487.758 275.521C488.355 275.693 488.992 275.61 489.524 275.289C491.122 274.327 493.909 271.931 491.359 267.875C490.725 266.866 491.049 265.523 492.044 264.868C493.827 263.695 495.763 261.493 493.919 257.927C492.052 254.317 488.719 253.993 486.449 254.27C485.445 254.393 484.425 253.866 484.039 252.93C483.868 252.514 483.529 252.16 482.898 252.032C481.709 251.79 480.927 250.702 481.161 249.511C481.561 247.468 481.26 244.814 477.998 243.021C472.016 239.732 466.776 245.091 465.444 249.615C464.111 254.139 470.8 257.336 475.007 257.87C478.097 258.262 479.792 261.635 480.474 263.398C480.721 264.037 480.66 264.751 480.307 265.34Z" fill="url(#paint20_linear_101_286)"/>
<path d="M477.884 279.694C477.884 279.694 480.859 272.693 484.264 272.979C487.669 273.265 490.349 276.656 486.129 280.47C480.88 285.213 477.884 279.694 477.884 279.694Z" fill="url(#paint21_linear_101_286)"/>
<path d="M482.377 591.755C488.961 592.324 500.389 593.248 509.397 593.645C514.812 593.883 517.93 593.353 519.726 592.634C519.723 592.837 519.717 593.028 519.709 593.205C519.666 594.153 518.896 594.912 517.939 594.965C500.916 595.915 487.379 595.294 482.559 595.001C481.563 594.94 480.969 593.857 481.478 593.007C481.733 592.583 482.042 592.166 482.377 591.755Z" fill="url(#paint22_linear_101_286)"/>
<path d="M509.397 593.645C500.389 593.248 488.961 592.324 482.377 591.755C488.851 583.813 509.397 578.46 509.397 578.46H515.2C519.191 584.213 519.769 589.691 519.726 592.634C517.93 593.353 514.812 593.883 509.397 593.645Z" fill="url(#paint23_linear_101_286)"/>
<path d="M516.178 568.986L515.635 579.732C515.576 580.896 514.705 581.874 513.539 582.04C512.38 582.206 510.827 582.227 509.18 581.679C508.167 581.342 507.415 580.488 507.228 579.447L505.352 568.986H516.178Z" fill="url(#paint24_linear_101_286)"/>
<path d="M591.55 593.564C594.405 593.166 595.697 591.682 596.239 590.097C596.242 590.111 596.246 590.125 596.25 590.14C596.67 591.812 595.696 593.546 593.749 594.37C591.396 595.367 588.823 595.537 586.825 595.454C584.682 595.366 582.715 594.479 581.634 593.06L581.618 593.039C583.769 594.103 586.789 594.228 591.55 593.564Z" fill="url(#paint25_linear_101_286)"/>
<path d="M578.088 568.917H582.874C590.163 568.768 594.741 584.143 596.239 590.097C595.697 591.683 594.406 593.166 591.55 593.564C586.789 594.228 583.769 594.103 581.618 593.038C577.68 587.856 575.727 580.266 574.789 575.836C573.721 570.799 578.088 568.917 578.088 568.917Z" fill="url(#paint26_linear_101_286)"/>
<path d="M582.259 558.943L584.916 569.512C585.242 570.808 584.622 572.148 583.423 572.763C581.937 573.526 579.844 574.328 577.92 574.096C577.016 573.987 576.264 573.35 575.965 572.498L572.064 561.378L582.259 558.943Z" fill="url(#paint27_linear_101_286)"/>
<path d="M585.428 561.998C582.122 564.931 571.368 565.318 571.368 565.318C532.631 472.345 516.481 446.75 516.481 446.75C522.075 481.843 517.687 571.919 517.687 571.919C511.295 574.74 503.053 571.919 503.053 571.919C502.534 514.468 494.445 452.735 484.014 413.236C510.195 412.647 524.424 406.94 528.97 403.344C550.795 438.529 585.428 561.998 585.428 561.998Z" fill="url(#paint28_linear_101_286)"/>
<path d="M477.418 439.217L482.236 469.181C483.076 474.405 487.916 478.03 493.193 477.386L565.298 468.591C568.826 468.161 571.5 465.215 571.571 461.679C571.726 453.936 571.421 440.157 568.172 427.604L477.418 439.217Z" fill="url(#paint29_linear_101_286)"/>
<path d="M495.625 475.376C495.506 475.376 495.405 475.287 495.39 475.167C495.373 475.037 495.467 474.919 495.596 474.903L497.48 474.673C497.618 474.658 497.728 474.75 497.744 474.879C497.761 475.009 497.667 475.128 497.538 475.144L495.654 475.374C495.644 475.375 495.634 475.376 495.625 475.376ZM491.23 475.293C491.211 475.293 491.192 475.29 491.173 475.285C490.546 475.13 489.931 474.91 489.346 474.633C489.228 474.576 489.177 474.434 489.233 474.316C489.291 474.198 489.434 474.148 489.55 474.204C490.106 474.469 490.69 474.677 491.287 474.825C491.414 474.856 491.492 474.985 491.46 475.113C491.434 475.221 491.337 475.293 491.23 475.293ZM501.904 474.61C501.785 474.61 501.683 474.521 501.668 474.401C501.652 474.271 501.745 474.152 501.875 474.137L503.759 473.908C503.887 473.89 504.006 473.984 504.023 474.115C504.039 474.244 503.946 474.363 503.816 474.378L501.933 474.608C501.923 474.609 501.913 474.61 501.904 474.61ZM508.182 473.844C508.064 473.844 507.962 473.756 507.947 473.636C507.931 473.506 508.024 473.387 508.153 473.372L510.037 473.142C510.174 473.121 510.285 473.218 510.301 473.348C510.317 473.478 510.224 473.597 510.095 473.612L508.211 473.842C508.201 473.844 508.192 473.844 508.182 473.844ZM514.461 473.078C514.342 473.078 514.24 472.99 514.225 472.87C514.209 472.74 514.302 472.621 514.432 472.605L516.315 472.376C516.453 472.361 516.563 472.453 516.579 472.583C516.595 472.713 516.502 472.831 516.373 472.847L514.489 473.076C514.479 473.078 514.47 473.078 514.461 473.078ZM520.739 472.313C520.62 472.313 520.518 472.224 520.503 472.104C520.487 471.974 520.58 471.855 520.71 471.84L522.593 471.61C522.731 471.592 522.842 471.686 522.858 471.816C522.874 471.947 522.781 472.065 522.651 472.081L520.768 472.311C520.758 472.312 520.748 472.313 520.739 472.313ZM486.033 471.903C485.962 471.903 485.892 471.871 485.845 471.811C485.449 471.298 485.105 470.743 484.822 470.16C484.764 470.042 484.813 469.9 484.931 469.843C485.05 469.787 485.191 469.834 485.248 469.952C485.518 470.506 485.845 471.034 486.22 471.521C486.301 471.624 486.282 471.773 486.178 471.853C486.135 471.887 486.083 471.903 486.033 471.903ZM527.017 471.547C526.898 471.547 526.797 471.459 526.782 471.338C526.765 471.208 526.859 471.09 526.988 471.074L528.872 470.844C529.009 470.823 529.12 470.921 529.136 471.05C529.152 471.18 529.059 471.299 528.93 471.315L527.046 471.545C527.036 471.546 527.027 471.547 527.017 471.547ZM533.295 470.781C533.177 470.781 533.075 470.692 533.06 470.572C533.044 470.442 533.137 470.323 533.266 470.308L535.15 470.079C535.278 470.064 535.398 470.156 535.414 470.285C535.43 470.415 535.337 470.534 535.207 470.55L533.324 470.779C533.314 470.78 533.305 470.781 533.295 470.781ZM539.574 470.015C539.455 470.015 539.353 469.927 539.338 469.807C539.322 469.677 539.415 469.558 539.545 469.542L541.428 469.312C541.566 469.295 541.676 469.389 541.692 469.519C541.709 469.649 541.616 469.768 541.486 469.783L539.603 470.013C539.593 470.015 539.583 470.015 539.574 470.015ZM545.852 469.249C545.733 469.249 545.631 469.161 545.617 469.041C545.6 468.911 545.693 468.792 545.823 468.777L547.706 468.547C547.844 468.526 547.955 468.623 547.971 468.753C547.987 468.883 547.894 469.002 547.764 469.017L545.881 469.247C545.871 469.249 545.861 469.249 545.852 469.249ZM552.13 468.483C552.012 468.483 551.91 468.395 551.895 468.275C551.879 468.145 551.972 468.026 552.102 468.01L553.985 467.781C554.122 467.766 554.233 467.858 554.249 467.988C554.265 468.118 554.172 468.236 554.043 468.252L552.159 468.481C552.149 468.482 552.14 468.483 552.13 468.483ZM558.408 467.718C558.29 467.718 558.188 467.629 558.173 467.509C558.157 467.379 558.25 467.26 558.379 467.245L560.263 467.015C560.401 466.998 560.511 467.092 560.527 467.221C560.544 467.352 560.45 467.47 560.321 467.486L558.437 467.716C558.427 467.717 558.418 467.718 558.408 467.718ZM564.658 466.805C564.56 466.805 564.468 466.743 564.434 466.644C564.391 466.521 564.457 466.386 564.581 466.343C565.158 466.144 565.705 465.867 566.208 465.516C566.314 465.441 566.463 465.467 566.538 465.575C566.613 465.682 566.587 465.829 566.479 465.904C565.94 466.281 565.354 466.579 564.735 466.792C564.71 466.801 564.684 466.805 564.658 466.805ZM483.946 466.023C483.831 466.023 483.73 465.94 483.712 465.823L483.411 463.95C483.39 463.821 483.478 463.699 483.607 463.678C483.737 463.657 483.859 463.745 483.879 463.875L484.18 465.748C484.201 465.878 484.113 465.999 483.984 466.02C483.971 466.022 483.958 466.023 483.946 466.023ZM568.92 462.444C568.896 462.444 568.872 462.44 568.848 462.433C568.723 462.394 568.654 462.26 568.694 462.136C568.877 461.555 568.978 460.949 568.992 460.336C568.996 460.207 569.102 460.104 569.23 460.104C569.232 460.104 569.234 460.104 569.235 460.104C569.367 460.108 569.47 460.216 569.467 460.347C569.451 461.005 569.343 461.655 569.146 462.279C569.114 462.38 569.02 462.444 568.92 462.444ZM482.942 459.779C482.828 459.779 482.727 459.696 482.708 459.579L482.407 457.706C482.386 457.576 482.474 457.455 482.603 457.434C482.737 457.41 482.853 457.501 482.875 457.63L483.176 459.503C483.197 459.633 483.109 459.754 482.98 459.775C482.967 459.777 482.954 459.779 482.942 459.779ZM569.256 456.152C569.125 456.152 569.02 456.047 569.018 455.916C569.013 455.304 569.003 454.672 568.99 454.021C568.987 453.89 569.092 453.782 569.223 453.779C569.364 453.756 569.461 453.881 569.465 454.012C569.478 454.664 569.488 455.299 569.493 455.913C569.493 456.043 569.388 456.151 569.257 456.152C569.257 456.152 569.256 456.152 569.256 456.152ZM481.938 453.533C481.824 453.533 481.723 453.45 481.704 453.334L481.403 451.46C481.382 451.331 481.47 451.21 481.599 451.189C481.73 451.17 481.85 451.255 481.871 451.385L482.172 453.258C482.193 453.388 482.106 453.509 481.976 453.53C481.963 453.532 481.95 453.533 481.938 453.533ZM569.069 449.828C568.944 449.828 568.839 449.73 568.833 449.603C568.801 448.982 568.765 448.351 568.724 447.711C568.716 447.581 568.815 447.467 568.945 447.459C569.103 447.469 569.189 447.551 569.197 447.681C569.239 448.323 569.274 448.956 569.306 449.579C569.313 449.71 569.212 449.821 569.081 449.828C569.077 449.828 569.073 449.828 569.069 449.828ZM480.934 447.289C480.819 447.289 480.718 447.206 480.7 447.089L480.399 445.216C480.378 445.086 480.466 444.965 480.596 444.944C480.73 444.922 480.847 445.011 480.867 445.14L481.168 447.014C481.189 447.143 481.101 447.264 480.972 447.285C480.959 447.287 480.946 447.289 480.934 447.289ZM568.608 443.518C568.487 443.518 568.384 443.427 568.372 443.304C568.311 442.681 568.246 442.052 568.175 441.42C568.16 441.29 568.254 441.172 568.384 441.158C568.512 441.142 568.631 441.237 568.646 441.367C568.718 442.001 568.784 442.632 568.844 443.258C568.857 443.388 568.761 443.504 568.631 443.517C568.623 443.518 568.616 443.518 568.608 443.518ZM479.931 441.044C479.816 441.044 479.716 440.961 479.697 440.845L479.356 438.729L481.093 438.507C481.228 438.486 481.343 438.583 481.359 438.712C481.376 438.842 481.284 438.96 481.154 438.977L479.902 439.138L480.165 440.769C480.186 440.899 480.098 441.02 479.968 441.041C479.956 441.043 479.943 441.044 479.931 441.044ZM485.515 438.418C485.397 438.418 485.295 438.33 485.28 438.211C485.263 438.08 485.355 437.962 485.484 437.945L487.367 437.704C487.518 437.685 487.615 437.78 487.632 437.909C487.649 438.039 487.557 438.158 487.427 438.175L485.545 438.415C485.534 438.417 485.525 438.418 485.515 438.418ZM491.789 437.615C491.671 437.615 491.569 437.527 491.554 437.408C491.537 437.278 491.629 437.159 491.759 437.142L493.641 436.902C493.791 436.883 493.89 436.977 493.907 437.107C493.924 437.237 493.831 437.355 493.702 437.372L491.82 437.613C491.809 437.615 491.799 437.615 491.789 437.615ZM567.835 437.242C567.719 437.242 567.618 437.157 567.6 437.04C567.506 436.418 567.406 435.794 567.3 435.17C567.278 435.041 567.365 434.918 567.494 434.896C567.63 434.875 567.746 434.962 567.768 435.091C567.873 435.718 567.974 436.344 568.069 436.969C568.089 437.098 568 437.219 567.87 437.239C567.858 437.24 567.846 437.242 567.835 437.242ZM498.063 436.812C497.945 436.812 497.843 436.724 497.827 436.605C497.811 436.475 497.903 436.356 498.032 436.339L499.915 436.098C500.063 436.082 500.163 436.175 500.18 436.304C500.197 436.434 500.105 436.552 499.975 436.569L498.093 436.81C498.082 436.811 498.072 436.812 498.063 436.812ZM504.336 436.009C504.218 436.009 504.117 435.922 504.101 435.803C504.084 435.672 504.177 435.554 504.306 435.537L506.188 435.296C506.336 435.281 506.437 435.372 506.454 435.501C506.471 435.631 506.378 435.75 506.249 435.767L504.367 436.008C504.356 436.009 504.346 436.009 504.336 436.009ZM510.61 435.206C510.492 435.206 510.39 435.119 510.374 434.999C510.358 434.869 510.45 434.75 510.58 434.734L512.462 434.493C512.608 434.48 512.711 434.569 512.727 434.698C512.744 434.828 512.652 434.947 512.522 434.964L510.64 435.204C510.629 435.206 510.619 435.206 510.61 435.206ZM516.884 434.404C516.766 434.404 516.664 434.316 516.649 434.197C516.632 434.067 516.724 433.948 516.854 433.931L518.736 433.69C518.881 433.67 518.985 433.767 519.002 433.896C519.018 434.026 518.926 434.144 518.797 434.161L516.914 434.402C516.904 434.403 516.894 434.404 516.884 434.404ZM523.158 433.601C523.04 433.601 522.938 433.514 522.922 433.394C522.905 433.264 522.998 433.146 523.127 433.129L525.009 432.887C525.144 432.869 525.259 432.963 525.275 433.092C525.292 433.223 525.2 433.341 525.07 433.358L523.188 433.6C523.178 433.601 523.167 433.601 523.158 433.601ZM529.431 432.798C529.313 432.798 529.211 432.71 529.196 432.591C529.179 432.461 529.271 432.342 529.401 432.326L531.283 432.085C531.426 432.068 531.532 432.161 531.549 432.29C531.565 432.42 531.473 432.539 531.343 432.555L529.461 432.796C529.451 432.798 529.441 432.798 529.431 432.798ZM535.705 431.996C535.587 431.996 535.485 431.908 535.469 431.789C535.453 431.658 535.545 431.54 535.675 431.523L537.557 431.282C537.708 431.267 537.805 431.358 537.822 431.487C537.839 431.617 537.747 431.736 537.617 431.753L535.735 431.994C535.724 431.995 535.714 431.996 535.705 431.996ZM541.979 431.193C541.861 431.193 541.759 431.105 541.744 430.986C541.727 430.855 541.819 430.737 541.949 430.72L543.831 430.479C543.98 430.466 544.08 430.555 544.096 430.684C544.113 430.814 544.021 430.933 543.891 430.95L542.009 431.191C541.999 431.192 541.988 431.193 541.979 431.193ZM566.69 431.022C566.58 431.022 566.482 430.946 566.458 430.835C566.323 430.219 566.181 429.603 566.031 428.991C566 428.864 566.079 428.736 566.206 428.705C566.337 428.671 566.462 428.752 566.493 428.879C566.642 429.496 566.785 430.113 566.922 430.734C566.949 430.861 566.868 430.988 566.74 431.016C566.723 431.02 566.706 431.022 566.69 431.022ZM548.253 430.39C548.135 430.39 548.033 430.302 548.017 430.183C548 430.053 548.093 429.934 548.222 429.917L550.104 429.676C550.253 429.655 550.353 429.753 550.37 429.882C550.387 430.012 550.295 430.13 550.165 430.147L548.283 430.388C548.272 430.389 548.262 430.39 548.253 430.39ZM554.526 429.587C554.408 429.587 554.306 429.499 554.291 429.38C554.274 429.25 554.366 429.131 554.496 429.114L556.378 428.873C556.525 428.854 556.627 428.95 556.644 429.079C556.66 429.209 556.568 429.327 556.439 429.344L554.556 429.585C554.546 429.586 554.536 429.587 554.526 429.587ZM560.8 428.784C560.682 428.784 560.58 428.697 560.564 428.577C560.547 428.447 560.64 428.328 560.769 428.312L562.651 428.071C562.798 428.053 562.9 428.148 562.917 428.276C562.934 428.406 562.842 428.525 562.712 428.542L560.83 428.782C560.819 428.784 560.809 428.784 560.8 428.784Z" fill="white"/>
<path d="M495.739 414.672L495.659 412.324C495.832 411.739 496.29 411.282 496.878 411.109C499.077 410.465 504.564 409.124 507.501 410.784L508.246 413.43L495.739 414.672Z" fill="url(#paint30_linear_101_286)"/>
<path d="M502.465 411.542C501.964 411.735 501.447 411.801 500.911 411.739C500.264 411.666 499.75 411.161 499.667 410.517L498.738 403.251L502.435 402.778L503.364 410.039C503.447 410.685 503.076 411.308 502.465 411.542Z" fill="url(#paint31_linear_101_286)"/>
<path d="M531.554 410.089L531.474 407.741C531.647 407.156 532.105 406.698 532.694 406.526C534.892 405.882 540.379 404.541 543.316 406.201L544.061 408.847L531.554 410.089Z" fill="url(#paint32_linear_101_286)"/>
<path d="M538.28 406.959C537.779 407.152 537.262 407.218 536.727 407.156C536.079 407.083 535.565 406.577 535.482 405.934L534.455 397.903L538.152 397.43L539.179 405.456C539.262 406.102 538.891 406.725 538.28 406.959Z" fill="url(#paint33_linear_101_286)"/>
<path d="M498.59 405.08L538.188 398.675C539.091 398.529 539.776 397.777 539.818 396.868C539.877 395.595 539.831 393.706 539.297 391.811C538.69 389.656 536.591 388.266 534.354 388.498C526.913 389.271 508.028 391.693 498.146 397.142C497.101 397.718 496.405 398.764 496.273 399.945C496.147 401.072 496.157 402.554 496.695 403.995C496.98 404.761 497.78 405.211 498.59 405.08Z" fill="url(#paint34_linear_101_286)"/>
<path d="M497.614 403.559C497.326 403.559 497.067 403.362 496.999 403.07C496.984 403.004 496.629 401.448 496.845 399.877C497.023 398.59 497.879 397.463 499.079 396.938C501.232 395.995 505.366 394.332 508.862 393.784C509.211 393.739 509.53 393.966 509.585 394.312C509.639 394.657 509.403 394.98 509.057 395.035C505.577 395.58 501.275 397.357 499.586 398.096C498.786 398.447 498.217 399.196 498.099 400.05C497.915 401.384 498.228 402.77 498.231 402.784C498.31 403.124 498.097 403.464 497.757 403.543C497.709 403.554 497.661 403.559 497.614 403.559Z" fill="url(#paint35_linear_101_286)"/>
<path d="M477.173 416.129C489.999 414.321 545.501 406.625 561.894 406.507C563.305 406.497 564.57 407.369 565.045 408.691C566.551 412.882 569.752 422.655 570.795 432.614C570.937 433.97 570.092 435.237 568.79 435.66L532.831 447.347L519.741 449.022L479.477 446.242C478.058 446.144 476.888 445.102 476.637 443.708C475.742 438.745 473.843 427.073 474.229 419.355C474.311 417.715 475.539 416.36 477.173 416.129Z" fill="url(#paint36_linear_101_286)"/>
<path d="M519.678 446.042L517.738 445.913C517.607 445.903 517.509 445.79 517.518 445.66C517.527 445.529 517.65 445.439 517.771 445.439L519.664 445.57L520.678 445.436C520.829 445.423 520.927 445.512 520.943 445.641C520.96 445.771 520.868 445.89 520.738 445.907L519.678 446.042ZM513.338 445.608C513.332 445.608 513.327 445.608 513.321 445.608L511.429 445.477C511.298 445.467 511.199 445.355 511.208 445.224C511.217 445.093 511.338 445.002 511.461 445.004L513.354 445.134C513.485 445.144 513.583 445.257 513.574 445.387C513.566 445.513 513.462 445.608 513.338 445.608ZM525.1 445.346C524.982 445.346 524.88 445.258 524.864 445.139C524.848 445.009 524.94 444.89 525.07 444.873L526.952 444.633C527.101 444.613 527.2 444.709 527.217 444.838C527.234 444.968 527.142 445.087 527.012 445.103L525.13 445.344C525.119 445.345 525.109 445.346 525.1 445.346ZM507.028 445.173C507.022 445.173 507.017 445.172 507.011 445.172L505.119 445.041C504.988 445.032 504.889 444.919 504.898 444.788C504.907 444.657 505.026 444.565 505.151 444.568L507.044 444.699C507.175 444.708 507.273 444.821 507.264 444.952C507.256 445.077 507.152 445.173 507.028 445.173ZM500.718 444.737C500.713 444.737 500.708 444.736 500.702 444.736L498.809 444.606C498.678 444.596 498.58 444.483 498.589 444.353C498.598 444.222 498.714 444.128 498.842 444.132L500.735 444.263C500.865 444.272 500.964 444.385 500.955 444.516C500.946 444.641 500.842 444.737 500.718 444.737ZM531.373 444.544C531.255 444.544 531.153 444.456 531.138 444.337C531.121 444.206 531.213 444.088 531.343 444.071L532.097 443.974L533.135 443.632C533.26 443.595 533.394 443.661 533.435 443.785C533.475 443.91 533.406 444.044 533.282 444.084L532.201 444.436L531.403 444.541C531.393 444.543 531.383 444.544 531.373 444.544ZM494.408 444.301C494.403 444.301 494.398 444.301 494.392 444.301L492.499 444.17C492.368 444.16 492.27 444.048 492.279 443.917C492.288 443.786 492.402 443.707 492.532 443.697L494.425 443.827C494.555 443.837 494.654 443.95 494.645 444.08C494.636 444.206 494.532 444.301 494.408 444.301ZM488.098 443.866C488.093 443.866 488.088 443.865 488.082 443.865L486.189 443.734C486.058 443.725 485.96 443.612 485.969 443.481C485.978 443.351 486.09 443.27 486.222 443.261L488.115 443.392C488.245 443.401 488.344 443.514 488.335 443.645C488.326 443.77 488.222 443.866 488.098 443.866ZM481.788 443.43C481.783 443.43 481.778 443.429 481.772 443.429L479.879 443.299C479.748 443.289 479.65 443.176 479.659 443.046C479.668 442.915 479.795 442.833 479.912 442.825L481.805 442.956C481.935 442.965 482.034 443.078 482.025 443.209C482.016 443.334 481.912 443.43 481.788 443.43ZM537.42 442.727C537.32 442.727 537.227 442.663 537.194 442.563C537.153 442.438 537.222 442.304 537.346 442.263L539.151 441.677C539.275 441.64 539.409 441.706 539.45 441.83C539.491 441.955 539.422 442.089 539.298 442.129L537.493 442.715C537.469 442.723 537.444 442.727 537.42 442.727ZM543.435 440.772C543.335 440.772 543.242 440.708 543.209 440.608C543.169 440.483 543.237 440.349 543.361 440.308L545.166 439.722C545.289 439.685 545.424 439.751 545.465 439.875C545.506 440 545.437 440.134 545.313 440.174L543.509 440.76C543.484 440.768 543.459 440.772 543.435 440.772ZM479.056 439.043C478.94 439.043 478.84 438.959 478.822 438.842C478.727 438.243 478.63 437.614 478.535 436.962C478.516 436.833 478.605 436.712 478.735 436.693C478.86 436.673 478.985 436.764 479.004 436.894C479.1 437.544 479.196 438.17 479.29 438.768C479.311 438.898 479.223 439.019 479.093 439.04C479.08 439.041 479.068 439.043 479.056 439.043ZM549.45 438.817C549.35 438.817 549.257 438.753 549.224 438.653C549.184 438.528 549.253 438.394 549.377 438.353L551.181 437.767C551.307 437.73 551.44 437.796 551.481 437.92C551.521 438.045 551.453 438.179 551.328 438.219L549.524 438.805C549.499 438.813 549.474 438.817 549.45 438.817ZM555.465 436.862C555.366 436.862 555.273 436.798 555.24 436.698C555.199 436.573 555.268 436.439 555.392 436.399L557.197 435.812C557.322 435.776 557.455 435.841 557.496 435.965C557.536 436.09 557.468 436.224 557.344 436.264L555.539 436.85C555.515 436.858 555.49 436.862 555.465 436.862ZM561.481 434.907C561.381 434.907 561.288 434.843 561.255 434.743C561.214 434.618 561.283 434.484 561.407 434.443L563.212 433.857C563.337 433.82 563.47 433.886 563.511 434.01C563.552 434.135 563.483 434.269 563.359 434.309L561.554 434.895C561.53 434.903 561.505 434.907 561.481 434.907ZM567.496 432.952C567.396 432.952 567.303 432.888 567.27 432.787C567.242 432.699 567.268 432.607 567.33 432.545C567.27 432.004 567.203 431.464 567.13 430.926C567.113 430.796 567.204 430.676 567.334 430.659C567.466 430.638 567.583 430.733 567.601 430.862C567.681 431.46 567.755 432.061 567.82 432.661L567.84 432.853L567.569 432.941C567.544 432.948 567.52 432.952 567.496 432.952ZM478.173 432.776C478.054 432.776 477.953 432.688 477.938 432.568C477.862 431.944 477.789 431.313 477.719 430.679C477.705 430.548 477.8 430.431 477.93 430.417C478.069 430.409 478.177 430.498 478.191 430.627C478.259 431.259 478.332 431.888 478.409 432.509C478.425 432.64 478.332 432.758 478.202 432.774C478.192 432.775 478.183 432.776 478.173 432.776ZM566.65 426.761C566.538 426.761 566.439 426.681 566.417 426.568C566.298 425.943 566.172 425.323 566.044 424.712C566.017 424.584 566.098 424.458 566.226 424.431C566.36 424.406 566.481 424.486 566.507 424.613C566.638 425.229 566.763 425.851 566.883 426.479C566.907 426.607 566.823 426.731 566.694 426.756C566.679 426.759 566.664 426.761 566.65 426.761ZM477.557 426.479C477.433 426.479 477.329 426.383 477.32 426.257C477.276 425.617 477.238 424.982 477.21 424.356C477.204 424.226 477.305 424.114 477.436 424.109C477.579 424.085 477.678 424.204 477.684 424.335C477.712 424.956 477.749 425.587 477.794 426.225C477.802 426.355 477.704 426.469 477.573 426.478C477.568 426.478 477.562 426.479 477.557 426.479ZM565.267 420.587C565.162 420.587 565.065 420.515 565.037 420.409C564.877 419.782 564.714 419.171 564.552 418.577C564.518 418.451 564.592 418.32 564.718 418.286C564.849 418.249 564.976 418.326 565.01 418.452C565.173 419.049 565.335 419.662 565.497 420.29C565.53 420.418 565.453 420.547 565.327 420.58C565.306 420.584 565.287 420.587 565.267 420.587ZM477.408 420.155C477.406 420.155 477.402 420.155 477.399 420.155C477.268 420.15 477.166 420.039 477.172 419.908L477.189 419.504C477.2 419.28 477.367 419.096 477.586 419.064L478.754 418.9C478.885 418.872 479.005 418.972 479.022 419.102C479.04 419.232 478.95 419.351 478.821 419.37L477.653 419.533L477.645 419.927C477.64 420.055 477.535 420.155 477.408 420.155ZM483.175 418.76C483.059 418.76 482.957 418.674 482.941 418.555C482.922 418.426 483.013 418.306 483.143 418.288L485.023 418.028C485.164 418.005 485.273 418.102 485.29 418.231C485.309 418.361 485.217 418.48 485.088 418.498L483.208 418.757C483.197 418.759 483.186 418.76 483.175 418.76ZM489.444 417.899C489.326 417.899 489.225 417.813 489.209 417.694C489.191 417.564 489.282 417.444 489.411 417.427L491.293 417.17C491.427 417.153 491.542 417.244 491.56 417.374C491.577 417.504 491.487 417.623 491.356 417.641L489.476 417.896C489.465 417.898 489.454 417.899 489.444 417.899ZM495.715 417.053C495.597 417.053 495.495 416.966 495.479 416.847C495.462 416.717 495.553 416.597 495.683 416.58L497.565 416.329C497.689 416.312 497.814 416.404 497.831 416.533C497.848 416.663 497.757 416.782 497.627 416.8L495.746 417.05C495.735 417.052 495.725 417.053 495.715 417.053ZM501.986 416.22C501.869 416.22 501.767 416.133 501.751 416.013C501.734 415.883 501.826 415.764 501.955 415.747L503.837 415.5C503.969 415.479 504.087 415.575 504.103 415.705C504.12 415.835 504.029 415.953 503.899 415.971L502.017 416.218C502.006 416.219 501.996 416.22 501.986 416.22ZM508.261 415.404C508.143 415.404 508.041 415.316 508.026 415.197C508.009 415.067 508.101 414.948 508.231 414.931L510.113 414.689C510.25 414.67 510.362 414.765 510.379 414.895C510.395 415.024 510.303 415.143 510.173 415.16L508.291 415.402C508.281 415.403 508.27 415.404 508.261 415.404ZM514.576 414.601L514.517 414.13L516.388 413.895C516.523 413.878 516.638 413.971 516.653 414.101C516.67 414.231 516.577 414.35 516.448 414.366L514.576 414.601ZM563.536 414.501C563.435 414.501 563.341 414.436 563.31 414.335C563.109 413.691 562.914 413.088 562.73 412.53C562.689 412.406 562.757 412.272 562.881 412.231C563.005 412.19 563.14 412.258 563.181 412.382C563.366 412.941 563.561 413.546 563.763 414.193C563.802 414.319 563.732 414.451 563.607 414.491C563.583 414.498 563.56 414.501 563.536 414.501ZM520.813 413.826C520.694 413.826 520.593 413.738 520.578 413.618C520.561 413.488 520.654 413.369 520.784 413.354L522.668 413.124C522.795 413.111 522.915 413.201 522.932 413.331C522.948 413.461 522.855 413.58 522.725 413.595L520.842 413.824C520.832 413.826 520.822 413.826 520.813 413.826ZM527.092 413.072C526.973 413.072 526.871 412.983 526.856 412.862C526.841 412.732 526.934 412.614 527.064 412.599L528.949 412.379C529.088 412.363 529.197 412.457 529.212 412.586C529.227 412.717 529.134 412.835 529.004 412.849L527.119 413.07C527.11 413.071 527.101 413.072 527.092 413.072ZM533.376 412.348C533.257 412.348 533.154 412.258 533.14 412.137C533.126 412.006 533.22 411.889 533.35 411.874L535.235 411.664C535.367 411.653 535.484 411.744 535.498 411.874C535.512 412.004 535.418 412.121 535.288 412.136L533.402 412.346C533.394 412.347 533.385 412.348 533.376 412.348ZM539.664 411.66C539.544 411.66 539.441 411.57 539.428 411.448C539.414 411.318 539.509 411.201 539.639 411.187L541.526 410.991C541.656 410.978 541.773 411.072 541.787 411.202C541.8 411.332 541.705 411.449 541.575 411.463L539.689 411.659C539.68 411.66 539.672 411.66 539.664 411.66ZM545.958 411.026C545.836 411.026 545.733 410.934 545.722 410.811C545.709 410.681 545.805 410.565 545.935 410.553C546.58 410.492 547.211 410.432 547.826 410.376C547.962 410.36 548.072 410.461 548.083 410.591C548.095 410.722 547.999 410.837 547.869 410.848C547.254 410.904 546.625 410.964 545.98 411.025C545.973 411.026 545.965 411.026 545.958 411.026ZM552.258 410.467C552.135 410.467 552.032 410.373 552.022 410.249C552.011 410.119 552.108 410.004 552.239 409.993C552.893 409.941 553.524 409.892 554.133 409.848C554.285 409.857 554.378 409.937 554.387 410.067C554.397 410.198 554.298 410.312 554.168 410.321C553.559 410.366 552.929 410.414 552.277 410.467C552.271 410.467 552.264 410.467 552.258 410.467ZM558.569 410.048C558.443 410.048 558.339 409.949 558.333 409.822C558.326 409.691 558.427 409.58 558.558 409.574C559.236 409.541 559.87 409.517 560.458 409.498C560.461 409.498 560.463 409.498 560.465 409.498C560.593 409.498 560.699 409.6 560.703 409.729C560.706 409.86 560.604 409.969 560.473 409.973C559.887 409.99 559.256 410.015 558.581 410.047C558.577 410.048 558.573 410.048 558.569 410.048Z" fill="white"/>
<path d="M532.302 453L520.834 454.468C519.331 454.66 517.923 453.704 517.555 452.241L514.817 441.376C514.381 439.645 515.563 437.922 517.341 437.695L531.118 435.932C532.86 435.709 534.418 437.021 534.485 438.768L534.914 449.929C534.973 451.471 533.84 452.804 532.302 453Z" fill="url(#paint37_linear_101_286)"/>
<path d="M530.632 451.152L521.904 452.268C520.76 452.415 519.688 451.687 519.407 450.574L517.324 442.304C516.992 440.987 517.891 439.675 519.245 439.502L529.731 438.16C531.057 437.991 532.243 438.99 532.294 440.319L532.62 448.814C532.665 449.987 531.802 451.002 530.632 451.152Z" fill="url(#paint38_linear_101_286)"/>
<path d="M523.811 363.212C526.516 374.39 526.587 385.324 526.176 389.305C526.021 390.806 524.814 391.978 523.309 392.084C521.599 392.203 519.272 392.36 517.192 392.48C514.906 392.612 512.368 391.167 510.671 389.96C509.805 389.343 508.685 390.303 509.169 391.25C510.002 392.881 511.45 394.165 512.887 395.257C513.751 395.914 516.625 397.081 516.424 398.374C516.361 398.783 516.115 399.138 515.851 399.455C514.254 401.371 511.838 402.394 509.454 403.126C509.155 403.218 508.839 403.316 508.628 403.547C508.569 405.089 513.312 406.802 514.536 407.208C516.37 407.817 518.315 408.075 520.241 407.872C525.013 407.369 529.421 404.075 531.991 400.103C538.863 389.486 542.415 376.664 543.713 366.858C537.321 360.468 527.671 362.088 523.811 363.212Z" fill="url(#paint39_linear_101_286)"/>
<path d="M543.714 367.868C548.811 329.359 519.135 299.748 519.135 299.748L501.479 320.332C514.884 337.041 521.256 352.352 524.167 364.378C528.027 363.254 537.321 361.478 543.714 367.868Z" fill="url(#paint40_linear_101_286)"/>
<path d="M523.745 364.19C523.253 364.19 522.805 363.854 522.683 363.354C519.095 348.529 511.532 333.853 500.205 319.735C499.827 319.264 499.903 318.575 500.373 318.197C500.844 317.82 501.533 317.895 501.911 318.366C513.44 332.737 521.144 347.701 524.809 362.839C524.951 363.426 524.59 364.017 524.003 364.159C523.917 364.18 523.831 364.19 523.745 364.19Z" fill="url(#paint41_linear_101_286)"/>
<path d="M284.614 592.481C284.617 592.294 284.605 592.103 284.557 591.912C281.717 580.654 267.623 573.641 267.623 573.641L262.037 574.079C258.826 584.002 259.239 590.088 259.755 592.798C259.769 592.874 259.792 592.947 259.812 593.02C264.419 593.432 273.902 593.7 284.614 592.481Z" fill="url(#paint42_linear_101_286)"/>
<path d="M259.812 593.02C260.061 593.925 260.729 594.63 261.584 594.81C268.138 596.188 278.554 595.079 282.928 594.507C283.893 594.381 284.598 593.489 284.614 592.481C273.902 593.7 264.419 593.432 259.812 593.02Z" fill="url(#paint43_linear_101_286)"/>
<path d="M259.792 565.76L262.157 577.147C262.33 577.982 262.972 578.607 263.748 578.679C264.699 578.769 266.052 578.821 267.413 578.621C268.633 578.442 269.483 577.202 269.267 575.871L267.623 565.76H259.792Z" fill="url(#paint44_linear_101_286)"/>
<path d="M308.802 592.876C302.634 592.703 299.444 591.977 297.794 591.302C297.791 591.916 297.794 592.54 297.814 593.187C297.835 593.877 298.347 594.429 298.976 594.425L332.844 594.206C333.925 594.199 334.556 592.946 334.088 591.955C329.647 592.322 318.337 593.143 308.802 592.876Z" fill="url(#paint45_linear_101_286)"/>
<path d="M334.088 591.955C334.047 591.869 334.012 591.781 333.954 591.7C330.963 587.52 323.345 579.198 308.292 575.589L301.071 575.361C301.071 575.361 297.855 580.95 297.794 591.303C299.444 591.977 302.634 592.703 308.803 592.876C318.337 593.143 329.647 592.322 334.088 591.955Z" fill="url(#paint46_linear_101_286)"/>
<path d="M299.41 564.752C299.524 565.285 301.027 573.387 301.609 576.529C301.747 577.275 302.328 577.823 303.021 577.862C304.257 577.931 306.251 577.939 307.966 577.474C308.892 577.222 309.513 576.279 309.447 575.232L308.639 562.416L299.41 564.752Z" fill="url(#paint47_linear_101_286)"/>
<path d="M293.938 415.147C293.938 415.147 303.871 483.407 311.04 564.636C311.174 566.149 309.968 567.465 308.482 567.778C306.292 568.239 303.073 568.787 300.408 568.712C298.985 568.672 297.796 567.617 297.557 566.214C295.115 551.893 277.688 475.029 273.114 458.112C273.114 458.112 267.86 529.971 269.54 567.252C269.582 568.179 268.903 568.983 267.981 569.09C266.583 569.251 264.346 569.374 261.499 569.072C260.418 568.957 259.546 568.14 259.392 567.064C257.652 554.943 247.64 482.795 248.065 430.821C248.089 427.891 251.504 403.809 251.504 403.809L293.938 415.147Z" fill="url(#paint48_linear_101_286)"/>
<path d="M250.012 419.081C248.99 418.718 248.278 417.792 248.167 416.714C246.846 403.898 240.45 324.433 280.83 291.744C280.83 291.744 283.146 285.686 302.18 300.579C321.215 315.472 311.024 331.083 306.467 352.614C300.952 378.669 291.277 399.967 295.558 416C295.853 417.107 295.271 418.269 294.197 418.665C279.411 424.114 264.682 424.294 250.012 419.081Z" fill="url(#paint49_linear_101_286)"/>
<path d="M296.582 267.935C296.569 269.066 280.445 291.968 280.445 291.968C280.445 291.968 283.339 297.668 297.156 302.296L309.082 277.774L296.582 267.935Z" fill="url(#paint50_linear_101_286)"/>
<path d="M309.277 254.812C309.277 254.812 315.014 267.991 315.399 274.909C315.785 281.826 317.275 286.315 309.277 287.708C301.278 289.101 294.54 285.116 290.89 278.225C290.89 278.225 285.17 267.608 286.453 263.26C287.736 258.911 309.277 254.812 309.277 254.812Z" fill="url(#paint51_linear_101_286)"/>
<path d="M293.623 273.271L294.078 273.07C294.658 272.815 294.906 272.125 294.615 271.562C293.487 269.383 291.288 264.389 294.129 263.224C297.789 261.723 312.29 258.766 315.418 253.621C318.425 248.676 315.761 242.292 311.757 240.477C311.489 240.355 311.173 240.452 311.036 240.712L310.702 241.343C310.474 241.775 309.835 241.71 309.699 241.24C309.569 240.789 308.969 240.702 308.721 241.1C307.759 242.639 305.163 245.135 298.22 246.417C288.352 248.238 281.828 252.231 281.666 259.05C281.655 259.483 281.195 259.724 280.825 259.498C280.096 259.054 278.93 258.845 277.372 260.156C274.662 262.434 275.771 268.345 281.712 273.208C281.994 273.439 281.992 273.879 281.686 274.078C280.609 274.779 279.004 276.447 283.163 278.671C287.466 280.971 290.679 280.782 291.917 280.578C292.224 280.527 292.423 280.229 292.356 279.925L291.035 273.932C290.96 273.592 291.218 273.271 291.566 273.271H293.623Z" fill="url(#paint52_linear_101_286)"/>
<path d="M293.872 274.536C293.872 274.536 291.683 266.117 287.908 268.477C284.134 270.838 289.867 277.91 292.901 278.225L293.872 274.536Z" fill="url(#paint53_linear_101_286)"/>
<path d="M308.303 307.49L309.415 337.347C312.573 338.434 315.579 339.279 318.442 339.91C320.232 334.146 324.175 327.07 327.403 321.809C315.542 317.616 308.303 307.49 308.303 307.49Z" fill="url(#paint54_linear_101_286)"/>
<path d="M367.526 306.982C351.254 324.551 338.084 325.585 327.404 321.809C324.175 327.07 320.232 334.146 318.442 339.911C361.895 349.491 372.128 309.543 372.128 309.543L367.526 306.982Z" fill="url(#paint55_linear_101_286)"/>
<path d="M370.826 305.116C370.826 305.116 372.701 303.103 376.17 303.736C379.639 304.369 382.727 305.574 384.888 303.736C387.05 301.898 387.81 304.365 387.81 304.365L381.337 309.285L370.826 305.116Z" fill="url(#paint56_linear_101_286)"/>
<path d="M366.955 308.557C366.955 308.557 368.24 303.187 372.11 303.923C375.98 304.659 384.767 309.437 387.032 308.557C389.296 307.677 392.192 305.57 393.677 306.314L391.061 309.568C391.061 309.568 397.788 305.687 398.946 308.071L387.752 314.37C387.752 314.37 371.376 312.731 366.955 308.557Z" fill="url(#paint57_linear_101_286)"/>
<path d="M290.24 346.567C290.24 346.567 320.832 372.188 353.866 361.009C355.915 360.315 358.155 360.466 360.068 361.476L369.565 366.492C373.551 368.597 378.488 367.215 380.801 363.346C382.12 361.139 383.246 358.618 383.47 356.203L364.887 348.68L366.257 346.402C366.257 346.402 357.184 345.633 354.81 352.135C354.81 352.135 337.528 359.323 308.384 327.267C308.384 327.267 295.159 338.512 290.24 346.567Z" fill="url(#paint58_linear_101_286)"/>
<path d="M288.594 346.302C288.493 346.302 288.391 346.274 288.301 346.212C275.42 337.509 269.36 323.462 269.301 323.321C269.188 323.054 269.312 322.747 269.578 322.635C269.845 322.521 270.151 322.645 270.265 322.912C270.323 323.05 276.27 336.82 288.887 345.345C289.127 345.506 289.19 345.832 289.028 346.072C288.927 346.221 288.762 346.302 288.594 346.302Z" fill="url(#paint59_linear_101_286)"/>
<path d="M307.78 326.832C307.608 326.832 307.44 326.747 307.339 326.592C307.3 326.532 303.365 320.406 295.87 306.985C293.565 302.858 290.536 300.245 286.867 299.218C280.791 297.52 274.935 300.778 274.877 300.81C274.625 300.949 274.306 300.865 274.163 300.614C274.02 300.362 274.108 300.043 274.36 299.9C274.612 299.757 280.636 296.386 287.14 298.207C291.092 299.31 294.337 302.091 296.785 306.473C304.261 319.86 308.181 325.964 308.22 326.025C308.377 326.267 308.306 326.591 308.063 326.748C307.975 326.806 307.877 326.832 307.78 326.832Z" fill="url(#paint60_linear_101_286)"/>
</g>
<defs>
<linearGradient id="paint0_linear_101_286" x1="741.887" y1="655.227" x2="356.764" y2="245.257" gradientUnits="userSpaceOnUse">
<stop stop-color="#DAE3FE"/>
<stop offset="1" stop-color="#E9EFFD"/>
</linearGradient>
<linearGradient id="paint1_linear_101_286" x1="539.408" y1="375.92" x2="663.003" y2="375.92" gradientUnits="userSpaceOnUse">
<stop stop-color="#4F52FF"/>
<stop offset="1" stop-color="#4042E2"/>
</linearGradient>
<linearGradient id="paint2_linear_101_286" x1="551.661" y1="462.087" x2="624.522" y2="462.087" gradientUnits="userSpaceOnUse">
<stop stop-color="#DAE3FE"/>
<stop offset="1" stop-color="#E9EFFD"/>
</linearGradient>
<linearGradient id="paint3_linear_101_286" x1="556.487" y1="187.406" x2="380.281" y2="-178.864" gradientUnits="userSpaceOnUse">
<stop stop-color="#4042E2"/>
<stop offset="1" stop-color="#4F52FF"/>
</linearGradient>
<linearGradient id="paint4_linear_101_286" x1="466.165" y1="159.122" x2="-3.44994" y2="760.084" gradientUnits="userSpaceOnUse">
<stop stop-color="white"/>
<stop offset="1" stop-color="white"/>
</linearGradient>
<linearGradient id="paint5_linear_101_286" x1="188.254" y1="236.966" x2="237.01" y2="236.966" gradientUnits="userSpaceOnUse">
<stop stop-color="#DAE3FE"/>
<stop offset="1" stop-color="#E9EFFD"/>
</linearGradient>
<linearGradient id="paint6_linear_101_286" x1="251.324" y1="215.775" x2="457.92" y2="215.775" gradientUnits="userSpaceOnUse">
<stop stop-color="#DAE3FE"/>
<stop offset="1" stop-color="#E9EFFD"/>
</linearGradient>
<linearGradient id="paint7_linear_101_286" x1="255.111" y1="248.941" x2="393.784" y2="248.941" gradientUnits="userSpaceOnUse">
<stop stop-color="#DAE3FE"/>
<stop offset="1" stop-color="#E9EFFD"/>
</linearGradient>
<linearGradient id="paint8_linear_101_286" x1="188.254" y1="331.775" x2="237.01" y2="331.775" gradientUnits="userSpaceOnUse">
<stop stop-color="#DAE3FE"/>
<stop offset="1" stop-color="#E9EFFD"/>
</linearGradient>
<linearGradient id="paint9_linear_101_286" x1="251.324" y1="310.584" x2="457.92" y2="310.584" gradientUnits="userSpaceOnUse">
<stop stop-color="#DAE3FE"/>
<stop offset="1" stop-color="#E9EFFD"/>
</linearGradient>
<linearGradient id="paint10_linear_101_286" x1="188.254" y1="426.584" x2="237.01" y2="426.584" gradientUnits="userSpaceOnUse">
<stop stop-color="#DAE3FE"/>
<stop offset="1" stop-color="#E9EFFD"/>
</linearGradient>
<linearGradient id="paint11_linear_101_286" x1="251.324" y1="405.393" x2="457.92" y2="405.393" gradientUnits="userSpaceOnUse">
<stop stop-color="#DAE3FE"/>
<stop offset="1" stop-color="#E9EFFD"/>
</linearGradient>
<linearGradient id="paint12_linear_101_286" x1="255.111" y1="438.559" x2="393.784" y2="438.559" gradientUnits="userSpaceOnUse">
<stop stop-color="#DAE3FE"/>
<stop offset="1" stop-color="#E9EFFD"/>
</linearGradient>
<linearGradient id="paint13_linear_101_286" x1="418.26" y1="406.144" x2="353.349" y2="572.335" gradientUnits="userSpaceOnUse">
<stop stop-color="#09005D"/>
<stop offset="1" stop-color="#1A0F91"/>
</linearGradient>
<linearGradient id="paint14_linear_101_286" x1="370.784" y1="359.769" x2="359.221" y2="362.038" gradientUnits="userSpaceOnUse">
<stop stop-color="#FEBBBA"/>
<stop offset="1" stop-color="#FF928E"/>
</linearGradient>
<linearGradient id="paint15_linear_101_286" x1="361.039" y1="348.154" x2="414.696" y2="348.154" gradientUnits="userSpaceOnUse">
<stop stop-color="#FEBBBA"/>
<stop offset="1" stop-color="#FF928E"/>
</linearGradient>
<linearGradient id="paint16_linear_101_286" x1="520.241" y1="168.054" x2="487.555" y2="232.505" gradientUnits="userSpaceOnUse">
<stop stop-color="#09005D"/>
<stop offset="1" stop-color="#1A0F91"/>
</linearGradient>
<linearGradient id="paint17_linear_101_286" x1="572.432" y1="194.523" x2="539.746" y2="258.973" gradientUnits="userSpaceOnUse">
<stop stop-color="#09005D"/>
<stop offset="1" stop-color="#1A0F91"/>
</linearGradient>
<linearGradient id="paint18_linear_101_286" x1="481.097" y1="294.486" x2="472.493" y2="268.673" gradientUnits="userSpaceOnUse">
<stop stop-color="#FEBBBA"/>
<stop offset="1" stop-color="#FF928E"/>
</linearGradient>
<linearGradient id="paint19_linear_101_286" x1="460.999" y1="262.809" x2="491.924" y2="276.255" gradientUnits="userSpaceOnUse">
<stop stop-color="#FEBBBA"/>
<stop offset="1" stop-color="#FF928E"/>
</linearGradient>
<linearGradient id="paint20_linear_101_286" x1="483.36" y1="281.339" x2="458.04" y2="254.441" gradientUnits="userSpaceOnUse">
<stop stop-color="#09005D"/>
<stop offset="1" stop-color="#1A0F91"/>
</linearGradient>
<linearGradient id="paint21_linear_101_286" x1="459.072" y1="267.241" x2="489.997" y2="280.687" gradientUnits="userSpaceOnUse">
<stop stop-color="#FEBBBA"/>
<stop offset="1" stop-color="#FF928E"/>
</linearGradient>
<linearGradient id="paint22_linear_101_286" x1="519.726" y1="593.614" x2="481.292" y2="593.614" gradientUnits="userSpaceOnUse">
<stop stop-color="#4042E2"/>
<stop offset="1" stop-color="#4F52FF"/>
</linearGradient>
<linearGradient id="paint23_linear_101_286" x1="612.493" y1="557.655" x2="473.328" y2="597.321" gradientUnits="userSpaceOnUse">
<stop stop-color="#09005D"/>
<stop offset="1" stop-color="#1A0F91"/>
</linearGradient>
<linearGradient id="paint24_linear_101_286" x1="516.178" y1="575.565" x2="505.352" y2="575.565" gradientUnits="userSpaceOnUse">
<stop stop-color="#FEBBBA"/>
<stop offset="1" stop-color="#FF928E"/>
</linearGradient>
<linearGradient id="paint25_linear_101_286" x1="596.346" y1="592.785" x2="581.618" y2="592.785" gradientUnits="userSpaceOnUse">
<stop stop-color="#4042E2"/>
<stop offset="1" stop-color="#4F52FF"/>
</linearGradient>
<linearGradient id="paint26_linear_101_286" x1="534.911" y1="549.593" x2="621.636" y2="606.066" gradientUnits="userSpaceOnUse">
<stop stop-color="#09005D"/>
<stop offset="1" stop-color="#1A0F91"/>
</linearGradient>
<linearGradient id="paint27_linear_101_286" x1="585.002" y1="566.54" x2="572.064" y2="566.54" gradientUnits="userSpaceOnUse">
<stop stop-color="#FEBBBA"/>
<stop offset="1" stop-color="#FF928E"/>
</linearGradient>
<linearGradient id="paint28_linear_101_286" x1="586.827" y1="585.537" x2="389.403" y2="312.589" gradientUnits="userSpaceOnUse">
<stop stop-color="#09005D"/>
<stop offset="1" stop-color="#1A0F91"/>
</linearGradient>
<linearGradient id="paint29_linear_101_286" x1="539.312" y1="550" x2="524.042" y2="440.193" gradientUnits="userSpaceOnUse">
<stop stop-color="#FF928E"/>
<stop offset="1" stop-color="#FE7062"/>
</linearGradient>
<linearGradient id="paint30_linear_101_286" x1="502.981" y1="419.862" x2="500.809" y2="407.095" gradientUnits="userSpaceOnUse">
<stop stop-color="#E1473D"/>
<stop offset="1" stop-color="#E9605A"/>
</linearGradient>
<linearGradient id="paint31_linear_101_286" x1="499.845" y1="400.679" x2="507.2" y2="437.121" gradientUnits="userSpaceOnUse">
<stop stop-color="#E1473D"/>
<stop offset="1" stop-color="#E9605A"/>
</linearGradient>
<linearGradient id="paint32_linear_101_286" x1="538.547" y1="413.812" x2="536.374" y2="401.045" gradientUnits="userSpaceOnUse">
<stop stop-color="#E1473D"/>
<stop offset="1" stop-color="#E9605A"/>
</linearGradient>
<linearGradient id="paint33_linear_101_286" x1="535.174" y1="393.551" x2="542.53" y2="429.992" gradientUnits="userSpaceOnUse">
<stop stop-color="#E1473D"/>
<stop offset="1" stop-color="#E9605A"/>
</linearGradient>
<linearGradient id="paint34_linear_101_286" x1="518.195" y1="377.522" x2="517.977" y2="404.171" gradientUnits="userSpaceOnUse">
<stop stop-color="#E1473D"/>
<stop offset="1" stop-color="#E9605A"/>
</linearGradient>
<linearGradient id="paint35_linear_101_286" x1="502.825" y1="396.062" x2="490.626" y2="326.777" gradientUnits="userSpaceOnUse">
<stop stop-color="#FEBBBA"/>
<stop offset="1" stop-color="#FF928E"/>
</linearGradient>
<linearGradient id="paint36_linear_101_286" x1="521.882" y1="397.786" x2="524.436" y2="521.702" gradientUnits="userSpaceOnUse">
<stop stop-color="#FF928E"/>
<stop offset="1" stop-color="#FE7062"/>
</linearGradient>
<linearGradient id="paint37_linear_101_286" x1="524.763" y1="412.75" x2="524.837" y2="454.29" gradientUnits="userSpaceOnUse">
<stop stop-color="#E1473D"/>
<stop offset="1" stop-color="#E9605A"/>
</linearGradient>
<linearGradient id="paint38_linear_101_286" x1="517.812" y1="446.239" x2="532.815" y2="444.318" gradientUnits="userSpaceOnUse">
<stop stop-color="#FF928E"/>
<stop offset="1" stop-color="#FE7062"/>
</linearGradient>
<linearGradient id="paint39_linear_101_286" x1="534.131" y1="369.461" x2="504.834" y2="425.803" gradientUnits="userSpaceOnUse">
<stop stop-color="#FEBBBA"/>
<stop offset="1" stop-color="#FF928E"/>
</linearGradient>
<linearGradient id="paint40_linear_101_286" x1="593.13" y1="205.019" x2="560.444" y2="269.47" gradientUnits="userSpaceOnUse">
<stop stop-color="#09005D"/>
<stop offset="1" stop-color="#1A0F91"/>
</linearGradient>
<linearGradient id="paint41_linear_101_286" x1="603.602" y1="237.926" x2="418.029" y2="447.809" gradientUnits="userSpaceOnUse">
<stop stop-color="#4042E2"/>
<stop offset="1" stop-color="#4F52FF"/>
</linearGradient>
<linearGradient id="paint42_linear_101_286" x1="259.402" y1="583.504" x2="284.615" y2="583.504" gradientUnits="userSpaceOnUse">
<stop stop-color="#09005D"/>
<stop offset="1" stop-color="#1A0F91"/>
</linearGradient>
<linearGradient id="paint43_linear_101_286" x1="322.521" y1="553.76" x2="230.795" y2="625.782" gradientUnits="userSpaceOnUse">
<stop stop-color="#4042E2"/>
<stop offset="1" stop-color="#4F52FF"/>
</linearGradient>
<linearGradient id="paint44_linear_101_286" x1="266.413" y1="554.8" x2="261.597" y2="596.831" gradientUnits="userSpaceOnUse">
<stop stop-color="#A22B25"/>
<stop offset="1" stop-color="#C0423C"/>
</linearGradient>
<linearGradient id="paint45_linear_101_286" x1="338.815" y1="574.482" x2="247.09" y2="646.505" gradientUnits="userSpaceOnUse">
<stop stop-color="#4042E2"/>
<stop offset="1" stop-color="#4F52FF"/>
</linearGradient>
<linearGradient id="paint46_linear_101_286" x1="297.794" y1="584.145" x2="334.088" y2="584.145" gradientUnits="userSpaceOnUse">
<stop stop-color="#09005D"/>
<stop offset="1" stop-color="#1A0F91"/>
</linearGradient>
<linearGradient id="paint47_linear_101_286" x1="304.987" y1="559.239" x2="302.824" y2="601.49" gradientUnits="userSpaceOnUse">
<stop stop-color="#A22B25"/>
<stop offset="1" stop-color="#C0423C"/>
</linearGradient>
<linearGradient id="paint48_linear_101_286" x1="265.084" y1="602.864" x2="300.739" y2="341.927" gradientUnits="userSpaceOnUse">
<stop stop-color="#4F52FF"/>
<stop offset="1" stop-color="#4042E2"/>
</linearGradient>
<linearGradient id="paint49_linear_101_286" x1="774.985" y1="-295.965" x2="644.689" y2="-122.272" gradientUnits="userSpaceOnUse">
<stop stop-color="#FF928E"/>
<stop offset="1" stop-color="#FE7062"/>
</linearGradient>
<linearGradient id="paint50_linear_101_286" x1="281.021" y1="315.792" x2="306.952" y2="257.446" gradientUnits="userSpaceOnUse">
<stop stop-color="#A22B25"/>
<stop offset="1" stop-color="#C0423C"/>
</linearGradient>
<linearGradient id="paint51_linear_101_286" x1="272.437" y1="224.444" x2="309.266" y2="280.608" gradientUnits="userSpaceOnUse">
<stop stop-color="#A22B25"/>
<stop offset="1" stop-color="#C0423C"/>
</linearGradient>
<linearGradient id="paint52_linear_101_286" x1="275.885" y1="234.266" x2="303.54" y2="266.657" gradientUnits="userSpaceOnUse">
<stop stop-color="#09005D"/>
<stop offset="1" stop-color="#1A0F91"/>
</linearGradient>
<linearGradient id="paint53_linear_101_286" x1="262.807" y1="230.759" x2="299.636" y2="286.923" gradientUnits="userSpaceOnUse">
<stop stop-color="#A22B25"/>
<stop offset="1" stop-color="#C0423C"/>
</linearGradient>
<linearGradient id="paint54_linear_101_286" x1="480.927" y1="153.615" x2="328.547" y2="308.296" gradientUnits="userSpaceOnUse">
<stop stop-color="#FF928E"/>
<stop offset="1" stop-color="#FE7062"/>
</linearGradient>
<linearGradient id="paint55_linear_101_286" x1="389.008" y1="304.473" x2="318.645" y2="339.475" gradientUnits="userSpaceOnUse">
<stop stop-color="#A22B25"/>
<stop offset="1" stop-color="#C0423C"/>
</linearGradient>
<linearGradient id="paint56_linear_101_286" x1="387.979" y1="295.695" x2="363.91" y2="320.833" gradientUnits="userSpaceOnUse">
<stop stop-color="#A22B25"/>
<stop offset="1" stop-color="#C0423C"/>
</linearGradient>
<linearGradient id="paint57_linear_101_286" x1="389.343" y1="304.059" x2="318.98" y2="339.06" gradientUnits="userSpaceOnUse">
<stop stop-color="#A22B25"/>
<stop offset="1" stop-color="#C0423C"/>
</linearGradient>
<linearGradient id="paint58_linear_101_286" x1="418.747" y1="363.447" x2="214.546" y2="326.522" gradientUnits="userSpaceOnUse">
<stop stop-color="#A22B25"/>
<stop offset="1" stop-color="#C0423C"/>
</linearGradient>
<linearGradient id="paint59_linear_101_286" x1="346.252" y1="207.856" x2="161.886" y2="555.873" gradientUnits="userSpaceOnUse">
<stop stop-color="#E1473D"/>
<stop offset="1" stop-color="#E9605A"/>
</linearGradient>
<linearGradient id="paint60_linear_101_286" x1="346.895" y1="208.197" x2="162.529" y2="556.215" gradientUnits="userSpaceOnUse">
<stop stop-color="#E1473D"/>
<stop offset="1" stop-color="#E9605A"/>
</linearGradient>
<clipPath id="clip0_101_286">
<rect width="844" height="595" fill="white"/>
</clipPath>
</defs>
</svg>
