<svg width="844" height="595" viewBox="0 0 844 595" fill="none" xmlns="http://www.w3.org/2000/svg">
<g clip-path="url(#clip0_101_286)">
<path d="M625.503 489.708C623.316 474.975 622.738 460.047 623.779 445.188L625.503 420.597C616.006 439.492 618.152 464.361 625.503 489.708Z" fill="#CACACA"/>
<path d="M632.908 493.822C631.855 485.03 631.578 476.162 632.079 467.322L632.908 452.684C628.339 463.931 629.372 478.734 632.908 493.822Z" fill="#CACACA"/>
<path d="M665.825 511.924V520.152C665.821 520.805 665.56 521.431 665.098 521.893C664.636 522.356 664.01 522.617 663.356 522.62H659.242C659.134 522.62 659.027 522.641 658.927 522.682C658.827 522.723 658.736 522.784 658.659 522.86C658.583 522.937 658.522 523.027 658.481 523.127C658.44 523.227 658.419 523.335 658.419 523.443V590.908C658.416 591.562 658.155 592.188 657.693 592.65C657.23 593.112 656.605 593.373 655.951 593.376H605.759C605.104 593.376 604.477 593.116 604.014 592.653C603.551 592.19 603.291 591.563 603.29 590.908V523.443C603.29 523.225 603.203 523.016 603.049 522.862C602.895 522.708 602.686 522.621 602.468 522.62H597.531C596.876 522.62 596.249 522.359 595.786 521.897C595.323 521.434 595.063 520.806 595.062 520.152V511.924C595.062 511.6 595.125 511.279 595.249 510.979C595.373 510.68 595.555 510.407 595.784 510.178C596.014 509.949 596.286 509.767 596.586 509.643C596.885 509.519 597.206 509.456 597.531 509.456H663.356C664.01 509.458 664.637 509.719 665.1 510.181C665.562 510.644 665.823 511.27 665.825 511.924Z" fill="#F2F2F2"/>
<path d="M658.493 524.348H603.364V526.816H658.493V524.348Z" fill="#E6E6E6"/>
<path d="M658.419 560.668C639.972 568.301 621.323 568.385 602.468 560.668V543.279C620.62 537.183 640.267 537.183 658.419 543.279V560.668Z" fill="#E6E6E6"/>
<path d="M393.487 284.001C410.027 284.001 423.435 270.594 423.435 254.056C423.435 237.518 410.027 224.112 393.487 224.112C376.948 224.112 363.54 237.518 363.54 254.056C363.54 270.594 376.948 284.001 393.487 284.001Z" fill="#2F2E41"/>
<path d="M401.831 224.936C407.013 224.937 412.107 226.282 416.614 228.841C421.121 231.399 424.887 235.083 427.544 239.533C430.2 243.983 431.657 249.046 431.771 254.227C431.885 259.408 430.652 264.53 428.193 269.092C430.79 265.844 432.681 262.09 433.746 258.071C434.812 254.051 435.028 249.854 434.381 245.747C433.735 241.639 432.24 237.711 429.991 234.213C427.743 230.715 424.79 227.724 421.321 225.43C417.853 223.137 413.944 221.591 409.845 220.891C405.746 220.191 401.546 220.352 397.513 221.365C393.479 222.378 389.701 224.22 386.419 226.773C383.137 229.327 380.423 232.536 378.45 236.196C381.25 232.682 384.806 229.844 388.854 227.895C392.902 225.945 397.337 224.934 401.831 224.936Z" fill="#2F2E41"/>
<path d="M337.527 253.993C386.111 253.993 425.496 214.611 425.496 166.031C425.496 117.45 386.111 78.0685 337.527 78.0685C288.942 78.0685 249.557 117.45 249.557 166.031C249.557 214.611 288.942 253.993 337.527 253.993Z" fill="#2F2E41"/>
<path d="M268.485 111.454C283.643 94.4086 304.831 83.9184 327.578 82.1976C350.324 80.4768 372.85 87.6601 390.4 102.231C389.68 101.548 388.969 100.858 388.221 100.194C370.782 84.7058 347.906 76.7768 324.622 78.1501C301.338 79.5234 279.553 90.0866 264.056 107.517C248.559 124.948 240.619 147.819 241.983 171.101C243.346 194.384 253.901 216.172 271.326 231.675C272.074 232.339 272.842 232.965 273.605 233.6C257.077 217.879 247.304 196.352 246.349 173.562C245.394 150.772 253.331 128.503 268.485 111.454Z" fill="#2F2E41"/>
<path d="M336.781 253.247C368.073 253.247 393.44 227.883 393.44 196.594C393.44 165.305 368.073 139.94 336.781 139.94C305.49 139.94 280.123 165.305 280.123 196.594C280.123 227.883 305.49 253.247 336.781 253.247Z" fill="#FFB8B8"/>
<path d="M365.725 268.627L305.093 271.353C305.093 271.353 310.153 302.706 277.351 305.688C244.549 308.67 214.728 299.724 202.8 322.087C190.872 344.451 196.014 424.08 196.014 424.08C196.014 424.08 218.379 504.588 236.271 516.515C254.163 528.442 410.719 512.043 410.719 512.043L476.239 429.32L474.02 365.525C472.861 332.211 442.442 307.199 409.681 313.364C409.037 313.485 408.389 313.615 407.737 313.755C407.737 313.755 400.54 308.376 380.792 298.503C368.716 292.466 365.725 268.627 365.725 268.627Z" fill="#CACACA"/>
<path d="M234.112 304.197C234.112 304.197 248.522 330.342 242.558 367.614C236.594 404.886 261.618 483.716 261.618 483.716L279.51 479.243C279.51 479.243 267.582 401.717 270.564 383.827C273.546 365.936 274.369 313.142 259.459 304.197C244.549 295.252 234.112 304.197 234.112 304.197Z" fill="#2F2E41"/>
<path d="M406.688 317.906L412.956 482.97L424.884 490.425C424.884 490.425 442.03 309.282 433.084 309.282H414.881C413.804 309.282 412.737 309.495 411.742 309.907C410.747 310.319 409.842 310.923 409.08 311.685C408.319 312.447 407.714 313.351 407.302 314.346C406.89 315.342 406.677 316.408 406.677 317.486C406.677 317.626 406.681 317.766 406.688 317.906Z" fill="#2F2E41"/>
<path d="M269.818 479.989C273.936 479.989 277.273 476.651 277.273 472.534C277.273 468.417 273.936 465.08 269.818 465.08C265.701 465.08 262.363 468.417 262.363 472.534C262.363 476.651 265.701 479.989 269.818 479.989Z" fill="#DBFE01"/>
<path d="M418.92 487.443C423.037 487.443 426.375 484.106 426.375 479.989C426.375 475.872 423.037 472.534 418.92 472.534C414.802 472.534 411.465 475.872 411.465 479.989C411.465 484.106 414.802 487.443 418.92 487.443Z" fill="#DBFE01"/>
<path d="M288.323 125.776V182.43H301.445L318.144 164.539L315.908 182.43H373.907L370.329 164.539L377.486 182.43H386.73V125.776H288.323Z" fill="#2F2E41"/>
<path d="M279.378 192.867C281.848 192.867 283.851 189.195 283.851 184.667C283.851 180.138 281.848 176.467 279.378 176.467C276.907 176.467 274.905 180.138 274.905 184.667C274.905 189.195 276.907 192.867 279.378 192.867Z" fill="#FFB8B8"/>
<path d="M394.185 192.867C396.656 192.867 398.658 189.195 398.658 184.667C398.658 180.138 396.656 176.467 394.185 176.467C391.715 176.467 389.712 180.138 389.712 184.667C389.712 189.195 391.715 192.867 394.185 192.867Z" fill="#FFB8B8"/>
<path d="M518.285 578.598V583.592C518.288 584.963 518.034 586.322 517.536 587.599C517.315 588.168 517.048 588.719 516.738 589.245C515.757 590.891 514.366 592.253 512.7 593.2C511.034 594.146 509.15 594.643 507.234 594.642H139.804C137.888 594.643 136.005 594.146 134.339 593.2C132.673 592.253 131.281 590.891 130.301 589.245C129.991 588.719 129.724 588.168 129.503 587.599C129.005 586.322 128.751 584.963 128.754 583.592V578.598C128.754 577.148 129.039 575.711 129.594 574.371C130.149 573.03 130.962 571.812 131.988 570.786C133.013 569.76 134.231 568.946 135.571 568.391C136.911 567.835 138.348 567.549 139.798 567.549H160.984V565.22C160.984 565.16 160.995 565.1 161.018 565.044C161.042 564.988 161.075 564.938 161.118 564.895C161.161 564.852 161.211 564.818 161.267 564.795C161.323 564.772 161.383 564.76 161.443 564.76H172.495C172.617 564.759 172.734 564.808 172.82 564.894C172.907 564.98 172.956 565.097 172.956 565.219V567.549H179.859V565.22C179.859 565.16 179.871 565.1 179.894 565.044C179.917 564.988 179.951 564.938 179.993 564.895C180.036 564.852 180.087 564.818 180.142 564.795C180.198 564.772 180.258 564.76 180.318 564.76H191.37C191.492 564.759 191.61 564.808 191.696 564.894C191.782 564.98 191.831 565.097 191.831 565.219V567.549H198.743V565.22C198.743 565.16 198.755 565.1 198.778 565.044C198.801 564.988 198.834 564.938 198.877 564.895C198.92 564.852 198.97 564.818 199.026 564.795C199.082 564.772 199.142 564.76 199.202 564.76H210.254C210.376 564.759 210.493 564.808 210.58 564.894C210.666 564.98 210.715 565.097 210.715 565.219V567.549H217.618V565.22C217.618 565.16 217.63 565.1 217.653 565.044C217.676 564.988 217.71 564.938 217.753 564.895C217.795 564.852 217.846 564.818 217.902 564.795C217.957 564.772 218.017 564.76 218.078 564.76H229.13C229.252 564.759 229.369 564.808 229.455 564.894C229.542 564.98 229.59 565.097 229.59 565.219V567.549H236.494V565.22C236.494 565.16 236.506 565.1 236.529 565.044C236.552 564.989 236.585 564.938 236.628 564.895C236.671 564.852 236.721 564.818 236.777 564.795C236.833 564.772 236.893 564.76 236.953 564.76H248.005C248.127 564.759 248.244 564.808 248.331 564.894C248.417 564.98 248.466 565.097 248.466 565.219V567.549H255.378V565.22C255.377 565.16 255.389 565.1 255.412 565.044C255.435 564.989 255.469 564.938 255.512 564.895C255.554 564.852 255.605 564.818 255.661 564.795C255.717 564.772 255.776 564.76 255.837 564.76H266.889C267.011 564.76 267.128 564.808 267.214 564.894C267.301 564.98 267.349 565.097 267.35 565.219V567.549H274.253V565.22C274.253 565.16 274.265 565.1 274.288 565.044C274.311 564.989 274.345 564.938 274.387 564.895C274.43 564.852 274.48 564.818 274.536 564.795C274.592 564.772 274.652 564.76 274.712 564.76H361.274C361.335 564.76 361.395 564.771 361.45 564.794C361.506 564.817 361.557 564.851 361.6 564.894C361.643 564.937 361.677 564.987 361.7 565.043C361.723 565.099 361.735 565.159 361.735 565.219V567.549H368.647V565.22C368.647 565.16 368.659 565.1 368.682 565.044C368.705 564.989 368.738 564.938 368.781 564.895C368.824 564.852 368.874 564.818 368.93 564.795C368.986 564.772 369.046 564.76 369.106 564.76H380.158C380.28 564.761 380.396 564.81 380.483 564.896C380.569 564.982 380.618 565.099 380.619 565.22V567.549H387.522V565.22C387.522 565.16 387.534 565.1 387.557 565.044C387.58 564.989 387.614 564.938 387.657 564.895C387.699 564.852 387.75 564.818 387.806 564.795C387.861 564.772 387.921 564.76 387.982 564.76H399.034C399.094 564.76 399.154 564.771 399.21 564.794C399.265 564.818 399.316 564.851 399.359 564.894C399.402 564.937 399.436 564.987 399.459 565.043C399.482 565.099 399.494 565.159 399.494 565.219V567.549H406.398V565.221C406.398 565.16 406.409 565.1 406.433 565.044C406.456 564.989 406.489 564.938 406.532 564.895C406.575 564.852 406.625 564.818 406.681 564.795C406.737 564.772 406.797 564.76 406.857 564.76H417.909C417.969 564.76 418.029 564.771 418.085 564.794C418.141 564.818 418.192 564.851 418.235 564.894C418.277 564.937 418.311 564.987 418.334 565.043C418.358 565.099 418.37 565.159 418.37 565.219V567.549H425.281V565.221C425.281 565.16 425.293 565.1 425.316 565.044C425.339 564.989 425.373 564.938 425.416 564.895C425.458 564.852 425.509 564.818 425.565 564.795C425.621 564.772 425.68 564.76 425.741 564.76H436.793C436.914 564.761 437.029 564.811 437.114 564.897C437.199 564.983 437.246 565.1 437.245 565.221V567.549H444.157V565.221C444.157 565.16 444.169 565.1 444.192 565.044C444.215 564.989 444.248 564.938 444.291 564.895C444.334 564.852 444.384 564.818 444.44 564.795C444.496 564.772 444.556 564.76 444.616 564.76H455.668C455.729 564.76 455.788 564.771 455.844 564.794C455.9 564.818 455.951 564.851 455.994 564.894C456.036 564.937 456.07 564.987 456.094 565.043C456.117 565.099 456.129 565.159 456.129 565.219V567.549H463.032V565.221C463.032 565.16 463.044 565.1 463.067 565.044C463.09 564.989 463.124 564.938 463.167 564.895C463.209 564.852 463.26 564.818 463.316 564.795C463.371 564.772 463.431 564.76 463.492 564.76H474.544C474.604 564.76 474.664 564.772 474.72 564.795C474.776 564.818 474.826 564.851 474.869 564.894C474.912 564.937 474.946 564.987 474.969 565.043C474.992 565.099 475.004 565.159 475.004 565.219V567.549H507.234C510.164 567.548 512.974 568.711 515.047 570.782C517.119 572.853 518.284 575.663 518.285 578.592L518.285 578.598Z" fill="#3F3D56"/>
<path d="M821 593.354H22V595H821V593.354Z" fill="#3F3D56"/>
<path d="M488.698 368.276H152.13C150.913 368.276 149.708 368.515 148.584 368.981C147.46 369.446 146.439 370.129 145.579 370.989C144.719 371.849 144.036 372.87 143.571 373.994C143.105 375.118 142.866 376.322 142.866 377.539V565.052C142.866 567.509 143.842 569.865 145.579 571.602C147.316 573.34 149.673 574.316 152.129 574.316H488.698C491.155 574.316 493.512 573.34 495.249 571.602C496.986 569.865 497.962 567.509 497.962 565.052V377.539C497.962 375.082 496.986 372.726 495.249 370.989C493.512 369.252 491.155 368.276 488.698 368.276Z" fill="#3F3D56"/>
<path d="M320.683 454.31C332.044 454.31 341.254 445.101 341.254 433.741C341.254 422.381 332.044 413.172 320.683 413.172C309.323 413.172 300.113 422.381 300.113 433.741C300.113 445.101 309.323 454.31 320.683 454.31Z" fill="#DBFE01"/>
<path d="M448.025 297.854L551.87 193.198H600.896V191.552H551.183L550.942 191.797L446.855 296.697L448.025 297.854Z" fill="#3F3D56"/>
<path d="M781.093 150.231H660.777V160.951H781.093V150.231Z" fill="#DBFE01"/>
<path d="M646.114 167.73H620.644V142.261H646.114V167.73ZM622.289 166.084H644.468V143.907H622.289L622.289 166.084Z" fill="#3F3D56"/>
<path d="M781.093 185.965H660.777V196.686H781.093V185.965Z" fill="#DBFE01"/>
<path d="M646.114 203.464H620.644V177.996H646.114V203.464ZM622.289 201.819H644.468V179.641H622.289L622.289 201.819Z" fill="#3F3D56"/>
<path d="M781.093 221.7H660.777V232.42H781.093V221.7Z" fill="#DBFE01"/>
<path d="M646.114 239.198H620.644V213.73H646.114V239.198ZM622.289 237.553H644.468V215.375H622.289L622.289 237.553Z" fill="#3F3D56"/>
</g>
<defs>
<clipPath id="clip0_101_286">
<rect width="799" height="517" fill="white" transform="translate(22 78)"/>
</clipPath>
</defs>
</svg>
