<svg width="844" height="595" viewBox="0 0 844 595" fill="none" xmlns="http://www.w3.org/2000/svg">
<g clip-path="url(#clip0_101_240)">
<path d="M750.472 525.47C747.614 502.486 733.371 479.84 711.454 472.36C720.098 496.017 720.096 521.969 711.449 545.625C708.081 554.736 703.386 564.519 706.554 573.702C708.525 579.415 713.347 583.787 718.737 586.52C724.127 589.254 730.109 590.556 736.017 591.833L737.179 592.795C746.557 571.617 753.33 548.454 750.472 525.47Z" fill="#F0F0F0"/>
<path d="M711.237 472.794C724 487.097 731.933 505.059 733.909 524.128C734.407 528.225 734.256 532.376 733.462 536.426C732.561 540.347 730.626 543.955 727.86 546.875C725.335 549.65 722.43 552.196 720.624 555.536C719.724 557.259 719.199 559.154 719.083 561.094C718.967 563.035 719.262 564.978 719.95 566.797C721.545 571.372 724.689 575.102 727.89 578.642C731.445 582.573 735.199 586.6 736.71 591.811C736.893 592.443 737.862 592.122 737.679 591.491C735.05 582.424 726.25 577.274 722.053 569.108C720.094 565.297 719.273 560.873 721.108 556.851C722.714 553.333 725.706 550.706 728.287 547.918C731.028 545.109 733.04 541.671 734.146 537.906C735.144 533.909 735.454 529.771 735.064 525.67C734.332 516.422 732.152 507.348 728.602 498.778C724.604 488.975 718.96 479.928 711.912 472.029C711.476 471.54 710.803 472.309 711.237 472.794Z" fill="white"/>
<path d="M733.634 517.95C736.788 517.184 739.567 515.322 741.475 512.696C743.383 510.07 744.295 506.852 744.049 503.615C743.997 502.96 742.978 503.011 743.03 503.666C743.264 506.68 742.414 509.678 740.632 512.119C738.851 514.561 736.255 516.285 733.314 516.981C732.675 517.133 732.999 518.101 733.634 517.95Z" fill="white"/>
<path d="M729.325 545.637C723.629 542.235 719.424 536.811 717.548 530.447C717.363 529.816 716.394 530.137 716.579 530.767C718.543 537.386 722.931 543.022 728.866 546.549C729.432 546.885 729.888 545.971 729.325 545.637Z" fill="white"/>
<path d="M723.657 489.942C722.499 490.493 721.221 490.747 719.94 490.682C718.659 490.617 717.414 490.235 716.317 489.57C715.756 489.227 715.301 490.141 715.858 490.481C717.074 491.21 718.449 491.631 719.864 491.706C721.28 491.781 722.692 491.508 723.977 490.911C724.103 490.865 724.207 490.773 724.267 490.653C724.327 490.534 724.34 490.395 724.302 490.267C724.259 490.139 724.167 490.033 724.046 489.972C723.926 489.911 723.786 489.9 723.657 489.942Z" fill="white"/>
<path d="M644.647 513.412C644.991 513.636 645.336 513.86 645.681 514.093C650.297 517.129 654.658 520.534 658.723 524.276C659.041 524.561 659.36 524.854 659.67 525.146C669.366 534.266 677.285 545.107 683.024 557.118C685.303 561.9 687.215 566.848 688.744 571.919C690.854 578.924 692.586 586.686 696.764 592.415C697.193 593.018 697.659 593.593 698.159 594.138H735.916C736.002 594.095 736.088 594.061 736.174 594.018L737.682 594.087C737.621 593.82 737.553 593.544 737.492 593.277C737.458 593.122 737.415 592.967 737.38 592.812C737.354 592.708 737.328 592.605 737.311 592.51C737.303 592.476 737.294 592.441 737.286 592.415C737.268 592.321 737.242 592.234 737.225 592.148C736.846 590.606 736.455 589.064 736.054 587.522C736.054 587.513 736.054 587.513 736.045 587.505C732.952 575.762 728.852 564.174 723.124 553.577C722.951 553.258 722.779 552.931 722.589 552.612C719.981 547.85 716.987 543.309 713.639 539.034C711.798 536.7 709.84 534.46 707.773 532.323C702.42 526.813 696.234 522.178 689.441 518.59C675.9 511.439 660.222 508.7 645.749 513.068C645.379 513.18 645.017 513.292 644.647 513.412Z" fill="#F0F0F0"/>
<path d="M644.732 513.892C663.533 517.626 680.68 527.191 693.737 541.227C696.601 544.198 698.979 547.603 700.784 551.315C702.425 554.989 703.052 559.034 702.601 563.032C702.255 566.768 701.469 570.549 702.037 574.304C702.356 576.222 703.077 578.05 704.153 579.669C705.229 581.289 706.634 582.663 708.278 583.701C712.306 586.394 717.062 587.478 721.749 588.378C726.953 589.376 732.375 590.33 736.718 593.582C737.245 593.976 737.825 593.136 737.299 592.743C729.742 587.086 719.615 588.273 711.348 584.28C707.491 582.416 704.171 579.379 703.216 575.062C702.38 571.287 703.187 567.387 703.57 563.607C704.068 559.714 703.604 555.758 702.22 552.085C700.611 548.293 698.368 544.802 695.587 541.762C689.436 534.819 682.232 528.887 674.239 524.182C665.146 518.762 655.193 514.937 644.81 512.874C644.167 512.746 644.093 513.765 644.732 513.892Z" fill="white"/>
<path d="M689.798 536.46C691.856 533.949 692.954 530.789 692.896 527.543C692.839 524.298 691.63 521.179 689.485 518.742C689.049 518.251 688.265 518.905 688.701 519.397C690.703 521.662 691.829 524.568 691.876 527.59C691.923 530.612 690.889 533.552 688.959 535.878C688.541 536.385 689.382 536.963 689.798 536.46Z" fill="white"/>
<path d="M703.026 561.161C696.429 561.875 689.807 560.076 684.478 556.123C683.95 555.731 683.369 556.571 683.897 556.962C689.45 561.065 696.345 562.923 703.208 562.165C703.862 562.092 703.676 561.088 703.026 561.161Z" fill="white"/>
<path d="M664.972 520.104C664.378 521.241 663.512 522.213 662.45 522.933C661.387 523.652 660.163 524.097 658.887 524.226C658.232 524.291 658.419 525.295 659.069 525.231C660.479 525.081 661.83 524.589 663.005 523.796C664.18 523.004 665.144 521.936 665.811 520.685C665.884 520.573 665.911 520.437 665.887 520.305C665.863 520.173 665.79 520.055 665.682 519.975C665.571 519.899 665.433 519.869 665.3 519.894C665.167 519.918 665.049 519.993 664.972 520.104Z" fill="white"/>
<path d="M459.914 98.0873C459.004 99.2226 458.354 100.544 458.009 101.958C457.665 103.371 457.635 104.844 457.921 106.27C458.207 107.697 458.802 109.044 459.665 110.216C460.527 111.388 461.636 112.356 462.914 113.053L457.094 147.944L473.893 140.487L476.844 108.497C477.873 106.274 478.049 103.75 477.341 101.405C476.633 99.0591 475.09 97.0548 473.003 95.7716C470.916 94.4885 468.431 94.0154 466.018 94.4422C463.606 94.869 461.434 96.166 459.914 98.0873Z" fill="#9E616A"/>
<path d="M611.047 580.791L597.31 580.79L590.776 527.8L611.049 527.801L611.047 580.791Z" fill="#9E616A"/>
<path d="M614.55 594.108L570.258 594.106V593.546C570.258 588.973 572.075 584.588 575.308 581.354C578.541 578.121 582.925 576.304 587.497 576.304H587.499L614.551 576.305L614.55 594.108Z" fill="#2F2E41"/>
<path d="M518.873 580.791L505.137 580.79L498.602 527.8L518.876 527.801L518.873 580.791Z" fill="#9E616A"/>
<path d="M522.376 594.108L478.084 594.106V593.546C478.085 588.973 479.901 584.588 483.134 581.354C486.367 578.121 490.752 576.304 495.324 576.304H495.325L522.377 576.305L522.376 594.108Z" fill="#2F2E41"/>
<path d="M513.147 333.523L508.013 340.277C508.013 340.277 507.548 343.431 499.76 369.126L495.488 562.262H521.331L555.875 407.731L591.726 565.362L614.128 566.684L613.075 387.519C613.075 387.519 615.905 350.66 605.875 343.815C595.845 336.97 513.147 333.523 513.147 333.523Z" fill="#2F2E41"/>
<path d="M547.804 171.225C562.781 171.225 574.923 159.082 574.923 144.103C574.923 129.124 562.781 116.982 547.804 116.982C532.827 116.982 520.686 129.124 520.686 144.103C520.686 159.082 532.827 171.225 547.804 171.225Z" fill="#9E616A"/>
<path d="M575.086 148.349L574.638 147.454C573.946 146.069 568.212 134.552 567.492 131.591L560.275 132.44L541.483 132.443L544.094 128.526L537.19 129.426C534.666 129.733 532.254 130.643 530.155 132.078C528.868 132.934 527.78 134.056 526.964 135.369C524.498 139.592 520.73 146.501 520.692 146.57L520.332 147.231L517.201 141.964C517.16 141.759 513.28 121.519 526.266 114.654C526.936 113.294 532.643 102.593 546.131 103.315C547.614 101.624 549.702 100.586 551.945 100.424C555.025 100.264 558.223 101.882 561.434 105.255C565.699 109.734 571.541 115.868 575.075 122.679L576.049 124.07C577.434 126.06 578.12 128.454 577.999 130.876C578.75 134.741 578.483 138.735 577.225 142.465L575.086 148.349Z" fill="#2F2E41"/>
<path d="M568.467 176.328L583.473 184.623L612.949 192.877L604.151 270.024L605.752 346.016C605.752 346.016 555.857 380.2 508.013 340.277V244.626L510.843 192.877C510.843 192.877 522.292 189.624 528.057 195.236L538.99 181.031L568.467 176.328Z" fill="#E4E4E4"/>
<path d="M517.455 199.985L510.843 192.878L474.41 188.75L477.829 132.785L457.965 118.613L443.371 197.401L510.785 244.626L517.455 199.985Z" fill="#E4E4E4"/>
<path d="M591.308 371.128C591.036 369.698 591.081 368.226 591.44 366.816C591.798 365.406 592.462 364.091 593.383 362.965C594.305 361.839 595.462 360.929 596.773 360.298C598.085 359.668 599.518 359.332 600.973 359.316L612.19 325.769L623.533 340.233L611.142 369.872C611.008 372.318 609.981 374.63 608.256 376.37C606.531 378.11 604.227 379.156 601.783 379.311C599.338 379.466 596.921 378.718 594.991 377.21C593.06 375.702 591.75 373.538 591.308 371.128Z" fill="#9E616A"/>
<path d="M601.875 201.708L612.949 192.877C612.949 192.877 624.272 199.124 627.718 210.324C631.164 221.524 637.194 285.277 637.194 285.277L620.827 367.123L602.523 354.428L611.351 289.585L595.845 242.201L601.875 201.708Z" fill="#E4E4E4"/>
<path d="M463.051 70H183.772V137.874H463.051V70Z" fill="#E6E6E6"/>
<path d="M191.1 130.545H455.723V77.3289H191.1V130.545Z" fill="white"/>
<path d="M241.502 124.211C252.698 124.211 261.773 115.134 261.773 103.937C261.773 92.7399 252.698 83.663 241.502 83.663C230.306 83.663 221.23 92.7399 221.23 103.937C221.23 115.134 230.306 124.211 241.502 124.211Z" fill="#DBFE01"/>
<path d="M425.592 96.0035H289.977V100.411H425.592V96.0035Z" fill="#DBFE01"/>
<path d="M425.592 107.463H289.977V111.87H425.592V107.463Z" fill="#DBFE01"/>
<path d="M82 173.162L318.303 190.4V252.452L82 248.063V173.162Z" fill="#E6E6E6"/>
<path d="M89.4438 240.158L313.144 245.63V196.754L89.4438 181.749V240.158Z" fill="white"/>
<path d="M138.542 191.745C141.124 191.912 143.639 192.64 145.912 193.879C148.19 195.125 150.212 196.792 151.869 198.792C153.591 200.862 154.94 203.215 155.855 205.747C156.82 208.411 157.313 211.223 157.311 214.056C157.321 216.846 156.828 219.616 155.855 222.231C154.953 224.66 153.6 226.897 151.869 228.825C150.207 230.677 148.178 232.165 145.912 233.193C143.597 234.232 141.077 234.731 138.542 234.652C135.947 234.57 133.402 233.916 131.089 232.737C128.745 231.539 126.657 229.897 124.94 227.903C123.138 225.818 121.723 223.428 120.762 220.845C119.743 218.117 119.222 215.228 119.224 212.316C119.213 209.447 119.734 206.601 120.762 203.923C121.711 201.449 123.13 199.183 124.941 197.25C126.666 195.408 128.761 193.953 131.09 192.979C133.447 192.004 135.996 191.582 138.542 191.745Z" fill="#E6E6E6"/>
<path d="M182.553 207.099L291.429 212.773V216.897L182.553 211.607V207.099Z" fill="#E6E6E6"/>
<path d="M182.553 218.821L291.429 223.496V227.62L182.553 223.33V218.821Z" fill="#E6E6E6"/>
<path d="M82 299.216L318.303 294.828V356.88L82 374.118V299.216Z" fill="#E6E6E6"/>
<path d="M89.4438 365.53L313.144 350.525V301.654L89.4438 307.126V365.53Z" fill="white"/>
<path d="M119.241 333.975C119.355 331.065 119.993 328.2 121.122 325.515C122.183 322.986 123.69 320.668 125.573 318.673C127.365 316.768 129.513 315.232 131.896 314.154C134.253 313.093 136.816 312.569 139.401 312.62C141.937 312.672 144.428 313.299 146.687 314.455C148.907 315.601 150.869 317.191 152.45 319.126C154.098 321.142 155.357 323.447 156.161 325.925C157.027 328.587 157.408 331.382 157.289 334.179C157.18 337.009 156.577 339.799 155.507 342.422C154.496 344.909 153.055 347.198 151.252 349.187C149.52 351.105 147.436 352.673 145.112 353.805C142.792 354.93 140.252 355.531 137.673 355.565C135.12 355.595 132.593 355.041 130.287 353.943C128.002 352.847 125.973 351.283 124.33 349.352C122.602 347.324 121.28 344.982 120.434 342.456C119.518 339.726 119.114 336.851 119.241 333.975Z" fill="#E6E6E6"/>
<path d="M182.553 323.951L291.429 319.66V323.784L182.553 328.459V323.951Z" fill="#E6E6E6"/>
<path d="M182.553 335.673L291.429 330.383V334.507L182.553 340.182V335.673Z" fill="#E6E6E6"/>
<path d="M761.138 595H432.932C432.704 595 432.485 594.909 432.323 594.748C432.162 594.586 432.071 594.367 432.071 594.138C432.071 593.91 432.162 593.691 432.323 593.529C432.485 593.368 432.704 593.277 432.932 593.277H761.138C761.367 593.277 761.586 593.368 761.748 593.529C761.909 593.691 762 593.91 762 594.138C762 594.367 761.909 594.586 761.748 594.748C761.586 594.909 761.367 595 761.138 595Z" fill="#CACACA"/>
</g>
<defs>
<clipPath id="clip0_101_240">
<rect width="680" height="525" fill="white" transform="translate(82 70)"/>
</clipPath>
</defs>
</svg>
