<svg width="844" height="595" viewBox="0 0 844 595" fill="none" xmlns="http://www.w3.org/2000/svg">
<g clip-path="url(#clip0_102_332)">
<path d="M195.338 543.209C218.315 543.209 236.942 524.528 236.942 501.483C236.942 478.439 218.315 459.758 195.338 459.758C172.36 459.758 153.733 478.439 153.733 501.483C153.733 524.528 172.36 543.209 195.338 543.209Z" fill="#F2F2F2"/>
<path d="M202.103 537.102C225.08 537.102 243.707 518.421 243.707 495.377C243.707 472.333 225.08 453.651 202.103 453.651C179.125 453.651 160.498 472.333 160.498 495.377C160.498 518.421 179.125 537.102 202.103 537.102Z" fill="#DBFE01"/>
<path d="M750.369 449.208H235.609V450.617H750.369V449.208Z" fill="#3F3D56"/>
<path d="M502.204 147.137H319.496V143.36H236.649V147.137H53.1877C51.5647 147.137 49.9576 147.457 48.4582 148.08C46.9587 148.703 45.5963 149.616 44.4487 150.767C43.301 151.918 42.3907 153.285 41.7696 154.788C41.1485 156.292 40.8289 157.904 40.8289 159.532V410.443C40.8289 413.73 42.1309 416.883 44.4487 419.207C46.7664 421.532 49.9099 422.838 53.1877 422.838H502.204C505.482 422.838 508.625 421.532 510.943 419.207C513.261 416.883 514.563 413.73 514.563 410.443V159.532C514.563 157.904 514.243 156.292 513.622 154.788C513.001 153.285 512.09 151.918 510.943 150.767C509.795 149.616 508.433 148.703 506.933 148.08C505.434 147.457 503.827 147.137 502.204 147.137Z" fill="#3F3D56"/>
<path d="M497.993 169.042H57.3982V418.306H497.993V169.042Z" fill="#DBFE01"/>
<path d="M277.319 162.244C279.815 162.244 281.838 160.215 281.838 157.712C281.838 155.209 279.815 153.18 277.319 153.18C274.823 153.18 272.8 155.209 272.8 157.712C272.8 160.215 274.823 162.244 277.319 162.244Z" fill="#DBFE01"/>
<path opacity="0.1" d="M371.991 418.306H57.3984V169.042L371.991 418.306Z" fill="black"/>
<path d="M126.338 399.653C149.728 399.653 168.69 380.637 168.69 357.179C168.69 333.72 149.728 314.704 126.338 314.704C102.948 314.704 83.9868 333.72 83.9868 357.179C83.9868 380.637 102.948 399.653 126.338 399.653Z" fill="#F2F2F2"/>
<path d="M421.278 303.472H380.122V312.097H421.278V303.472Z" fill="#3F3D56"/>
<path d="M471.035 236.321H330.366V240.018H471.035V236.321Z" fill="#3F3D56"/>
<path d="M471.035 248.026H330.366V251.723H471.035V248.026Z" fill="#3F3D56"/>
<path d="M471.035 259.731H330.366V263.428H471.035V259.731Z" fill="#3F3D56"/>
<path d="M471.035 271.437H330.366V275.133H471.035V271.437Z" fill="#3F3D56"/>
<path d="M471.035 283.142H330.366V286.838H471.035V283.142Z" fill="#3F3D56"/>
<path d="M471.035 174.099H453.835V191.349H471.035V174.099Z" fill="#F2F2F2"/>
<path d="M479.02 199.357H458.135V178.411H479.02V199.357ZM459.043 198.447H478.112V179.322H459.043V198.447Z" fill="#3F3D56"/>
<path d="M526.934 413.774H483.934V410.666C483.934 410.586 483.919 410.505 483.888 410.431C483.857 410.356 483.812 410.288 483.755 410.231C483.697 410.174 483.63 410.128 483.555 410.097C483.481 410.066 483.401 410.05 483.32 410.05H468.578C468.497 410.05 468.417 410.066 468.342 410.097C468.268 410.128 468.2 410.174 468.143 410.231C468.086 410.288 468.041 410.356 468.01 410.431C467.979 410.505 467.963 410.586 467.963 410.666V413.774H458.749V410.666C458.749 410.586 458.733 410.505 458.702 410.431C458.672 410.356 458.626 410.288 458.569 410.231C458.512 410.174 458.444 410.128 458.37 410.097C458.295 410.066 458.216 410.05 458.135 410.05H443.392C443.312 410.05 443.232 410.066 443.157 410.097C443.083 410.128 443.015 410.174 442.958 410.231C442.901 410.288 442.856 410.356 442.825 410.431C442.794 410.505 442.778 410.586 442.778 410.666V413.774H433.564V410.666C433.564 410.586 433.548 410.505 433.517 410.431C433.486 410.356 433.441 410.288 433.384 410.231C433.327 410.174 433.259 410.128 433.185 410.097C433.11 410.066 433.03 410.05 432.95 410.05H418.207C418.126 410.05 418.047 410.066 417.972 410.097C417.897 410.128 417.83 410.174 417.773 410.231C417.716 410.288 417.67 410.356 417.64 410.431C417.609 410.505 417.593 410.586 417.593 410.666V413.774H408.379V410.666C408.379 410.586 408.363 410.505 408.332 410.431C408.301 410.356 408.256 410.288 408.199 410.231C408.142 410.174 408.074 410.128 407.999 410.097C407.925 410.066 407.845 410.05 407.764 410.05H393.022C392.941 410.05 392.861 410.066 392.787 410.097C392.712 410.128 392.644 410.174 392.587 410.231C392.53 410.288 392.485 410.356 392.454 410.431C392.423 410.505 392.408 410.586 392.408 410.666V413.774H383.193V410.666C383.193 410.586 383.178 410.505 383.147 410.431C383.116 410.356 383.071 410.288 383.013 410.231C382.956 410.174 382.889 410.128 382.814 410.097C382.74 410.066 382.66 410.05 382.579 410.05H367.837C367.756 410.05 367.676 410.066 367.601 410.097C367.527 410.128 367.459 410.174 367.402 410.231C367.345 410.288 367.3 410.356 367.269 410.431C367.238 410.505 367.222 410.586 367.222 410.666V413.774H358.008V410.666C358.008 410.586 357.992 410.505 357.961 410.431C357.931 410.356 357.885 410.288 357.828 410.231C357.771 410.174 357.703 410.128 357.629 410.097C357.554 410.066 357.475 410.05 357.394 410.05H342.651C342.571 410.05 342.491 410.066 342.416 410.097C342.342 410.128 342.274 410.174 342.217 410.231C342.16 410.288 342.115 410.356 342.084 410.431C342.053 410.505 342.037 410.586 342.037 410.666V413.774H332.823V410.666C332.823 410.586 332.807 410.505 332.776 410.431C332.745 410.356 332.7 410.288 332.643 410.231C332.586 410.174 332.518 410.128 332.444 410.097C332.369 410.066 332.289 410.05 332.209 410.05H216.725C216.644 410.05 216.564 410.066 216.49 410.097C216.415 410.128 216.348 410.174 216.291 410.231C216.234 410.288 216.188 410.356 216.157 410.431C216.127 410.505 216.111 410.586 216.111 410.666V413.774H206.897V410.666C206.897 410.586 206.881 410.505 206.85 410.431C206.819 410.356 206.774 410.288 206.717 410.231C206.66 410.174 206.592 410.128 206.517 410.097C206.443 410.066 206.363 410.05 206.282 410.05H191.54C191.459 410.05 191.379 410.066 191.305 410.097C191.23 410.128 191.162 410.174 191.105 410.231C191.048 410.288 191.003 410.356 190.972 410.431C190.941 410.505 190.925 410.586 190.925 410.666V413.774H181.711V410.666C181.711 410.586 181.695 410.505 181.665 410.431C181.634 410.356 181.588 410.288 181.531 410.231C181.474 410.174 181.407 410.128 181.332 410.097C181.258 410.066 181.178 410.05 181.097 410.05H166.355C166.274 410.05 166.194 410.066 166.119 410.097C166.045 410.128 165.977 410.174 165.92 410.231C165.863 410.288 165.818 410.356 165.787 410.431C165.756 410.505 165.74 410.586 165.74 410.666V413.774H156.526V410.666C156.526 410.586 156.51 410.505 156.479 410.431C156.448 410.356 156.403 410.288 156.346 410.231C156.289 410.174 156.221 410.128 156.147 410.097C156.072 410.066 155.993 410.05 155.912 410.05H141.169C141.089 410.05 141.009 410.066 140.934 410.097C140.86 410.128 140.792 410.174 140.735 410.231C140.678 410.288 140.633 410.356 140.602 410.431C140.571 410.505 140.555 410.586 140.555 410.666V413.774H131.341V410.666C131.341 410.586 131.325 410.505 131.294 410.431C131.263 410.356 131.218 410.288 131.161 410.231C131.104 410.174 131.036 410.128 130.962 410.097C130.887 410.066 130.807 410.05 130.727 410.05H115.984C115.903 410.05 115.823 410.066 115.749 410.097C115.674 410.128 115.607 410.174 115.55 410.231C115.493 410.288 115.447 410.356 115.416 410.431C115.386 410.505 115.37 410.586 115.37 410.666V413.774H106.156V410.666C106.156 410.586 106.14 410.505 106.109 410.431C106.078 410.356 106.033 410.288 105.976 410.231C105.919 410.174 105.851 410.128 105.776 410.097C105.702 410.066 105.622 410.05 105.541 410.05H90.7987C90.7181 410.05 90.6382 410.066 90.5637 410.097C90.4891 410.128 90.4214 410.174 90.3644 410.231C90.3073 410.288 90.2621 410.356 90.2312 410.431C90.2004 410.505 90.1845 410.586 90.1845 410.666V413.774H80.9704V410.666C80.9704 410.586 80.9545 410.505 80.9236 410.431C80.8927 410.356 80.8475 410.288 80.7904 410.231C80.7334 410.174 80.6657 410.128 80.5912 410.097C80.5166 410.066 80.4367 410.05 80.3561 410.05H65.6135C65.5328 410.05 65.4529 410.066 65.3784 410.097C65.3039 410.128 65.2362 410.174 65.1791 410.231C65.1221 410.288 65.0768 410.356 65.046 410.431C65.0151 410.505 64.9992 410.586 64.9992 410.666V413.774H36.7426C32.8326 413.774 29.0828 415.331 26.318 418.104C23.5532 420.877 22 424.638 22 428.559V435.245C22 439.166 23.5532 442.927 26.318 445.7C29.0828 448.472 32.8326 450.03 36.7426 450.03H526.934C530.844 450.03 534.593 448.472 537.358 445.7C540.123 442.927 541.676 439.166 541.676 435.245V428.559C541.676 424.638 540.123 420.877 537.358 418.104C534.593 415.331 530.844 413.774 526.934 413.774Z" fill="#3F3D56"/>
<path d="M136.589 383.708C126.033 383.708 115.714 380.568 106.937 374.687C98.1605 368.805 91.3196 360.445 87.28 350.664C83.2404 340.883 82.1835 330.121 84.2428 319.738C86.3022 309.354 91.3854 299.817 98.8496 292.331C106.314 284.845 115.824 279.747 126.177 277.681C136.53 275.616 147.262 276.676 157.014 280.727C166.767 284.779 175.102 291.639 180.967 300.442C186.831 309.245 189.962 319.594 189.962 330.18C189.946 344.372 184.317 357.977 174.312 368.012C164.306 378.047 150.74 383.692 136.589 383.708ZM136.589 278.061C126.311 278.061 116.264 281.118 107.718 286.845C99.1718 292.572 92.5109 300.712 88.5776 310.235C84.6443 319.759 83.6152 330.238 85.6204 340.348C87.6256 350.458 92.575 359.745 99.8428 367.034C107.111 374.323 116.37 379.287 126.451 381.298C136.532 383.309 146.981 382.276 156.477 378.332C165.972 374.387 174.089 367.707 179.799 359.136C185.509 350.565 188.557 340.488 188.557 330.18C188.542 316.362 183.061 303.115 173.319 293.344C163.576 283.573 150.367 278.077 136.589 278.061Z" fill="#3F3D56"/>
<path d="M612.725 156.92H433.648V158.329H612.725V156.92Z" fill="#3F3D56"/>
<path d="M822 528.795H307.24V530.204H822V528.795Z" fill="#3F3D56"/>
<path d="M336.384 593.591H157.307V595H336.384V593.591Z" fill="#3F3D56"/>
<path d="M372.43 521.369H352.767V541.09H372.43V521.369Z" fill="#DBFE01"/>
<path d="M384.369 529.821H360.492V505.875H384.369V529.821ZM361.53 528.78H383.331V506.916H361.53V528.78Z" fill="#3F3D56"/>
<path d="M600.666 149.495H581.003V169.215H600.666V149.495Z" fill="#DBFE01"/>
<path d="M612.605 157.946H588.728V134H612.605V157.946ZM589.766 156.905H611.567V135.041H589.766V156.905Z" fill="#3F3D56"/>
<path d="M798.705 521.369H779.042V541.09H798.705V521.369Z" fill="#DBFE01"/>
<path d="M810.644 529.821H786.767V505.875H810.644V529.821ZM787.805 528.78H809.605V506.916H787.805V528.78Z" fill="#3F3D56"/>
<path d="M764.415 297.37H762.744V251.476C762.744 247.988 762.059 244.534 760.728 241.311C759.397 238.089 757.446 235.16 754.987 232.694C752.527 230.227 749.608 228.271 746.394 226.936C743.181 225.601 739.737 224.914 736.259 224.914H639.309C635.831 224.914 632.387 225.601 629.173 226.936C625.96 228.271 623.04 230.227 620.581 232.694C618.122 235.16 616.171 238.089 614.84 241.311C613.509 244.534 612.824 247.988 612.824 251.476V503.253C612.824 506.741 613.509 510.195 614.84 513.418C616.171 516.641 618.122 519.569 620.581 522.035C623.04 524.502 625.96 526.459 629.173 527.793C632.387 529.128 635.831 529.815 639.309 529.815H736.259C739.737 529.815 743.181 529.128 746.394 527.793C749.608 526.459 752.527 524.502 754.987 522.035C757.446 519.569 759.397 516.641 760.728 513.418C762.059 510.195 762.744 506.741 762.744 503.253V330.038H764.415V297.37Z" fill="#3F3D56"/>
<path d="M757.104 253.037V504.447C757.105 509.708 755.022 514.754 751.313 518.475C747.605 522.196 742.574 524.287 737.328 524.288H639.91C634.664 524.287 629.634 522.196 625.925 518.475C622.216 514.754 620.133 509.708 620.134 504.447V253.037C620.135 247.777 622.219 242.733 625.927 239.014C629.636 235.294 634.665 233.205 639.91 233.204H651.729C651.148 234.635 650.926 236.187 651.083 237.725C651.241 239.262 651.773 240.736 652.632 242.019C653.492 243.301 654.653 244.352 656.013 245.078C657.372 245.805 658.89 246.185 660.43 246.184H715.972C717.513 246.185 719.03 245.805 720.39 245.078C721.75 244.352 722.911 243.301 723.771 242.019C724.63 240.736 725.162 239.262 725.319 237.725C725.477 236.187 725.255 234.635 724.673 233.204H737.328C742.573 233.205 747.603 235.294 751.311 239.014C755.02 242.733 757.104 247.777 757.104 253.037Z" fill="#DBFE01"/>
<path d="M703.129 398.973H674.109V407.598H703.129V398.973Z" fill="#3F3D56"/>
<path d="M738.213 331.822H639.025V335.519H738.213V331.822Z" fill="#3F3D56"/>
<path d="M738.213 343.528H639.025V347.224H738.213V343.528Z" fill="#3F3D56"/>
<path d="M738.213 355.233H639.025V358.929H738.213V355.233Z" fill="#3F3D56"/>
<path d="M738.213 366.938H639.025V370.634H738.213V366.938Z" fill="#3F3D56"/>
<path d="M738.213 378.643H639.025V382.339H738.213V378.643Z" fill="#3F3D56"/>
<path d="M692.084 282.735H674.884V299.985H692.084V282.735Z" fill="#F2F2F2"/>
<path d="M681.469 287.048V307.994H702.354V287.048H681.469ZM701.448 307.086H682.375V287.957H701.448V307.086Z" fill="#3F3D56"/>
<path opacity="0.1" d="M757.104 477.599V504.447C757.105 509.708 755.022 514.754 751.313 518.475C747.605 522.196 742.574 524.287 737.328 524.288H639.91C634.664 524.287 629.634 522.196 625.925 518.475C622.216 514.754 620.133 509.708 620.134 504.447V369.072L702.208 434.101L703.613 435.214L718.88 447.307L720.305 448.441L757.104 477.599Z" fill="black"/>
<path d="M680.192 516.14C697.206 516.14 710.999 502.307 710.999 485.243C710.999 468.18 697.206 454.347 680.192 454.347C663.178 454.347 649.385 468.18 649.385 485.243C649.385 502.307 663.178 516.14 680.192 516.14Z" fill="#F2F2F2"/>
<path d="M246.845 595C234.761 595 222.949 591.406 212.901 584.673C202.854 577.94 195.023 568.371 190.399 557.174C185.775 545.978 184.565 533.657 186.922 521.771C189.279 509.885 195.098 498.967 203.643 490.397C212.188 481.828 223.074 475.992 234.926 473.628C246.777 471.264 259.062 472.477 270.226 477.115C281.39 481.752 290.932 489.606 297.646 499.683C304.359 509.759 307.942 521.606 307.942 533.725C307.924 549.971 301.481 565.546 290.027 577.033C278.573 588.52 263.043 594.982 246.845 595ZM246.845 473.859C235.039 473.859 223.498 477.37 213.682 483.948C203.865 490.527 196.214 499.876 191.696 510.815C187.178 521.755 185.996 533.792 188.3 545.405C190.603 557.017 196.288 567.685 204.636 576.057C212.984 584.429 223.621 590.131 235.2 592.441C246.779 594.751 258.781 593.566 269.688 589.034C280.596 584.503 289.919 576.83 296.478 566.985C303.037 557.14 306.538 545.566 306.538 533.725C306.52 517.853 300.225 502.636 289.034 491.413C277.844 480.19 262.671 473.877 246.845 473.859Z" fill="#3F3D56"/>
<path d="M689.272 509.074C681.633 509.074 674.165 506.803 667.814 502.546C661.462 498.29 656.511 492.24 653.588 485.162C650.664 478.083 649.9 470.295 651.39 462.78C652.88 455.266 656.559 448.364 661.961 442.946C667.362 437.529 674.245 433.84 681.737 432.345C689.229 430.85 696.996 431.617 704.053 434.549C711.111 437.481 717.143 442.446 721.387 448.816C725.632 455.187 727.897 462.676 727.897 470.338C727.885 480.608 723.812 490.454 716.571 497.716C709.33 504.978 699.513 509.063 689.272 509.074ZM689.272 433.009C681.911 433.009 674.715 435.198 668.594 439.3C662.473 443.402 657.703 449.232 654.885 456.053C652.068 462.873 651.331 470.379 652.767 477.62C654.204 484.861 657.748 491.512 662.954 496.733C668.159 501.953 674.791 505.508 682.011 506.949C689.231 508.389 696.715 507.65 703.516 504.824C710.317 501.999 716.13 497.215 720.22 491.076C724.309 484.937 726.492 477.72 726.492 470.338C726.481 460.441 722.556 450.953 715.579 443.955C708.601 436.957 699.14 433.02 689.272 433.009Z" fill="#3F3D56"/>
</g>
<defs>
<clipPath id="clip0_102_332">
<rect width="800" height="461" fill="white" transform="translate(22 134)"/>
</clipPath>
</defs>
</svg>
