<svg width="844" height="595" viewBox="0 0 844 595" fill="none" xmlns="http://www.w3.org/2000/svg">
<g clip-path="url(#clip0_108_2)">
<path d="M737.91 593.237H209.924C201.951 593.237 195.472 586.761 195.472 578.793V281.87C195.472 273.902 201.951 267.426 209.924 267.426H737.91C745.883 267.426 752.362 273.902 752.362 281.87V578.793C752.362 586.761 745.883 593.237 737.91 593.237ZM209.924 276.828C207.137 276.828 204.879 279.085 204.879 281.87V578.793C204.879 581.578 207.137 583.835 209.924 583.835H737.91C740.697 583.835 742.955 581.578 742.955 578.793V281.87C742.955 279.085 740.697 276.828 737.91 276.828H209.924Z" fill="#D5D5D6"/>
<path d="M342.191 412.808H316.72V477.542H342.191V412.808Z" fill="#DBFE01"/>
<path d="M383.465 406.591H357.995V477.542H383.465V406.591Z" fill="#DBFE01"/>
<path d="M424.74 430.872H399.27V477.542H424.74V430.872Z" fill="#DBFE01"/>
<path d="M466.014 416.463H440.544V477.542H466.014V416.463Z" fill="#DBFE01"/>
<path d="M507.289 428.804H481.819V477.531H507.289V428.804Z" fill="#DBFE01"/>
<path d="M548.564 392.44H523.093V477.542H548.564V392.44Z" fill="#DBFE01"/>
<path d="M589.839 406.591H564.368V477.542H589.839V406.591Z" fill="#DBFE01"/>
<path d="M631.113 394.262H605.643V477.542H631.113V394.262Z" fill="#DBFE01"/>
<path d="M230.949 308.596H418.931C420.624 308.596 422 309.971 422 311.663C422 313.356 420.624 314.731 418.931 314.731H230.949C229.256 314.731 227.88 313.356 227.88 311.663C227.88 309.971 229.256 308.596 230.949 308.596Z" fill="#D5D5D6"/>
<path d="M821 593.237C821 594.213 820.212 595 819.236 595H24.7639C23.7879 595 23 594.213 23 593.237C23 592.262 23.7879 591.474 24.7639 591.474H819.236C820.212 591.474 821 592.262 821 593.237Z" fill="#3F3D56"/>
<path d="M180.22 236.316L203.327 243.908V210.66H182.36L180.22 236.316Z" fill="#F3A3A6"/>
<path d="M200.469 219.862C213.185 219.862 223.494 209.559 223.494 196.85C223.494 184.141 213.185 173.838 200.469 173.838C187.753 173.838 177.445 184.141 177.445 196.85C177.445 209.559 187.753 219.862 200.469 219.862Z" fill="#F3A3A6"/>
<path d="M194.601 198.648L197.776 202.503L203.515 192.466C203.515 192.466 210.841 192.842 210.841 187.413C210.841 181.983 217.567 181.83 217.567 181.83C217.567 181.83 227.08 165.223 207.372 169.595C207.372 169.595 193.696 160.228 186.899 168.232C186.899 168.232 166.05 178.727 172.012 197.003L181.925 215.831L184.171 211.565C184.171 211.565 182.807 193.665 194.601 198.648Z" fill="#2F2E43"/>
<path d="M192.473 551.28H173.87V577.653H192.473V551.28Z" fill="#F3A3A6"/>
<path d="M190.415 592.755C187.229 593.049 171.318 594.295 170.519 590.651C169.79 587.302 170.86 583.8 171.013 583.329C172.541 568.121 173.106 567.945 173.447 567.839C173.988 567.686 175.575 568.427 178.139 570.084L178.303 570.19L178.339 570.378C178.386 570.613 179.526 576.195 184.912 575.349C188.604 574.762 189.804 573.951 190.192 573.551C189.874 573.41 189.486 573.163 189.216 572.728C188.816 572.105 188.745 571.306 189.004 570.354C189.698 567.827 191.779 564.09 191.862 563.937L192.097 563.514L213.24 577.77L226.292 581.496C227.28 581.778 228.068 582.483 228.468 583.423C229.021 584.74 228.68 586.268 227.621 587.22C225.246 589.347 220.542 593.002 215.592 593.449C214.275 593.566 212.534 593.613 210.582 593.613C202.41 593.613 190.498 592.767 190.403 592.755H190.415Z" fill="#2F2E43"/>
<path d="M134.435 511.686L117.615 532.007L131.949 543.859L148.769 523.538L134.435 511.686Z" fill="#F3A3A6"/>
<path d="M120.754 554.194C118.12 552.384 105.055 543.217 106.761 539.903C108.336 536.859 111.394 534.849 111.817 534.579C122.694 523.837 123.247 524.06 123.576 524.201C124.094 524.424 124.834 526.011 125.763 528.914L125.822 529.09L125.728 529.255C125.61 529.466 122.929 534.497 127.621 537.27C130.843 539.174 132.29 539.303 132.831 539.245C132.678 538.939 132.537 538.493 132.595 537.987C132.678 537.258 133.136 536.589 133.959 536.024C136.111 534.52 140.086 532.969 140.262 532.898L140.709 532.722L147.906 557.18L155.585 568.368C156.161 569.214 156.325 570.26 156.031 571.248C155.62 572.611 154.385 573.575 152.951 573.633C149.764 573.763 143.814 573.575 139.71 570.766C138.628 570.025 137.252 568.956 135.747 567.71C129.456 562.504 120.813 554.265 120.742 554.194H120.754Z" fill="#2F2E43"/>
<path d="M223.235 347.85H159.43L173.611 558.649H194.884L223.247 347.85H223.235Z" fill="#2F2E43"/>
<path d="M210.241 359.462L223.235 347.85L216.732 463.792L144.072 532.875L125.951 517.913L168.296 463.004L210.241 359.462Z" fill="#2F2E43"/>
<path d="M210.241 223.858L178.726 218.746L168.943 235.846C156.502 257.589 151.433 282.763 154.479 307.62L159.43 347.874H223.235L210.241 223.87V223.858Z" fill="#DBFE01"/>
<path d="M184.653 385.812C185.958 392.311 183.524 398.246 179.232 399.069C174.928 399.88 170.389 395.273 169.084 388.762C168.531 386.164 168.625 383.485 169.366 380.934L164.192 353.303L177.715 351.2L181.372 378.666C183.042 380.77 184.171 383.214 184.653 385.823V385.812Z" fill="#F3A3A6"/>
<path d="M168.202 378.325L148.341 316.999V316.905L155.843 253.757C156.996 244.085 165.203 236.798 174.94 236.798C180.902 236.798 186.429 239.489 190.098 244.19C193.766 248.891 195.048 254.897 193.602 260.691L180.349 313.661L183.512 373.777L168.19 378.325H168.202Z" fill="#DBFE01"/>
</g>
<defs>
<clipPath id="clip0_108_2">
<rect width="798" height="430" fill="white" transform="translate(23 165)"/>
</clipPath>
</defs>
</svg>
