<svg width="844" height="595" viewBox="0 0 844 595" fill="none" xmlns="http://www.w3.org/2000/svg">
<path d="M633.24 504.593C621.999 516.427 611.364 524.058 602.961 530.087C504.188 600.958 387.312 580.299 362.473 575.254C325.793 567.804 254.892 553.404 203.632 493.123C126.079 401.922 138.155 258.239 198.31 163.391C209.314 146.042 267.436 49.7497 385.57 34.3075C457.064 24.962 540.402 43.8108 600.753 94.3733C727.436 200.508 718.418 414.92 633.24 504.593Z" fill="url(#paint0_linear_108_2)"/>
<path d="M644.984 97.058C644.797 97.2191 644.535 97.2881 644.279 97.2185C643.29 96.9508 642.293 96.7034 641.315 96.4823C640.898 96.3887 640.638 95.9757 640.732 95.5598C640.826 95.144 641.239 94.8828 641.655 94.9768C642.654 95.2019 643.673 95.4545 644.682 95.7279C645.094 95.8394 645.337 96.2635 645.225 96.6747C645.184 96.8298 645.097 96.9607 644.984 97.058Z" fill="#91B3FA"/>
<path d="M673.846 224.423C672.479 225.598 671.054 226.736 669.611 227.804C669.268 228.058 668.785 227.985 668.531 227.642C668.278 227.3 668.343 226.82 668.693 226.563C670.354 225.333 671.983 224.013 673.542 222.64C673.545 222.637 673.547 222.635 673.549 222.633C673.87 222.358 674.352 222.391 674.632 222.709C674.914 223.028 674.883 223.516 674.563 223.798C674.325 224.008 674.086 224.217 673.846 224.423ZM681.741 216.511C681.457 216.755 681.029 216.763 680.736 216.512C680.412 216.235 680.374 215.747 680.651 215.423C681.997 213.851 683.293 212.2 684.504 210.517C684.752 210.167 685.236 210.092 685.582 210.341C685.927 210.59 686.007 211.073 685.758 211.418C684.521 213.137 683.198 214.822 681.824 216.427C681.798 216.458 681.77 216.486 681.741 216.511ZM691.03 202.852C690.796 203.053 690.454 203.103 690.165 202.95C689.788 202.751 689.644 202.283 689.844 201.907C690.814 200.072 691.715 198.177 692.522 196.275C692.688 195.883 693.142 195.7 693.535 195.866C693.927 196.033 694.11 196.486 693.944 196.879C693.119 198.821 692.199 200.755 691.208 202.628C691.162 202.716 691.1 202.791 691.03 202.852ZM697.068 187.484C696.881 187.645 696.621 187.714 696.364 187.645C695.953 187.535 695.709 187.111 695.819 186.699C696.354 184.703 696.809 182.655 697.171 180.614C697.246 180.194 697.646 179.913 698.066 179.988C698.486 180.063 698.766 180.463 698.692 180.883C698.322 182.968 697.857 185.06 697.31 187.099C697.268 187.254 697.182 187.386 697.068 187.484ZM699.518 171.159C699.376 171.281 699.189 171.352 698.987 171.344C698.561 171.329 698.228 170.971 698.244 170.545C698.319 168.478 698.307 166.38 698.206 164.309C698.186 163.883 698.516 163.522 698.94 163.5C699.366 163.48 699.728 163.808 699.749 164.234C699.851 166.349 699.864 168.491 699.787 170.602C699.779 170.825 699.676 171.023 699.518 171.159ZM698.279 154.691C698.18 154.777 698.058 154.838 697.92 154.864C697.501 154.943 697.097 154.668 697.017 154.249C696.632 152.211 696.156 150.167 695.602 148.175C695.488 147.764 695.728 147.338 696.138 147.224C696.549 147.109 696.975 147.35 697.089 147.761C697.655 149.795 698.141 151.881 698.535 153.962C698.588 154.243 698.482 154.517 698.279 154.691ZM693.431 138.903C693.374 138.952 693.308 138.994 693.235 139.026C692.844 139.195 692.389 139.016 692.22 138.625C691.394 136.725 690.477 134.837 689.494 133.015C689.291 132.639 689.431 132.173 689.807 131.969C690.182 131.766 690.65 131.906 690.853 132.281C691.857 134.142 692.793 136.069 693.635 138.01C693.773 138.328 693.681 138.688 693.431 138.903ZM685.198 124.582C685.183 124.595 685.168 124.607 685.152 124.619C684.808 124.872 684.325 124.798 684.072 124.455C682.988 122.981 681.834 121.532 680.644 120.148C680.485 119.963 680.325 119.778 680.164 119.595C679.882 119.275 679.914 118.787 680.234 118.506C680.237 118.504 680.239 118.502 680.241 118.501C680.561 118.225 681.044 118.258 681.324 118.576C681.489 118.764 681.652 118.952 681.814 119.141C683.031 120.555 684.209 122.035 685.316 123.54C685.557 123.867 685.501 124.321 685.198 124.582ZM673.973 112.468C673.688 112.712 673.26 112.719 672.967 112.467C671.401 111.118 669.753 109.817 668.071 108.6C667.725 108.351 667.647 107.868 667.897 107.522C668.15 107.178 668.63 107.099 668.975 107.349C670.693 108.592 672.375 109.92 673.974 111.296C674.297 111.575 674.334 112.062 674.055 112.386C674.029 112.415 674.002 112.442 673.973 112.468ZM660.339 103.14C660.105 103.341 659.763 103.39 659.474 103.236C657.64 102.26 655.747 101.354 653.848 100.541C653.456 100.374 653.274 99.9202 653.441 99.5283C653.609 99.136 654.062 98.9535 654.455 99.1219C656.394 99.9508 658.326 100.876 660.198 101.873C660.575 102.073 660.718 102.541 660.517 102.917C660.471 103.004 660.41 103.079 660.339 103.14Z" fill="#91B3FA"/>
<path d="M660.987 233.289C660.946 233.324 660.901 233.356 660.85 233.383C659.929 233.882 658.996 234.363 658.079 234.812C657.696 234.999 657.234 234.841 657.046 234.458C656.858 234.075 657.02 233.614 657.4 233.425C658.298 232.986 659.212 232.514 660.115 232.025C660.49 231.822 660.959 231.961 661.161 232.336C661.338 232.662 661.256 233.057 660.987 233.289Z" fill="#91B3FA"/>
<path d="M603.369 238.814C603.173 238.983 602.897 239.049 602.631 238.965C601.651 238.654 600.657 238.315 599.679 237.959C599.278 237.813 599.072 237.369 599.218 236.969C599.365 236.568 599.807 236.362 600.207 236.508C601.166 236.857 602.139 237.189 603.099 237.493C603.505 237.622 603.73 238.056 603.601 238.463C603.556 238.605 603.474 238.724 603.369 238.814Z" fill="#91B3FA"/>
<path d="M591.24 233.728C591.006 233.928 590.664 233.978 590.375 233.825C588.54 232.855 586.72 231.793 584.962 230.668C584.603 230.438 584.498 229.961 584.728 229.602C584.96 229.245 585.435 229.137 585.795 229.367C587.516 230.469 589.3 231.51 591.097 232.46C591.474 232.659 591.617 233.126 591.419 233.503C591.372 233.591 591.311 233.666 591.24 233.728ZM577.78 224.615C577.497 224.859 577.071 224.867 576.778 224.617C575.189 223.268 573.641 221.835 572.177 220.361C571.876 220.059 571.878 219.57 572.181 219.27C572.487 218.965 572.972 218.971 573.273 219.274C574.707 220.717 576.222 222.119 577.778 223.441C578.103 223.717 578.143 224.204 577.866 224.53C577.839 224.56 577.811 224.589 577.78 224.615ZM566.636 212.783C566.623 212.794 566.609 212.805 566.595 212.816C566.255 213.072 565.771 213.003 565.514 212.663C564.265 211 563.071 209.263 561.965 207.499C561.738 207.137 561.848 206.661 562.209 206.435C562.57 206.208 563.046 206.317 563.273 206.678C564.356 208.406 565.526 210.107 566.748 211.734C566.994 212.062 566.941 212.52 566.636 212.783ZM558.366 198.792C558.311 198.839 558.249 198.879 558.179 198.91C557.79 199.085 557.334 198.913 557.158 198.523C556.304 196.627 555.519 194.671 554.826 192.707C554.684 192.305 554.894 191.863 555.297 191.723C555.699 191.58 556.14 191.791 556.282 192.193C556.961 194.116 557.729 196.033 558.566 197.889C558.71 198.209 558.618 198.574 558.366 198.792ZM553.354 183.333C553.258 183.416 553.141 183.476 553.008 183.503C552.59 183.59 552.182 183.322 552.095 182.904C551.674 180.866 551.334 178.786 551.084 176.72C551.033 176.297 551.334 175.913 551.758 175.861C552.181 175.81 552.566 176.112 552.617 176.535C552.862 178.558 553.195 180.596 553.608 182.591C553.667 182.876 553.56 183.156 553.354 183.333ZM551.825 167.156C551.687 167.275 551.507 167.345 551.31 167.343C550.884 167.336 550.544 166.984 550.55 166.558C550.583 164.476 550.705 162.372 550.912 160.304C550.955 159.881 551.333 159.57 551.757 159.613C552.181 159.656 552.491 160.034 552.448 160.458C552.246 162.483 552.126 164.543 552.094 166.583C552.091 166.812 551.987 167.017 551.825 167.156ZM553.87 151.041C553.688 151.198 553.436 151.267 553.185 151.207C552.771 151.107 552.516 150.69 552.616 150.275C553.105 148.251 553.686 146.224 554.342 144.251C554.478 143.848 554.915 143.629 555.319 143.763C555.724 143.898 555.942 144.334 555.807 144.74C555.164 146.671 554.596 148.656 554.117 150.637C554.077 150.801 553.989 150.94 553.87 151.041ZM559.409 135.767C559.181 135.963 558.85 136.015 558.564 135.874C558.181 135.685 558.024 135.222 558.213 134.84C559.132 132.981 560.142 131.131 561.218 129.344C561.436 128.975 561.913 128.86 562.277 129.08C562.643 129.3 562.76 129.774 562.541 130.139C561.487 131.891 560.497 133.702 559.597 135.524C559.55 135.619 559.485 135.701 559.409 135.767ZM568.145 122.064C567.868 122.302 567.453 122.317 567.158 122.08C566.826 121.813 566.773 121.327 567.04 120.995C568.347 119.367 569.736 117.78 571.166 116.278C571.465 115.972 571.949 115.957 572.258 116.251C572.567 116.545 572.579 117.034 572.285 117.342C570.884 118.813 569.524 120.368 568.244 121.962C568.214 122 568.18 122.034 568.145 122.064ZM584.667 106.934C584.643 106.955 584.618 106.974 584.591 106.992C582.895 108.124 581.226 109.341 579.634 110.609C579.301 110.875 578.816 110.821 578.55 110.487C578.284 110.153 578.328 109.667 578.673 109.402C580.298 108.106 582.002 106.863 583.735 105.708C584.09 105.471 584.569 105.566 584.805 105.921C585.024 106.249 584.958 106.684 584.667 106.934Z" fill="#91B3FA"/>
<path d="M596.252 100.627C596.194 100.677 596.128 100.718 596.055 100.75C595.117 101.157 594.184 101.585 593.28 102.024C592.896 102.209 592.434 102.049 592.249 101.666C592.063 101.282 592.221 100.82 592.607 100.634C593.53 100.187 594.483 99.7497 595.441 99.334C595.832 99.1646 596.286 99.3437 596.456 99.7346C596.595 100.053 596.501 100.412 596.252 100.627Z" fill="#91B3FA"/>
<path d="M609.315 113.317C608.943 113.383 608.654 113.679 608.595 114.052L606.926 124.713C602.297 126.706 597.954 129.452 594.097 132.918L583.723 129.973C583.359 129.869 582.97 130.009 582.753 130.319L575.352 140.937C575.136 141.247 575.14 141.661 575.363 141.966L581.716 150.68C579.799 155.498 578.726 160.523 578.457 165.555L569.033 170.811C568.703 170.996 568.526 171.369 568.592 171.741L570.867 184.483C570.933 184.855 571.229 185.144 571.602 185.203L582.263 186.873C584.256 191.501 587.003 195.844 590.468 199.702L587.523 210.075C587.419 210.439 587.558 210.828 587.869 211.045L598.487 218.446C598.797 218.662 599.21 218.658 599.516 218.435L608.23 212.082C613.048 213.999 618.073 215.072 623.105 215.341L628.361 224.765C628.545 225.095 628.919 225.272 629.291 225.206L642.033 222.931C642.405 222.865 642.694 222.569 642.753 222.195L644.423 211.535C649.051 209.542 653.394 206.796 657.252 203.33L667.625 206.275C667.989 206.379 668.378 206.24 668.595 205.929L675.996 195.311C676.212 195.001 676.208 194.588 675.985 194.282L669.632 185.569C671.549 180.75 672.622 175.725 672.891 170.693L682.315 165.437C682.645 165.253 682.822 164.879 682.756 164.507L680.481 151.765C680.414 151.393 680.119 151.104 679.746 151.045L669.085 149.375C667.092 144.747 664.346 140.404 660.88 136.547L663.825 126.173C663.928 125.809 663.79 125.42 663.479 125.204L652.861 117.802C652.551 117.586 652.137 117.591 651.832 117.813L643.118 124.166C638.3 122.25 633.275 121.177 628.243 120.907L622.987 111.484C622.803 111.153 622.429 110.976 622.057 111.042L609.315 113.317Z" fill="#91B3FA"/>
<path d="M633.94 177.708C633.03 178.491 632.003 179.147 630.879 179.654C627.799 181.044 624.362 181.152 621.201 179.957C618.04 178.763 615.534 176.408 614.144 173.328C612.754 170.248 612.646 166.811 613.841 163.65C615.036 160.49 617.39 157.983 620.47 156.593C623.55 155.203 626.987 155.095 630.148 156.291C633.309 157.485 635.815 159.84 637.205 162.92C638.596 166 638.703 169.437 637.508 172.597C636.75 174.604 635.523 176.347 633.94 177.708ZM618.922 160.294C617.629 161.406 616.628 162.83 616.008 164.47C615.032 167.052 615.119 169.859 616.255 172.375C617.391 174.891 619.438 176.815 622.02 177.791C624.602 178.767 627.41 178.679 629.926 177.543C632.443 176.409 634.366 174.361 635.341 171.778C636.318 169.196 636.23 166.389 635.094 163.872C633.959 161.356 631.912 159.433 629.329 158.457C626.747 157.481 623.939 157.568 621.423 158.704C620.505 159.119 619.666 159.654 618.922 160.294Z" fill="#BDD0FB"/>
<path d="M646.872 192.946C635.935 202.352 619.593 203.583 607.225 194.962C604.942 193.371 602.928 191.537 601.192 189.519C591.783 178.583 590.552 162.239 599.173 149.869C599.329 149.647 599.487 149.426 599.647 149.208C600.729 147.735 601.931 146.357 603.231 145.097C603.383 144.949 603.536 144.804 603.691 144.66L605.27 146.355C603.715 147.802 602.303 149.43 601.074 151.194C601.062 151.21 601.05 151.227 601.039 151.244C591.6 164.844 594.962 183.592 608.549 193.062C622.152 202.543 640.932 199.191 650.417 185.586C658.421 174.102 657.278 158.926 648.543 148.772C646.931 146.898 645.061 145.196 642.942 143.719C638.469 140.601 633.246 138.757 627.837 138.385L627.996 136.074C633.823 136.475 639.449 138.461 644.266 141.818C646.548 143.409 648.562 145.243 650.298 147.261C659.707 158.198 660.938 174.542 652.317 186.911C650.725 189.194 648.89 191.21 646.872 192.946Z" fill="#BDD0FB"/>
<path d="M584.02 40.6882C583.907 40.7851 583.75 40.8265 583.596 40.7847C583.002 40.6237 582.402 40.4752 581.814 40.3422C581.564 40.2859 581.407 40.0377 581.464 39.7877C581.521 39.5378 581.769 39.3807 582.018 39.4372C582.619 39.5724 583.231 39.7242 583.838 39.8886C584.085 39.9555 584.232 40.2103 584.165 40.4575C584.14 40.551 584.088 40.6298 584.02 40.6882Z" fill="#91B3FA"/>
<path d="M601.367 117.239C600.545 117.945 599.689 118.629 598.821 119.27C598.615 119.423 598.325 119.38 598.172 119.173C598.02 118.968 598.059 118.679 598.269 118.525C599.268 117.786 600.247 116.992 601.184 116.167C601.186 116.165 601.187 116.164 601.188 116.163C601.381 115.998 601.671 116.017 601.839 116.208C602.008 116.4 601.99 116.693 601.798 116.863C601.655 116.989 601.511 117.114 601.367 117.239ZM606.112 112.483C605.941 112.63 605.684 112.635 605.508 112.484C605.313 112.317 605.291 112.024 605.457 111.83C606.266 110.885 607.045 109.893 607.773 108.881C607.922 108.671 608.212 108.626 608.421 108.775C608.628 108.925 608.676 109.215 608.526 109.423C607.783 110.455 606.988 111.468 606.162 112.433C606.146 112.451 606.13 112.468 606.112 112.483ZM611.695 104.274C611.554 104.395 611.349 104.424 611.175 104.332C610.949 104.213 610.862 103.932 610.982 103.705C611.565 102.602 612.107 101.464 612.592 100.321C612.691 100.085 612.964 99.9748 613.2 100.075C613.436 100.175 613.546 100.448 613.446 100.683C612.951 101.851 612.397 103.013 611.802 104.139C611.774 104.192 611.737 104.237 611.695 104.274ZM615.324 95.037C615.212 95.1338 615.055 95.1752 614.901 95.1336C614.654 95.0673 614.507 94.8129 614.573 94.5653C614.895 93.3652 615.169 92.1346 615.386 90.9077C615.431 90.6552 615.671 90.4866 615.924 90.5316C616.176 90.5762 616.345 90.817 616.3 91.0697C616.078 92.323 615.798 93.5799 615.469 94.8056C615.444 94.8991 615.392 94.9783 615.324 95.037ZM616.797 85.225C616.711 85.2983 616.599 85.3412 616.477 85.3365C616.221 85.3273 616.021 85.112 616.031 84.856C616.076 83.6137 616.069 82.3526 616.008 81.1081C615.996 80.8519 616.194 80.635 616.449 80.622C616.705 80.6097 616.923 80.8069 616.935 81.0629C616.997 82.3341 617.005 83.6216 616.958 84.8902C616.953 85.0246 616.892 85.1436 616.797 85.225ZM616.052 75.3276C615.992 75.3788 615.919 75.4158 615.836 75.4315C615.584 75.4789 615.342 75.3135 615.294 75.0617C615.062 73.8365 614.776 72.6081 614.443 71.4109C614.374 71.1639 614.518 70.9079 614.765 70.8395C615.012 70.7706 615.268 70.9151 615.337 71.1621C615.677 72.3847 615.969 73.6388 616.206 74.8894C616.237 75.0583 616.174 75.2231 616.052 75.3276ZM613.138 65.8382C613.104 65.8679 613.064 65.893 613.02 65.9121C612.785 66.014 612.512 65.9063 612.41 65.6714C611.914 64.529 611.363 63.3943 610.772 62.2991C610.65 62.0734 610.734 61.7933 610.96 61.6705C611.185 61.5489 611.467 61.6327 611.588 61.8584C612.192 62.9768 612.755 64.1353 613.261 65.3016C613.344 65.4925 613.288 65.7091 613.138 65.8382ZM608.19 57.231C608.181 57.2387 608.172 57.2461 608.162 57.2532C607.956 57.4051 607.665 57.3609 607.513 57.1543C606.861 56.2686 606.168 55.3975 605.452 54.5655C605.357 54.4545 605.261 54.3436 605.164 54.2336C604.995 54.0409 605.014 53.7479 605.206 53.5789C605.208 53.5777 605.209 53.5767 605.21 53.5756C605.403 53.41 605.693 53.4297 605.861 53.6211C605.96 53.7338 606.058 53.8466 606.156 53.9603C606.887 54.8103 607.595 55.6998 608.261 56.6044C608.405 56.8014 608.372 57.0743 608.19 57.231ZM601.443 49.9498C601.272 50.0969 601.014 50.1009 600.838 49.9492C599.897 49.1386 598.907 48.3566 597.896 47.6253C597.688 47.4751 597.641 47.1849 597.791 46.9773C597.944 46.7705 598.232 46.7231 598.439 46.8732C599.472 47.6202 600.483 48.4183 601.444 49.2458C601.638 49.4132 601.66 49.706 601.493 49.9005C601.477 49.918 601.461 49.9347 601.443 49.9498ZM593.249 44.3435C593.108 44.4645 592.902 44.494 592.729 44.4014C591.626 43.8147 590.489 43.2701 589.347 42.7817C589.112 42.6812 589.002 42.4085 589.103 42.1729C589.204 41.9372 589.476 41.8274 589.712 41.9287C590.878 42.427 592.039 42.9831 593.164 43.582C593.391 43.7024 593.476 43.9835 593.356 44.2096C593.328 44.2621 593.292 44.3067 593.249 44.3435Z" fill="#91B3FA"/>
<path d="M593.639 122.567C593.614 122.588 593.587 122.608 593.557 122.624C593.003 122.924 592.442 123.213 591.891 123.483C591.661 123.595 591.383 123.5 591.27 123.27C591.157 123.04 591.254 122.763 591.483 122.649C592.023 122.385 592.572 122.102 593.115 121.807C593.34 121.685 593.622 121.769 593.743 121.995C593.85 122.19 593.801 122.428 593.639 122.567Z" fill="#91B3FA"/>
<path d="M559.008 125.888C558.89 125.99 558.724 126.03 558.564 125.979C557.975 125.792 557.378 125.588 556.79 125.374C556.549 125.287 556.425 125.02 556.513 124.779C556.601 124.538 556.867 124.415 557.107 124.502C557.683 124.712 558.268 124.911 558.845 125.095C559.089 125.172 559.224 125.433 559.147 125.677C559.12 125.762 559.071 125.834 559.008 125.888Z" fill="#91B3FA"/>
<path d="M551.718 122.831C551.578 122.952 551.372 122.981 551.198 122.889C550.096 122.307 549.001 121.668 547.945 120.992C547.729 120.854 547.666 120.567 547.804 120.351C547.943 120.137 548.229 120.073 548.445 120.211C549.48 120.873 550.552 121.498 551.632 122.069C551.858 122.189 551.945 122.47 551.825 122.696C551.797 122.749 551.761 122.794 551.718 122.831ZM543.628 117.354C543.458 117.5 543.202 117.505 543.026 117.355C542.071 116.544 541.141 115.683 540.261 114.797C540.08 114.616 540.081 114.322 540.263 114.141C540.447 113.958 540.738 113.962 540.919 114.144C541.781 115.011 542.692 115.854 543.627 116.648C543.822 116.814 543.846 117.107 543.68 117.302C543.664 117.321 543.646 117.338 543.628 117.354ZM536.93 110.243C536.922 110.249 536.914 110.256 536.906 110.262C536.701 110.416 536.41 110.375 536.256 110.17C535.505 109.171 534.788 108.127 534.123 107.067C533.987 106.849 534.053 106.563 534.269 106.427C534.486 106.291 534.773 106.356 534.909 106.573C535.56 107.612 536.263 108.634 536.998 109.612C537.146 109.809 537.114 110.085 536.93 110.243ZM531.96 101.833C531.927 101.862 531.889 101.886 531.847 101.905C531.614 102.01 531.339 101.906 531.234 101.672C530.72 100.533 530.249 99.3566 529.832 98.1765C529.747 97.9349 529.873 97.6692 530.115 97.5846C530.357 97.4992 530.622 97.6258 530.707 97.8674C531.115 99.0232 531.577 100.175 532.08 101.291C532.166 101.483 532.111 101.703 531.96 101.833ZM528.947 92.5424C528.89 92.5921 528.819 92.6285 528.739 92.6445C528.488 92.6966 528.243 92.5354 528.191 92.2842C527.938 91.0596 527.733 89.8095 527.583 88.5677C527.552 88.3133 527.733 88.0825 527.988 88.0514C528.242 88.0206 528.474 88.2019 528.504 88.4563C528.651 89.6725 528.852 90.8968 529.1 92.0963C529.135 92.2675 529.071 92.4359 528.947 92.5424ZM528.029 82.8193C527.946 82.8906 527.837 82.9333 527.719 82.9314C527.462 82.9272 527.258 82.7162 527.262 82.4599C527.282 81.2085 527.355 79.9441 527.479 78.701C527.505 78.4468 527.733 78.2601 527.987 78.2856C528.242 78.3113 528.428 78.5387 528.403 78.7935C528.281 80.0104 528.209 81.2488 528.19 82.4746C528.188 82.6127 528.126 82.7359 528.029 82.8193ZM529.258 73.1339C529.148 73.228 528.997 73.2698 528.846 73.2336C528.597 73.1735 528.444 72.9227 528.504 72.6737C528.798 71.457 529.146 70.2388 529.541 69.0529C529.623 68.8105 529.885 68.6786 530.128 68.7592C530.371 68.8404 530.503 69.1029 530.422 69.3463C530.035 70.5071 529.694 71.6999 529.406 72.8911C529.382 72.9894 529.329 73.0726 529.258 73.1339ZM532.587 63.9534C532.45 64.0712 532.251 64.1025 532.079 64.0179C531.849 63.9042 531.754 63.6262 531.868 63.3965C532.42 62.2787 533.027 61.167 533.674 60.0926C533.805 59.8711 534.091 59.8022 534.311 59.934C534.53 60.0663 534.601 60.3513 534.469 60.5707C533.836 61.6235 533.24 62.712 532.7 63.8069C532.671 63.8648 532.632 63.914 532.587 63.9534ZM537.837 55.7177C537.671 55.8608 537.422 55.8696 537.244 55.7273C537.045 55.5668 537.013 55.2749 537.173 55.075C537.959 54.0968 538.793 53.143 539.653 52.24C539.833 52.0563 540.124 52.0472 540.309 52.2237C540.495 52.4005 540.502 52.6944 540.325 52.8797C539.483 53.764 538.666 54.6979 537.897 55.6562C537.879 55.6791 537.859 55.6994 537.837 55.7177ZM547.768 46.624C547.753 46.6365 547.738 46.6481 547.722 46.6586C546.702 47.3389 545.699 48.0703 544.743 48.833C544.542 48.9928 544.25 48.9598 544.091 48.7594C543.931 48.5586 543.958 48.2666 544.164 48.1072C545.142 47.3282 546.165 46.5812 547.207 45.8866C547.42 45.7445 547.708 45.8018 547.85 46.0153C547.982 46.2126 547.943 46.4737 547.768 46.624Z" fill="#91B3FA"/>
<path d="M554.73 42.8334C554.696 42.8631 554.656 42.8882 554.612 42.9073C554.049 43.1519 553.488 43.4092 552.944 43.6726C552.714 43.7844 552.436 43.6877 552.325 43.4574C552.213 43.2265 552.308 42.9493 552.54 42.8372C553.095 42.5685 553.668 42.3056 554.243 42.0558C554.478 41.9539 554.752 42.0616 554.853 42.2965C554.936 42.4883 554.88 42.7043 554.73 42.8334Z" fill="#91B3FA"/>
<path d="M562.582 50.4601C562.359 50.5001 562.185 50.6776 562.149 50.902L561.146 57.3095C558.364 58.5077 555.753 60.1579 553.435 62.2413L547.2 60.471C546.982 60.4089 546.748 60.4926 546.618 60.6789L542.169 67.0605C542.039 67.2472 542.042 67.4957 542.176 67.6792L545.994 72.9161C544.842 75.8122 544.197 78.8325 544.035 81.857L538.371 85.0158C538.172 85.1265 538.066 85.351 538.106 85.5747L539.473 93.2328C539.513 93.4569 539.691 93.6306 539.915 93.6657L546.323 94.6694C547.521 97.4509 549.171 100.061 551.255 102.38L549.484 108.615C549.422 108.834 549.505 109.068 549.692 109.198L556.074 113.646C556.26 113.776 556.509 113.773 556.692 113.639L561.93 109.821C564.826 110.973 567.846 111.618 570.87 111.78L574.029 117.444C574.14 117.642 574.364 117.749 574.588 117.709L582.246 116.342C582.47 116.302 582.644 116.124 582.679 115.899L583.683 109.492C586.464 108.294 589.075 106.644 591.393 104.561L597.628 106.331C597.847 106.393 598.081 106.309 598.211 106.123L602.659 99.7411C602.789 99.5548 602.787 99.3062 602.653 99.1225L598.834 93.8856C599.986 90.9895 600.631 87.969 600.793 84.9446L606.457 81.7859C606.656 81.6753 606.762 81.4506 606.722 81.2267L605.355 73.5686C605.315 73.3449 605.138 73.1709 604.913 73.1357L598.506 72.132C597.308 69.3505 595.657 66.74 593.574 64.4215L595.344 58.1865C595.407 57.9681 595.323 57.7339 595.137 57.6041L588.755 53.1558C588.568 53.0258 588.32 53.0284 588.136 53.1623L582.899 56.9806C580.003 55.8286 576.983 55.1835 573.958 55.0217L570.799 49.3575C570.689 49.159 570.464 49.0524 570.24 49.0924L562.582 50.4601Z" fill="#91B3FA"/>
<path d="M577.382 89.1614C576.836 89.6319 576.218 90.026 575.542 90.3311C573.691 91.1666 571.626 91.2313 569.726 90.5128C567.826 89.7949 566.32 88.38 565.484 86.5286C564.649 84.6772 564.584 82.6117 565.303 80.7121C566.021 78.8126 567.435 77.3059 569.287 76.4702C571.138 75.6348 573.204 75.5702 575.104 76.2887C577.003 77.0066 578.51 78.4215 579.345 80.2729C580.18 82.1242 580.245 84.1898 579.527 86.0895C579.071 87.2957 578.334 88.3434 577.382 89.1614ZM568.356 78.6949C567.579 79.3631 566.977 80.2191 566.605 81.2049C566.018 82.7566 566.07 84.4441 566.753 85.9564C567.436 87.4686 568.666 88.6246 570.218 89.2113C571.77 89.7979 573.457 89.7451 574.97 89.0625C576.483 88.3806 577.638 87.1498 578.225 85.5973C578.812 84.0455 578.759 82.3581 578.076 80.8457C577.394 79.3336 576.163 78.1775 574.611 77.5909C573.059 77.0042 571.371 77.0567 569.859 77.7392C569.307 77.9884 568.803 78.3106 568.356 78.6949Z" fill="#BDD0FB"/>
<path d="M585.154 98.3196C578.58 103.973 568.758 104.713 561.325 99.5311C559.953 98.575 558.742 97.4728 557.699 96.2599C552.044 89.6867 551.304 79.8635 556.486 72.4287C556.579 72.2952 556.674 72.1628 556.77 72.0313C557.421 71.1464 558.143 70.3178 558.925 69.5605C559.016 69.4719 559.108 69.3842 559.201 69.2978L560.15 70.3168C559.215 71.1866 558.367 72.1652 557.628 73.2249C557.62 73.2348 557.614 73.2449 557.607 73.2549C551.934 81.4291 553.954 92.697 562.12 98.3889C570.297 104.088 581.584 102.072 587.285 93.896C592.096 86.9934 591.408 77.8724 586.158 71.7693C585.189 70.643 584.065 69.6198 582.792 68.7321C580.104 66.8585 576.964 65.7497 573.713 65.5263L573.809 64.1377C577.311 64.3785 580.693 65.5721 583.588 67.5899C584.959 68.5462 586.17 69.6481 587.213 70.8612C592.868 77.4344 593.608 87.2577 588.427 94.6923C587.47 96.0646 586.367 97.2763 585.154 98.3196Z" fill="#BDD0FB"/>
<path d="M181.384 510.625C181.384 515.433 185.322 519.366 190.134 519.366H663.286C668.098 519.366 672.036 515.433 672.036 510.625L675.973 238.718C675.973 233.91 670.308 224.524 659.927 225.229L197.511 213.264C191.473 213.108 185.635 215.432 181.359 219.694C177.083 223.956 174.744 229.783 174.887 235.816L181.384 510.625Z" fill="url(#paint1_linear_108_2)"/>
<path d="M190.022 502.239C190.022 506.791 193.747 510.517 198.3 510.517H651.875C656.428 510.517 660.153 506.791 660.153 502.239L663.868 255.399C663.431 240.544 650.408 235.206 642.514 235.521L199.33 223.631C195.088 223.517 190.986 225.152 187.982 228.148C184.977 231.145 183.325 235.246 183.431 239.489L190.022 502.239Z" fill="#91B3FA"/>
<path d="M655.252 384.972C655.246 384.972 655.24 384.972 655.24 384.972C654.564 384.963 654.028 384.412 654.039 383.741L654.332 363.723C654.342 363.059 654.883 362.527 655.544 362.527C655.551 362.527 655.557 362.527 655.563 362.527C656.233 362.537 656.768 363.088 656.758 363.759L656.464 383.777C656.455 384.441 655.913 384.972 655.252 384.972Z" fill="#BDD0FB"/>
<path d="M655.972 335.917C655.966 335.917 655.96 335.917 655.954 335.917C655.284 335.907 654.749 335.355 654.759 334.686L655.884 258.015C655.863 253.461 654.481 249.825 651.775 247.232C646.725 242.393 638.706 242.64 638.368 242.656L496.717 238.858C496.047 238.841 495.519 238.283 495.537 237.613C495.555 236.943 496.069 236.373 496.783 236.434L638.35 240.232C639.23 240.18 647.768 240.032 653.454 245.48C656.652 248.545 658.286 252.767 658.31 258.027L657.184 334.722C657.175 335.386 656.633 335.917 655.972 335.917Z" fill="#BDD0FB"/>
<path d="M144.136 541.938H699.691C700.316 541.938 700.827 541.426 700.827 540.801V519.183C700.827 518.558 700.316 518.047 699.691 518.047H144.136C143.511 518.047 143 518.558 143 519.183V540.801C143 541.426 143.511 541.938 144.136 541.938Z" fill="url(#paint2_linear_108_2)"/>
<path d="M281.854 121.888C281.854 105.239 295.35 91.7435 311.998 91.7435H568.344C582.487 91.7435 594.148 102.827 594.867 116.951L613.789 488.604C614.352 499.657 605.651 508.98 594.586 509.181L300.781 514.521C290.384 514.71 281.854 506.333 281.854 495.935V121.888H281.854Z" fill="url(#paint3_linear_108_2)"/>
<path d="M343.722 508.203H343.713L310.837 507.778C299.845 507.635 290.902 498.576 290.902 487.583V437.948C290.902 437.56 291.216 437.246 291.603 437.246C291.991 437.246 292.305 437.56 292.305 437.948V487.583C292.305 497.812 300.627 506.241 310.856 506.374L343.73 506.799C344.118 506.804 344.428 507.123 344.423 507.51C344.418 507.894 344.105 508.203 343.722 508.203Z" fill="#91B3FA"/>
<path d="M291.603 423.274C291.216 423.274 290.902 422.961 290.902 422.573V414.534C290.902 414.146 291.216 413.833 291.603 413.833C291.991 413.833 292.305 414.146 292.305 414.534V422.573C292.305 422.96 291.991 423.274 291.603 423.274Z" fill="#91B3FA"/>
<path d="M302.856 97.4641C302.824 92.1378 307.508 88.0153 312.787 88.731C347.793 93.4781 468.171 108.16 567.698 100.52C572.237 100.172 576.175 103.611 576.417 108.157L596.258 481.467C596.53 486.586 592.621 490.963 587.504 491.266C545.645 493.743 373.256 503.319 311.767 496.879C308.025 496.486 305.184 493.336 305.162 489.573L302.856 97.4641Z" fill="#7D97F4"/>
<path d="M306.979 106.819C306.949 101.693 311.457 97.7256 316.537 98.4146C350.225 102.983 466.07 117.112 561.849 109.76C566.217 109.425 570.007 112.734 570.24 117.109L589.333 476.362C589.595 481.288 585.833 485.5 580.909 485.792C540.626 488.175 374.729 497.391 315.555 491.193C311.954 490.816 309.22 487.784 309.199 484.163L306.979 106.819Z" fill="#BDD0FB"/>
<path opacity="0.78" d="M338.165 134.517L341.743 211.537C341.862 214.099 343.931 216.136 346.494 216.208C360.759 216.61 405.207 217.694 430.304 216.386C433.142 216.238 435.388 213.941 435.482 211.1C435.961 196.656 437.008 154.615 433.717 137.041C433.185 134.202 430.745 132.122 427.859 132.021L343.547 129.072C340.507 128.966 338.024 131.478 338.165 134.517Z" fill="white"/>
<g opacity="0.6">
<path d="M549.1 141.221C550.752 141.221 552.07 140.059 552.028 138.638C551.987 137.217 550.601 136.03 548.95 136L456.496 134.353C454.844 134.323 453.942 135.574 454.49 137.132L454.933 138.388C455.481 139.947 457.282 141.221 458.934 141.221H549.1Z" fill="white"/>
</g>
<g opacity="0.6">
<path d="M456.496 148.711C454.844 148.682 453.942 149.932 454.49 151.491L454.933 152.747C455.481 154.305 457.282 155.58 458.934 155.58H549.1C550.752 155.58 552.07 154.417 552.028 152.996C551.986 151.575 550.601 150.388 548.949 150.359L456.496 148.711Z" fill="white"/>
</g>
<g opacity="0.6">
<path d="M456.496 163.278C454.844 163.249 453.942 164.5 454.49 166.058L454.933 167.314C455.481 168.872 457.282 170.147 458.934 170.147H549.1C550.752 170.147 552.07 168.984 552.028 167.563C551.986 166.142 550.601 164.955 548.949 164.926L456.496 163.278Z" fill="white"/>
</g>
<g opacity="0.6">
<path d="M558.08 240.397C559.732 240.397 561.007 239.234 560.913 237.813C560.819 236.392 559.391 235.219 557.739 235.206L341.144 233.498C339.492 233.485 338.982 234.532 340.011 235.824L341.781 238.047C342.81 239.339 345.003 240.397 346.655 240.397H558.08V240.397Z" fill="white"/>
</g>
<g opacity="0.6">
<path d="M341.144 251.917C339.492 251.904 338.982 252.951 340.011 254.244L341.781 256.466C342.81 257.759 345.003 258.816 346.655 258.816H558.08C559.732 258.816 561.007 257.653 560.913 256.232C560.819 254.811 559.391 253.638 557.739 253.625L341.144 251.917Z" fill="white"/>
</g>
<path d="M368.117 345.772C368.101 345.772 368.084 345.772 368.067 345.772L349.787 345.597C347.175 345.571 345.019 343.774 344.772 341.417L343.165 326.079C343.071 325.179 343.35 324.289 343.952 323.573C344.626 322.772 345.646 322.269 346.749 322.193C348.29 322.088 350.458 321.903 352.754 321.707C357.589 321.295 363.607 320.784 366.992 320.741C369.449 320.729 371.532 322.182 372.111 324.321C373.064 327.842 372.98 334.507 372.799 341.607C372.74 343.914 370.645 345.772 368.117 345.772ZM346.845 323.593C346.12 323.643 345.457 323.965 345.027 324.476C344.672 324.898 344.507 325.415 344.561 325.933L346.168 341.271C346.341 342.918 347.903 344.175 349.801 344.193L368.081 344.369C368.093 344.369 368.105 344.369 368.118 344.369C369.889 344.369 371.356 343.121 371.396 341.572C371.574 334.579 371.659 328.027 370.756 324.688C370.351 323.191 368.795 322.15 367.01 322.145C363.675 322.187 357.686 322.696 352.874 323.106C350.571 323.302 348.397 323.487 346.845 323.593Z" fill="white"/>
<path opacity="0.6" d="M348.812 325.176C352.653 324.914 360.999 324.066 364.958 324.017C366.635 323.996 368.106 325.009 368.5 326.464C369.264 329.289 369.162 334.92 369.03 340.117C368.99 341.673 367.561 342.915 365.815 342.899L351.207 342.759C349.41 342.741 347.919 341.516 347.752 339.921L346.467 327.664C346.335 326.396 347.389 325.274 348.812 325.176Z" fill="white"/>
<g opacity="0.6">
<path d="M384.174 335.588C384.703 337.595 386.526 338.987 388.601 338.969L557.739 337.527C559.652 337.511 561.183 335.933 561.141 334.02C561.1 332.16 559.585 330.671 557.725 330.663L388.583 329.891C385.597 329.878 383.412 332.701 384.174 335.588Z" fill="white"/>
</g>
<path d="M368.117 384.952C368.101 384.952 368.084 384.952 368.067 384.952L349.787 384.776C347.175 384.751 345.019 382.954 344.772 380.597L343.165 365.259C343.071 364.358 343.35 363.469 343.952 362.752C344.626 361.951 345.646 361.448 346.749 361.372C348.29 361.267 350.458 361.082 352.754 360.887C357.589 360.475 363.607 359.963 366.992 359.92C367.017 359.92 367.041 359.919 367.066 359.919C369.47 359.919 371.538 361.383 372.111 363.501C373.063 367.022 372.98 373.686 372.798 380.786C372.74 383.093 370.645 384.952 368.117 384.952ZM346.845 362.773C346.12 362.822 345.457 363.144 345.027 363.656C344.672 364.077 344.507 364.595 344.561 365.112L346.168 380.45C346.341 382.098 347.903 383.354 349.801 383.373L368.081 383.548C368.093 383.548 368.105 383.548 368.118 383.548C369.889 383.548 371.356 382.3 371.396 380.751C371.574 373.759 371.659 367.206 370.756 363.867C370.351 362.371 368.772 361.296 367.01 361.324C363.675 361.366 357.686 361.876 352.874 362.286C350.571 362.481 348.397 362.667 346.845 362.773Z" fill="white"/>
<path opacity="0.6" d="M348.812 364.356C352.653 364.093 360.999 363.246 364.958 363.197C366.635 363.176 368.106 364.189 368.5 365.644C369.264 368.468 369.162 374.099 369.03 379.296C368.99 380.853 367.561 382.095 365.815 382.078L351.207 381.938C349.41 381.921 347.919 380.696 347.752 379.101L346.467 366.844C346.335 365.576 347.389 364.453 348.812 364.356Z" fill="white"/>
<g opacity="0.6">
<path d="M384.174 374.767C384.703 376.774 386.526 378.166 388.601 378.149L557.739 376.706C559.652 376.69 561.183 375.112 561.141 373.199C561.1 371.34 559.585 369.851 557.725 369.842L388.583 369.071C385.597 369.057 383.412 371.88 384.174 374.767Z" fill="white"/>
</g>
<path d="M368.117 424.131C368.101 424.131 368.084 424.131 368.067 424.131L349.787 423.956C347.175 423.931 345.019 422.134 344.772 419.777L343.165 404.439C343.071 403.538 343.35 402.648 343.953 401.932C344.626 401.13 345.645 400.627 346.749 400.551C348.289 400.446 350.458 400.261 352.754 400.066C357.589 399.654 363.607 399.142 366.992 399.1C367.017 399.1 367.041 399.099 367.066 399.099C369.47 399.099 371.538 400.563 372.111 402.68C373.063 406.201 372.98 412.866 372.798 419.966C372.74 422.272 370.645 424.131 368.117 424.131ZM346.845 401.952C346.12 402.002 345.457 402.324 345.027 402.835C344.672 403.256 344.507 403.774 344.561 404.292L346.168 419.63C346.341 421.277 347.903 422.534 349.8 422.552L368.081 422.727C368.093 422.727 368.105 422.727 368.118 422.727C369.889 422.727 371.356 421.479 371.396 419.93C371.574 412.937 371.659 406.385 370.756 403.046C370.351 401.55 368.772 400.47 367.01 400.503C363.675 400.545 357.686 401.055 352.874 401.465C350.571 401.661 348.397 401.846 346.845 401.952Z" fill="white"/>
<path opacity="0.6" d="M348.812 403.535C352.653 403.273 360.999 402.426 364.958 402.376C366.635 402.355 368.106 403.369 368.5 404.823C369.264 407.648 369.162 413.279 369.03 418.476C368.99 420.032 367.561 421.275 365.815 421.258L351.207 421.118C349.41 421.1 347.919 419.875 347.752 418.28L346.467 406.023C346.335 404.755 347.389 403.633 348.812 403.535Z" fill="white"/>
<g opacity="0.6">
<path d="M384.174 413.947C384.703 415.954 386.526 417.346 388.601 417.328L557.739 415.886C559.652 415.87 561.183 414.292 561.141 412.379C561.1 410.519 559.585 409.03 557.725 409.022L388.583 408.25C385.597 408.237 383.412 411.06 384.174 413.947Z" fill="white"/>
</g>
<path d="M368.117 463.31C368.101 463.31 368.084 463.31 368.067 463.31L349.787 463.135C347.175 463.11 345.019 461.314 344.772 458.956L343.165 443.618C343.071 442.718 343.35 441.827 343.953 441.111C344.626 440.31 345.645 439.807 346.749 439.731C348.289 439.626 350.458 439.441 352.754 439.246C357.589 438.834 363.607 438.322 366.992 438.279C367.017 438.279 367.041 438.279 367.066 438.279C369.47 438.279 371.538 439.743 372.111 441.86C373.063 445.381 372.98 452.045 372.798 459.146C372.74 461.452 370.645 463.31 368.117 463.31ZM346.845 441.132C346.12 441.181 345.457 441.503 345.027 442.015C344.672 442.436 344.507 442.954 344.561 443.472L346.168 458.81C346.341 460.457 347.903 461.713 349.8 461.731L368.081 461.907C368.093 461.907 368.105 461.907 368.118 461.907C369.889 461.907 371.356 460.659 371.396 459.11C371.574 452.117 371.659 445.565 370.756 442.226C370.351 440.73 368.772 439.645 367.01 439.683C363.675 439.725 357.686 440.235 352.874 440.645C350.571 440.84 348.397 441.025 346.845 441.132Z" fill="white"/>
<path opacity="0.6" d="M348.812 442.715C352.653 442.452 360.999 441.605 364.958 441.555C366.635 441.535 368.106 442.548 368.5 444.002C369.264 446.827 369.162 452.458 369.03 457.655C368.99 459.212 367.561 460.454 365.815 460.437L351.207 460.297C349.41 460.28 347.919 459.055 347.752 457.46L346.467 445.203C346.335 443.935 347.389 442.812 348.812 442.715Z" fill="white"/>
<g opacity="0.6">
<path d="M384.174 453.126C384.703 455.133 386.526 456.525 388.601 456.507L557.739 455.065C559.652 455.049 561.183 453.471 561.141 451.558C561.1 449.698 559.585 448.209 557.725 448.201L388.583 447.429C385.597 447.416 383.412 450.239 384.174 453.126Z" fill="white"/>
</g>
<path d="M366.505 311.682C366.488 311.682 366.471 311.682 366.455 311.682L348.174 311.506C345.563 311.482 343.407 309.685 343.159 307.328L341.553 291.99C341.458 291.089 341.738 290.199 342.34 289.482C343.014 288.681 344.033 288.178 345.137 288.102C346.677 287.997 348.846 287.812 351.142 287.617C355.977 287.205 361.994 286.693 365.38 286.651C365.404 286.651 365.429 286.65 365.453 286.65C367.857 286.65 369.925 288.114 370.498 290.231C371.451 293.752 371.367 300.417 371.186 307.517C371.127 309.823 369.032 311.682 366.505 311.682ZM345.233 289.503C344.507 289.552 343.844 289.874 343.414 290.386C343.06 290.807 342.895 291.325 342.949 291.843L344.556 307.181C344.728 308.829 346.29 310.085 348.188 310.103L366.469 310.278C366.481 310.278 366.493 310.278 366.505 310.278C368.277 310.278 369.743 309.03 369.783 307.481C369.961 300.489 370.047 293.936 369.144 290.597C368.739 289.102 367.16 288.016 365.397 288.054C362.062 288.096 356.073 288.606 351.261 289.016C348.959 289.212 346.784 289.397 345.233 289.503Z" fill="white"/>
<path opacity="0.6" d="M347.199 291.086C351.04 290.824 359.386 289.976 363.345 289.927C365.022 289.906 366.493 290.919 366.887 292.374C367.651 295.199 367.549 300.83 367.417 306.026C367.377 307.583 365.948 308.825 364.202 308.809L349.594 308.668C347.797 308.651 346.306 307.426 346.139 305.831L344.854 293.574C344.721 292.306 345.776 291.183 347.199 291.086Z" fill="white"/>
<g opacity="0.6">
<path d="M382.561 301.498C383.09 303.504 384.913 304.897 386.988 304.879L556.126 303.437C558.039 303.42 559.57 301.843 559.528 299.93C559.488 298.07 557.973 296.581 556.112 296.572L386.97 295.801C383.985 295.787 381.799 298.611 382.561 301.498Z" fill="white"/>
</g>
<path d="M456.07 41.0705C446.81 34.6287 438.759 34.7563 433.091 36.4287C427.921 37.9543 424.57 42.946 425.062 48.3141L427.506 74.9931L456.592 77.5743C456.592 77.5743 474.23 53.7036 456.07 41.0705ZM443.279 62.5939C439.274 62.5939 436.027 59.3471 436.027 55.3416C436.027 51.3361 439.274 48.0891 443.279 48.0891C447.285 48.0891 450.532 51.3361 450.532 55.3416C450.532 59.3471 447.285 62.5939 443.279 62.5939Z" fill="url(#paint4_linear_108_2)"/>
<path d="M430.412 63.7704C430.053 63.7704 429.747 63.4968 429.714 63.1323L429.325 58.8836C429.289 58.4977 429.573 58.1564 429.959 58.1206C430.353 58.0837 430.687 58.3695 430.722 58.7561L431.111 63.0048C431.147 63.3907 430.863 63.732 430.477 63.7677C430.455 63.7698 430.433 63.7704 430.412 63.7704ZM429.649 55.4442C429.29 55.4442 428.984 55.1707 428.951 54.8061L428.655 51.5806C428.186 46.4669 431.404 41.7053 436.306 40.2585C439.777 39.2339 443.354 39.0872 446.936 39.8219C447.316 39.8993 447.561 40.2709 447.483 40.6506C447.405 41.0296 447.037 41.2722 446.654 41.1968C443.299 40.5101 439.952 40.6463 436.703 41.6046C432.442 42.8623 429.645 47.0041 430.053 51.4532L430.348 54.6787C430.384 55.0646 430.1 55.406 429.714 55.4416C429.692 55.4434 429.67 55.4442 429.649 55.4442Z" fill="#91B3FA"/>
<path d="M387.81 92.2345V78.8211C387.81 74.1908 391.647 70.4823 396.275 70.6409L488.754 73.8093C492.858 73.9498 496.182 77.1894 496.428 81.2887L497.201 94.1771L387.81 92.2345Z" fill="url(#paint5_linear_108_2)"/>
<path d="M422.293 75.6949H418.316C417.928 75.6949 417.614 75.381 417.614 74.9931C417.614 74.605 417.929 74.2913 418.316 74.2913H422.293C422.681 74.2913 422.995 74.6052 422.995 74.9931C422.995 75.381 422.681 75.6949 422.293 75.6949Z" fill="#91B3FA"/>
<path d="M392.815 88.0227C392.428 88.0227 392.113 87.7088 392.113 87.3209V81.8947C392.113 77.702 395.524 74.2916 399.717 74.2916H414.338C414.726 74.2916 415.04 74.6056 415.04 74.9934C415.04 75.3813 414.726 75.6953 414.338 75.6953H399.717C396.298 75.6953 393.517 78.4766 393.517 81.8947V87.3209C393.517 87.7088 393.203 88.0227 392.815 88.0227Z" fill="#91B3FA"/>
<path d="M350.128 95.6217C350.351 90.9768 354.182 87.3257 358.832 87.3255L520.55 87.321C526.365 87.3208 531.336 91.5054 532.328 97.2351L532.465 98.0258C533.551 104.302 528.719 110.042 522.35 110.042H356.438C352.626 110.042 349.588 106.855 349.772 103.047L350.128 95.6217Z" fill="url(#paint6_linear_108_2)"/>
<path d="M369.705 186.701V183.417C369.705 180.413 370.166 177.794 371.09 175.557C372.012 173.321 373.694 170.919 376.134 168.354C378.449 165.82 379.927 163.834 380.568 162.394C381.209 160.956 381.53 159.126 381.53 156.904C381.53 154.871 381.061 153.214 380.123 151.93C379.184 150.648 377.698 150.006 375.665 150.006C372.286 150.006 368.735 151.211 365.013 153.619L360.602 144.234C365.513 140.888 370.956 139.214 376.932 139.214C382.094 139.214 386.168 140.645 389.156 143.507C392.142 146.369 393.637 150.351 393.637 155.449C393.637 159.016 393.121 162.042 392.088 164.529C391.056 167.016 388.913 170.012 385.659 173.515C383.563 175.799 382.226 177.559 381.647 178.794C381.068 180.03 380.779 181.712 380.779 183.838V186.701H369.705V186.701ZM367.5 202.374C367.5 199.903 368.164 198.003 369.494 196.673C370.823 195.344 372.755 194.678 375.289 194.678C377.854 194.678 379.794 195.359 381.108 196.72C382.422 198.08 383.079 199.965 383.079 202.374C383.079 204.752 382.405 206.629 381.061 208.005C379.715 209.381 377.791 210.069 375.289 210.069C372.786 210.069 370.862 209.396 369.517 208.051C368.172 206.708 367.5 204.814 367.5 202.374Z" fill="url(#paint7_linear_108_2)"/>
<path d="M267.788 576.976C267.788 576.976 266.728 582.977 266.209 588.916C266.006 591.237 267.795 593.253 270.123 593.35C278.033 593.679 294.953 594.32 301.024 594.049C301.936 594.008 302.533 593.074 302.195 592.225C301.912 591.514 301.366 590.938 300.671 590.619L272.723 577.774L267.788 576.976Z" fill="url(#paint8_linear_108_2)"/>
<path d="M266.92 573.451L267.771 580.628C267.771 580.628 272.667 582.907 276.011 580.341L273.983 572.342L266.92 573.451Z" fill="url(#paint9_linear_108_2)"/>
<path d="M267.56 438.52C267.192 440.394 265.585 532.049 275.382 573.123C275.542 573.793 275.203 574.484 274.565 574.745C273.062 575.359 270.116 576.248 266.586 576.366C265.492 576.403 264.512 575.692 264.204 574.643C261.403 565.113 247.984 517.366 246.233 471.755C244.277 420.789 246.233 470.02 246.233 470.02L247.38 438.516L267.56 438.52Z" fill="url(#paint10_linear_108_2)"/>
<path d="M235.639 580.107C235.639 580.107 233.952 583.136 232.319 591.185C232.024 592.639 233.039 594.03 234.516 594.175C237.127 594.432 241.148 594.762 244.369 594.74C245.854 594.73 247.012 593.437 246.833 591.963C246.477 589.025 245.365 584.205 241.932 580.448L235.639 580.107Z" fill="url(#paint11_linear_108_2)"/>
<path d="M234.157 570.875L236.147 581.729C236.147 581.729 238.114 583.192 242.006 582.131L241.057 570.454L234.157 570.875Z" fill="url(#paint12_linear_108_2)"/>
<path d="M228.782 441.332C220.769 489.69 230.52 560.853 233.809 574.781C234.01 575.634 234.698 576.288 235.563 576.431C237.031 576.674 239.447 576.873 241.83 576.181C242.651 575.942 243.228 575.202 243.261 574.348C243.702 563.087 242.908 493.958 250.375 466.638C250.753 465.253 251.598 464.046 252.768 463.214L267.259 452.912L268.37 436.259L228.782 441.332Z" fill="url(#paint13_linear_108_2)"/>
<path d="M279.84 349.703C255.827 349.306 229.331 356.008 229.331 356.008C222.173 397.773 228.079 445.947 228.079 445.947C246.669 450.822 267.64 442.966 267.64 442.966C270.73 425.509 285.146 376.38 285.146 376.38C296.879 374.923 306.544 371.538 314.504 367.063C308.432 360.026 305.57 351.071 304.327 345.777C295.837 348.416 287.246 349.825 279.84 349.703Z" fill="url(#paint14_linear_108_2)"/>
<path d="M350.77 314.333C348.411 311.484 345.426 312.832 345.426 312.832C341.892 327.759 323.363 339.862 304.328 345.777C305.571 351.071 308.433 360.026 314.504 367.063C346.095 349.301 350.77 314.333 350.77 314.333Z" fill="url(#paint15_linear_108_2)"/>
<path d="M350.198 315.058C350.445 315.842 347.586 317.037 345.903 313.828C345.845 312.29 344.909 305.701 345.828 304.448C350.723 297.774 360.213 289.409 360.213 289.409C361.817 290.991 360.496 292.546 360.496 292.546L355.892 297.342C356.855 299.082 358.03 300.551 358.58 302.656C358.997 304.25 358.742 305.953 357.937 307.404C357.129 308.86 356.026 310.753 354.984 312.234C353.011 315.036 350.198 315.058 350.198 315.058Z" fill="url(#paint16_linear_108_2)"/>
<path d="M353.879 300.453L349.683 304.01L348.366 307.551L352.107 311.7C352.107 311.7 353.364 304.675 354.299 303.154C355.234 301.634 354.749 300.898 353.879 300.453Z" fill="url(#paint17_linear_108_2)"/>
<path d="M238.542 379.26L229.331 356.008C229.331 356.008 206.902 371.248 203.213 390.57C207.451 390.882 215.163 391.985 222.712 395.796C224.371 386.672 238.542 379.26 238.542 379.26Z" fill="url(#paint18_linear_108_2)"/>
<path d="M258.143 401.139C258.143 401.139 232.96 415.37 224.463 403.218C222.699 400.695 222.277 398.187 222.712 395.796C215.163 391.985 207.452 390.882 203.213 390.57C202.101 396.395 202.689 402.591 206.112 408.852C220.996 436.079 261.475 407.347 261.475 407.347L258.143 401.139Z" fill="url(#paint19_linear_108_2)"/>
<path d="M255.117 419.144L268.861 371.147C269.017 370.602 269.481 370.205 270.044 370.139C272.534 369.849 279.75 369.033 288.081 368.328C298.116 367.48 309.769 366.792 316.733 367.377C317.723 367.46 318.321 368.507 317.881 369.398C313.921 377.409 297.632 409.999 289.475 420.675C289.204 421.028 288.787 421.235 288.342 421.231L256.454 420.934C255.526 420.926 254.861 420.036 255.117 419.144Z" fill="url(#paint20_linear_108_2)"/>
<path d="M289.507 364.168L299.471 362.507C300.002 362.419 300.436 362.926 300.268 363.437L299.281 366.426C299.195 366.686 298.969 366.874 298.697 366.911L289.108 368.192C288.612 368.258 288.203 367.807 288.317 367.32L288.927 364.71C288.993 364.429 289.222 364.215 289.507 364.168Z" fill="#91B3FA"/>
<path d="M282.045 372.604L282.866 368.328C282.948 367.899 283.302 367.575 283.737 367.531L303.863 365.488C304.54 365.42 305.083 366.041 304.924 366.703L303.644 372.031C303.542 372.457 303.171 372.765 302.733 372.787L283.066 373.777C282.425 373.809 281.924 373.233 282.045 372.604Z" fill="#91B3FA"/>
<path d="M258.437 407.548C258.437 407.548 256.523 399.675 257.295 396.882C258.067 394.089 259.563 390.498 264.551 391.296C269.538 392.094 275.422 394.196 275.422 394.196C275.422 394.196 275.124 397.834 271.334 396.66L273.684 398.479C273.684 398.479 273.348 401.391 270.147 399.835L272.333 402.247C272.333 402.247 270.958 404.64 268.602 403.105C266.247 401.57 265.118 408.496 258.437 407.548Z" fill="url(#paint21_linear_108_2)"/>
<path d="M255.517 330.208L247.876 352.304C247.75 352.67 247.9 353.075 248.239 353.263C250.322 354.414 257.826 357.743 266.868 352.01C267.81 351.412 268.452 350.438 268.595 349.332L271.069 330.208H255.517Z" fill="url(#paint22_linear_108_2)"/>
<path d="M272.141 309.746C272.141 309.746 280.532 325.54 279.456 331.92C278.381 338.3 267.982 337.841 258.902 332.66L252.557 315.607L272.141 309.746Z" fill="url(#paint23_linear_108_2)"/>
<path d="M259.304 324.285C259.673 324.122 259.809 323.67 259.588 323.332C258.916 322.305 257.656 320.21 257.254 318.376C257.254 318.376 255.746 317.41 261.093 316.13C266.44 314.85 274.414 312.864 276.09 308.312C277.724 303.875 273.431 292.715 266.581 301.607C266.32 301.945 265.809 301.953 265.549 301.614C264.426 300.153 261.474 297.119 257.375 298.958C253.539 300.679 253.107 303.49 253.16 304.907C253.176 305.323 252.803 305.647 252.393 305.569C250.454 305.2 245.8 304.882 243.628 309.656C241.839 313.588 243.002 315.814 244.061 316.903C244.404 317.256 244.254 317.836 243.783 317.98C242.509 318.371 240.863 319.451 241.027 322.437C241.255 326.566 245.87 326.202 247.184 326.014C247.4 325.983 247.617 326.057 247.763 326.218C248.889 327.465 253.966 332.759 259.46 333.397C259.936 333.453 260.305 332.983 260.149 332.53L257.771 325.618C257.661 325.297 257.814 324.945 258.125 324.807L259.304 324.285Z" fill="url(#paint24_linear_108_2)"/>
<path d="M260.26 325.266C260.26 325.266 254.286 321.167 253.849 324.619C253.413 328.071 259.229 329.619 262.11 328.332L260.26 325.266Z" fill="url(#paint25_linear_108_2)"/>
<path d="M544.55 320.644C544.943 319.892 546.056 320.011 546.283 320.828C547.124 323.855 549.159 329.136 553.429 331.012C553.645 331.106 553.848 331.202 554.045 331.298C554.239 330.717 554.242 330.043 553.778 329.334C552.45 327.305 554.847 324.534 554.847 324.534C554.847 324.534 555.006 326.975 556.861 328.511C558.458 329.835 559.226 332.78 558.134 335.197C555.823 344.174 552.362 356.048 565.843 364.722C579.324 373.396 598.309 348.351 598.309 348.351L588.887 378.223C588.887 378.223 574.342 388.956 557.425 373.864C540.507 358.772 551.72 336.811 551.72 336.811C551.72 336.811 538.817 331.606 544.55 320.644Z" fill="url(#paint26_linear_108_2)"/>
<path d="M600.67 304.46C600.67 304.46 596.765 286.941 616.833 291.578C616.833 291.578 626.575 289.986 627.07 299.181C627.07 299.181 633.349 303.319 628.752 311.276C628.752 311.276 647.414 304.068 655.544 320.425C663.675 336.782 656.201 345.782 648.366 348.126C648.366 348.126 654.714 351.314 651.709 358.51C648.705 365.707 633.488 370.78 624.5 362.028C624.5 362.028 598.923 365.408 599.434 347.342C599.434 347.342 587.538 339.66 600.033 324.73C612.528 309.799 600.67 304.46 600.67 304.46Z" fill="url(#paint27_linear_108_2)"/>
<path d="M599.568 345.07C603.601 343.861 615.343 341.629 626.511 351.935C628.405 353.683 629.18 356.34 628.504 358.827C625.504 369.871 617.589 402.499 624.529 416.617C624.529 416.617 612.3 430.099 598.958 419.233C598.958 419.233 592.971 393.143 585.131 381.689C579.717 373.782 593.762 351.996 597.316 346.732C597.854 345.935 598.647 345.346 599.568 345.07Z" fill="url(#paint28_linear_108_2)"/>
<path d="M610.703 323.128C610.703 323.128 616.667 339.998 617.116 347.441C617.116 347.441 610.524 350.438 604.313 345.379C604.313 345.379 603.662 328.529 602.72 325.512L610.703 323.128Z" fill="url(#paint29_linear_108_2)"/>
<path d="M602.419 300.127C602.419 300.127 586.819 321.957 596.144 328.298C605.469 334.639 616.574 319.125 616.574 319.125C616.574 319.125 620.193 307.177 616.408 303.123C612.624 299.07 602.419 300.127 602.419 300.127Z" fill="url(#paint30_linear_108_2)"/>
<path d="M609.638 294.91C609.638 294.91 602.472 296.608 601.468 299.85C600.464 303.093 611.63 306.1 614.759 306.247L617.28 319.331C617.28 319.331 624.733 307.022 621.781 299.914C618.829 292.805 609.638 294.91 609.638 294.91Z" fill="url(#paint31_linear_108_2)"/>
<path d="M613.549 317.519C613.549 317.519 619.621 310.487 622.036 315.071C624.451 319.656 616.571 323.098 613.843 320.847L613.549 317.519Z" fill="url(#paint32_linear_108_2)"/>
<path d="M583.383 474.011C583.428 475.196 581.349 484.591 580.217 489.602C579.762 491.618 580.079 493.729 581.105 495.522L620.3 561.489C620.774 562.287 621.119 563.151 621.329 564.055C622.047 567.151 623.537 574.738 622.759 581.64L620.732 585.851L629.501 583.86L631.409 560.31L628.926 558.797C626.782 557.489 625.112 555.534 624.155 553.211C620.611 544.602 611.81 522.689 609.542 512.009C606.963 499.871 593.485 490.013 593.485 490.013L595.853 484.415L583.383 474.011Z" fill="url(#paint33_linear_108_2)"/>
<path d="M639.247 575.756C639.247 575.756 634.511 568.249 633.954 565.326C633.397 562.404 631.846 557.243 628.926 558.797C628.926 558.797 627.551 572.993 628.025 578.54C628.499 584.087 621.754 583.909 621.754 583.909C621.754 583.909 619.895 584.17 618.534 585.531C617.594 586.471 618.266 588.102 619.592 588.187C621.799 588.33 625.306 588.367 628.987 587.656C630.274 587.407 631.227 586.312 631.305 585.004L632.277 568.665L638.25 576.208L639.247 575.756Z" fill="url(#paint34_linear_108_2)"/>
<path d="M606.797 484.519C606.797 484.519 608.179 543.526 608.366 551.906C608.553 560.287 607.043 578.858 598.642 584.41L602.297 587.116C602.297 587.116 606.866 583.233 611.329 575.76C616.343 567.365 617.859 565.832 617.859 565.832L616.195 562.424C615.467 560.933 615.253 559.245 615.588 557.619C617.401 548.833 623.458 519.606 625.11 513.312C627.06 505.883 627.199 495.961 620.414 487.656C613.629 479.351 606.797 484.519 606.797 484.519Z" fill="url(#paint35_linear_108_2)"/>
<path d="M614.554 589.776C614.815 589.778 615.037 589.592 615.073 589.334C615.353 587.366 616.517 579.48 617.469 577.438C618.56 575.099 622.124 565.255 617.467 564.42C617.467 564.42 605.891 581.333 603.668 583.613C601.446 585.894 598.642 584.41 598.642 584.41C598.642 584.41 596.476 585.05 594.843 587.136C594.066 588.129 594.79 589.587 596.051 589.599L603.849 589.674C606.114 589.695 608.15 588.319 608.992 586.217C610.365 582.789 612.722 577.76 615.47 575.529L614.043 589.202C614.011 589.507 614.248 589.773 614.554 589.776Z" fill="url(#paint36_linear_108_2)"/>
<path d="M597.112 412.871C597.112 412.871 598.869 418.471 596.17 427.696L579.424 486.173C579.161 487.092 579.657 488.054 580.556 488.377C585.565 490.174 602.031 495.255 624.509 493.706C625.641 493.628 626.59 492.827 626.836 491.719C628.317 485.053 633.37 462.307 634.411 457.633C638.375 439.825 642.802 420.62 623.328 409.008C614.353 412.852 605.982 415.118 597.112 412.871Z" fill="url(#paint37_linear_108_2)"/>
<path d="M628.109 354.139C628.109 354.139 647.162 369.973 651.89 391.61C656.619 413.246 624.049 415.546 624.049 415.546C624.049 415.546 619.628 410.609 614.378 412.369C609.129 414.13 613.972 403.752 620.114 403.78C626.255 403.807 623.41 408.663 632.099 404.728C640.562 400.894 645.793 389.038 624.199 371.065C622.948 370.023 621.949 368.695 621.347 367.182C617.152 356.621 620.48 349.699 628.109 354.139Z" fill="url(#paint38_linear_108_2)"/>
<defs>
<linearGradient id="paint0_linear_108_2" x1="767.863" y1="744.266" x2="278.511" y2="136.521" gradientUnits="userSpaceOnUse">
<stop stop-color="#DAE3FE"/>
<stop offset="1" stop-color="#E9EFFD"/>
</linearGradient>
<linearGradient id="paint1_linear_108_2" x1="337.549" y1="515.033" x2="550.048" y2="159.062" gradientUnits="userSpaceOnUse">
<stop stop-color="#09005D"/>
<stop offset="1" stop-color="#1A0F91"/>
</linearGradient>
<linearGradient id="paint2_linear_108_2" x1="443.659" y1="367.129" x2="422.309" y2="527.034" gradientUnits="userSpaceOnUse">
<stop stop-color="#09005D"/>
<stop offset="1" stop-color="#1A0F91"/>
</linearGradient>
<linearGradient id="paint3_linear_108_2" x1="639.818" y1="-32.8265" x2="314.994" y2="537.645" gradientUnits="userSpaceOnUse">
<stop stop-color="#4042E2"/>
<stop offset="1" stop-color="#4F52FF"/>
</linearGradient>
<linearGradient id="paint4_linear_108_2" x1="590.871" y1="-327.607" x2="539.438" y2="-193.611" gradientUnits="userSpaceOnUse">
<stop stop-color="#09005D"/>
<stop offset="1" stop-color="#1A0F91"/>
</linearGradient>
<linearGradient id="paint5_linear_108_2" x1="599.841" y1="-324.164" x2="548.408" y2="-190.167" gradientUnits="userSpaceOnUse">
<stop stop-color="#09005D"/>
<stop offset="1" stop-color="#1A0F91"/>
</linearGradient>
<linearGradient id="paint6_linear_108_2" x1="482.746" y1="22.126" x2="401.331" y2="171.619" gradientUnits="userSpaceOnUse">
<stop stop-color="#4042E2"/>
<stop offset="1" stop-color="#4F52FF"/>
</linearGradient>
<linearGradient id="paint7_linear_108_2" x1="385.576" y1="146.552" x2="251.566" y2="418.633" gradientUnits="userSpaceOnUse">
<stop stop-color="#FE7062"/>
<stop offset="1" stop-color="#FF928E"/>
</linearGradient>
<linearGradient id="paint8_linear_108_2" x1="300.139" y1="568.684" x2="197.796" y2="680.005" gradientUnits="userSpaceOnUse">
<stop stop-color="#09005D"/>
<stop offset="1" stop-color="#1A0F91"/>
</linearGradient>
<linearGradient id="paint9_linear_108_2" x1="266.92" y1="576.952" x2="276.011" y2="576.952" gradientUnits="userSpaceOnUse">
<stop stop-color="#FEBBBA"/>
<stop offset="1" stop-color="#FF928E"/>
</linearGradient>
<linearGradient id="paint10_linear_108_2" x1="308.197" y1="442.792" x2="221.113" y2="560.823" gradientUnits="userSpaceOnUse">
<stop stop-color="#4042E2"/>
<stop offset="1" stop-color="#4F52FF"/>
</linearGradient>
<linearGradient id="paint11_linear_108_2" x1="277.18" y1="547.576" x2="174.836" y2="658.897" gradientUnits="userSpaceOnUse">
<stop stop-color="#09005D"/>
<stop offset="1" stop-color="#1A0F91"/>
</linearGradient>
<linearGradient id="paint12_linear_108_2" x1="234.157" y1="576.485" x2="242.006" y2="576.485" gradientUnits="userSpaceOnUse">
<stop stop-color="#FEBBBA"/>
<stop offset="1" stop-color="#FF928E"/>
</linearGradient>
<linearGradient id="paint13_linear_108_2" x1="292.677" y1="431.34" x2="205.593" y2="549.372" gradientUnits="userSpaceOnUse">
<stop stop-color="#4042E2"/>
<stop offset="1" stop-color="#4F52FF"/>
</linearGradient>
<linearGradient id="paint14_linear_108_2" x1="292.859" y1="354.235" x2="156.156" y2="493.645" gradientUnits="userSpaceOnUse">
<stop stop-color="#FE7062"/>
<stop offset="1" stop-color="#FF928E"/>
</linearGradient>
<linearGradient id="paint15_linear_108_2" x1="343.608" y1="285.678" x2="327.569" y2="331.504" gradientUnits="userSpaceOnUse">
<stop stop-color="#FEBBBA"/>
<stop offset="1" stop-color="#FF928E"/>
</linearGradient>
<linearGradient id="paint16_linear_108_2" x1="357.318" y1="290.476" x2="341.279" y2="336.302" gradientUnits="userSpaceOnUse">
<stop stop-color="#FEBBBA"/>
<stop offset="1" stop-color="#FF928E"/>
</linearGradient>
<linearGradient id="paint17_linear_108_2" x1="344.996" y1="319.754" x2="357.078" y2="295.383" gradientUnits="userSpaceOnUse">
<stop stop-color="#FEBBBA"/>
<stop offset="1" stop-color="#FF928E"/>
</linearGradient>
<linearGradient id="paint18_linear_108_2" x1="269.149" y1="330.985" x2="132.445" y2="470.395" gradientUnits="userSpaceOnUse">
<stop stop-color="#FE7062"/>
<stop offset="1" stop-color="#FF928E"/>
</linearGradient>
<linearGradient id="paint19_linear_108_2" x1="202.702" y1="405.573" x2="261.475" y2="405.573" gradientUnits="userSpaceOnUse">
<stop stop-color="#FEBBBA"/>
<stop offset="1" stop-color="#FF928E"/>
</linearGradient>
<linearGradient id="paint20_linear_108_2" x1="280.763" y1="370.063" x2="313.08" y2="504.719" gradientUnits="userSpaceOnUse">
<stop stop-color="#09005D"/>
<stop offset="1" stop-color="#1A0F91"/>
</linearGradient>
<linearGradient id="paint21_linear_108_2" x1="257.111" y1="399.41" x2="275.422" y2="399.41" gradientUnits="userSpaceOnUse">
<stop stop-color="#FEBBBA"/>
<stop offset="1" stop-color="#FF928E"/>
</linearGradient>
<linearGradient id="paint22_linear_108_2" x1="247.832" y1="342.74" x2="271.069" y2="342.74" gradientUnits="userSpaceOnUse">
<stop stop-color="#FEBBBA"/>
<stop offset="1" stop-color="#FF928E"/>
</linearGradient>
<linearGradient id="paint23_linear_108_2" x1="276.595" y1="327.957" x2="251.046" y2="312.374" gradientUnits="userSpaceOnUse">
<stop stop-color="#FEBBBA"/>
<stop offset="1" stop-color="#FF928E"/>
</linearGradient>
<linearGradient id="paint24_linear_108_2" x1="237.522" y1="295.948" x2="270.529" y2="322.018" gradientUnits="userSpaceOnUse">
<stop stop-color="#09005D"/>
<stop offset="1" stop-color="#1A0F91"/>
</linearGradient>
<linearGradient id="paint25_linear_108_2" x1="269.885" y1="333.769" x2="246.898" y2="319.748" gradientUnits="userSpaceOnUse">
<stop stop-color="#FEBBBA"/>
<stop offset="1" stop-color="#FF928E"/>
</linearGradient>
<linearGradient id="paint26_linear_108_2" x1="538.793" y1="299.613" x2="589.476" y2="380.841" gradientUnits="userSpaceOnUse">
<stop stop-color="#FEBBBA"/>
<stop offset="1" stop-color="#FF928E"/>
</linearGradient>
<linearGradient id="paint27_linear_108_2" x1="679.491" y1="292.137" x2="628.297" y2="326.27" gradientUnits="userSpaceOnUse">
<stop stop-color="#09005D"/>
<stop offset="1" stop-color="#1A0F91"/>
</linearGradient>
<linearGradient id="paint28_linear_108_2" x1="614.622" y1="379.963" x2="739.144" y2="310.935" gradientUnits="userSpaceOnUse">
<stop stop-color="#FE7062"/>
<stop offset="1" stop-color="#FF928E"/>
</linearGradient>
<linearGradient id="paint29_linear_108_2" x1="601.215" y1="355.802" x2="610.718" y2="334.699" gradientUnits="userSpaceOnUse">
<stop stop-color="#FEBBBA"/>
<stop offset="1" stop-color="#FF928E"/>
</linearGradient>
<linearGradient id="paint30_linear_108_2" x1="600.726" y1="304.518" x2="620.01" y2="346.268" gradientUnits="userSpaceOnUse">
<stop stop-color="#FEBBBA"/>
<stop offset="1" stop-color="#FF928E"/>
</linearGradient>
<linearGradient id="paint31_linear_108_2" x1="665.732" y1="271.503" x2="614.537" y2="305.636" gradientUnits="userSpaceOnUse">
<stop stop-color="#09005D"/>
<stop offset="1" stop-color="#1A0F91"/>
</linearGradient>
<linearGradient id="paint32_linear_108_2" x1="609.799" y1="300.326" x2="629.083" y2="342.077" gradientUnits="userSpaceOnUse">
<stop stop-color="#FEBBBA"/>
<stop offset="1" stop-color="#FF928E"/>
</linearGradient>
<linearGradient id="paint33_linear_108_2" x1="654.537" y1="618.604" x2="583.741" y2="490.819" gradientUnits="userSpaceOnUse">
<stop stop-color="#FEBBBA"/>
<stop offset="1" stop-color="#FF928E"/>
</linearGradient>
<linearGradient id="paint34_linear_108_2" x1="639.268" y1="573.517" x2="618.221" y2="573.317" gradientUnits="userSpaceOnUse">
<stop stop-color="#09005D"/>
<stop offset="1" stop-color="#1A0F91"/>
</linearGradient>
<linearGradient id="paint35_linear_108_2" x1="640.113" y1="517.818" x2="709.819" y2="482.627" gradientUnits="userSpaceOnUse">
<stop stop-color="#FEBBBA"/>
<stop offset="1" stop-color="#FF928E"/>
</linearGradient>
<linearGradient id="paint36_linear_108_2" x1="619.718" y1="577.133" x2="594.629" y2="576.895" gradientUnits="userSpaceOnUse">
<stop stop-color="#09005D"/>
<stop offset="1" stop-color="#1A0F91"/>
</linearGradient>
<linearGradient id="paint37_linear_108_2" x1="587.062" y1="408.069" x2="645.897" y2="542.629" gradientUnits="userSpaceOnUse">
<stop stop-color="#09005D"/>
<stop offset="1" stop-color="#1A0F91"/>
</linearGradient>
<linearGradient id="paint38_linear_108_2" x1="647.738" y1="421.458" x2="546.262" y2="271.001" gradientUnits="userSpaceOnUse">
<stop stop-color="#FEBBBA"/>
<stop offset="1" stop-color="#FF928E"/>
</linearGradient>
</defs>
</svg>
