<svg width="844" height="595" viewBox="0 0 844 595" fill="none" xmlns="http://www.w3.org/2000/svg">
<path d="M634.781 516.353C623.406 528.329 612.642 536.052 604.138 542.154C504.172 613.881 385.886 592.973 360.747 587.867C323.624 580.327 251.867 565.753 199.988 504.744C121.499 412.443 133.721 267.025 194.602 171.033C205.738 153.474 264.563 56.0195 384.123 40.3906C456.479 30.9324 540.823 50.0086 601.903 101.181C730.115 208.598 720.988 425.597 634.781 516.353Z" fill="url(#paint0_linear_101_194)"/>
<path d="M523.726 575.837C522.763 575.706 521.901 575.199 521.322 574.418C512.884 563.047 451.533 474.059 533.183 392.717C610.696 315.498 645.831 299.643 650.504 254.273C651.049 248.975 658.212 247.703 660.569 252.48C678.181 288.177 705.622 371.477 614.812 426.151C514.64 486.463 522.849 552.576 527.694 571.364C528.334 573.848 526.267 576.183 523.726 575.837Z" fill="#91B3FA"/>
<path d="M536.149 577.528C533.87 577.218 532.064 575.46 531.713 573.187C529.321 557.713 523.449 499.89 566.047 484.556C612.942 467.677 650.802 511.351 685.273 477.167C687.087 475.369 690.137 476.936 689.704 479.454C686.634 497.31 672.969 538.67 612.168 546.992C547.09 555.9 539.766 563.365 541.08 572.626C541.485 575.482 539.007 577.917 536.149 577.528Z" fill="#91B3FA"/>
<path opacity="0.47" d="M648.237 300.53C647.442 303.897 646.385 307.054 645.124 310.19C643.885 313.322 642.459 316.376 640.904 319.364C637.825 325.36 634.131 331.033 630.085 336.437C621.94 347.218 612.086 356.688 601.225 364.719C595.808 368.712 590.017 372.381 584.292 375.697C578.719 378.93 573.356 382.547 568.219 386.464C557.938 394.296 548.616 403.386 540.384 413.351C523.984 433.297 512.345 457.369 508.513 482.998C506.558 495.783 506.535 508.874 508.296 521.766C510.036 534.674 513.715 547.314 518.567 559.501C518.829 560.151 518.515 560.89 517.866 561.152C517.242 561.404 516.53 561.115 516.243 560.517C510.57 548.473 506.331 535.669 503.984 522.449C502.785 515.845 502.075 509.139 501.873 502.406C501.711 495.674 501.995 488.915 502.843 482.217C504.473 468.806 508.256 455.67 513.704 443.305C519.168 430.933 526.386 419.377 534.817 408.836C543.246 398.28 553.024 388.836 563.717 380.585C569.073 376.468 574.675 372.66 580.521 369.24C586.245 365.955 591.679 362.618 596.942 358.82C607.447 351.316 617.155 342.654 625.506 332.769C629.734 327.869 633.562 322.625 637.06 317.158C640.489 311.681 643.693 305.901 645.999 299.925L646.03 299.848C646.26 299.251 646.93 298.954 647.527 299.184C648.073 299.395 648.369 299.975 648.237 300.53Z" fill="white"/>
<path opacity="0.47" d="M533.448 567.034C533.647 566.474 533.585 565.953 533.566 565.418L533.517 563.823L533.48 560.635C533.484 558.51 533.529 556.386 533.622 554.263C533.811 550.017 534.173 545.777 534.741 541.557C535.899 533.132 537.808 524.731 541.209 516.819C544.572 508.961 549.665 501.452 557.056 496.546C560.739 494.138 564.892 492.422 569.197 491.551C573.498 490.645 577.918 490.51 582.24 490.89C599.181 492.855 615.785 496.103 632.434 498.74C640.727 499.976 649.136 501.08 657.278 499.967C659.301 499.67 661.294 499.229 663.23 498.607C665.147 497.938 667.03 497.155 668.788 496.124C672.329 494.102 675.442 491.339 678.224 488.272L678.232 488.263C678.616 487.84 679.268 487.808 679.691 488.191C680.108 488.569 680.144 489.211 679.777 489.634C676.958 492.88 673.737 495.88 669.972 498.139C668.103 499.288 666.086 500.183 664.029 500.947C661.954 501.665 659.82 502.185 657.668 502.546C648.997 503.816 640.401 502.736 632.013 501.586C623.601 500.389 615.295 498.83 606.959 497.481C598.65 496.128 590.244 494.821 581.969 493.851C577.884 493.455 573.753 493.551 569.771 494.355C565.782 495.125 561.968 496.665 558.557 498.85C551.679 503.23 546.688 510.199 543.3 517.743C539.872 525.325 537.835 533.535 536.543 541.817C535.907 545.966 535.472 550.151 535.208 554.347C535.078 556.445 534.993 558.547 534.951 560.649L534.93 563.802L534.95 565.377C534.964 565.898 534.94 566.433 535.197 566.929C535.441 567.399 535.257 567.977 534.787 568.221C534.317 568.465 533.738 568.281 533.495 567.811C533.368 567.567 533.357 567.292 533.442 567.052L533.448 567.034Z" fill="white"/>
<path d="M444.935 38.3893C419.412 38.188 393.667 42.2356 370.89 51.6862C317.868 73.6858 272.87 131.897 290.479 191.356C296.199 210.671 293.194 231.981 312.436 240.375C322.848 244.917 351.2 247.62 361.98 244.041C390.632 234.528 409.465 208.492 393.883 179.62C388.892 170.374 382.433 161.928 378.124 152.345C373.815 142.763 371.851 131.389 376.245 121.844C384.868 103.109 413.517 97.1534 432.095 97.7154C454.022 98.3788 473.891 109.225 485.691 127.83C500.398 151.018 504.124 179.223 501.971 206.139C499.668 234.941 487.524 256.935 469.325 279.03C453.656 298.053 436.401 316.312 425.986 338.649C416.426 359.155 413.301 381.876 412.87 404.309C412.786 408.657 391.162 449.634 391.255 462.152C391.268 463.921 415.78 469.78 417.549 469.8C426.777 469.903 452.917 470.195 462.538 470.302C464.517 470.324 466.148 468.743 466.17 466.765C466.855 405.86 485.589 347.794 533.011 306.889C550.267 292.006 568.851 279.886 582.268 261.099C601.392 234.323 610.827 207.973 608.104 174.927C605.617 144.746 595.679 114.548 576.006 91.1315C554.862 65.9631 523.914 50.246 491.75 43.4634C476.751 40.3005 460.886 38.5151 444.935 38.3893Z" fill="url(#paint1_linear_101_194)"/>
<path d="M492.002 538.578C492.002 566.584 476.478 591.362 448.472 591.362C442.422 591.362 421.844 591.418 416.464 589.475C396.941 582.421 396.87 567.422 396.87 545.465C396.87 517.459 406.328 489.914 434.334 489.914C462.341 489.914 492.002 510.571 492.002 538.578Z" fill="url(#paint2_linear_101_194)"/>
<path d="M420.684 32.0071C395.16 31.8058 369.415 35.8534 346.638 45.304C293.616 67.3035 248.618 125.515 266.227 184.974C271.948 204.289 285.174 228.603 304.416 236.997C314.828 241.539 326.948 241.238 337.728 237.659C366.38 228.146 385.214 202.11 369.631 173.238C364.641 163.992 358.182 155.545 353.873 145.963C349.564 136.381 347.6 125.007 351.993 115.462C360.617 96.7272 389.265 90.7712 407.843 91.3332C429.771 91.9965 449.64 102.842 461.44 121.448C476.146 144.636 479.872 172.841 477.719 199.757C475.416 228.559 463.272 250.553 445.073 272.648C429.404 291.67 412.149 309.93 401.735 332.266C392.174 352.772 389.05 375.493 388.618 397.927C388.534 402.275 389.998 447.682 390.091 460.2C390.104 461.969 391.528 463.397 393.297 463.417C402.525 463.521 428.665 463.813 438.287 463.92C440.265 463.942 441.896 462.361 441.918 460.382C442.603 399.477 461.337 341.411 508.76 300.507C526.016 285.624 544.599 273.503 558.016 254.717C577.141 227.941 586.575 201.59 583.852 168.545C581.366 138.364 571.427 108.166 551.755 84.7493C530.61 59.5809 499.663 43.8638 467.499 37.0812C452.499 33.9183 436.635 32.1331 420.684 32.0071Z" fill="url(#paint3_linear_101_194)"/>
<path d="M423.329 589.794C451.336 589.794 474.04 567.09 474.04 539.083C474.04 511.077 451.336 488.373 423.329 488.373C395.322 488.373 372.618 511.077 372.618 539.083C372.618 567.09 395.322 589.794 423.329 589.794Z" fill="url(#paint4_linear_101_194)"/>
<path opacity="0.63" d="M283.013 179.15C282.714 179.15 282.445 178.943 282.378 178.64C278.824 162.594 278.302 137.466 295.998 108.881C313.27 80.9806 337.497 62.3124 368.007 53.3937C400.622 43.8611 439.344 45.9019 483.1 59.4598C483.444 59.5663 483.636 59.931 483.529 60.2742C483.423 60.6174 483.056 60.8103 482.716 60.7032C398.652 34.655 332.735 52.0087 297.104 109.566C279.639 137.779 280.147 162.548 283.648 178.358C283.726 178.709 283.505 179.057 283.154 179.134C283.107 179.145 283.059 179.15 283.013 179.15Z" fill="white"/>
<path opacity="0.63" d="M293.68 204.967C293.479 204.967 293.282 204.875 293.154 204.7C293 204.49 289.346 199.441 285.947 190.548C285.819 190.212 285.987 189.836 286.323 189.708C286.657 189.58 287.035 189.747 287.163 190.083C290.494 198.799 294.168 203.882 294.205 203.933C294.417 204.223 294.353 204.63 294.063 204.842C293.947 204.926 293.813 204.967 293.68 204.967Z" fill="white"/>
<path opacity="0.63" d="M440.297 506.216C440.198 506.216 440.098 506.193 440.003 506.145C434.807 503.509 429.197 502.173 423.329 502.173C422.969 502.173 422.678 501.882 422.678 501.522C422.678 501.163 422.969 500.871 423.329 500.871C429.403 500.871 435.212 502.255 440.592 504.984C440.913 505.147 441.041 505.538 440.878 505.859C440.763 506.085 440.535 506.216 440.297 506.216Z" fill="white"/>
<path opacity="0.63" d="M402.328 570.88C402.202 570.88 402.076 570.844 401.964 570.769C391.415 563.642 385.117 551.797 385.117 539.083C385.117 524.988 392.837 512.083 405.263 505.404C405.579 505.233 405.974 505.352 406.144 505.669C406.315 505.986 406.196 506.38 405.88 506.55C393.875 513.002 386.418 525.468 386.418 539.083C386.418 551.364 392.503 562.806 402.693 569.69C402.99 569.891 403.069 570.296 402.868 570.594C402.742 570.78 402.537 570.88 402.328 570.88Z" fill="white"/>
<g opacity="0.3">
<path d="M254.64 126.873C254.107 127.532 253.14 127.633 252.481 127.1C251.202 126.064 249.858 125.067 248.487 124.139C247.794 123.67 247.606 122.732 248.061 122.033C248.066 122.025 248.072 122.016 248.077 122.008C248.552 121.306 249.507 121.123 250.208 121.598C251.651 122.575 253.066 123.624 254.413 124.715C255.029 125.213 255.158 126.091 254.735 126.742C254.706 126.787 254.674 126.831 254.64 126.873ZM241.506 120.079C240.022 119.346 238.493 118.67 236.96 118.069C236.172 117.76 235.782 116.87 236.091 116.081C236.404 115.29 237.291 114.903 238.08 115.212C239.693 115.844 241.303 116.556 242.864 117.326C243.624 117.701 243.936 118.622 243.561 119.382C243.533 119.437 243.503 119.49 243.471 119.54C243.053 120.183 242.211 120.427 241.506 120.079ZM229.258 115.654C227.653 115.271 226.012 114.954 224.38 114.71C223.542 114.585 222.963 113.804 223.088 112.966C223.214 112.128 223.994 111.55 224.833 111.674C226.552 111.931 228.28 112.265 229.97 112.668C230.795 112.865 231.303 113.693 231.107 114.517C231.065 114.693 230.995 114.855 230.902 114.998C230.558 115.526 229.907 115.809 229.258 115.654ZM216.329 114.079C214.677 114.065 213.005 114.122 211.36 114.249C210.515 114.314 209.777 113.682 209.712 112.837C209.647 111.992 210.279 111.255 211.124 111.189C212.856 111.056 214.616 110.996 216.355 111.01C217.202 111.017 217.883 111.71 217.876 112.558C217.873 112.861 217.783 113.143 217.629 113.38C217.353 113.805 216.873 114.084 216.329 114.079ZM203.37 115.425C201.76 115.777 200.142 116.203 198.562 116.691C197.752 116.941 196.893 116.488 196.643 115.678C196.392 114.868 196.846 114.009 197.656 113.759C199.318 113.245 201.021 112.797 202.715 112.426C203.543 112.245 204.361 112.77 204.542 113.598C204.633 114.015 204.545 114.43 204.329 114.762C204.117 115.088 203.781 115.335 203.37 115.425ZM191.033 119.603C189.538 120.304 188.056 121.077 186.626 121.902C185.892 122.325 184.953 122.073 184.53 121.34C184.106 120.605 184.357 119.667 185.092 119.243C186.597 118.375 188.158 117.561 189.731 116.824C190.499 116.464 191.412 116.795 191.772 117.563C192.005 118.061 191.947 118.621 191.668 119.051C191.517 119.283 191.302 119.477 191.033 119.603ZM156.446 164.895C155.608 164.768 155.031 163.986 155.157 163.148C155.417 161.432 155.754 159.702 156.161 158.01C156.359 157.186 157.188 156.679 158.012 156.877C158.836 157.075 159.343 157.904 159.145 158.728C158.759 160.335 158.438 161.976 158.192 163.606C158.159 163.83 158.078 164.035 157.963 164.213C157.645 164.702 157.06 164.987 156.446 164.895ZM179.935 126.409C178.635 127.424 177.362 128.507 176.154 129.63C175.532 130.206 174.561 130.17 173.985 129.55C173.408 128.928 173.447 127.96 174.065 127.381C175.338 126.198 176.678 125.057 178.048 123.989C178.716 123.468 179.68 123.587 180.202 124.255C180.615 124.785 180.626 125.502 180.279 126.035C180.189 126.175 180.073 126.301 179.935 126.409ZM159.586 151.893C158.797 151.583 158.41 150.691 158.721 149.903C159.358 148.288 160.073 146.679 160.846 145.12C161.219 144.359 162.143 144.051 162.903 144.427C163.662 144.804 163.972 145.725 163.596 146.484C162.861 147.965 162.182 149.494 161.576 151.029C161.538 151.127 161.49 151.218 161.435 151.303C161.045 151.902 160.276 152.166 159.586 151.893ZM170.639 135.522C169.599 136.802 168.6 138.143 167.671 139.509C167.194 140.21 166.24 140.392 165.539 139.915C164.847 139.445 164.661 138.509 165.115 137.811C165.121 137.802 165.127 137.792 165.133 137.783C166.111 136.345 167.162 134.933 168.257 133.586C168.792 132.929 169.758 132.829 170.416 133.364C171.03 133.863 171.158 134.74 170.736 135.389C170.706 135.434 170.673 135.479 170.639 135.522Z" fill="#91B3FA"/>
<path d="M157.325 174.97C157.49 174.717 157.582 174.412 157.572 174.087C157.547 173.296 157.538 172.492 157.545 171.696C157.553 170.848 156.872 170.155 156.025 170.147C155.178 170.139 154.483 170.82 154.477 171.668C154.468 172.505 154.478 173.351 154.504 174.183C154.53 175.03 155.239 175.696 156.085 175.669C156.608 175.653 157.061 175.377 157.325 174.97Z" fill="#91B3FA"/>
</g>
<g opacity="0.3">
<path d="M176.939 217.448C177.342 216.827 177.247 215.988 176.68 215.475C176.093 214.944 175.508 214.392 174.94 213.835C174.335 213.241 173.363 213.25 172.77 213.854C172.173 214.462 172.185 215.431 172.789 216.025C173.387 216.612 174.004 217.193 174.622 217.752C175.25 218.32 176.221 218.271 176.789 217.643C176.845 217.581 176.895 217.516 176.939 217.448Z" fill="#91B3FA"/>
<path d="M265.435 208.256C264.939 208.943 263.98 209.098 263.292 208.602C262.605 208.106 262.451 207.148 262.946 206.459C263.891 205.151 264.794 203.782 265.643 202.375C266.076 201.652 267.024 201.416 267.749 201.854C268.475 202.292 268.709 203.235 268.271 203.961C267.904 204.57 267.528 205.171 267.143 205.763C266.594 206.608 266.019 207.447 265.435 208.256ZM270.077 197.324C269.3 196.989 268.94 196.086 269.276 195.308C269.919 193.813 270.508 192.276 271.023 190.738C271.289 189.934 272.161 189.5 272.965 189.769C273.768 190.038 274.202 190.908 273.933 191.712C273.391 193.331 272.772 194.95 272.094 196.522C272.059 196.604 272.018 196.681 271.971 196.753C271.571 197.368 270.774 197.625 270.077 197.324ZM260.087 214.685C258.908 215.92 257.66 217.121 256.377 218.255C255.742 218.817 254.772 218.757 254.21 218.122C253.649 217.487 253.71 216.518 254.344 215.955C255.563 214.879 256.748 213.738 257.867 212.566C258.453 211.953 259.424 211.93 260.037 212.515C260.58 213.033 260.659 213.853 260.265 214.46C260.214 214.539 260.155 214.615 260.087 214.685ZM274.246 184.84C273.413 184.684 272.864 183.882 273.021 183.049C273.321 181.452 273.556 179.824 273.72 178.209C273.805 177.365 274.557 176.751 275.401 176.836C276.244 176.922 276.858 177.674 276.773 178.518C276.601 180.219 276.353 181.934 276.038 183.615C275.999 183.818 275.923 184.005 275.817 184.168C275.488 184.674 274.876 184.958 274.246 184.84ZM249.75 223.346C248.329 224.291 246.848 225.187 245.347 226.012C244.604 226.42 243.672 226.149 243.263 225.406C242.854 224.663 243.126 223.73 243.869 223.322C245.295 222.539 246.702 221.687 248.051 220.79C248.757 220.321 249.71 220.512 250.179 221.218C250.529 221.744 250.511 222.407 250.188 222.905C250.077 223.075 249.93 223.227 249.75 223.346ZM237.764 229.53C236.167 230.142 234.526 230.695 232.885 231.172C232.071 231.408 231.22 230.94 230.983 230.126C230.746 229.311 231.214 228.46 232.029 228.224C233.587 227.771 235.147 227.246 236.665 226.665C237.456 226.361 238.344 226.757 238.647 227.548C238.83 228.025 238.759 228.537 238.5 228.934C238.33 229.197 238.078 229.409 237.764 229.53ZM224.715 232.955C223.021 233.205 221.298 233.387 219.595 233.495C218.748 233.548 218.02 232.906 217.966 232.06C217.912 231.213 218.555 230.485 219.4 230.432C221.02 230.329 222.656 230.156 224.266 229.918C225.104 229.794 225.884 230.374 226.008 231.212C226.065 231.597 225.974 231.97 225.777 232.272C225.546 232.629 225.168 232.888 224.715 232.955ZM211.229 233.451C209.522 233.326 207.801 233.125 206.113 232.856C205.276 232.722 204.705 231.935 204.839 231.098C204.973 230.263 205.76 229.692 206.597 229.825C208.199 230.081 209.834 230.271 211.455 230.391C212.301 230.453 212.935 231.188 212.873 232.034C212.853 232.301 212.766 232.546 212.63 232.756C212.335 233.21 211.808 233.494 211.229 233.451ZM197.957 230.971C196.324 230.474 194.69 229.899 193.101 229.264C192.314 228.95 191.931 228.057 192.246 227.27C192.559 226.485 193.453 226.099 194.24 226.414C195.749 227.018 197.301 227.563 198.852 228.036C199.663 228.283 200.12 229.141 199.873 229.951C199.83 230.092 199.768 230.223 199.692 230.341C199.328 230.9 198.627 231.176 197.957 230.971ZM185.566 225.643C184.472 225.023 183.382 224.362 182.329 223.678C181.948 223.43 181.57 223.178 181.196 222.924C180.496 222.447 180.295 221.491 180.792 220.792C181.269 220.091 182.224 219.91 182.925 220.387C183.28 220.629 183.639 220.869 184.002 221.104C185.003 221.755 186.038 222.383 187.079 222.973C187.816 223.39 188.076 224.327 187.658 225.064C187.642 225.092 187.626 225.119 187.609 225.146C187.17 225.82 186.276 226.045 185.566 225.643Z" fill="#91B3FA"/>
<path d="M276.796 171.009C276.962 170.753 277.054 170.445 277.042 170.118C277.012 169.288 276.963 168.442 276.898 167.605C276.833 166.76 276.094 166.128 275.25 166.194C274.405 166.26 273.772 166.997 273.838 167.843C273.9 168.638 273.946 169.441 273.975 170.229C274.005 171.076 274.717 171.738 275.564 171.707C276.083 171.688 276.533 171.413 276.796 171.009Z" fill="#91B3FA"/>
</g>
<path d="M257.547 153.074C257.453 152.783 257.185 152.583 256.879 152.576L248.152 152.384C246.055 148.888 243.386 145.701 240.192 142.981L241.437 134.346C241.481 134.043 241.328 133.746 241.056 133.606L231.745 128.814C231.473 128.674 231.142 128.722 230.921 128.934L224.618 134.966C220.549 133.947 216.404 133.627 212.34 133.953L207.112 126.962C206.929 126.718 206.61 126.616 206.318 126.709L196.347 129.904C196.055 129.998 195.855 130.266 195.849 130.572L195.657 139.299C192.161 141.395 188.973 144.065 186.253 147.259L177.619 146.014C177.316 145.97 177.019 146.123 176.879 146.395L172.087 155.705C171.947 155.978 171.995 156.309 172.206 156.53L178.238 162.833C177.22 166.902 176.9 171.047 177.226 175.111L170.235 180.339C169.99 180.522 169.888 180.841 169.982 181.133L173.177 191.104C173.27 191.396 173.538 191.595 173.844 191.602L182.572 191.794C184.668 195.29 187.337 198.477 190.532 201.198L189.286 209.832C189.242 210.135 189.396 210.433 189.668 210.572L198.978 215.364C199.25 215.504 199.581 215.456 199.802 215.245L206.105 209.213C210.175 210.231 214.32 210.551 218.384 210.225L223.612 217.216C223.795 217.461 224.114 217.563 224.405 217.469L234.377 214.274C234.668 214.181 234.868 213.913 234.875 213.607L235.067 204.88C238.563 202.783 241.75 200.114 244.47 196.92L253.105 198.165C253.408 198.209 253.705 198.056 253.845 197.783L258.637 188.473C258.777 188.201 258.729 187.87 258.517 187.649L252.486 181.346C253.504 177.276 253.824 173.131 253.498 169.068L260.489 163.839C260.734 163.656 260.836 163.337 260.742 163.046L257.547 153.074Z" fill="#91B3FA"/>
<path d="M223.257 179.05C219.418 183.403 212.755 183.823 208.401 179.984C206.292 178.125 205.033 175.556 204.857 172.75C204.68 169.944 205.607 167.237 207.467 165.129C211.305 160.776 217.969 160.356 222.322 164.195C226.283 167.687 226.987 173.517 224.192 177.819C223.915 178.246 223.603 178.658 223.257 179.05ZM207.308 172.596C207.443 174.747 208.408 176.717 210.025 178.143C213.362 181.085 218.472 180.764 221.415 177.426C224.36 174.089 224.036 168.979 220.698 166.036C217.361 163.093 212.251 163.415 209.308 166.752C209.041 167.055 208.8 167.373 208.585 167.705C207.647 169.149 207.198 170.847 207.308 172.596Z" fill="#BDD0FB"/>
<path d="M236.821 186.283C237.301 185.544 237.747 184.777 238.156 183.983C238.285 183.733 238.409 183.481 238.53 183.227C239.125 181.974 239.618 180.676 240.004 179.353C240.009 179.335 240.015 179.317 240.02 179.299C240.035 179.248 240.049 179.196 240.064 179.145C240.092 179.045 240.119 178.945 240.146 178.845C240.218 178.582 240.106 178.312 239.889 178.171C239.836 178.136 239.777 178.11 239.713 178.093C239.386 178.004 239.05 178.199 238.961 178.526C238.508 180.21 237.869 181.857 237.064 183.421C233.068 191.189 225.489 195.934 217.375 196.684C212.862 197.102 208.183 196.283 203.863 194.059C203.105 193.67 202.373 193.244 201.668 192.786C196.926 189.704 193.417 185.122 191.668 179.662C189.658 173.392 190.211 166.713 193.225 160.858C199.449 148.767 214.34 143.999 226.426 150.22C227.171 150.603 227.894 151.023 228.592 151.477C231.617 153.444 234.179 156.05 236.083 159.119C236.132 159.198 236.196 159.263 236.27 159.31C236.463 159.435 236.719 159.447 236.928 159.317C237.215 159.137 237.305 158.76 237.125 158.471C235.126 155.25 232.437 152.512 229.261 150.448C228.529 149.972 227.77 149.531 226.988 149.128C214.299 142.597 198.662 147.612 192.133 160.296C188.969 166.443 188.389 173.453 190.499 180.037C192.335 185.768 196.019 190.578 200.997 193.814C201.737 194.295 202.506 194.741 203.301 195.151C209.448 198.314 216.459 198.895 223.042 196.785C228.774 194.949 233.585 191.263 236.821 186.283Z" fill="#BDD0FB"/>
<g opacity="0.3">
<path d="M317.181 104.866C317.404 104.523 317.386 104.06 317.105 103.733C316.581 103.122 316.032 102.519 315.472 101.94C315.108 101.564 314.508 101.554 314.131 101.918C313.753 102.281 313.746 102.882 314.109 103.258C314.643 103.81 315.167 104.385 315.667 104.968C316.007 105.365 316.605 105.41 317.003 105.07C317.074 105.009 317.133 104.94 317.181 104.866Z" fill="#91B3FA"/>
<path d="M311.889 99.8705C311.56 100.278 310.964 100.342 310.556 100.014C309.527 99.1855 308.443 98.4002 307.336 97.6804C307.102 97.5287 306.866 97.379 306.627 97.2313C306.183 96.9552 306.046 96.371 306.322 95.9261C306.6 95.516 307.182 95.3448 307.628 95.6205C307.877 95.7754 308.124 95.932 308.368 96.0909C309.53 96.8455 310.666 97.6687 311.745 98.5378C312.127 98.845 312.207 99.3886 311.946 99.7915C311.928 99.8182 311.909 99.8443 311.889 99.8705ZM302.39 94.9471C300.936 94.2746 299.428 93.6856 297.907 93.1979C297.408 93.0378 297.134 92.5049 297.294 92.0059C297.454 91.5102 297.987 91.2327 298.486 91.3928C300.08 91.904 301.662 92.5209 303.186 93.2267C303.661 93.4465 303.868 94.0099 303.648 94.4854C303.629 94.527 303.606 94.5668 303.582 94.6045C303.329 94.9934 302.823 95.1475 302.39 94.9471ZM293.24 92.0166C291.668 91.721 290.062 91.5212 288.463 91.4226C287.941 91.3902 287.544 90.9403 287.576 90.4183C287.609 89.8942 288.057 89.4979 288.581 89.5303C290.256 89.6336 291.942 89.8438 293.59 90.153C294.105 90.2499 294.444 90.7454 294.347 91.2596C294.323 91.3848 294.276 91.4999 294.21 91.6008C294.007 91.9135 293.629 92.0893 293.24 92.0166ZM283.65 91.4236C282.051 91.5226 280.443 91.722 278.874 92.0166C278.359 92.1128 277.864 91.774 277.768 91.2596C277.672 90.7464 278.01 90.2501 278.524 90.1532C280.171 89.8446 281.856 89.6356 283.533 89.5315C284.055 89.499 284.505 89.8968 284.538 90.4193C284.55 90.6299 284.493 90.8288 284.386 90.9934C284.228 91.2365 283.961 91.4043 283.65 91.4236ZM274.205 93.1899C272.679 93.6746 271.17 94.2583 269.716 94.9246C269.241 95.1429 268.678 94.9339 268.46 94.458C268.242 93.9822 268.45 93.4192 268.927 93.2015C270.449 92.5031 272.032 91.8914 273.631 91.3828C274.13 91.2248 274.663 91.5004 274.821 91.9989C274.911 92.2806 274.862 92.5734 274.712 92.8033C274.597 92.9805 274.422 93.1208 274.205 93.1899ZM265.476 97.1955C264.115 98.036 262.794 98.9692 261.55 99.9705C261.142 100.298 260.545 100.234 260.217 99.8261C259.89 99.4181 259.954 98.8236 260.362 98.493C261.666 97.4433 263.052 96.4641 264.48 95.5823C264.925 95.3078 265.509 95.4455 265.784 95.8906C265.983 96.2131 265.966 96.6081 265.772 96.9057C265.698 97.0195 265.599 97.1193 265.476 97.1955ZM257.994 103.212C256.884 104.357 255.832 105.587 254.867 106.869C254.551 107.287 253.957 107.37 253.539 107.055C253.121 106.74 253.044 106.151 253.352 105.727C254.365 104.384 255.468 103.094 256.632 101.893C256.997 101.517 257.597 101.508 257.973 101.872C258.303 102.192 258.35 102.695 258.108 103.068C258.075 103.119 258.037 103.167 257.994 103.212ZM248.825 115.697C248.343 115.493 248.118 114.937 248.322 114.455C248.887 113.121 249.534 111.794 250.245 110.516C250.352 110.321 250.461 110.129 250.571 109.937C250.819 109.478 251.413 109.328 251.867 109.591C252.32 109.853 252.475 110.433 252.213 110.886C252.108 111.066 252.006 111.247 251.904 111.433C251.224 112.656 250.606 113.921 250.067 115.194C250.045 115.246 250.018 115.296 249.988 115.342C249.743 115.72 249.254 115.879 248.825 115.697Z" fill="#91B3FA"/>
</g>
<g opacity="0.3">
<path d="M320.042 153.18C319.124 154.553 318.114 155.882 317.041 157.13C316.699 157.527 316.101 157.573 315.704 157.231C315.306 156.889 315.268 156.291 315.603 155.894C316.627 154.704 317.591 153.436 318.466 152.126C318.757 151.69 319.346 151.574 319.781 151.864C320.213 152.153 320.331 152.735 320.049 153.169C320.047 153.172 320.044 153.176 320.042 153.18ZM321.274 149.31C320.807 149.073 320.621 148.503 320.857 148.036C321.569 146.632 322.203 145.17 322.742 143.691C322.921 143.203 323.465 142.946 323.957 143.126C324.449 143.305 324.702 143.848 324.523 144.34C323.959 145.89 323.294 147.422 322.548 148.893C322.532 148.924 322.515 148.954 322.497 148.982C322.236 149.383 321.711 149.531 321.274 149.31ZM313.579 160.69C312.355 161.801 311.054 162.848 309.71 163.799C309.283 164.101 308.691 164 308.389 163.573C308.086 163.146 308.187 162.557 308.614 162.252C309.896 161.344 311.137 160.347 312.305 159.287C312.692 158.935 313.292 158.964 313.643 159.351C313.939 159.677 313.966 160.152 313.736 160.504C313.693 160.571 313.641 160.634 313.579 160.69ZM324.796 140.288C324.286 140.171 323.968 139.662 324.085 139.152C324.439 137.618 324.701 136.047 324.865 134.482C324.92 133.962 325.387 133.584 325.906 133.638C326.427 133.692 326.805 134.158 326.75 134.679C326.579 136.32 326.304 137.968 325.933 139.577C325.907 139.689 325.863 139.791 325.804 139.881C325.593 140.206 325.195 140.38 324.796 140.288ZM305.494 166.414C304.043 167.196 302.528 167.898 300.992 168.501C300.505 168.692 299.955 168.451 299.763 167.964C299.572 167.476 299.812 166.926 300.3 166.735C301.766 166.161 303.21 165.492 304.594 164.744C305.055 164.496 305.63 164.668 305.878 165.129C306.049 165.445 306.021 165.815 305.838 166.096C305.755 166.225 305.639 166.335 305.494 166.414ZM296.272 170.031C294.672 170.444 293.033 170.764 291.4 170.981C290.881 171.05 290.405 170.686 290.336 170.167C290.266 169.649 290.631 169.171 291.15 169.102C292.707 168.895 294.271 168.59 295.798 168.195C296.305 168.064 296.822 168.369 296.953 168.876C297.022 169.144 296.969 169.415 296.829 169.63C296.705 169.822 296.511 169.969 296.272 170.031ZM286.447 171.337C284.794 171.355 283.125 171.272 281.488 171.09C280.967 171.032 280.593 170.564 280.651 170.043C280.708 169.523 281.178 169.149 281.697 169.206C283.259 169.38 284.85 169.459 286.426 169.441C286.949 169.435 287.379 169.855 287.384 170.378C287.387 170.572 287.33 170.753 287.232 170.904C287.065 171.161 286.777 171.333 286.447 171.337Z" fill="#91B3FA"/>
<path d="M326.813 130.207C326.913 130.053 326.969 129.87 326.965 129.673C326.95 128.862 326.911 128.048 326.849 127.253C326.808 126.731 326.352 126.34 325.83 126.381C325.31 126.423 324.919 126.878 324.959 127.4C325.018 128.158 325.055 128.935 325.07 129.709C325.08 130.232 325.512 130.649 326.035 130.639C326.362 130.632 326.647 130.462 326.813 130.207Z" fill="#91B3FA"/>
</g>
<path d="M313.979 117.523C313.916 117.328 313.737 117.194 313.532 117.19L307.692 117.061C306.289 114.722 304.503 112.589 302.366 110.769L303.199 104.991C303.228 104.788 303.126 104.59 302.943 104.496L296.713 101.289C296.531 101.196 296.31 101.228 296.162 101.369L291.944 105.406C289.221 104.724 286.447 104.51 283.728 104.728L280.23 100.05C280.107 99.8862 279.894 99.8181 279.699 99.8806L273.026 102.019C272.831 102.081 272.697 102.26 272.693 102.465L272.565 108.305C270.225 109.708 268.092 111.494 266.272 113.632L260.494 112.798C260.291 112.769 260.093 112.871 259.999 113.053L256.792 119.284C256.699 119.466 256.731 119.687 256.872 119.835L260.909 124.053C260.227 126.776 260.013 129.55 260.231 132.269L255.553 135.767C255.389 135.89 255.321 136.103 255.384 136.298L257.522 142.971C257.584 143.166 257.763 143.299 257.968 143.304L263.808 143.432C265.211 145.772 266.997 147.905 269.135 149.725L268.301 155.503C268.272 155.705 268.374 155.904 268.557 155.998L274.787 159.204C274.969 159.298 275.19 159.266 275.338 159.124L279.556 155.088C282.279 155.77 285.053 155.984 287.772 155.765L291.27 160.443C291.393 160.607 291.606 160.675 291.801 160.613L298.474 158.475C298.669 158.412 298.803 158.233 298.807 158.028L298.936 152.188C301.275 150.786 303.408 148.999 305.228 146.862L311.006 147.695C311.209 147.725 311.407 147.622 311.501 147.44L314.708 141.21C314.801 141.028 314.769 140.806 314.628 140.659L310.591 136.441C311.273 133.718 311.487 130.944 311.269 128.225L315.947 124.726C316.111 124.604 316.179 124.39 316.116 124.195L313.979 117.523Z" fill="#91B3FA"/>
<path d="M291.128 134.988C289.862 136.425 288.111 137.282 286.2 137.402C284.289 137.523 282.445 136.892 281.009 135.625C278.044 133.011 277.76 128.479 280.372 125.505C282.988 122.54 287.527 122.255 290.491 124.869C291.928 126.135 292.785 127.885 292.906 129.796C293.003 131.35 292.604 132.859 291.771 134.141C291.58 134.436 291.365 134.719 291.128 134.988ZM282.262 134.203C283.319 135.135 284.675 135.599 286.082 135.511C287.487 135.422 288.775 134.791 289.706 133.735C290.636 132.677 291.102 131.322 291.013 129.915C290.926 128.51 290.294 127.222 289.238 126.291C287.057 124.368 283.718 124.578 281.794 126.759C281.621 126.956 281.465 127.162 281.326 127.375C279.925 129.531 280.278 132.453 282.262 134.203Z" fill="#BDD0FB"/>
<path d="M300.57 140.022C300.896 139.519 301.2 138.995 301.481 138.451C302.037 137.371 302.485 136.232 302.81 135.065C302.825 135.012 302.839 134.96 302.853 134.907C302.963 134.5 302.791 134.084 302.456 133.866C302.374 133.813 302.283 133.772 302.184 133.745C301.679 133.609 301.161 133.91 301.023 134.414C300.729 135.507 300.316 136.573 299.795 137.583L299.795 137.583C299.767 137.638 299.737 137.694 299.709 137.749C298.455 140.127 296.657 142.103 294.477 143.555C293.294 144.343 291.997 144.977 290.612 145.434C290.601 145.438 290.59 145.441 290.578 145.445C290.543 145.456 290.509 145.468 290.475 145.478C286.415 146.779 282.092 146.421 278.302 144.47C277.811 144.218 277.337 143.943 276.881 143.646C273.811 141.651 271.539 138.684 270.406 135.15C269.106 131.09 269.464 126.767 271.415 122.978C273.366 119.191 276.676 116.384 280.735 115.082C284.795 113.782 289.118 114.139 292.908 116.09C293.391 116.338 293.859 116.61 294.31 116.904C296.269 118.177 297.927 119.864 299.16 121.851C299.236 121.973 299.335 122.072 299.448 122.145C299.746 122.339 300.142 122.356 300.464 122.156C300.909 121.879 301.046 121.296 300.77 120.851C299.391 118.628 297.535 116.74 295.345 115.315C294.839 114.986 294.316 114.682 293.776 114.404C289.535 112.222 284.699 111.822 280.156 113.277C275.615 114.733 271.91 117.865 269.729 122.11C267.547 126.35 267.146 131.187 268.602 135.729C269.869 139.683 272.41 143.001 275.845 145.234C276.355 145.565 276.885 145.874 277.434 146.156C285.644 150.381 295.642 147.604 300.57 140.022Z" fill="#BDD0FB"/>
<path d="M509.145 204.365L481.581 232.561L514.645 223.729L509.145 204.365Z" fill="#91B3FA"/>
<path d="M673.155 216.036L516.535 223.637C512.513 223.832 509.145 220.624 509.145 216.597V152.163C509.145 145.16 514.707 139.423 521.707 139.206L662.862 134.838C673.373 134.838 681.895 143.359 681.895 153.871V206.861C681.895 211.761 678.049 215.799 673.155 216.036Z" fill="#91B3FA"/>
<path opacity="0.85" d="M521.219 221.05C518.723 221.05 516.371 220.109 514.55 218.373C512.616 216.528 511.55 214.039 511.55 211.365V153.292C511.55 146.448 517.037 140.921 524.043 140.71L660.712 136.583C671.07 136.583 679.49 144.802 679.49 154.905V204.973C679.49 209.791 675.63 213.748 670.703 213.981L521.692 221.039C521.534 221.046 521.376 221.05 521.219 221.05ZM660.722 137.262L524.063 141.389C517.427 141.589 512.229 146.817 512.229 153.292V211.365C512.229 213.851 513.22 216.165 515.019 217.882C516.818 219.597 519.174 220.481 521.66 220.36L670.671 213.302C675.236 213.086 678.811 209.428 678.811 204.973V154.905C678.811 145.177 670.696 137.262 660.722 137.262Z" fill="white"/>
<path d="M660.265 149.009L535.03 153.696C533.8 153.742 532.832 154.557 532.873 155.512L532.92 156.613C532.96 157.558 533.974 158.284 535.191 158.24L660.431 153.666C661.662 153.621 662.632 152.806 662.591 151.85L662.539 150.635C662.499 149.69 661.483 148.964 660.265 149.009Z" fill="url(#paint5_linear_101_194)"/>
<path d="M649.058 180.714L523.822 185.378C522.592 185.423 521.625 186.266 521.667 187.255L521.716 188.396C521.758 189.374 522.773 190.128 523.99 190.084L649.231 185.539C650.462 185.494 651.431 184.651 651.388 183.661L651.334 182.403C651.293 181.423 650.276 180.669 649.058 180.714Z" fill="url(#paint6_linear_101_194)"/>
<path d="M663.689 193.977L524.078 199.248C522.707 199.3 521.625 200.156 521.668 201.155L521.717 202.306C521.76 203.294 522.888 204.051 524.244 204.001L663.861 198.849C665.233 198.798 666.316 197.942 666.273 196.942L666.219 195.672C666.177 194.683 665.047 193.926 663.689 193.977Z" fill="url(#paint7_linear_101_194)"/>
<path d="M591.602 167.701L523.344 169.691C522.673 169.711 522.172 170.631 522.227 171.741L522.29 173.021C522.344 174.119 522.923 174.991 523.586 174.973L591.851 173.115C592.522 173.097 593.024 172.177 592.969 171.065L592.9 169.653C592.845 168.554 592.266 167.682 591.602 167.701Z" fill="url(#paint8_linear_101_194)"/>
<path d="M666.814 165.342L602.296 167.192C601.663 167.21 601.192 168.129 601.247 169.239L601.311 170.519C601.366 171.617 601.915 172.49 602.542 172.473L667.066 170.756C667.701 170.739 668.172 169.82 668.117 168.709L668.047 167.297C667.992 166.197 667.441 165.324 666.814 165.342Z" fill="url(#paint9_linear_101_194)"/>
<path d="M271.335 571.424C271.335 571.424 270.044 578.733 269.411 585.967C269.164 588.795 271.344 591.249 274.179 591.368C283.814 591.769 304.422 592.549 311.817 592.219C312.928 592.169 313.655 591.031 313.244 589.997C312.899 589.131 312.234 588.43 311.387 588.041L277.346 572.396L271.335 571.424Z" fill="url(#paint10_linear_101_194)"/>
<path d="M270.277 567.13L271.315 575.872C271.315 575.872 277.278 578.648 281.35 575.522L278.881 565.78L270.277 567.13Z" fill="url(#paint11_linear_101_194)"/>
<path d="M271.057 402.781C270.609 405.064 268.652 516.702 280.585 566.731C280.78 567.547 280.366 568.389 279.589 568.706C277.759 569.454 274.171 570.537 269.871 570.681C268.539 570.726 267.345 569.86 266.969 568.582C263.558 556.974 247.213 498.818 245.081 443.263C242.698 381.185 245.081 441.149 245.081 441.149L246.478 402.777L271.057 402.781Z" fill="url(#paint12_linear_101_194)"/>
<path d="M232.177 575.237C232.177 575.237 230.122 578.926 228.132 588.731C227.773 590.501 229.01 592.196 230.808 592.372C233.989 592.685 238.887 593.088 242.81 593.061C244.618 593.048 246.029 591.474 245.812 589.678C245.377 586.1 244.023 580.229 239.841 575.652L232.177 575.237Z" fill="url(#paint13_linear_101_194)"/>
<path d="M230.372 563.993L232.795 577.213C232.795 577.213 235.192 578.995 239.932 577.703L238.775 563.479L230.372 563.993Z" fill="url(#paint14_linear_101_194)"/>
<path d="M223.825 406.207C214.065 465.108 225.942 551.786 229.948 568.751C230.193 569.79 231.031 570.585 232.084 570.76C233.872 571.056 236.815 571.298 239.717 570.455C240.717 570.165 241.42 569.263 241.46 568.222C241.998 554.507 241.031 470.306 250.124 437.029C250.585 435.343 251.615 433.872 253.04 432.859L270.691 420.311L272.044 400.028L223.825 406.207Z" fill="url(#paint15_linear_101_194)"/>
<path d="M286.014 294.601C256.766 294.118 224.494 302.281 224.494 302.281C215.776 353.152 222.969 411.828 222.969 411.828C245.613 417.766 271.156 408.197 271.156 408.197C274.919 386.934 292.478 327.094 292.478 327.094C306.769 325.32 318.541 321.197 328.236 315.746C320.841 307.174 317.355 296.267 315.841 289.82C305.5 293.033 295.036 294.75 286.014 294.601Z" fill="url(#paint16_linear_101_194)"/>
<path d="M372.408 251.52C369.535 248.05 365.899 249.691 365.899 249.691C361.595 267.872 339.027 282.614 315.841 289.82C317.355 296.267 320.841 307.174 328.236 315.746C366.715 294.111 372.408 251.52 372.408 251.52Z" fill="url(#paint17_linear_101_194)"/>
<path d="M371.711 252.402C372.012 253.358 368.531 254.813 366.481 250.904C366.409 249.031 365.27 241.005 366.389 239.479C372.351 231.351 383.91 221.161 383.91 221.161C385.864 223.089 384.255 224.983 384.255 224.983L378.647 230.824C379.82 232.944 381.251 234.733 381.921 237.296C382.429 239.238 382.118 241.313 381.138 243.08C380.153 244.853 378.81 247.158 377.541 248.962C375.138 252.377 371.711 252.402 371.711 252.402Z" fill="url(#paint18_linear_101_194)"/>
<path d="M376.194 234.615L371.084 238.947L369.48 243.259L374.036 248.314C374.036 248.314 375.568 239.756 376.706 237.904C377.845 236.052 377.254 235.156 376.194 234.615Z" fill="url(#paint19_linear_101_194)"/>
<path d="M235.713 330.602L224.494 302.281C224.494 302.281 197.174 320.843 192.682 344.378C197.844 344.758 207.237 346.101 216.431 350.744C218.452 339.631 235.713 330.602 235.713 330.602Z" fill="url(#paint20_linear_101_194)"/>
<path d="M259.587 357.251C259.587 357.251 228.914 374.586 218.564 359.784C216.415 356.71 215.902 353.655 216.431 350.744C207.237 346.101 197.844 344.758 192.682 344.378C191.327 351.473 192.043 359.02 196.213 366.646C214.341 399.809 263.646 364.814 263.646 364.814L259.587 357.251Z" fill="url(#paint21_linear_101_194)"/>
<path d="M255.901 379.181L272.642 320.721C272.832 320.057 273.398 319.573 274.083 319.493C277.116 319.14 285.905 318.146 296.052 317.288C308.275 316.254 322.469 315.416 330.951 316.129C332.157 316.23 332.886 317.506 332.349 318.59C327.526 328.349 307.686 368.043 297.75 381.046C297.421 381.477 296.912 381.729 296.37 381.724L257.53 381.362C256.4 381.352 255.59 380.268 255.901 379.181Z" fill="#91B3FA"/>
<path d="M297.789 312.219L309.925 310.197C310.572 310.089 311.101 310.707 310.896 311.329L309.694 314.97C309.59 315.287 309.313 315.516 308.983 315.56L297.303 317.121C296.699 317.201 296.201 316.652 296.34 316.059L297.083 312.88C297.163 312.538 297.442 312.277 297.789 312.219Z" fill="#BDD0FB"/>
<path d="M288.701 322.494L289.701 317.286C289.801 316.764 290.232 316.369 290.761 316.315L315.275 313.828C316.1 313.744 316.761 314.5 316.567 315.307L315.008 321.796C314.884 322.316 314.432 322.691 313.898 322.717L289.943 323.923C289.164 323.963 288.554 323.261 288.701 322.494Z" fill="#BDD0FB"/>
<path d="M259.946 365.057C259.946 365.057 257.614 355.468 258.554 352.066C259.495 348.664 261.318 344.29 267.392 345.262C273.467 346.234 280.633 348.793 280.633 348.793C280.633 348.793 280.271 353.225 275.654 351.795L278.517 354.01C278.517 354.01 278.108 357.558 274.208 355.663L276.871 358.601C276.871 358.601 275.196 361.514 272.327 359.646C269.458 357.777 268.083 366.212 259.946 365.057Z" fill="url(#paint22_linear_101_194)"/>
<path d="M256.388 270.856L247.082 297.769C246.928 298.215 247.111 298.709 247.524 298.937C250.061 300.34 259.2 304.394 270.215 297.411C271.362 296.683 272.143 295.497 272.317 294.15L275.331 270.856H256.388V270.856Z" fill="url(#paint23_linear_101_194)"/>
<path d="M276.638 245.933C276.638 245.933 286.857 265.17 285.547 272.941C284.237 280.711 271.572 280.154 260.512 273.843L252.784 253.071L276.638 245.933Z" fill="url(#paint24_linear_101_194)"/>
<path d="M261.001 263.642C261.45 263.443 261.616 262.893 261.347 262.481C260.528 261.231 258.993 258.679 258.504 256.445C258.504 256.445 256.667 255.268 263.18 253.709C269.693 252.15 279.405 249.731 281.447 244.187C283.437 238.782 278.208 225.189 269.864 236.02C269.547 236.432 268.925 236.441 268.608 236.028C267.24 234.248 263.644 230.553 258.652 232.793C253.98 234.889 253.453 238.313 253.518 240.039C253.536 240.546 253.083 240.941 252.584 240.846C250.222 240.395 244.553 240.008 241.907 245.823C239.728 250.613 241.145 253.324 242.435 254.65C242.853 255.08 242.669 255.787 242.096 255.962C240.544 256.438 238.539 257.754 238.74 261.391C239.017 266.419 244.639 265.976 246.239 265.747C246.502 265.71 246.766 265.8 246.944 265.996C248.316 267.515 254.499 273.963 261.192 274.741C261.771 274.808 262.22 274.236 262.031 273.684L259.134 265.265C259 264.875 259.187 264.445 259.565 264.278L261.001 263.642Z" fill="url(#paint25_linear_101_194)"/>
<path d="M262.165 264.837C262.165 264.837 254.889 259.845 254.357 264.049C253.826 268.253 260.91 270.138 264.418 268.571L262.165 264.837Z" fill="url(#paint26_linear_101_194)"/>
<defs>
<linearGradient id="paint0_linear_101_194" x1="771.03" y1="758.918" x2="275.772" y2="143.838" gradientUnits="userSpaceOnUse">
<stop stop-color="#DAE3FE"/>
<stop offset="1" stop-color="#E9EFFD"/>
</linearGradient>
<linearGradient id="paint1_linear_101_194" x1="1128.2" y1="-349.446" x2="93.2145" y2="532.736" gradientUnits="userSpaceOnUse">
<stop stop-color="#E1473D"/>
<stop offset="1" stop-color="#E9605A"/>
</linearGradient>
<linearGradient id="paint2_linear_101_194" x1="1279.16" y1="-172.344" x2="244.168" y2="709.839" gradientUnits="userSpaceOnUse">
<stop stop-color="#E1473D"/>
<stop offset="1" stop-color="#E9605A"/>
</linearGradient>
<linearGradient id="paint3_linear_101_194" x1="161.996" y1="490.286" x2="1060.48" y2="-461.168" gradientUnits="userSpaceOnUse">
<stop stop-color="#FF928E"/>
<stop offset="1" stop-color="#FE7062"/>
</linearGradient>
<linearGradient id="paint4_linear_101_194" x1="527.359" y1="424.13" x2="323.652" y2="649.227" gradientUnits="userSpaceOnUse">
<stop stop-color="#FF928E"/>
<stop offset="1" stop-color="#FE7062"/>
</linearGradient>
<linearGradient id="paint5_linear_101_194" x1="532.872" y1="153.624" x2="662.592" y2="153.624" gradientUnits="userSpaceOnUse">
<stop stop-color="#DAE3FE"/>
<stop offset="1" stop-color="#E9EFFD"/>
</linearGradient>
<linearGradient id="paint6_linear_101_194" x1="521.666" y1="185.399" x2="651.39" y2="185.399" gradientUnits="userSpaceOnUse">
<stop stop-color="#DAE3FE"/>
<stop offset="1" stop-color="#E9EFFD"/>
</linearGradient>
<linearGradient id="paint7_linear_101_194" x1="521.667" y1="198.989" x2="666.275" y2="198.989" gradientUnits="userSpaceOnUse">
<stop stop-color="#DAE3FE"/>
<stop offset="1" stop-color="#E9EFFD"/>
</linearGradient>
<linearGradient id="paint8_linear_101_194" x1="522.223" y1="171.337" x2="592.974" y2="171.337" gradientUnits="userSpaceOnUse">
<stop stop-color="#DAE3FE"/>
<stop offset="1" stop-color="#E9EFFD"/>
</linearGradient>
<linearGradient id="paint9_linear_101_194" x1="601.243" y1="168.908" x2="668.121" y2="168.908" gradientUnits="userSpaceOnUse">
<stop stop-color="#DAE3FE"/>
<stop offset="1" stop-color="#E9EFFD"/>
</linearGradient>
<linearGradient id="paint10_linear_101_194" x1="310.739" y1="561.323" x2="186.083" y2="696.915" gradientUnits="userSpaceOnUse">
<stop stop-color="#09005D"/>
<stop offset="1" stop-color="#1A0F91"/>
</linearGradient>
<linearGradient id="paint11_linear_101_194" x1="270.277" y1="571.394" x2="281.35" y2="571.394" gradientUnits="userSpaceOnUse">
<stop stop-color="#FEBBBA"/>
<stop offset="1" stop-color="#FF928E"/>
</linearGradient>
<linearGradient id="paint12_linear_101_194" x1="320.554" y1="407.985" x2="214.484" y2="551.749" gradientUnits="userSpaceOnUse">
<stop stop-color="#09005D"/>
<stop offset="1" stop-color="#1A0F91"/>
</linearGradient>
<linearGradient id="paint13_linear_101_194" x1="282.774" y1="535.614" x2="158.118" y2="671.205" gradientUnits="userSpaceOnUse">
<stop stop-color="#09005D"/>
<stop offset="1" stop-color="#1A0F91"/>
</linearGradient>
<linearGradient id="paint14_linear_101_194" x1="230.372" y1="570.826" x2="239.932" y2="570.826" gradientUnits="userSpaceOnUse">
<stop stop-color="#FEBBBA"/>
<stop offset="1" stop-color="#FF928E"/>
</linearGradient>
<linearGradient id="paint15_linear_101_194" x1="301.65" y1="394.037" x2="195.58" y2="537.802" gradientUnits="userSpaceOnUse">
<stop stop-color="#09005D"/>
<stop offset="1" stop-color="#1A0F91"/>
</linearGradient>
<linearGradient id="paint16_linear_101_194" x1="264.144" y1="330.068" x2="433.246" y2="38.7236" gradientUnits="userSpaceOnUse">
<stop stop-color="#4F52FF"/>
<stop offset="1" stop-color="#4042E2"/>
</linearGradient>
<linearGradient id="paint17_linear_101_194" x1="363.686" y1="216.617" x2="344.15" y2="272.435" gradientUnits="userSpaceOnUse">
<stop stop-color="#FEBBBA"/>
<stop offset="1" stop-color="#FF928E"/>
</linearGradient>
<linearGradient id="paint18_linear_101_194" x1="380.384" y1="222.461" x2="360.848" y2="278.279" gradientUnits="userSpaceOnUse">
<stop stop-color="#FEBBBA"/>
<stop offset="1" stop-color="#FF928E"/>
</linearGradient>
<linearGradient id="paint19_linear_101_194" x1="365.376" y1="258.123" x2="380.091" y2="228.438" gradientUnits="userSpaceOnUse">
<stop stop-color="#FEBBBA"/>
<stop offset="1" stop-color="#FF928E"/>
</linearGradient>
<linearGradient id="paint20_linear_101_194" x1="228.971" y1="309.653" x2="398.073" y2="18.3082" gradientUnits="userSpaceOnUse">
<stop stop-color="#4F52FF"/>
<stop offset="1" stop-color="#4042E2"/>
</linearGradient>
<linearGradient id="paint21_linear_101_194" x1="192.059" y1="362.651" x2="263.646" y2="362.651" gradientUnits="userSpaceOnUse">
<stop stop-color="#FEBBBA"/>
<stop offset="1" stop-color="#FF928E"/>
</linearGradient>
<linearGradient id="paint22_linear_101_194" x1="258.331" y1="355.145" x2="280.633" y2="355.145" gradientUnits="userSpaceOnUse">
<stop stop-color="#FEBBBA"/>
<stop offset="1" stop-color="#FF928E"/>
</linearGradient>
<linearGradient id="paint23_linear_101_194" x1="247.028" y1="286.121" x2="275.331" y2="286.121" gradientUnits="userSpaceOnUse">
<stop stop-color="#FEBBBA"/>
<stop offset="1" stop-color="#FF928E"/>
</linearGradient>
<linearGradient id="paint24_linear_101_194" x1="282.063" y1="268.115" x2="250.943" y2="249.134" gradientUnits="userSpaceOnUse">
<stop stop-color="#FEBBBA"/>
<stop offset="1" stop-color="#FF928E"/>
</linearGradient>
<linearGradient id="paint25_linear_101_194" x1="234.471" y1="229.127" x2="274.673" y2="260.88" gradientUnits="userSpaceOnUse">
<stop stop-color="#09005D"/>
<stop offset="1" stop-color="#1A0F91"/>
</linearGradient>
<linearGradient id="paint26_linear_101_194" x1="273.889" y1="275.193" x2="245.89" y2="258.116" gradientUnits="userSpaceOnUse">
<stop stop-color="#FEBBBA"/>
<stop offset="1" stop-color="#FF928E"/>
</linearGradient>
</defs>
</svg>
