<svg width="844" height="595" viewBox="0 0 844 595" fill="none" xmlns="http://www.w3.org/2000/svg">
<g clip-path="url(#clip0_101_194)">
<path d="M679.957 578.889L665.759 578.888L659.004 524.131L679.96 524.132L679.957 578.889Z" fill="#FFB6B6"/>
<path d="M680.457 593.699L636.794 593.697V593.145C636.795 583.761 644.403 576.154 653.789 576.153L661.766 570.104L676.646 576.154L680.458 576.155L680.457 593.699Z" fill="#2F2E41"/>
<path d="M617.01 578.889L602.811 578.888L596.057 524.131L617.013 524.132L617.01 578.889Z" fill="#FFB6B6"/>
<path d="M617.509 593.699L573.847 593.697V593.145C573.847 583.761 581.456 576.154 590.841 576.153L598.818 570.104L613.699 576.154L617.51 576.155L617.509 593.699Z" fill="#2F2E41"/>
<path d="M610.244 273.301L692.162 275.025C692.162 275.025 706.889 299.166 695.645 333.22L696.904 342.704L691.731 357.36L689.144 402.192L691.731 409.089L690.006 422.022C690.006 422.022 696.904 507.374 679.659 550.481L658.963 549.619L651.203 437.15L655.514 428.919L654.652 425.47L644.304 373.741L633.957 400.468V415.318L624.472 426.332C624.472 426.332 627.921 528.066 618.436 548.757H595.266L586.531 410.814L595.154 330.634L593.429 325.461L596.016 322.875L594.291 314.253L610.244 273.301Z" fill="#2F2E41"/>
<path d="M645.167 115.959L670.173 109.924L677.072 126.305C677.072 126.305 712.762 145.272 714.487 171.137C714.487 171.137 719.324 191.828 715.012 201.312C710.701 210.795 692.593 240.971 692.593 240.971C692.593 240.971 708.976 293.562 704.665 296.148C700.354 298.734 597.74 293.562 597.74 288.389C597.74 283.216 614.818 228.901 614.818 228.901L618.435 135.789L641.717 127.167L645.167 115.959Z" fill="#3F3D56"/>
<path d="M711.833 328.19C706.599 325.553 704.494 319.173 707.131 313.94C707.396 313.413 707.709 312.927 708.045 312.466L694.13 217.081L713.395 217.697L723.472 310.635C727.124 313.732 728.335 319.024 726.085 323.489C723.448 328.722 717.067 330.826 711.833 328.19Z" fill="#FFB6B6"/>
<path d="M529.043 283.171C526.936 277.703 529.661 271.562 535.13 269.455C535.68 269.243 536.238 269.093 536.797 268.977L590.551 188.956L604.412 202.346L549.458 277.978C550.084 282.725 547.427 287.459 542.761 289.257C537.292 291.364 531.151 288.639 529.043 283.171Z" fill="#FFB6B6"/>
<path d="M676.729 193.022C671.286 174.325 680.326 155.251 699.802 155.343C705.431 155.369 709.804 157.003 711.016 161.523C715.258 177.345 717.571 201.229 717.571 201.229L722.604 226.658L719.556 231.938L725.91 248.979L722.828 257.041L722.161 298.211L706.64 297.349L689.538 265.963L682.999 262.076C682.999 262.076 688.25 211.33 677.805 196.718L676.729 193.022Z" fill="#3F3D56"/>
<path d="M607.206 147.01C616.281 129.782 639.517 125.701 653.461 139.294C657.491 143.224 659.502 147.436 657.233 151.529C649.29 165.856 630.88 181.282 630.88 181.282L608.207 217.725L602.346 219.405L595.076 236.077L579.496 254.391L558.861 265.271L546.789 253.201L549.352 237.686L580.418 196.3C580.418 196.3 602.771 168.181 605.411 150.416L607.206 147.01Z" fill="#3F3D56"/>
<path d="M649.918 110.92C650.489 110.989 651.059 111.04 651.625 111.066C653.387 111.163 655.129 111.062 656.806 110.778C661.905 109.961 666.537 107.547 670.11 104.006C673.889 100.27 676.475 95.2836 677.174 89.6069C678.811 76.2072 669.268 64.0011 655.866 62.3638C642.656 60.7406 630.615 69.9781 628.693 83.0701C628.663 83.2728 628.631 83.4669 628.61 83.6687C626.973 97.0769 636.507 109.275 649.918 110.92Z" fill="#FFB6B6"/>
<path d="M623.182 82.1732C626.654 83.8897 632.326 78.4933 634.499 81.5982C634.851 80.9272 635.241 80.2783 635.626 79.6646C635.975 79.1155 636.473 77.9434 637.05 77.7426C636.32 79.5033 636.481 81.8879 637.239 83.9309C640.663 85.2102 645.146 82.3783 648.315 79.0287C653.292 73.7764 661.419 87.2448 659.497 94.2149C661.943 91.2292 667.25 92.9131 669.048 96.327C670.845 99.7323 667.808 102.461 667.159 106.259L672.061 105.637C675.154 102.625 674.938 97.5493 677.485 94.0584C681.739 88.2162 683.388 82.2553 680.19 76.2258C677.353 70.8946 677.087 63.9948 671.883 60.9212C674.157 59.8096 666.07 61.5462 668.23 57.9236C670.4 54.3085 658.835 53.8697 658.081 55.8065C654.776 51.8522 651.443 49.245 647.378 52.4136C643.386 55.5309 643.799 58.8075 639.11 58.5139C636.91 58.3776 637.151 62.4791 635.843 64.2673C634.543 66.0459 629.488 67.1877 629.242 66.9974C627.907 65.953 623.365 74.8438 623.365 74.8438C623.365 74.8438 619.682 80.4338 623.182 82.1732Z" fill="#2F2E41"/>
<path d="M317.202 237.351C399.348 237.351 465.94 303.932 465.94 386.064C465.94 468.196 399.348 534.777 317.202 534.777C235.056 534.777 121.369 453.346 168.463 386.064C215.558 318.782 235.056 237.351 317.202 237.351Z" fill="#F2F2F2"/>
<path d="M516.277 244.426C514.944 244.426 513.859 245.51 513.859 246.844V324.223C513.859 325.556 514.944 326.641 516.277 326.641C517.611 326.641 518.696 325.556 518.696 324.223V246.844C518.696 245.51 517.611 244.426 516.277 244.426Z" fill="#3F3D56"/>
<path d="M109.968 186.391C108.634 186.391 107.549 187.476 107.549 188.809V208.154C107.549 209.488 108.634 210.572 109.968 210.572C111.301 210.572 112.386 209.488 112.386 208.154V188.809C112.386 187.476 111.301 186.391 109.968 186.391Z" fill="#3F3D56"/>
<path d="M109.968 244.426C108.634 244.426 107.549 245.51 107.549 246.844V284.324C107.549 285.658 108.634 286.742 109.968 286.742C111.301 286.742 112.386 285.658 112.386 284.324V246.844C112.386 245.51 111.301 244.426 109.968 244.426Z" fill="#3F3D56"/>
<path d="M109.968 297.624C108.634 297.624 107.549 298.708 107.549 300.042V337.522C107.549 338.856 108.634 339.94 109.968 339.94C111.301 339.94 112.386 338.856 112.386 337.522V300.042C112.386 298.708 111.301 297.624 109.968 297.624Z" fill="#3F3D56"/>
<path d="M326.876 110.221C325.542 110.221 324.457 111.306 324.457 112.639V150.12C324.457 151.453 325.542 152.538 326.876 152.538C328.21 152.538 329.294 151.453 329.294 150.12V112.639C329.294 111.306 328.21 110.221 326.876 110.221Z" fill="#3F3D56"/>
<path d="M697.387 574.044C699.885 574.2 701.266 571.097 699.376 569.288L699.188 568.541C699.213 568.481 699.237 568.421 699.263 568.361C701.789 562.338 710.351 562.38 712.856 568.412C715.08 573.766 717.91 579.129 718.607 584.789C718.92 587.288 718.779 589.834 718.225 592.286C723.434 580.908 726.176 568.484 726.176 555.99C726.176 552.85 726.004 549.711 725.652 546.58C725.363 544.018 724.965 541.472 724.449 538.95C721.661 525.315 715.624 512.329 706.915 501.482C702.729 499.194 699.237 495.617 697.129 491.33C696.371 489.784 695.777 488.121 695.496 486.426C695.973 486.489 697.293 479.234 696.933 478.789C697.597 477.782 698.786 477.281 699.511 476.298C703.117 471.409 708.086 472.263 710.68 478.906C716.221 481.702 716.274 486.339 712.874 490.799C710.711 493.637 710.414 497.476 708.516 500.514C708.712 500.764 708.915 501.006 709.11 501.256C712.691 505.847 715.787 510.783 718.398 515.968C717.66 510.206 718.75 503.263 720.607 498.788C722.721 493.689 726.683 489.395 730.173 484.987C734.364 479.692 742.958 482.003 743.697 488.715C743.704 488.78 743.711 488.844 743.718 488.909C743.2 489.202 742.692 489.512 742.196 489.84C739.367 491.711 740.345 496.096 743.697 496.613L743.772 496.625C743.585 498.491 743.265 500.342 742.796 502.161C747.273 519.47 737.608 525.774 723.809 526.057C723.505 526.213 723.208 526.37 722.903 526.518C724.301 530.454 725.418 534.491 726.246 538.583C726.988 542.199 727.503 545.853 727.792 549.524C728.152 554.154 728.121 558.809 727.73 563.432L727.753 563.268C728.745 558.176 731.51 553.42 735.525 550.125C741.505 545.213 749.955 543.404 756.406 539.456C759.512 537.555 763.492 540.011 762.95 543.612L762.924 543.784C761.963 544.174 761.026 544.627 760.12 545.135C759.601 545.427 759.094 545.738 758.598 546.066C755.769 547.936 756.746 552.321 760.098 552.839L760.174 552.85C760.229 552.858 760.276 552.866 760.331 552.874C758.683 556.786 756.386 560.417 753.512 563.549C750.713 578.658 738.691 580.092 725.832 575.692H725.824C724.418 581.814 722.364 587.796 719.724 593.497H697.933C697.855 593.254 697.785 593.005 697.714 592.762C699.73 592.887 701.76 592.77 703.744 592.403C702.127 590.42 700.511 588.421 698.894 586.437C698.855 586.398 698.824 586.359 698.792 586.32C697.972 585.305 697.144 584.297 696.324 583.282L696.324 583.281C696.272 580.165 696.647 577.058 697.387 574.044Z" fill="#F2F2F2"/>
<path d="M80 593.561C80 594.359 80.6409 595 81.4391 595H761.391C762.189 595 762.83 594.359 762.83 593.561C762.83 592.763 762.189 592.122 761.391 592.122H81.4391C80.6409 592.122 80 592.763 80 593.561Z" fill="#CCCCCC"/>
<path d="M252.169 376.04H168.463V373.622H252.169C259.44 373.622 265.356 367.706 265.356 360.435V303.849H267.775V360.435C267.775 369.039 260.774 376.04 252.169 376.04Z" fill="#DBFE01"/>
<path d="M411.886 498.704H221.506V501.122H411.886V498.704Z" fill="#DBFE01"/>
<path d="M532.676 359.871H430.988C425.5 359.871 421.036 355.407 421.036 349.92V249.49C421.036 244.003 425.5 239.539 430.988 239.539H532.676C538.164 239.539 542.628 244.003 542.628 249.49V349.92C542.628 355.407 538.164 359.871 532.676 359.871Z" fill="#E6E6E6"/>
<path d="M449.925 242.504C435.608 242.504 424.001 254.108 424.001 268.424V347.789C424.001 352.824 428.083 356.906 433.119 356.906H495.299C519.801 356.906 539.663 337.047 539.663 312.549V251.62C539.663 246.585 535.581 242.504 530.545 242.504L449.925 242.504Z" fill="white"/>
<path d="M509.067 271.689H454.384C453.341 271.689 452.492 270.841 452.492 269.798C452.492 268.755 453.341 267.906 454.384 267.906H509.067C510.11 267.906 510.959 268.755 510.959 269.798C510.959 270.841 510.11 271.689 509.067 271.689Z" fill="#E6E6E6"/>
<path d="M509.067 312.028H454.384C453.341 312.028 452.492 311.179 452.492 310.136C452.492 309.093 453.341 308.244 454.384 308.244H509.067C510.11 308.244 510.959 309.093 510.959 310.136C510.959 311.179 510.11 312.028 509.067 312.028Z" fill="#E6E6E6"/>
<path d="M531.273 291.872H432.178C431.135 291.872 430.286 291.023 430.286 289.98C430.286 288.937 431.135 288.089 432.178 288.089H531.273C532.316 288.089 533.165 288.937 533.165 289.98C533.165 291.023 532.316 291.872 531.273 291.872Z" fill="#E6E6E6"/>
<path d="M532.285 328.429H496.486C495.443 328.429 494.594 327.58 494.594 326.537C494.594 325.494 495.443 324.646 496.486 324.646H532.285C533.328 324.646 534.176 325.494 534.176 326.537C534.176 327.58 533.328 328.429 532.285 328.429Z" fill="#E6E6E6"/>
<path d="M319.083 559.973H238.336C233.978 559.973 230.433 556.429 230.433 552.072V472.323C230.433 467.966 233.978 464.422 238.336 464.422H319.083C323.441 464.422 326.986 467.966 326.986 472.323V552.072C326.986 556.429 323.441 559.973 319.083 559.973Z" fill="#E6E6E6"/>
<path d="M253.374 466.776C242.004 466.776 232.788 475.991 232.788 487.358V550.38C232.788 554.378 236.029 557.619 240.028 557.619H289.403C308.859 557.619 324.631 541.85 324.631 522.397V474.015C324.631 470.017 321.39 466.776 317.391 466.776L253.374 466.776Z" fill="white"/>
<path d="M300.336 489.952H256.914C256.086 489.952 255.411 489.278 255.411 488.449C255.411 487.621 256.086 486.947 256.914 486.947H300.336C301.165 486.947 301.838 487.621 301.838 488.449C301.838 489.278 301.165 489.952 300.336 489.952Z" fill="#E6E6E6"/>
<path d="M300.336 521.983H256.914C256.086 521.983 255.411 521.309 255.411 520.481C255.411 519.652 256.086 518.979 256.914 518.979H300.336C301.165 518.979 301.838 519.652 301.838 520.481C301.838 521.309 301.165 521.983 300.336 521.983Z" fill="#E6E6E6"/>
<path d="M317.969 505.978H239.281C238.453 505.978 237.779 505.304 237.779 504.475C237.779 503.647 238.453 502.974 239.281 502.974H317.969C318.797 502.974 319.471 503.647 319.471 504.475C319.471 505.304 318.797 505.978 317.969 505.978Z" fill="#E6E6E6"/>
<path d="M318.772 535.007H290.346C289.518 535.007 288.844 534.333 288.844 533.504C288.844 532.676 289.518 532.003 290.346 532.003H318.772C319.601 532.003 320.275 532.676 320.275 533.504C320.275 534.333 319.601 535.007 318.772 535.007Z" fill="#E6E6E6"/>
<path d="M262.646 303.239H202.93C199.707 303.239 197.085 300.617 197.085 297.395V238.417C197.085 235.195 199.707 232.574 202.93 232.574H262.646C265.869 232.574 268.49 235.195 268.49 238.417V297.395C268.49 300.617 265.869 303.239 262.646 303.239Z" fill="#E6E6E6"/>
<path d="M214.051 234.315C205.643 234.315 198.827 241.13 198.827 249.537V296.144C198.827 299.101 201.224 301.497 204.181 301.497H240.696C255.085 301.497 266.749 289.835 266.749 275.449V239.669C266.749 236.712 264.352 234.315 261.394 234.315L214.051 234.315Z" fill="white"/>
<path d="M248.782 251.454H216.669C216.056 251.454 215.558 250.956 215.558 250.343C215.558 249.731 216.056 249.233 216.669 249.233H248.782C249.394 249.233 249.893 249.731 249.893 250.343C249.893 250.956 249.394 251.454 248.782 251.454Z" fill="#E6E6E6"/>
<path d="M248.782 275.143H216.669C216.056 275.143 215.558 274.644 215.558 274.032C215.558 273.419 216.056 272.921 216.669 272.921H248.782C249.394 272.921 249.893 273.419 249.893 274.032C249.893 274.644 249.394 275.143 248.782 275.143Z" fill="#E6E6E6"/>
<path d="M261.822 263.306H203.629C203.016 263.306 202.518 262.808 202.518 262.195C202.518 261.583 203.016 261.085 203.629 261.085H261.822C262.434 261.085 262.933 261.583 262.933 262.195C262.933 262.808 262.434 263.306 261.822 263.306Z" fill="#E6E6E6"/>
<path d="M262.416 284.775H241.394C240.781 284.775 240.282 284.276 240.282 283.664C240.282 283.051 240.781 282.553 241.394 282.553H262.416C263.029 282.553 263.527 283.051 263.527 283.664C263.527 284.276 263.029 284.775 262.416 284.775Z" fill="#E6E6E6"/>
<path d="M436.918 377.601C443.597 377.601 449.011 372.188 449.011 365.51C449.011 358.833 443.597 353.42 436.918 353.42C430.24 353.42 424.826 358.833 424.826 365.51C424.826 372.188 430.24 377.601 436.918 377.601Z" fill="#DBFE01"/>
<path d="M266.413 315.939C273.092 315.939 278.506 310.526 278.506 303.849C278.506 297.171 273.092 291.758 266.413 291.758C259.735 291.758 254.321 297.171 254.321 303.849C254.321 310.526 259.735 315.939 266.413 315.939Z" fill="#DBFE01"/>
<path d="M324.457 481.579C331.136 481.579 336.55 476.166 336.55 469.488C336.55 462.811 331.136 457.398 324.457 457.398C317.779 457.398 312.365 462.811 312.365 469.488C312.365 476.166 317.779 481.579 324.457 481.579Z" fill="#DBFE01"/>
<path d="M350.579 146.337C358.902 146.337 365.65 139.732 365.65 131.586C365.65 123.439 358.902 116.834 350.579 116.834C342.255 116.834 335.507 123.439 335.507 131.586C335.507 139.732 342.255 146.337 350.579 146.337Z" fill="#F2F2F2"/>
<path d="M471.399 126.539H390.276C387.493 126.539 385.229 124.275 385.229 121.493C385.229 118.71 387.493 116.446 390.276 116.446H471.399C474.182 116.446 476.446 118.71 476.446 121.493C476.446 124.275 474.182 126.539 471.399 126.539Z" fill="#F2F2F2"/>
<path d="M534.707 143.619H390.276C387.493 143.619 385.229 141.355 385.229 138.573C385.229 135.79 387.493 133.526 390.276 133.526H534.707C537.49 133.526 539.755 135.79 539.755 138.573C539.755 141.355 537.49 143.619 534.707 143.619Z" fill="#F2F2F2"/>
<path d="M132.432 208.334C137.819 208.334 142.186 204.06 142.186 198.787C142.186 193.514 137.819 189.24 132.432 189.24C127.045 189.24 122.678 193.514 122.678 198.787C122.678 204.06 127.045 208.334 132.432 208.334Z" fill="#F2F2F2"/>
<path d="M210.625 195.521H158.124C156.323 195.521 154.857 194.056 154.857 192.255C154.857 190.454 156.323 188.989 158.124 188.989H210.625C212.426 188.989 213.892 190.454 213.892 192.255C213.892 194.056 212.426 195.521 210.625 195.521Z" fill="#F2F2F2"/>
<path d="M251.598 206.575H158.124C156.323 206.575 154.857 205.11 154.857 203.309C154.857 201.508 156.323 200.043 158.124 200.043H251.598C253.399 200.043 254.864 201.508 254.864 203.309C254.864 205.11 253.399 206.575 251.598 206.575Z" fill="#F2F2F2"/>
<path d="M425.072 548.076C430.459 548.076 434.826 543.802 434.826 538.53C434.826 533.257 430.459 528.983 425.072 528.983C419.685 528.983 415.318 533.257 415.318 538.53C415.318 543.802 419.685 548.076 425.072 548.076Z" fill="#F2F2F2"/>
<path d="M503.265 535.264H450.764C448.963 535.264 447.497 533.798 447.497 531.998C447.497 530.197 448.963 528.732 450.764 528.732H503.265C505.066 528.732 506.532 530.197 506.532 531.998C506.532 533.798 505.066 535.264 503.265 535.264Z" fill="#F2F2F2"/>
<path d="M544.238 546.318H450.764C448.963 546.318 447.497 544.853 447.497 543.052C447.497 541.251 448.963 539.786 450.764 539.786H544.238C546.039 539.786 547.504 541.251 547.504 543.052C547.504 544.853 546.039 546.318 544.238 546.318Z" fill="#F2F2F2"/>
<path d="M307.83 239.576H305.411V354.435H307.83V239.576Z" fill="#E6E6E6"/>
<path d="M306.621 361.69C310.628 361.69 313.876 358.442 313.876 354.435C313.876 350.429 310.628 347.181 306.621 347.181C302.614 347.181 299.365 350.429 299.365 354.435C299.365 358.442 302.614 361.69 306.621 361.69Z" fill="#E6E6E6"/>
<path d="M416.663 445.114C420.67 445.114 423.918 441.866 423.918 437.86C423.918 433.853 420.67 430.605 416.663 430.605C412.656 430.605 409.407 433.853 409.407 437.86C409.407 441.866 412.656 445.114 416.663 445.114Z" fill="#E6E6E6"/>
<path d="M220.764 345.972C224.771 345.972 228.019 342.724 228.019 338.718C228.019 334.711 224.771 331.463 220.764 331.463C216.756 331.463 213.508 334.711 213.508 338.718C213.508 342.724 216.756 345.972 220.764 345.972Z" fill="#E6E6E6"/>
<path d="M218.082 338.729L178.403 339.93L178.476 342.348L218.155 341.147L218.082 338.729Z" fill="#E6E6E6"/>
<path d="M475.688 465.631H415.52V437.86H417.939V463.213H475.688V465.631Z" fill="#E6E6E6"/>
<path d="M217.785 425.183C221.793 425.183 225.041 421.935 225.041 417.929C225.041 413.922 221.793 410.674 217.785 410.674C213.778 410.674 210.53 413.922 210.53 417.929C210.53 421.935 213.778 425.183 217.785 425.183Z" fill="#E6E6E6"/>
<path d="M276.094 445.7H215.927V417.929H218.345V443.282H276.094V445.7Z" fill="#E6E6E6"/>
<path d="M460.196 390.325H171.205V392.743H460.196V390.325Z" fill="#E6E6E6"/>
</g>
<defs>
<clipPath id="clip0_101_194">
<rect width="683" height="544" fill="white" transform="translate(80 51)"/>
</clipPath>
</defs>
</svg>
