<svg id="Layer_1" height="512" viewBox="0 0 100 100" width="512" xmlns="http://www.w3.org/2000/svg"><path d="m50 85.339c-19.618 0-35.521-15.904-35.521-35.522 0-.41.017-.816.03-1.224l-13.297-3.24c-.133 1.471-.212 2.958-.212 4.463 0 27.063 21.939 49 49 49 5.339 0 10.474-.865 15.284-2.444l-6.481-12.135c-2.817.718-5.765 1.102-8.803 1.102z"/><path d="m44.103 14.793v-13.609c-18.85 2.261-34.401 15.218-40.417 32.633l13.175 3.21c4.452-11.527 14.738-20.145 27.242-22.234z"/><path d="m76.962 26.703 9.551-9.553c-7.737-8.641-18.495-14.512-30.617-15.966v13.609c8.38 1.4 15.763 5.732 21.066 11.91z"/><path d="m93.355 26.987-10.167 10.167c1.502 3.936 2.333 8.2 2.333 12.662 0 12.369-6.327 23.257-15.914 29.616l6.37 11.925c13.824-8.663 23.023-24.023 23.023-41.541 0-8.245-2.046-16.009-5.645-22.829z"/><path d="m57.575 35.237h11.147v25.683h-11.147z"/><path d="m55.575 33.237v-3.452h-11.149v12.111 19.024h11.149z"/><path d="m31.276 43.896h11.15v17.023h-11.15z"/></svg>