<svg id="Glyph" height="512" viewBox="0 0 64 64" width="512" xmlns="http://www.w3.org/2000/svg"><g fill="rgb(0,0,0)"><path d="m52.91 23.59a5.88573 5.88573 0 0 1 -3.30986-10.18l-15.22014-8.78a4.62361 4.62361 0 0 0 -4.66 0l-15.29 8.81a5.8073 5.8073 0 0 1 1.91 4.31 5.87834 5.87834 0 0 1 -7.15 5.71993v16.71007a4.69822 4.69822 0 0 0 2.33 4.04l14.83 8.55c1.39608-5.94827 10.01124-5.92955 11.4.00015l14.83-8.56015a4.66964 4.66964 0 0 0 2.33-4.03v-16.73a5.88383 5.88383 0 0 1 -2 .14zm-19.58 23.18a2.81666 2.81666 0 0 1 -2.86-.02l-12.51-7.31a2.86324 2.86324 0 0 1 -1.42-2.47v-14.7a2.94277 2.94277 0 0 1 1.43-2.49l12.5-7.2a2.88866 2.88866 0 0 1 2.86 0l12.79 7.34a2.89348 2.89348 0 0 1 1.44 2.49v14.6a2.87348 2.87348 0 0 1 -1.45 2.5z"/><path d="m10.39 21.62c5.13729-.02679 5.25287-7.5872.08985-7.73a3.86615 3.86615 0 0 0 -.08985 7.73z"/><path d="m53.52 13.89a3.8652 3.8652 0 0 0 .00008 7.73 3.8652 3.8652 0 0 0 -.00008-7.73z"/><path d="m32.05 50.27a3.86513 3.86513 0 0 0 .00007 7.73 3.86513 3.86513 0 0 0 -.00007-7.73z"/><path d="m33.05 44.63 12.07-6.86a.869.869 0 0 0 .44-.75995v-13.60005l-12.51 6.86z"/><path d="m18.54 36.97a.87682.87682 0 0 0 .43.75l12.08 7.06v-14.53l-12.51-7.04z"/><path d="m32.34 14.31a.87209.87209 0 0 0 -.87006.01l-12.17994 7.02 12.77 7.19 12.81-7.02z"/></g></svg>