<svg width="35" height="32" viewBox="0 0 35 32" fill="none" xmlns="http://www.w3.org/2000/svg">
<g clip-path="url(#clip0_72_7001)">
<path d="M17.5434 0.437478C17.1465 -0.145825 16.2867 -0.145827 15.8898 0.437477L8.1759 11.7751C7.72421 12.439 8.19971 13.3377 9.00269 13.3377H13.0513L13.6285 28.6453C13.6991 30.5186 15.2383 32.0008 17.1129 32.0008C18.9875 32.0008 20.5267 30.5186 20.5973 28.6453L21.1745 13.3377H24.4305C25.2335 13.3377 25.709 12.439 25.2573 11.7751L17.5434 0.437478Z" fill="#6096FF"/>
<path d="M31.4147 14.3138C31.2721 13.9545 30.8123 13.8518 30.5304 14.1164L25.0513 19.2586C24.7305 19.5598 24.8775 20.0971 25.3069 20.193L27.2693 20.6311L25.795 28.6436C25.6091 29.6538 26.2552 30.6303 27.2578 30.8541C28.2603 31.0779 29.2604 30.469 29.5219 29.4756L31.5954 21.5969L33.5576 22.035C33.987 22.1309 34.3486 21.7071 34.1863 21.2981L31.4147 14.3138Z" fill="#012F33"/>
<path d="M2.81123 14.3138C2.95383 13.9545 3.41366 13.8518 3.69554 14.1164L9.17456 19.2586C9.49539 19.5598 9.34839 20.0971 8.91897 20.193L6.95672 20.6311L8.43106 28.6436C8.61695 29.6538 7.9708 30.6303 6.96826 30.8541C5.96572 31.0779 4.96563 30.469 4.70418 29.4756L2.63065 21.5969L0.668321 22.035C0.238897 22.1309 -0.122693 21.7071 0.0396018 21.2981L2.81123 14.3138Z" fill="#012F33"/>
</g>
<defs>
<clipPath id="clip0_72_7001">
<rect width="35" height="32" fill="white"/>
</clipPath>
</defs>
</svg>
