<svg xmlns="http://www.w3.org/2000/svg" version="1.1" xmlns:xlink="http://www.w3.org/1999/xlink" width="512" height="512" x="0" y="0" viewBox="0 0 512 512" style="enable-background:new 0 0 512 512" xml:space="preserve" class=""><g><circle cx="256" cy="256" r="256" style="" fill="#dbfe01" data-original="#1e499e" opacity="1"></circle><path d="M512 256c0-5.31-.181-10.577-.5-15.806L396.936 125.629 112.11 383.104l128.418 128.417c5.12.306 10.275.479 15.472.479 141.385 0 256-114.615 256-256z" style="" fill="#94c511" data-original="#0e387c" class="" opacity="1"></path><circle cx="256" cy="256" r="192" style="" fill="#464754" data-original="#44c4fc" class="" opacity="1"></circle><path d="M256 64h-.048v384H256c106.039 0 192-85.961 192-192S362.039 64 256 64z" style="" fill="#595d61" data-original="#29ace5" class="" opacity="1"></path><path d="m210.76 371.307-84.981-84.981 36.77-36.769 48.211 48.211 138.691-138.69 36.77 36.769z" style="" fill="#ffffff" data-original="#ffffff"></path><path d="m349.451 159.078-93.499 93.498v73.539l130.269-130.268z" style="" fill="#efefef" data-original="#e0e0e0" class="" opacity="1"></path></g></svg>