<svg height="512" viewBox="0 0 32 32" width="512" xmlns="http://www.w3.org/2000/svg"><g id="computer"><path d="m11 9c-2.2055664 0-4 1.7939453-4 4s1.7944336 4 4 4 4-1.7939453 4-4-1.7944336-4-4-4zm-1.5 6.8681641v-5.7363281l4.3027344 2.868164zm17.5-13.8681641h-22c-2.2055664 0-4 1.7939453-4 4v14c0 2.2060547 1.7944336 4 4 4h22c2.2055664 0 4-1.7939453 4-4v-14c0-2.2060547-1.7944336-4-4-4zm-16 17c-3.3085938 0-6-2.6914063-6-6s2.6914063-6 6-6 6 2.6914063 6 6-2.6914062 6-6 6zm16-1h-8v-2h8zm0-4h-8v-2h8zm0-4h-8v-2h8zm-8 18v-2h-6v2h-4v2h14v-2z"/></g></svg>