<svg xmlns="http://www.w3.org/2000/svg" version="1.1" xmlns:xlink="http://www.w3.org/1999/xlink" width="512" height="512" x="0" y="0" viewBox="0 0 100 100" style="enable-background:new 0 0 512 512" xml:space="preserve" class=""><g><path d="M57.929 72.5 47.824 62.396C36.437 61.299 27.501 51.673 27.501 40c0-12.408 10.094-22.5 22.498-22.5h4.597l5.943-5.943A36.55 36.55 0 0 0 49.999 10c-16.574 0-29.998 13.432-29.998 30l-10 18.333V60c0 .918.735 1.813 1.634 1.992l6.699 1.341 1.159 10.046c.423 3.64 3.763 6.621 7.428 6.621h13.08l3.333 10h26.665V72.5z" fill="#000000" opacity="1" data-original="#000000" class=""></path><path d="M84.999 50c-.442 0-.866.078-1.276.186L78.534 45l5.188-5.186c.411.108.835.186 1.277.186a5.001 5.001 0 1 0-5-5c0 .443.078.869.188 1.279L73.964 42.5H49.999a2.5 2.5 0 0 1 0-5h12.363c.866 1.488 2.461 2.5 4.304 2.5 2.76 0 5-2.24 5-5s-2.24-5-5-5c-1.843 0-3.438 1.012-4.304 2.5H49.999a7.497 7.497 0 0 0-7.498 7.5 7.5 7.5 0 0 0 7.498 7.5h23.965l6.224 6.221c-.11.41-.188.833-.188 1.279a5 5 0 1 0 4.999-5z" fill="#000000" opacity="1" data-original="#000000" class=""></path><path d="M84.999 10c-1.843 0-3.438 1.012-4.304 2.5H66.666l-10 10h-6.667c-9.663 0-17.498 7.832-17.498 17.5 0 9.665 7.835 17.5 17.498 17.5l10 10h13.196c.866 1.487 2.461 2.5 4.304 2.5a5 5 0 0 0 0-10c-1.843 0-3.438 1.013-4.304 2.5H62.069l-5-5h8.626c.866 1.487 2.461 2.5 4.304 2.5a5 5 0 0 0 0-10c-1.843 0-3.438 1.013-4.304 2.5H49.999c-6.899 0-12.498-5.6-12.498-12.5 0-6.908 5.599-12.5 12.498-12.5h20.696c.866 1.488 2.461 2.5 4.304 2.5a5.001 5.001 0 0 0 0-10c-1.843 0-3.438 1.012-4.304 2.5h-6.959l5-5h11.959c.866 1.488 2.461 2.5 4.304 2.5a5.001 5.001 0 0 0 0-10z" fill="#000000" opacity="1" data-original="#000000" class=""></path></g></svg>