<svg xmlns="http://www.w3.org/2000/svg" version="1.1" xmlns:xlink="http://www.w3.org/1999/xlink" width="512" height="512" x="0" y="0" viewBox="0 0 60 57" style="enable-background:new 0 0 512 512" xml:space="preserve"><g><path fill="#efefef" fill-rule="nonzero" d="M59.137 26.07a42.15 42.15 0 0 1-9.75-6.705 130.056 130.056 0 0 0 3.335-17.297 1.689 1.689 0 0 0-.857-1.96 1.546 1.546 0 0 0-1.857.61C44.85 6.887 37.771 6.18 30.283 5.432c-6.797-.68-13.784-1.357-19.341 3.312a5.497 5.497 0 1 0-7.32 5.918L14.838 54.81a2.885 2.885 0 0 0 3.558 2.001l.904-.258a2.871 2.871 0 0 0 1.994-3.542l-3.552-12.726c5.19-6.648 12.422-5.943 20.079-5.178 7.678.766 15.62 1.56 21.459-5.422l.003-.004a3.219 3.219 0 0 0 .657-2.583 1.442 1.442 0 0 0-.802-1.029zM2 9.5a3.5 3.5 0 0 1 7 0 3.463 3.463 0 0 1-.517 1.806c-.128.162-.26.305-.385.475a.94.94 0 0 0-.04.09A3.489 3.489 0 0 1 2 9.5zm17.289 44.714a.875.875 0 0 1-.534.414l-.904.26a.887.887 0 0 1-1.088-.617L5.79 14.985a5.456 5.456 0 0 0 2.58-.802l7.306 26.145.003.008 3.689 13.213a.872.872 0 0 1-.08.665zm38.454-25.81c-5.159 6.168-12.233 5.462-19.724 4.713-7.46-.745-15.159-1.514-20.934 4.82-1.88-6.72-3.759-13.441-5.633-20.164l-1.435-5.143c.06-.085.113-.174.168-.263 5.177-6.403 12.333-5.699 19.899-4.944 7.239.723 14.711 1.47 20.489-4.354a126.356 126.356 0 0 1-3.128 15.818c-.2.7.022 1.452.568 1.933a45.353 45.353 0 0 0 9.983 6.926 1.361 1.361 0 0 1-.253.658z" opacity="1" data-original="#000000"></path></g></svg>