<svg id="Capa_1" enable-background="new 0 0 512 512" height="512" viewBox="0 0 512 512" width="512" xmlns="http://www.w3.org/2000/svg"><g><path d="m205.633 170.658c-3.913.057-7.8.145-11.693.229l17.715 54.525c6.921-.24 13.775-.386 20.572-.493 13.889-.209 27.601-.575 41.704-2.009l-17.889-55.056c-17.503 2.147-34.092 2.561-50.409 2.804z"/><path d="m186.927 83.506c-7.505.117-13.943.947-20.916 1.426l18.274 56.239c7.028-.249 13.991-.403 20.891-.505 13.786-.214 27.4-.575 41.389-1.978l-18.842-57.99c-12.411 1.564-25.926 2.586-40.796 2.808z"/><path d="m332.271 111.215-18.353-56.484c-14.059 7.52-32.538 15.099-56.385 20.63l18.972 58.389c17.043-4.168 35.393-11.27 55.766-22.535z"/><path d="m104.704 187.489 18.049 55.551c20.995-8.379 40.161-12.931 58.147-15.203l-17.9-55.091c-18.151 1.902-37.177 6.079-58.296 14.743z"/><path d="m43.076 289.071c11.885-7.89 24.175-18.219 52.299-33.212l-17.935-55.193c-23.068 12.905-32.635 21.041-51.991 34.149z"/><path d="m359.601 195.328-17.93-55.182c-20.189 10.686-38.708 17.813-55.882 22.181l18.065 55.594c17.04-4.193 35.382-11.303 55.747-22.593z"/><path d="m283.404 252.063c-17.618 2.186-34.307 2.6-50.718 2.851-3.805.057-7.584.146-11.369.231l18.571 57.155c3.679-.081 7.35-.17 11.047-.227 16.492-.253 33.298-.738 51.01-2.952z"/><path d="m387.598 281.497-18.6-57.25c-20.186 10.706-38.696 17.84-55.865 22.231l18.477 56.865c12.766-3.269 27.022-6.454 55.988-21.846z"/><path d="m132.054 271.667 18.538 57.054c21.13-8.591 40.173-12.717 58.347-14.592l-18.564-57.131c-18.166 1.893-37.2 6.05-58.321 14.669z"/><path d="m52.764 318.886 12.246 37.687c3.129 9.734 14.795 13.438 22.857 7.729 4.68-3.1 14.894-11.076 35.436-22.482l-18.527-57.021c-23.492 13.083-33.48 21.555-52.012 34.087z"/><path d="m77.053 102.393 18.362 56.514c20.984-8.405 40.142-12.997 58.12-15.293l-18.056-55.571c-22.605 3.466-42.245 8.456-58.426 14.35z"/><path d="m15.76 205c12.241-8.132 24.408-18.351 52.286-33.246l-18.633-57.345c-25.441 12.881-39.078 25.296-42.987 26.988-5.402 3.759-7.72 10.611-5.709 16.89z"/><path d="m501.631 484.754c7.879-2.56 12.191-11.023 9.631-18.902l-140.058-428.976c-2.56-7.879-11.023-12.189-18.902-9.63-7.877 2.56-12.191 11.021-9.63 18.9l140.058 428.976c2.56 7.88 11.024 12.192 18.901 9.632z"/></g></svg>