<svg width="165" height="70" viewBox="0 0 165 70" fill="none" xmlns="http://www.w3.org/2000/svg">
<rect x="0.857544" width="163.998" height="69.5536" rx="9.91922" fill="#F9F9F9"/>
<g clip-path="url(#clip0_74_215308)">
<mask id="mask0_74_215308" style="mask-type:luminance" maskUnits="userSpaceOnUse" x="20" y="12" width="126" height="46">
<path d="M145.017 12.399H20.6962V57.1546H145.017V12.399Z" fill="white"/>
</mask>
<g mask="url(#mask0_74_215308)">
<path d="M71.6556 28.3424H74.3359V42.7742H71.6556V28.3424Z" fill="#C0C0C0"/>
<path d="M83.2079 31.6412C84.5959 31.6412 85.7092 32.0467 86.5478 32.8577C87.3863 33.6686 87.8053 34.8712 87.8053 36.4656V42.7743H85.2281V36.7956C85.2281 35.8333 85.0012 35.1118 84.5481 34.6307C84.0943 34.1359 83.4484 33.8885 82.6101 33.8885C81.6615 33.8885 80.9124 34.1771 80.3627 34.7544C79.8129 35.318 79.5379 36.1359 79.5379 37.2078V42.7743H76.9608V31.7649H79.4142V33.1875C79.8404 32.6789 80.3765 32.2941 81.0225 32.033C81.6685 31.7718 82.397 31.6412 83.2079 31.6412Z" fill="#C0C0C0"/>
<path d="M100.151 31.7653L95.4294 42.7747H92.7702L88.0491 31.7653H90.7288L94.1514 39.9296L97.6771 31.7653H100.151Z" fill="#C0C0C0"/>
<path d="M110.778 37.3315C110.778 37.5103 110.765 37.7644 110.737 38.0944H102.098C102.25 38.9052 102.642 39.5513 103.274 40.0324C103.92 40.4998 104.717 40.7334 105.665 40.7334C106.875 40.7334 107.871 40.3347 108.655 39.5375L110.036 41.1251C109.542 41.7161 108.916 42.1628 108.16 42.4651C107.404 42.7676 106.552 42.9187 105.604 42.9187C104.394 42.9187 103.329 42.6781 102.408 42.1973C101.487 41.7161 100.773 41.0493 100.264 40.1972C99.7686 39.3314 99.5219 38.3554 99.5219 37.2697C99.5219 36.1975 99.7624 35.2355 100.244 34.3833C100.738 33.5174 101.418 32.8439 102.284 32.3629C103.15 31.8818 104.126 31.6412 105.212 31.6412C106.284 31.6412 107.239 31.8818 108.078 32.3629C108.93 32.8302 109.589 33.4968 110.057 34.3627C110.538 35.2148 110.778 36.2046 110.778 37.3315ZM105.212 33.703C104.387 33.703 103.686 33.9503 103.109 34.4452C102.545 34.9262 102.202 35.5723 102.078 36.3831H108.325C108.215 35.586 107.878 34.94 107.315 34.4452C106.751 33.9503 106.051 33.703 105.212 33.703Z" fill="#C0C0C0"/>
<path d="M114.677 33.3734C115.419 32.2189 116.725 31.8477 118.594 31.8477V33.9095C118.374 33.8682 118.175 33.8476 117.996 33.8476C116.993 33.8476 116.209 34.3287 115.646 34.9197C115.083 35.4969 114.8 36.3353 114.8 37.435V42.7747H112.223V31.7653H114.677V33.3734Z" fill="#C0C0C0"/>
<path d="M127.288 42.1768C126.986 42.4241 126.615 42.6097 126.175 42.7334C125.749 42.8573 125.296 42.919 124.814 42.919C123.605 42.919 122.67 42.603 122.01 41.9707C121.351 41.3384 121.021 40.4174 121.021 39.2081V33.9094H119.207V31.8477H121.021V29.3325H123.598V31.8477H126.546V33.9094H123.598V39.1461C123.598 39.6822 123.728 40.0944 123.99 40.3832C124.251 40.658 124.629 40.7956 125.123 40.7956C125.701 40.7956 126.182 40.6442 126.567 40.3419L127.288 42.1768Z" fill="#C0C0C0"/>
<path fill-rule="evenodd" clip-rule="evenodd" d="M64.9154 35.6014C64.9154 42.9033 58.9963 48.8224 51.6944 48.8224C44.3927 48.8224 38.4735 42.9033 38.4735 35.6014C38.4735 28.2997 44.3927 22.3805 51.6944 22.3805C58.9963 22.3805 64.9154 28.2997 64.9154 35.6014ZM60.7603 35.6014C60.7603 40.6082 56.7016 44.6671 51.6947 44.6671C51.3476 44.6671 51.0049 44.6477 50.6679 44.6098C55.2242 44.131 58.7752 40.2772 58.7752 35.5939C58.7752 30.9343 55.2594 27.0956 50.736 26.5858C51.0511 26.5526 51.3709 26.5357 51.6947 26.5357C56.7016 26.5357 60.7603 30.5946 60.7603 35.6014ZM48.7669 41.9871C51.7548 41.4593 54.0275 38.8012 54.0275 35.6014C54.0275 32.4016 51.7548 29.7434 48.7669 29.2158C49.1285 29.1532 49.5003 29.1206 49.8798 29.1206C53.459 29.1206 56.3607 32.0221 56.3607 35.6014C56.3607 39.1807 53.459 42.0823 49.8798 42.0823C49.5003 42.0823 49.1285 42.0496 48.7669 41.9871Z" fill="#C0C0C0"/>
</g>
</g>
<defs>
<clipPath id="clip0_74_215308">
<rect width="124.321" height="44.7555" fill="white" transform="translate(20.6962 12.399)"/>
</clipPath>
</defs>
</svg>
