<svg width="165" height="70" viewBox="0 0 165 70" fill="none" xmlns="http://www.w3.org/2000/svg">
<rect x="0.644409" width="163.998" height="69.5536" rx="9.91922" fill="#F9F9F9"/>
<g clip-path="url(#clip0_74_215350)">
<path d="M61.968 42.5302H56.8534V28.1022H62.0103C63.4615 28.1022 64.7108 28.391 65.7582 28.9687C66.8055 29.5417 67.611 30.366 68.1746 31.4415C68.7428 32.517 69.027 33.8039 69.027 35.3021C69.027 36.805 68.7428 38.0966 68.1746 39.1768C67.611 40.257 66.8008 41.086 65.7441 41.6636C64.692 42.2413 63.4333 42.5302 61.968 42.5302ZM59.9038 39.9165H61.8412C62.7429 39.9165 63.5014 39.7568 64.1167 39.4375C64.7366 39.1134 65.2016 38.6132 65.5116 37.9369C65.8263 37.2559 65.9836 36.3776 65.9836 35.3021C65.9836 34.236 65.8263 33.3648 65.5116 32.6884C65.2016 32.0121 64.739 31.5143 64.1237 31.1949C63.5085 30.8756 62.75 30.7159 61.8482 30.7159H59.9038V39.9165Z" fill="#C0C0C0"/>
<path d="M76.1617 42.7415C75.0486 42.7415 74.0905 42.5161 73.2874 42.0652C72.489 41.6096 71.8737 40.9662 71.4416 40.1349C71.0095 39.2989 70.7935 38.3103 70.7935 37.169C70.7935 36.0559 71.0095 35.079 71.4416 34.2383C71.8737 33.3976 72.4819 32.7425 73.2663 32.2728C74.0553 31.8031 74.9805 31.5683 76.0419 31.5683C76.7558 31.5683 77.4204 31.6834 78.0357 31.9135C78.6556 32.1389 79.1957 32.4794 79.656 32.935C80.1209 33.3906 80.4826 33.9636 80.7409 34.654C80.9992 35.3397 81.1284 36.1428 81.1284 37.0633V37.8876H71.9911V36.0277H78.3034C78.3034 35.5956 78.2094 35.2129 78.0216 34.8794C77.8337 34.5459 77.573 34.2853 77.2396 34.0974C76.9108 33.9049 76.528 33.8086 76.0913 33.8086C75.6357 33.8086 75.2318 33.9143 74.8795 34.1256C74.532 34.3323 74.2596 34.6117 74.0623 34.9639C73.8651 35.3115 73.7641 35.699 73.7594 36.1264V37.8946C73.7594 38.43 73.858 38.8927 74.0553 39.2825C74.2572 39.6723 74.5414 39.9729 74.9077 40.1842C75.2741 40.3956 75.7085 40.5012 76.211 40.5012C76.5445 40.5012 76.8498 40.4543 77.1269 40.3603C77.404 40.2664 77.6411 40.1255 77.8384 39.9376C78.0357 39.7498 78.1859 39.5196 78.2893 39.2472L81.065 39.4304C80.9241 40.0973 80.6352 40.6797 80.1984 41.1775C79.7664 41.6707 79.2075 42.0558 78.5218 42.3329C77.8407 42.6053 77.0541 42.7415 76.1617 42.7415Z" fill="#C0C0C0"/>
<path d="M92.8845 31.7092L89.1014 42.5302H85.7199L81.9368 31.7092H85.107L87.3543 39.4515H87.467L89.7073 31.7092H92.8845Z" fill="#C0C0C0"/>
<path d="M97.7244 42.5302L93.5961 28.1022H96.9283L99.3165 38.1271H99.4363L102.071 28.1022H104.924L107.552 38.1482H107.679L110.067 28.1022H113.399L109.271 42.5302H106.298L103.551 33.097H103.438L100.697 42.5302H97.7244Z" fill="#C0C0C0"/>
<path d="M114.976 42.5302V31.7092H117.977V42.5302H114.976ZM116.483 30.3143C116.037 30.3143 115.654 30.1664 115.335 29.8705C115.02 29.5699 114.863 29.2106 114.863 28.7926C114.863 28.3793 115.02 28.0247 115.335 27.7288C115.654 27.4282 116.037 27.278 116.483 27.278C116.929 27.278 117.31 27.4282 117.624 27.7288C117.944 28.0247 118.104 28.3793 118.104 28.7926C118.104 29.2106 117.944 29.5699 117.624 29.8705C117.31 30.1664 116.929 30.3143 116.483 30.3143Z" fill="#C0C0C0"/>
<path d="M129.384 34.7949L126.637 34.9639C126.59 34.7291 126.489 34.5178 126.334 34.3299C126.179 34.1373 125.974 33.9847 125.721 33.872C125.472 33.7546 125.174 33.6959 124.826 33.6959C124.361 33.6959 123.969 33.7945 123.65 33.9917C123.33 34.1843 123.171 34.4426 123.171 34.7667C123.171 35.025 123.274 35.2434 123.481 35.4219C123.687 35.6003 124.042 35.7436 124.544 35.8516L126.503 36.2461C127.555 36.4622 128.339 36.8097 128.856 37.2888C129.372 37.7678 129.631 38.3972 129.631 39.1768C129.631 39.886 129.422 40.5083 129.004 41.0437C128.59 41.5791 128.022 41.9971 127.299 42.2977C126.58 42.5936 125.751 42.7415 124.812 42.7415C123.38 42.7415 122.238 42.4433 121.388 41.8468C120.543 41.2456 120.047 40.4284 119.902 39.3952L122.854 39.2402C122.943 39.677 123.159 40.0104 123.502 40.2406C123.845 40.466 124.284 40.5787 124.819 40.5787C125.345 40.5787 125.768 40.4778 126.087 40.2758C126.411 40.0692 126.576 39.8038 126.58 39.4797C126.576 39.2073 126.461 38.9842 126.235 38.8105C126.01 38.632 125.662 38.4958 125.192 38.4019L123.319 38.0285C122.262 37.8171 121.475 37.4508 120.958 36.9295C120.447 36.4081 120.191 35.7436 120.191 34.9358C120.191 34.2407 120.378 33.6419 120.754 33.1393C121.135 32.6368 121.668 32.2493 122.353 31.9769C123.044 31.7045 123.852 31.5683 124.777 31.5683C126.144 31.5683 127.219 31.8571 128.003 32.4348C128.792 33.0125 129.253 33.7992 129.384 34.7949Z" fill="#C0C0C0"/>
<path d="M136.452 42.7415C135.339 42.7415 134.381 42.5161 133.578 42.0652C132.779 41.6096 132.164 40.9662 131.732 40.1349C131.3 39.2989 131.084 38.3103 131.084 37.169C131.084 36.0559 131.3 35.079 131.732 34.2383C132.164 33.3976 132.772 32.7425 133.557 32.2728C134.346 31.8031 135.271 31.5683 136.332 31.5683C137.046 31.5683 137.711 31.6834 138.326 31.9135C138.946 32.1389 139.486 32.4794 139.946 32.935C140.411 33.3906 140.773 33.9636 141.031 34.654C141.289 35.3397 141.419 36.1428 141.419 37.0633V37.8876H132.281V36.0277H138.594C138.594 35.5956 138.5 35.2129 138.312 34.8794C138.124 34.5459 137.863 34.2853 137.53 34.0974C137.201 33.9049 136.818 33.8086 136.382 33.8086C135.926 33.8086 135.522 33.9143 135.17 34.1256C134.822 34.3323 134.55 34.6117 134.353 34.9639C134.155 35.3115 134.054 35.699 134.05 36.1264V37.8946C134.05 38.43 134.148 38.8927 134.346 39.2825C134.548 39.6723 134.832 39.9729 135.198 40.1842C135.564 40.3956 135.999 40.5012 136.501 40.5012C136.835 40.5012 137.14 40.4543 137.417 40.3603C137.694 40.2664 137.931 40.1255 138.129 39.9376C138.326 39.7498 138.476 39.5196 138.58 39.2472L141.355 39.4304C141.214 40.0973 140.926 40.6797 140.489 41.1775C140.057 41.6707 139.498 42.0558 138.812 42.3329C138.131 42.6053 137.344 42.7415 136.452 42.7415Z" fill="#C0C0C0"/>
<path fill-rule="evenodd" clip-rule="evenodd" d="M50.1795 36.3864C50.2197 35.9731 50.2403 35.5541 50.2403 35.1303C50.2403 34.8773 50.2329 34.626 50.2185 34.3766H24.6374C24.6229 34.626 24.6156 34.8773 24.6156 35.1303C24.6156 35.5541 24.6362 35.9731 24.6764 36.3864H50.1795ZM49.5112 39.401H25.3446C25.592 40.1009 25.8984 40.7728 26.2579 41.4108H48.598C48.9575 40.7728 49.2639 40.1009 49.5112 39.401ZM46.2459 44.4255H28.61C30.907 46.6053 34.0113 47.9427 37.4279 47.9427C40.8446 47.9427 43.9489 46.6053 46.2459 44.4255ZM25.1788 31.3619H49.6771C49.4629 30.6648 49.1908 29.993 48.8664 29.3522H25.9894C25.6651 29.993 25.393 30.6648 25.1788 31.3619ZM28.109 26.3375H46.7469C44.4109 23.8626 41.0998 22.318 37.4279 22.318C33.7561 22.318 30.445 23.8626 28.109 26.3375Z" fill="#C0C0C0"/>
<path fill-rule="evenodd" clip-rule="evenodd" d="M50.1795 36.3864C50.2197 35.9731 50.2403 35.5541 50.2403 35.1303C50.2403 34.8773 50.2329 34.626 50.2185 34.3766H24.6374C24.6229 34.626 24.6156 34.8773 24.6156 35.1303C24.6156 35.5541 24.6362 35.9731 24.6764 36.3864H50.1795ZM49.5112 39.401H25.3446C25.592 40.1009 25.8984 40.7728 26.2579 41.4108H48.598C48.9575 40.7728 49.2639 40.1009 49.5112 39.401ZM46.2459 44.4255H28.61C30.907 46.6053 34.0113 47.9427 37.4279 47.9427C40.8446 47.9427 43.9489 46.6053 46.2459 44.4255ZM25.1788 31.3619H49.6771C49.4629 30.6648 49.1908 29.993 48.8664 29.3522H25.9894C25.6651 29.993 25.393 30.6648 25.1788 31.3619ZM28.109 26.3375H46.7469C44.4109 23.8626 41.0998 22.318 37.4279 22.318C33.7561 22.318 30.445 23.8626 28.109 26.3375Z" fill="#C0C0C0"/>
</g>
<defs>
<clipPath id="clip0_74_215350">
<rect width="124.321" height="44.7555" fill="white" transform="translate(20.4828 12.399)"/>
</clipPath>
</defs>
</svg>
