<svg width="165" height="70" viewBox="0 0 165 70" fill="none" xmlns="http://www.w3.org/2000/svg">
<rect x="0.786865" width="163.998" height="69.5536" rx="9.91922" fill="#F9F9F9"/>
<g clip-path="url(#clip0_74_215321)">
<mask id="mask0_74_215321" style="mask-type:luminance" maskUnits="userSpaceOnUse" x="20" y="12" width="125" height="46">
<path d="M144.946 12.399H20.6255V57.1546H144.946V12.399Z" fill="white"/>
</mask>
<g mask="url(#mask0_74_215321)">
<path d="M74.6996 29.4508V43.838H71.195V37.9151H65.7434V43.838H62.2388V29.4508H65.7434V35.0868H71.195V29.4508H74.6996Z" fill="#C0C0C0"/>
<path d="M78.173 31.214C77.5581 31.214 77.0526 31.0364 76.6565 30.6811C76.2739 30.3122 76.0825 29.8613 76.0825 29.3284C76.0825 28.7819 76.2739 28.3311 76.6565 27.9758C77.0526 27.6069 77.5581 27.4225 78.173 27.4225C78.7742 27.4225 79.2662 27.6069 79.6485 27.9758C80.0449 28.3311 80.243 28.7819 80.243 29.3284C80.243 29.8613 80.0449 30.3122 79.6485 30.6811C79.2662 31.0364 78.7742 31.214 78.173 31.214ZM79.9151 32.4027V43.8386H76.4105V32.4027H79.9151Z" fill="#C0C0C0"/>
<path d="M88.0079 40.8668V43.8384H86.2251C84.9545 43.8384 83.9637 43.5309 83.2532 42.9163C82.5429 42.2876 82.1877 41.2699 82.1877 39.8625V35.3127H80.7941V32.4024H82.1877V29.6151H85.6924V32.4024H87.9873V35.3127H85.6924V39.9035C85.6924 40.2452 85.7744 40.4909 85.9379 40.6413C86.102 40.7916 86.3755 40.8668 86.7578 40.8668H88.0079Z" fill="#C0C0C0"/>
<path d="M99.921 37.9363C99.921 38.2642 99.9005 38.6059 99.8595 38.961H91.9284C91.9831 39.6716 92.2082 40.2181 92.6047 40.6007C93.0144 40.9696 93.5129 41.1542 94.1003 41.1542C94.9749 41.1542 95.5828 40.785 95.9247 40.0472H99.6544C99.4635 40.7988 99.1148 41.4751 98.6094 42.0763C98.1178 42.6774 97.4961 43.149 96.7446 43.4904C95.9931 43.8321 95.1527 44.0029 94.2234 44.0029C93.1033 44.0029 92.1056 43.7636 91.2316 43.2856C90.357 42.8073 89.6739 42.1242 89.1816 41.2361C88.6899 40.348 88.4443 39.3095 88.4443 38.1209C88.4443 36.932 88.683 35.8937 89.1617 35.0057C89.6534 34.1175 90.3365 33.4344 91.2111 32.9562C92.0851 32.478 93.0896 32.2389 94.2234 32.2389C95.3305 32.2389 96.3139 32.4711 97.1748 32.9357C98.0357 33.4002 98.7052 34.0629 99.1832 34.9237C99.6749 35.7845 99.921 36.7887 99.921 37.9363ZM96.3344 37.0142C96.3344 36.413 96.1299 35.9347 95.7196 35.5795C95.31 35.2243 94.7971 35.0466 94.183 35.0466C93.595 35.0466 93.0964 35.2174 92.6862 35.559C92.2902 35.9006 92.044 36.3856 91.9489 37.0142H96.3344Z" fill="#C0C0C0"/>
<path d="M100.253 38.1209C100.253 36.932 100.492 35.8937 100.971 35.0057C101.462 34.1175 102.139 33.4344 103 32.9562C103.874 32.478 104.871 32.2389 105.991 32.2389C107.426 32.2389 108.621 32.6146 109.578 33.366C110.548 34.1175 111.184 35.1764 111.484 36.5428H107.754C107.44 35.6683 106.832 35.231 105.93 35.231C105.288 35.231 104.776 35.4839 104.393 35.9894C104.01 36.4813 103.819 37.1918 103.819 38.1209C103.819 39.05 104.01 39.7673 104.393 40.2728C104.776 40.7646 105.288 41.0105 105.93 41.0105C106.832 41.0105 107.44 40.5735 107.754 39.6988H111.484C111.184 41.038 110.548 42.09 109.578 42.855C108.608 43.6203 107.412 44.0029 105.991 44.0029C104.871 44.0029 103.874 43.7636 103 43.2856C102.139 42.8073 101.462 42.1242 100.971 41.2361C100.492 40.348 100.253 39.3095 100.253 38.1209Z" fill="#C0C0C0"/>
<path d="M119.569 32.2795C120.88 32.2795 121.933 32.7166 122.725 33.5911C123.517 34.4519 123.914 35.6406 123.914 37.1571V43.8384H120.429V37.6284C120.429 36.8634 120.231 36.2691 119.835 35.8455C119.439 35.4219 118.906 35.2102 118.236 35.2102C117.567 35.2102 117.034 35.4219 116.638 35.8455C116.242 36.2691 116.043 36.8634 116.043 37.6284V43.8384H112.539V28.6724H116.043V33.9395C116.399 33.434 116.884 33.0309 117.499 32.7303C118.113 32.4297 118.803 32.2795 119.569 32.2795Z" fill="#C0C0C0"/>
<path d="M44.0928 36.3181V23.8776H48.2405V30.2726C48.9644 29.9932 49.7511 29.8399 50.5736 29.8399C54.1528 29.8399 57.0544 32.7415 57.0544 36.3208V43.8385H52.9067V36.3208C52.9067 35.0323 51.8621 33.9877 50.5736 33.9877C49.2856 33.9877 48.2414 35.0313 48.2405 36.319V36.3208V43.8385H44.0928V36.3208V36.3181Z" fill="#C0C0C0"/>
<path d="M52.9064 28.0253V23.8776H57.054V28.0253H52.9064Z" fill="#C0C0C0"/>
</g>
</g>
<defs>
<clipPath id="clip0_74_215321">
<rect width="124.321" height="44.7555" fill="white" transform="translate(20.6255 12.399)"/>
</clipPath>
</defs>
</svg>
