<svg xmlns="http://www.w3.org/2000/svg" viewBox="0 0 473.28 112.44"><defs><style>.cls-1,.cls-2{fill:#fff;}.cls-2,.cls-3{fill-rule:evenodd;}.cls-3{fill:#d8e022;}</style></defs><g id="Layer_2" data-name="Layer 2"><g id="Layer_1-2" data-name="Layer 1"><path class="cls-1" d="M0,81.54C.58,51,41.27,45.57,64.37,54.59,68.3,22.94,30.49,27.71,12.84,41.38l-7.7-16C33.33,4.49,90.62,7.57,89,52V82.2C89,87,90.26,89,94.82,89.61v20c-13.21,3.16-27.07.58-26.59-15C50.78,119.69.64,116.86,0,81.54Zm59.79,4.6c5.47-3.76,4.68-12,4.58-17.53C5.48,48.08,16,115.85,59.79,86.14Z"/><path class="cls-1" d="M240.49,111.44c-38.58,2-62.78-41.31-44.56-73.82,16-32.43,72.27-33.34,87.66-.09l-23.84,7.33C246.08,22.5,212.93,37.12,215,62.11c-2,25.29,31.74,39.89,45.3,17l23.84,7.34C276.47,102.8,258.73,111.71,240.49,111.44Z"/><path class="cls-2" d="M152.75,40.63a42.7,42.7,0,0,1,34.93-28.22c-36.74,29.31-12.2,75.28-65.48,100,.33-.2,32.53-52.13-1-85.89h0a62.91,62.91,0,0,0-25-15.66h0c23.1-2.44,45.81,9.47,56.53,29.75"/><path class="cls-3" d="M150,.13c-12.09,1.55-9.39,20.49,2.65,18.6C164.75,17.18,162.05-1.77,150,.13Z"/><path class="cls-1" d="M331,25.75c.22-5.17,7.23-5.28,11-3.95,1-5.79-5.54-6.89-9.26-3.72L332,16.66c4.26-3.48,12.3-2.66,12,4,.29.64-.75,8.18.74,7.89v1.59c-1.78.49-2.73-.89-2.48-2.48C339.47,31.59,331.15,31.57,331,25.75Zm10.3,1.17c.92-.83.65-2.62.67-3.68C329.32,18.34,331.24,34.42,341.32,26.92Z"/><path class="cls-1" d="M355,30.45c-16-1.73-3.59-25.2,6.23-12.19l-1.95.62c-2.8-5-10.43-1.83-10,3.58-.48,5.47,7.47,8.79,10.1,3.59l2,.59C360.42,29.09,357.62,30.47,355,30.45Z"/><path class="cls-1" d="M371.07,30.45c-16-1.73-3.59-25.2,6.22-12.19l-1.94.62c-2.8-5-10.44-1.83-10,3.58-.48,5.47,7.46,8.79,10.09,3.59l2,.59C376.47,29.09,373.68,30.47,371.07,30.45Z"/><path class="cls-1" d="M387.09,30.45c-7.73.25-10.55-11-4-14.78,5.27-3.36,12.39,1.41,11.54,7.54H381.48c0,5.46,7.9,8,10.42,2.93l1.74.47A7,7,0,0,1,387.09,30.45Zm-5.67-8.68h11.37C392.62,14.48,381.59,14.49,381.42,21.77Z"/><path class="cls-1" d="M397.86,8.61h2V26.77c-.21,2.33,2,2,3.39,1.52l.36,1.62c-2.26,1-5.89.75-5.76-2.46Z"/><path class="cls-1" d="M412.44,30.45c-7.72.25-10.55-11-4-14.78,5.27-3.36,12.39,1.41,11.54,7.54H406.83c0,5.46,7.9,8,10.42,2.93l1.74.47A7,7,0,0,1,412.44,30.45Zm-5.66-8.68h11.36C418,14.48,407,14.49,406.78,21.77Z"/><path class="cls-1" d="M430.8,16.54c-7.45-.11-5.47,9-5.67,13.61h-2V14.83H425v3.63c1.06-2.23,3.31-4,5.78-3.75Z"/><path class="cls-1" d="M432.19,25.75c.22-5.17,7.23-5.28,11-3.95,1-5.79-5.55-6.89-9.27-3.72l-.77-1.42c4.26-3.48,12.3-2.66,12,4,.3.64-.75,8.18.74,7.89v1.59c-1.78.49-2.73-.89-2.48-2.48C440.64,31.59,432.32,31.57,432.19,25.75Zm10.3,1.17c.92-.83.65-2.62.68-3.68C430.49,18.34,432.41,34.42,442.49,26.92Z"/><path class="cls-1" d="M456.77,29.53c-9.67,4.74-6.11-8.29-6.73-13.1h-2.12v-1.6H450V9.64h2v5.19h3.54v1.6h-3.54v10.5c.09,2.19,3,1.82,4.19,1Z"/><path class="cls-1" d="M465.66,30.45c-7.73.25-10.56-11-4-14.78,5.27-3.36,12.4,1.41,11.54,7.54H460.05c0,5.46,7.89,8,10.42,2.93l1.74.47A7.05,7.05,0,0,1,465.66,30.45ZM460,21.77h11.36C471.18,14.48,460.16,14.49,460,21.77Z"/><path class="cls-1" d="M333.14,70.29c2.85.53,2.83-2.4,4-4.71l-6.7-15.33h2.13l5.64,13.27,5.19-13.27h2l-8,19.78c-.6,1.78-2.56,2.39-4.34,2.06Z"/><path class="cls-1" d="M354.27,65.86c-10,.19-10-16,0-15.85C364.2,49.86,364.22,66,354.27,65.86ZM348.66,58c-.25,7.94,11.48,7.79,11.19-.09C360.06,50,348.37,50.07,348.66,58Z"/><path class="cls-1" d="M365.1,59.25v-9h2c.63,3.54-2.13,13.75,3.57,13.84,7.24,0,5.38-9.32,5.55-13.84h2c.33.46-.8,14.39.7,13.72v1.6c-2.35.64-2.61-1.79-2.47-3.47C373.39,67.8,364.18,66.94,365.1,59.25Z"/><path class="cls-1" d="M390.45,52c-7.44-.11-5.46,9-5.66,13.61h-2V50.25h1.89v3.63c1.07-2.24,3.32-4,5.78-3.75Z"/><path class="cls-1" d="M338.93,101.28c-16-1.73-3.59-25.2,6.22-12.19l-1.95.62c-2.79-5-10.43-1.83-10,3.58-.48,5.47,7.46,8.79,10.09,3.59l2,.59C344.33,99.93,341.54,101.3,338.93,101.28Z"/><path class="cls-1" d="M347.22,96.58c.22-5.16,7.23-5.28,11-4,1-5.79-5.54-6.89-9.27-3.72l-.77-1.42c4.27-3.48,12.3-2.66,12,4,.3.64-.75,8.18.74,7.89V101c-1.78.49-2.72-.88-2.48-2.48C355.68,102.43,347.35,102.4,347.22,96.58Zm10.3,1.17c.92-.83.65-2.62.68-3.68C345.53,89.18,347.44,105.26,357.52,97.75Z"/><path class="cls-1" d="M372.22,87.38c-7.45-.12-5.47,9-5.67,13.6h-2V85.66h1.89v3.63c1.07-2.23,3.32-4,5.79-3.74Z"/><path class="cls-1" d="M381.07,101.28c-7.73.25-10.55-11-4-14.78,5.27-3.36,12.39,1.41,11.54,7.55H375.46c0,5.45,7.9,8,10.42,2.92l1.74.47A7,7,0,0,1,381.07,101.28ZM375.4,92.6h11.37C386.6,85.31,375.57,85.32,375.4,92.6Z"/><path class="cls-1" d="M398.4,101.28c-7.73.25-10.56-11-4-14.78,5.27-3.36,12.39,1.41,11.54,7.55H392.79c0,5.45,7.89,8,10.42,2.92l1.74.47A7,7,0,0,1,398.4,101.28Zm-5.67-8.68h11.36C403.92,85.31,392.9,85.32,392.73,92.6Z"/><path class="cls-1" d="M416.75,87.38c-7.45-.12-5.46,9-5.67,13.6h-2V85.66H411v3.63c1.06-2.23,3.32-4,5.78-3.74Z"/><path class="cls-1" d="M424.48,101.28a8.37,8.37,0,0,1-6.31-2.51l.82-1.42c7.75,6.32,15.51-2.08,2.23-4.25-7.42-5.21,5-10.91,8.93-5.55l-1,1.36c-1.91-2.9-10.05-2.54-7.83,2.06,2.18,1.81,6.37,1.54,8.33,3.62C432.06,98,428.35,101.66,424.48,101.28Z"/><path class="cls-1" d="M306.65,107.32a.42.42,0,0,1-.42-.42V5.58a.42.42,0,0,1,.42-.42.42.42,0,0,1,.42.42V106.9A.42.42,0,0,1,306.65,107.32Z"/></g></g></svg>