<svg xmlns="http://www.w3.org/2000/svg" viewBox="0 0 284.14 112.4"><defs><style>.cls-1,.cls-2{fill:#161616;}.cls-2,.cls-3{fill-rule:evenodd;}.cls-3{fill:#d8e022;}</style></defs><g id="Layer_2" data-name="Layer 2"><g id="Layer_1-2" data-name="Layer 1"><path class="cls-1" d="M0,81.5A25.9,25.9,0,0,1,5.23,65.37,34.44,34.44,0,0,1,19.72,54.59,55.34,55.34,0,0,1,41.27,50.7a84.52,84.52,0,0,1,12.28.91,42.14,42.14,0,0,1,10.82,2.94v-5.3q0-8.82-5.31-13.68t-16-4.87a41.91,41.91,0,0,0-15.22,2.76,81.06,81.06,0,0,0-15,7.88l-7.7-16a70,70,0,0,1,19.34-9.45,72.06,72.06,0,0,1,21-3q20.55,0,32,10T89,52V82.16c0,2.54.46,4.34,1.37,5.43a6.68,6.68,0,0,0,4.5,2v20c-2.2.36-4.19.67-6,.91a19.41,19.41,0,0,1-4.5.19q-7.33,0-11.09-3.21a12.69,12.69,0,0,1-4.49-8l-.55-5A43.65,43.65,0,0,1,52.45,107a44.39,44.39,0,0,1-19.07,4.4,36.47,36.47,0,0,1-17.15-4A30.55,30.55,0,0,1,4.31,96.63,27.68,27.68,0,0,1,0,81.5Zm59.79,4.6A15.56,15.56,0,0,0,63.09,82a8.61,8.61,0,0,0,1.28-3.94V68.57a50.94,50.94,0,0,0-9.53-2.77,52.33,52.33,0,0,0-9.72-1q-9.54,0-15.68,4T23.29,79.48a13,13,0,0,0,2,6.89,14.39,14.39,0,0,0,5.78,5.28,19.79,19.79,0,0,0,9.26,2,28.7,28.7,0,0,0,10.82-2.14A26.39,26.39,0,0,0,59.79,86.1Z"/><path class="cls-1" d="M240.49,111.4a54.13,54.13,0,0,1-21.18-3.9,46.31,46.31,0,0,1-15.86-10.88,48.73,48.73,0,0,1-10.09-15.87,50.79,50.79,0,0,1-3.48-18.68,50.81,50.81,0,0,1,6.05-24.49,45.71,45.71,0,0,1,17.42-17.95q11.37-6.72,27-6.72t26.78,6.79a42,42,0,0,1,16.5,17.79l-23.84,7.34a21.54,21.54,0,0,0-8.25-8.16,24.36,24.36,0,0,0-24,.66,25.47,25.47,0,0,0-9.08,9.81A31,31,0,0,0,215,62.07a31.3,31.3,0,0,0,3.39,14.75,25.85,25.85,0,0,0,9.08,10.08,23.17,23.17,0,0,0,12.66,3.59A23.43,23.43,0,0,0,248.56,89a25,25,0,0,0,7.06-4.13,17,17,0,0,0,4.68-5.78l23.84,7.34a39.36,39.36,0,0,1-9.63,12.84,46.39,46.39,0,0,1-14.85,8.89A54.13,54.13,0,0,1,240.49,111.4Z"/><path class="cls-2" d="M152.75,40.59c.59-1.61,1.23-3.12,1.89-4.55a42.67,42.67,0,0,1,33-23.67C178.1,19.21,170.6,29.31,168,40.88,159,72.61,158.3,93,122.2,112.4c0,0,32.25-49.86.07-84.77h0l-.84-.9h0l0,0h0l-.12-.13h0a62.91,62.91,0,0,0-25-15.66h0a57.84,57.84,0,0,1,51.38,21.7c1,1.33,1.92,2.72,2.87,4.2q1.22,1.92,2.28,3.84"/><path class="cls-3" d="M150,.1a9.39,9.39,0,1,0,10.62,8A9.37,9.37,0,0,0,150,.1Z"/></g></g></svg>