<svg width="165" height="70" viewBox="0 0 165 70" fill="none" xmlns="http://www.w3.org/2000/svg">
<rect x="0.715576" width="163.998" height="69.5536" rx="9.91922" fill="#F9F9F9"/>
<g clip-path="url(#clip0_74_215335)">
<mask id="mask0_74_215335" style="mask-type:luminance" maskUnits="userSpaceOnUse" x="20" y="12" width="125" height="46">
<path d="M144.875 12.399H20.5541V57.1546H144.875V12.399Z" fill="white"/>
</mask>
<g mask="url(#mask0_74_215335)">
<path d="M45.325 47.6483H36.96L45.325 34.9987H53.6901L45.325 47.6483Z" fill="#C0C0C0"/>
<path d="M42.2646 21.941H50.8337L42.2646 34.9986H33.6956L42.2646 21.941Z" fill="#C0C0C0"/>
<path d="M70.7548 32.9458C70.7548 33.7215 70.5678 34.4488 70.1937 35.1277C69.8336 35.8063 69.2587 36.3535 68.4692 36.7692C67.6934 37.1847 66.71 37.3925 65.5187 37.3925H63.0874V42.9611H60.1785V28.4576H65.5187C66.6407 28.4576 67.5964 28.6516 68.386 29.0395C69.1758 29.4273 69.7643 29.9606 70.1524 30.6394C70.5541 31.3181 70.7548 32.087 70.7548 32.9458ZM65.3939 35.0445C66.1973 35.0445 66.793 34.8645 67.181 34.5041C67.5688 34.1303 67.7627 33.6108 67.7627 32.9458C67.7627 31.5329 66.9732 30.8264 65.3939 30.8264H63.0874V35.0445H65.3939Z" fill="#C0C0C0"/>
<path d="M74.8984 33.236C75.2725 32.6266 75.7572 32.1486 76.3529 31.8023C76.9625 31.456 77.6551 31.2828 78.4309 31.2828V34.3372H77.662C76.7478 34.3372 76.0552 34.5519 75.5842 34.9816C75.1271 35.411 74.8984 36.1589 74.8984 37.2256V42.9604H71.9895V31.4491H74.8984V33.236Z" fill="#C0C0C0"/>
<path d="M84.6708 43.1477C83.5624 43.1477 82.5649 42.9054 81.6784 42.4206C80.7919 41.9219 80.0922 41.2222 79.5798 40.3218C79.0811 39.4213 78.8317 38.3826 78.8317 37.205C78.8317 36.0277 79.088 34.9887 79.6007 34.0883C80.127 33.1878 80.8404 32.4952 81.7408 32.0104C82.6413 31.5117 83.6457 31.2623 84.7541 31.2623C85.8618 31.2623 86.8663 31.5117 87.7664 32.0104C88.6671 32.4952 89.3732 33.1878 89.886 34.0883C90.4125 34.9887 90.6755 36.0277 90.6755 37.205C90.6755 38.3826 90.4057 39.4213 89.8655 40.3218C89.339 41.2222 88.6186 41.9219 87.7042 42.4206C86.8041 42.9054 85.7928 43.1477 84.6708 43.1477ZM84.6708 40.6126C85.1966 40.6126 85.689 40.488 86.1458 40.2388C86.617 39.9756 86.9912 39.5876 87.2678 39.0752C87.5451 38.5625 87.6837 37.9392 87.6837 37.205C87.6837 36.1107 87.3928 35.2727 86.811 34.6907C86.2428 34.0951 85.5435 33.7974 84.7124 33.7974C83.8813 33.7974 83.1814 34.0951 82.6136 34.6907C82.0593 35.2727 81.7825 36.1107 81.7825 37.205C81.7825 38.2993 82.0525 39.1445 82.5928 39.7401C83.1466 40.3218 83.8397 40.6126 84.6708 40.6126Z" fill="#C0C0C0"/>
<path d="M94.8874 40.6546H98.0116V42.961H91.9783V26.6705H94.8874V40.6546Z" fill="#C0C0C0"/>
<path d="M100.268 30.0783C99.7556 30.0783 99.3261 29.919 98.9799 29.6003C98.6473 29.2679 98.4807 28.8593 98.4807 28.3744C98.4807 27.8896 98.6473 27.4879 98.9799 27.1692C99.3261 26.8368 99.7556 26.6705 100.268 26.6705C100.781 26.6705 101.203 26.8368 101.535 27.1692C101.882 27.4879 102.055 27.8896 102.055 28.3744C102.055 28.8593 101.882 29.2679 101.535 29.6003C101.203 29.919 100.781 30.0783 100.268 30.0783ZM101.701 31.4497V42.961H98.7928V31.4497H101.701Z" fill="#C0C0C0"/>
<path d="M110.124 31.2828C111.496 31.2828 112.604 31.7192 113.449 32.5919C114.293 33.4507 114.716 34.656 114.716 36.2074V42.9604H111.807V36.6023C111.807 35.6879 111.578 34.9884 111.121 34.5034C110.664 34.0048 110.041 33.7555 109.252 33.7555C108.448 33.7555 107.811 34.0048 107.34 34.5034C106.883 34.9884 106.654 35.6879 106.654 36.6023V42.9604H103.745V31.4491H106.654V32.8828C107.042 32.3841 107.534 31.9963 108.13 31.7192C108.739 31.4283 109.404 31.2828 110.124 31.2828Z" fill="#C0C0C0"/>
<path d="M127.352 36.9558C127.352 37.3713 127.324 37.7454 127.268 38.0778H118.853C118.922 38.9089 119.214 39.5599 119.726 40.0309C120.239 40.502 120.869 40.7375 121.617 40.7375C122.697 40.7375 123.466 40.2733 123.924 39.3452H127.061C126.728 40.4535 126.091 41.3676 125.149 42.0881C124.207 42.7945 123.051 43.1477 121.679 43.1477C120.571 43.1477 119.574 42.9054 118.687 42.4206C117.814 41.9219 117.129 41.2222 116.63 40.3218C116.145 39.4213 115.902 38.3826 115.902 37.205C115.902 36.0137 116.145 34.9679 116.63 34.0674C117.114 33.167 117.793 32.4744 118.666 31.9896C119.539 31.5048 120.543 31.2623 121.679 31.2623C122.774 31.2623 123.75 31.4978 124.609 31.9688C125.481 32.4398 126.154 33.1116 126.624 33.9845C127.109 34.8433 127.352 35.8335 127.352 36.9558ZM124.339 36.1246C124.325 35.3765 124.055 34.7809 123.528 34.3375C123.002 33.8804 122.358 33.652 121.596 33.652C120.876 33.652 120.266 33.8736 119.767 34.3169C119.283 34.7463 118.985 35.3488 118.874 36.1246H124.339Z" fill="#C0C0C0"/>
</g>
</g>
<defs>
<clipPath id="clip0_74_215335">
<rect width="124.321" height="44.7555" fill="white" transform="translate(20.5541 12.399)"/>
</clipPath>
</defs>
</svg>
