<svg xmlns="http://www.w3.org/2000/svg" viewBox="0 0 473.24 112.4"><defs><style>.cls-1,.cls-2{fill:#161616;}.cls-2,.cls-3{fill-rule:evenodd;}.cls-3{fill:#d8e022;}.cls-4{fill:#231f20;}</style></defs><g id="Layer_2" data-name="Layer 2"><g id="Layer_1-2" data-name="Layer 1"><path class="cls-1" d="M0,81.5A25.9,25.9,0,0,1,5.23,65.37,34.44,34.44,0,0,1,19.72,54.59,55.34,55.34,0,0,1,41.27,50.7a84.52,84.52,0,0,1,12.28.91,42.14,42.14,0,0,1,10.82,2.94v-5.3q0-8.82-5.31-13.68t-16-4.87a41.91,41.91,0,0,0-15.22,2.76,81.06,81.06,0,0,0-15,7.88l-7.7-16a70,70,0,0,1,19.34-9.45,72.06,72.06,0,0,1,21-3q20.55,0,32,10T89,52V82.16c0,2.54.46,4.34,1.37,5.43a6.68,6.68,0,0,0,4.5,2v20c-2.2.36-4.19.67-6,.91a19.41,19.41,0,0,1-4.5.19q-7.33,0-11.09-3.21a12.69,12.69,0,0,1-4.49-8l-.55-5A43.65,43.65,0,0,1,52.45,107a44.39,44.39,0,0,1-19.07,4.4,36.47,36.47,0,0,1-17.15-4A30.55,30.55,0,0,1,4.31,96.63,27.68,27.68,0,0,1,0,81.5Zm59.79,4.6A15.56,15.56,0,0,0,63.09,82a8.61,8.61,0,0,0,1.28-3.94V68.57a50.94,50.94,0,0,0-9.53-2.77,52.33,52.33,0,0,0-9.72-1q-9.54,0-15.68,4T23.29,79.48a13,13,0,0,0,2,6.89,14.39,14.39,0,0,0,5.78,5.28,19.79,19.79,0,0,0,9.26,2,28.7,28.7,0,0,0,10.82-2.14A26.39,26.39,0,0,0,59.79,86.1Z"/><path class="cls-1" d="M240.49,111.4a54.13,54.13,0,0,1-21.18-3.9,46.31,46.31,0,0,1-15.86-10.88,48.73,48.73,0,0,1-10.09-15.87,50.79,50.79,0,0,1-3.48-18.68,50.81,50.81,0,0,1,6.05-24.49,45.71,45.71,0,0,1,17.42-17.95q11.37-6.72,27-6.72t26.78,6.79a42,42,0,0,1,16.5,17.79l-23.84,7.34a21.54,21.54,0,0,0-8.25-8.16,24.36,24.36,0,0,0-24,.66,25.47,25.47,0,0,0-9.08,9.81A31,31,0,0,0,215,62.07a31.3,31.3,0,0,0,3.39,14.75,25.85,25.85,0,0,0,9.08,10.08,23.17,23.17,0,0,0,12.66,3.59A23.43,23.43,0,0,0,248.56,89a25,25,0,0,0,7.06-4.13,17,17,0,0,0,4.68-5.78l23.84,7.34a39.36,39.36,0,0,1-9.63,12.84,46.39,46.39,0,0,1-14.85,8.89A54.13,54.13,0,0,1,240.49,111.4Z"/><path class="cls-2" d="M152.75,40.59c.59-1.61,1.23-3.12,1.89-4.55a42.67,42.67,0,0,1,33-23.67C178.1,19.21,170.6,29.31,168,40.88,159,72.61,158.3,93,122.2,112.4c0,0,32.25-49.86.07-84.77h0l-.84-.9h0l0,0h0l-.12-.13h0a62.91,62.91,0,0,0-25-15.66h0a57.84,57.84,0,0,1,51.38,21.7c1,1.33,1.92,2.72,2.87,4.2q1.22,1.92,2.28,3.84"/><path class="cls-3" d="M150,.1a9.39,9.39,0,1,0,10.62,8A9.37,9.37,0,0,0,150,.1Z"/><path class="cls-1" d="M307,107.28a.42.42,0,0,1-.42-.42V5.55a.42.42,0,0,1,.42-.42.41.41,0,0,1,.42.42V106.86A.42.42,0,0,1,307,107.28Z"/><path class="cls-4" d="M331,25.71a3.85,3.85,0,0,1,.82-2.47,5.29,5.29,0,0,1,2.29-1.62,9.24,9.24,0,0,1,3.38-.57,15.84,15.84,0,0,1,2.33.18,10.09,10.09,0,0,1,2.15.53v-1.3a4.15,4.15,0,0,0-1.15-3.08,4.31,4.31,0,0,0-3.18-1.14,6.68,6.68,0,0,0-2.44.46A11.76,11.76,0,0,0,332.73,18L332,16.62a13.56,13.56,0,0,1,3-1.55,8.85,8.85,0,0,1,2.95-.51,6.17,6.17,0,0,1,4.49,1.61A6,6,0,0,1,344,20.63V27.7a.86.86,0,0,0,.18.6.81.81,0,0,0,.56.22v1.59l-.56.06a1.06,1.06,0,0,1-.36,0,1.51,1.51,0,0,1-1.12-.47,1.61,1.61,0,0,1-.41-.95l0-1.12a6.67,6.67,0,0,1-2.69,2.05,8.18,8.18,0,0,1-3.36.73,5.66,5.66,0,0,1-2.67-.63,4.72,4.72,0,0,1-1.86-1.7A4.46,4.46,0,0,1,331,25.71Zm10.3,1.17a4.13,4.13,0,0,0,.5-.79,1.54,1.54,0,0,0,.17-.67V23.2a12.77,12.77,0,0,0-2.08-.59,12.08,12.08,0,0,0-2.17-.2,6.36,6.36,0,0,0-3.48.85,2.62,2.62,0,0,0-1.33,2.31,3,3,0,0,0,.45,1.59,3.29,3.29,0,0,0,1.3,1.23,4,4,0,0,0,2,.48,6.55,6.55,0,0,0,2.7-.55A4.89,4.89,0,0,0,341.32,26.88Z"/><path class="cls-4" d="M355,30.41a7.41,7.41,0,0,1-3.08-.63A7.52,7.52,0,0,1,349.48,28a8.11,8.11,0,0,1-1.63-2.55,8.54,8.54,0,0,1,.4-7A7.52,7.52,0,0,1,351,15.61a7.62,7.62,0,0,1,4-1,7.26,7.26,0,0,1,3.81,1,6.12,6.12,0,0,1,2.45,2.67l-1.95.62A4.69,4.69,0,0,0,357.47,17a5.36,5.36,0,0,0-5.38.13,5.71,5.71,0,0,0-2,2.17,6.81,6.81,0,0,0,0,6.27,6.13,6.13,0,0,0,2,2.24,5,5,0,0,0,2.8.84,5.34,5.34,0,0,0,1.94-.36,5.15,5.15,0,0,0,1.62-1,3.06,3.06,0,0,0,.93-1.31l2,.59a5.1,5.1,0,0,1-1.38,2,6.87,6.87,0,0,1-2.24,1.36A7.86,7.86,0,0,1,355,30.41Z"/><path class="cls-4" d="M371.07,30.41a7.46,7.46,0,0,1-3.09-.63A7.74,7.74,0,0,1,365.53,28a7.91,7.91,0,0,1-1.62-2.55,8.43,8.43,0,0,1,.4-7A7.49,7.49,0,0,1,367,15.61a7.63,7.63,0,0,1,4-1,7.25,7.25,0,0,1,3.8,1,6.07,6.07,0,0,1,2.45,2.67l-1.94.62A4.76,4.76,0,0,0,373.53,17a5.38,5.38,0,0,0-5.39.13,5.79,5.79,0,0,0-2,2.17,6.85,6.85,0,0,0,0,6.27,6.19,6.19,0,0,0,2,2.24,5,5,0,0,0,2.81.84,5.29,5.29,0,0,0,1.93-.36,5,5,0,0,0,1.62-1,2.9,2.9,0,0,0,.93-1.31l2,.59a5.07,5.07,0,0,1-1.37,2,6.91,6.91,0,0,1-2.25,1.36A7.76,7.76,0,0,1,371.07,30.41Z"/><path class="cls-4" d="M387.09,30.41a7.34,7.34,0,0,1-3.07-.64A7.62,7.62,0,0,1,381.57,28,8.19,8.19,0,0,1,380,25.5a8.32,8.32,0,0,1-.57-3.09,8,8,0,0,1,1-3.93,7.62,7.62,0,0,1,2.73-2.85,7.34,7.34,0,0,1,3.95-1.07,7.22,7.22,0,0,1,4,1.08,7.94,7.94,0,0,1,3.65,6.74v.46a1.46,1.46,0,0,1,0,.34H381.48a6.7,6.7,0,0,0,.93,2.92,5.8,5.8,0,0,0,2,2,5.24,5.24,0,0,0,2.73.75,5.69,5.69,0,0,0,2.85-.76,4.3,4.3,0,0,0,1.87-2l1.74.47a5.65,5.65,0,0,1-1.44,2,7,7,0,0,1-2.29,1.37A8.19,8.19,0,0,1,387.09,30.41Zm-5.67-8.68h11.37a6.31,6.31,0,0,0-.9-2.92,5.58,5.58,0,0,0-2-2,5.47,5.47,0,0,0-2.76-.72,5.34,5.34,0,0,0-2.74.72,5.74,5.74,0,0,0-2,2A6.38,6.38,0,0,0,381.42,21.73Z"/><path class="cls-4" d="M397.86,8.57h2V26.74a2,2,0,0,0,.41,1.51,1.49,1.49,0,0,0,1,.36,4.85,4.85,0,0,0,1.06-.12c.35-.08.66-.16.91-.24l.36,1.63a7.38,7.38,0,0,1-1.37.38,8,8,0,0,1-1.41.15,2.78,2.78,0,0,1-3-3Z"/><path class="cls-4" d="M412.44,30.41a7.34,7.34,0,0,1-3.07-.64A7.62,7.62,0,0,1,406.92,28a8.21,8.21,0,0,1-2.18-5.63,8,8,0,0,1,1-3.93,7.62,7.62,0,0,1,2.73-2.85,7.34,7.34,0,0,1,4-1.07,7.22,7.22,0,0,1,4,1.08A7.94,7.94,0,0,1,420,22.38v.46a1.46,1.46,0,0,1,0,.34H406.83a6.7,6.7,0,0,0,.93,2.92,5.89,5.89,0,0,0,2,2,5.24,5.24,0,0,0,2.73.75,5.69,5.69,0,0,0,2.85-.76,4.3,4.3,0,0,0,1.87-2l1.74.47a5.65,5.65,0,0,1-1.44,2,6.85,6.85,0,0,1-2.29,1.37A8.11,8.11,0,0,1,412.44,30.41Zm-5.66-8.68h11.36a6.31,6.31,0,0,0-.9-2.92,5.58,5.58,0,0,0-2-2,5.41,5.41,0,0,0-2.76-.72,5.34,5.34,0,0,0-2.74.72,5.63,5.63,0,0,0-2,2A6.27,6.27,0,0,0,406.78,21.73Z"/><path class="cls-4" d="M430.8,16.51a6.35,6.35,0,0,0-3.53,1.12,5.68,5.68,0,0,0-2.14,2.92v9.56h-2V14.79H425v3.63a7.22,7.22,0,0,1,2.11-2.62,5.2,5.2,0,0,1,2.78-1.12l.52,0a1.9,1.9,0,0,1,.37,0Z"/><path class="cls-4" d="M432.19,25.71a3.85,3.85,0,0,1,.82-2.47,5.29,5.29,0,0,1,2.29-1.62,9.24,9.24,0,0,1,3.38-.57,15.84,15.84,0,0,1,2.33.18,10.35,10.35,0,0,1,2.16.53v-1.3A4.16,4.16,0,0,0,442,17.38a4.31,4.31,0,0,0-3.18-1.14,6.68,6.68,0,0,0-2.44.46A12,12,0,0,0,433.9,18l-.77-1.42a13.56,13.56,0,0,1,2.95-1.55,8.85,8.85,0,0,1,2.95-.51,6.17,6.17,0,0,1,4.49,1.61,6,6,0,0,1,1.65,4.46V27.7a.86.86,0,0,0,.18.6.81.81,0,0,0,.56.22v1.59l-.56.06a1,1,0,0,1-.35,0,1.52,1.52,0,0,1-1.13-.47,1.61,1.61,0,0,1-.41-.95l0-1.12a6.71,6.71,0,0,1-2.68,2.05,8.26,8.26,0,0,1-3.37.73,5.66,5.66,0,0,1-2.67-.63,4.72,4.72,0,0,1-1.86-1.7A4.46,4.46,0,0,1,432.19,25.71Zm10.3,1.17a4.13,4.13,0,0,0,.5-.79,1.57,1.57,0,0,0,.18-.67V23.2a13.18,13.18,0,0,0-2.09-.59,12.06,12.06,0,0,0-2.16-.2,6.37,6.37,0,0,0-3.49.85,2.61,2.61,0,0,0-1.32,2.31,3,3,0,0,0,.44,1.59,3.36,3.36,0,0,0,1.3,1.23,4,4,0,0,0,2,.48,6.55,6.55,0,0,0,2.7-.55A4.89,4.89,0,0,0,442.49,26.88Z"/><path class="cls-4" d="M456.77,29.49c-.16.06-.4.17-.74.33a7.08,7.08,0,0,1-1.21.41,6.17,6.17,0,0,1-1.53.18,4,4,0,0,1-1.61-.33,2.69,2.69,0,0,1-1.19-1,2.89,2.89,0,0,1-.45-1.65v-11h-2.12v-1.6H450V9.6h2v5.19h3.54v1.6h-3.54v10.5a1.61,1.61,0,0,0,.6,1.24,2,2,0,0,0,1.26.42,4,4,0,0,0,1.5-.28,4.51,4.51,0,0,0,.83-.4Z"/><path class="cls-4" d="M465.66,30.41a7.28,7.28,0,0,1-3.07-.64A7.41,7.41,0,0,1,460.14,28a8,8,0,0,1-1.61-2.54,8.13,8.13,0,0,1-.58-3.09,8,8,0,0,1,1-3.93,7.62,7.62,0,0,1,2.73-2.85,7.35,7.35,0,0,1,4-1.07,7.27,7.27,0,0,1,4,1.08,7.9,7.9,0,0,1,3.64,6.74v.46a1.46,1.46,0,0,1,0,.34H460.05A6.7,6.7,0,0,0,461,26.1a5.86,5.86,0,0,0,2,2,5.24,5.24,0,0,0,2.73.75,5.64,5.64,0,0,0,2.85-.76,4.32,4.32,0,0,0,1.88-2l1.74.47a5.82,5.82,0,0,1-1.45,2,6.85,6.85,0,0,1-2.29,1.37A8.09,8.09,0,0,1,465.66,30.41ZM460,21.73h11.36a6.31,6.31,0,0,0-.9-2.92,5.58,5.58,0,0,0-2-2,5.61,5.61,0,0,0-5.5,0,5.63,5.63,0,0,0-2,2A6.38,6.38,0,0,0,460,21.73Z"/><path class="cls-4" d="M333.14,70.25l.8,0a1.74,1.74,0,0,0,.56,0,1.27,1.27,0,0,0,.68-.41,5.67,5.67,0,0,0,.76-1.35c.3-.67.71-1.65,1.24-2.94l-6.7-15.34h2.13l5.64,13.27,5.19-13.27h2l-8,19.78a3.58,3.58,0,0,1-.62,1,3,3,0,0,1-1,.77,3.78,3.78,0,0,1-1.49.31,3.35,3.35,0,0,1-.55,0c-.18,0-.4,0-.66-.07Z"/><path class="cls-4" d="M354.27,65.82a7.36,7.36,0,0,1-5.5-2.36,7.84,7.84,0,0,1-1.58-2.52,8.25,8.25,0,0,1-.56-3,8.37,8.37,0,0,1,.56-3.07,7.7,7.7,0,0,1,1.59-2.52,7.43,7.43,0,0,1,2.44-1.73,7.34,7.34,0,0,1,3-.64,7.26,7.26,0,0,1,3,.64,7.45,7.45,0,0,1,2.42,1.73,7.89,7.89,0,0,1,1.6,2.52,8.37,8.37,0,0,1,.56,3.07,8.25,8.25,0,0,1-.56,3,8,8,0,0,1-1.58,2.52,7.49,7.49,0,0,1-2.42,1.73A7.41,7.41,0,0,1,354.27,65.82ZM348.66,58a6.43,6.43,0,0,0,.76,3.09,5.8,5.8,0,0,0,2,2.2,5.16,5.16,0,0,0,2.8.8,5,5,0,0,0,2.81-.82,6,6,0,0,0,2-2.24,6.5,6.5,0,0,0,.77-3.12,6.37,6.37,0,0,0-.77-3.08,6,6,0,0,0-2-2.22,5,5,0,0,0-2.81-.82,4.89,4.89,0,0,0-2.8.85,6.07,6.07,0,0,0-2,2.24A6.43,6.43,0,0,0,348.66,58Z"/><path class="cls-4" d="M365.1,59.21v-9h2v8.64a6.89,6.89,0,0,0,.9,3.91,3,3,0,0,0,2.67,1.29,5.42,5.42,0,0,0,2.29-.51,5.91,5.91,0,0,0,2-1.47,6.57,6.57,0,0,0,1.3-2.22V50.21h2v12.9a.88.88,0,0,0,.17.6.79.79,0,0,0,.53.22v1.6l-.56,0-.38,0a1.72,1.72,0,0,1-1-.47,1.48,1.48,0,0,1-.46-1l0-2.06a7.24,7.24,0,0,1-2.73,2.76,7.33,7.33,0,0,1-3.74,1,4.29,4.29,0,0,1-3.66-1.67A8.31,8.31,0,0,1,365.1,59.21Z"/><path class="cls-4" d="M390.45,51.92A6.4,6.4,0,0,0,386.93,53,5.6,5.6,0,0,0,384.79,56v9.56h-2V50.21h1.89v3.63a7.36,7.36,0,0,1,2.11-2.63,5.34,5.34,0,0,1,2.79-1.12l.52,0a1.79,1.79,0,0,1,.36,0Z"/><path class="cls-4" d="M338.93,101.24a7.46,7.46,0,0,1-3.09-.63,7.59,7.59,0,0,1-2.45-1.75,7.91,7.91,0,0,1-1.62-2.55,8,8,0,0,1-.58-3,8.19,8.19,0,0,1,1-4,7.4,7.4,0,0,1,2.71-2.84,7.54,7.54,0,0,1,4-1.06,7.25,7.25,0,0,1,3.8,1,6.12,6.12,0,0,1,2.45,2.67l-1.95.62a4.58,4.58,0,0,0-1.81-1.84,5.07,5.07,0,0,0-2.58-.67A5.19,5.19,0,0,0,336,88a5.79,5.79,0,0,0-2,2.17,6.85,6.85,0,0,0,0,6.27,6.11,6.11,0,0,0,2,2.24,5,5,0,0,0,2.81.84,5.29,5.29,0,0,0,1.93-.36,5,5,0,0,0,1.62-1,3,3,0,0,0,.93-1.31l2,.59a5.07,5.07,0,0,1-1.37,2,6.74,6.74,0,0,1-2.25,1.36A7.54,7.54,0,0,1,338.93,101.24Z"/><path class="cls-4" d="M347.22,96.55a3.81,3.81,0,0,1,.83-2.48,5.24,5.24,0,0,1,2.28-1.61,9.07,9.07,0,0,1,3.38-.58,15.74,15.74,0,0,1,2.33.18,11,11,0,0,1,2.16.53V91.3a4.17,4.17,0,0,0-1.15-3.08,4.3,4.3,0,0,0-3.19-1.15,6.9,6.9,0,0,0-2.44.46,12.78,12.78,0,0,0-2.49,1.34l-.77-1.41a12.8,12.8,0,0,1,3-1.55,8.53,8.53,0,0,1,2.95-.52A6.16,6.16,0,0,1,358.55,87a6,6,0,0,1,1.65,4.46v7.07a.86.86,0,0,0,.18.6.83.83,0,0,0,.56.22v1.59l-.56.06a1,1,0,0,1-.35,0,1.46,1.46,0,0,1-1.12-.47,1.54,1.54,0,0,1-.42-.94l0-1.13a6.82,6.82,0,0,1-2.68,2.06,8.37,8.37,0,0,1-3.37.72,5.66,5.66,0,0,1-2.67-.63,4.85,4.85,0,0,1-1.86-1.7A4.42,4.42,0,0,1,347.22,96.55Zm10.3,1.17a4.25,4.25,0,0,0,.5-.79,1.64,1.64,0,0,0,.18-.68V94a12.33,12.33,0,0,0-2.08-.58,11.32,11.32,0,0,0-2.17-.21,6.32,6.32,0,0,0-3.48.85,2.6,2.6,0,0,0-1.33,2.31,3,3,0,0,0,.44,1.59,3.36,3.36,0,0,0,1.3,1.23,4,4,0,0,0,2,.48,6.62,6.62,0,0,0,2.7-.55A4.93,4.93,0,0,0,357.52,97.72Z"/><path class="cls-4" d="M372.22,87.34a6.33,6.33,0,0,0-3.53,1.12,5.63,5.63,0,0,0-2.14,2.92v9.56h-2V85.63h1.89v3.63a7.27,7.27,0,0,1,2.11-2.63,5.26,5.26,0,0,1,2.79-1.12l.52,0a2,2,0,0,1,.37,0Z"/><path class="cls-4" d="M381.07,101.24a7.45,7.45,0,0,1-5.52-2.37,8.08,8.08,0,0,1-1.61-2.54,8.32,8.32,0,0,1-.57-3.09,8,8,0,0,1,1-3.92,7.58,7.58,0,0,1,2.73-2.86,7.43,7.43,0,0,1,4-1.07,7.14,7.14,0,0,1,4,1.09,7.77,7.77,0,0,1,2.67,2.85,8,8,0,0,1,1,3.89v.45a1.46,1.46,0,0,1,0,.34H375.46a6.66,6.66,0,0,0,.93,2.92,5.92,5.92,0,0,0,2,2,5.3,5.3,0,0,0,2.73.74,5.69,5.69,0,0,0,2.85-.76,4.21,4.21,0,0,0,1.87-2l1.74.47a5.65,5.65,0,0,1-1.44,2,7,7,0,0,1-2.29,1.37A8,8,0,0,1,381.07,101.24Zm-5.67-8.68h11.37a6.31,6.31,0,0,0-.9-2.92,5.74,5.74,0,0,0-2-2,5.47,5.47,0,0,0-2.76-.72,5.34,5.34,0,0,0-2.74.72,5.69,5.69,0,0,0-2,2A6.31,6.31,0,0,0,375.4,92.56Z"/><path class="cls-4" d="M398.4,101.24a7.51,7.51,0,0,1-3.08-.63,7.35,7.35,0,0,1-2.44-1.74,7.9,7.9,0,0,1-1.61-2.54,8.13,8.13,0,0,1-.58-3.09,8,8,0,0,1,1-3.92,7.58,7.58,0,0,1,2.73-2.86,7.44,7.44,0,0,1,4-1.07,7.13,7.13,0,0,1,4,1.09A7.72,7.72,0,0,1,405,89.33a8,8,0,0,1,1,3.89v.45a1.46,1.46,0,0,1,0,.34H392.79a6.66,6.66,0,0,0,.93,2.92,6,6,0,0,0,2,2,5.33,5.33,0,0,0,2.73.74,5.64,5.64,0,0,0,2.85-.76,4.23,4.23,0,0,0,1.88-2l1.74.47a5.82,5.82,0,0,1-1.45,2,6.85,6.85,0,0,1-2.29,1.37A7.87,7.87,0,0,1,398.4,101.24Zm-5.67-8.68h11.36a6.31,6.31,0,0,0-.9-2.92,5.66,5.66,0,0,0-2-2,5.61,5.61,0,0,0-5.5,0,5.66,5.66,0,0,0-2,2A6.31,6.31,0,0,0,392.73,92.56Z"/><path class="cls-4" d="M416.75,87.34a6.35,6.35,0,0,0-3.53,1.12,5.68,5.68,0,0,0-2.14,2.92v9.56h-2V85.63H411v3.63a7.17,7.17,0,0,1,2.11-2.63,5.19,5.19,0,0,1,2.79-1.12l.51,0a1.9,1.9,0,0,1,.37,0Z"/><path class="cls-4" d="M424.48,101.24a9.81,9.81,0,0,1-3.51-.62,7.24,7.24,0,0,1-2.8-1.89l.82-1.42a8.8,8.8,0,0,0,2.62,1.76,7.23,7.23,0,0,0,2.79.55,5.33,5.33,0,0,0,2.92-.72,2.32,2.32,0,0,0,1.12-2.06,1.77,1.77,0,0,0-.55-1.4,4.2,4.2,0,0,0-1.56-.79c-.68-.21-1.49-.43-2.44-.66a17.72,17.72,0,0,1-2.67-.93,3.87,3.87,0,0,1-1.62-1.23,3.26,3.26,0,0,1-.55-2,3.92,3.92,0,0,1,.76-2.48,4.78,4.78,0,0,1,2.06-1.5,8.1,8.1,0,0,1,2.94-.51,8.24,8.24,0,0,1,3.13.56,5.81,5.81,0,0,1,2.21,1.57l-1,1.35a5.24,5.24,0,0,0-2-1.4,6.73,6.73,0,0,0-2.52-.46,6.63,6.63,0,0,0-1.8.25,3.1,3.1,0,0,0-1.4.82,2.18,2.18,0,0,0-.55,1.57,1.81,1.81,0,0,0,.42,1.28,3,3,0,0,0,1.23.76c.56.21,1.23.43,2,.66,1.16.32,2.18.63,3,1a5,5,0,0,1,2,1.24,3,3,0,0,1,.71,2.14,4,4,0,0,1-1.63,3.35A7,7,0,0,1,424.48,101.24Z"/></g></g></svg>