<svg width="165" height="70" viewBox="0 0 165 70" fill="none" xmlns="http://www.w3.org/2000/svg">
<rect x="0.928711" width="163.998" height="69.5536" rx="9.91922" fill="#F9F9F9"/>
<path d="M50.4477 24.6237L38.9528 38.4177H49.2981L48.1487 47.6135L59.6436 33.8196H49.2981L50.4477 24.6237Z" fill="#C0C0C0"/>
<path d="M75.9175 34.2388V38.4939H69.7799V44.3219H64.9574V27.0438H77.2069V31.2989H69.7799V34.2388H75.9175Z" fill="#C0C0C0"/>
<path d="M83.9322 27.0438V44.3219H79.4965V27.0438H83.9322Z" fill="#C0C0C0"/>
<path d="M91.2516 30.7828C91.9391 30.7828 92.6092 30.9376 93.2625 31.247C93.9332 31.5393 94.4833 31.9175 94.9135 32.3817V31.1697H99.3493V44.3217H94.9135V42.1298C94.5865 42.8519 94.088 43.4621 93.4179 43.9608C92.7472 44.4594 91.9391 44.7086 90.9936 44.7086C90.0134 44.7086 89.0934 44.4594 88.2343 43.9608C87.3747 43.4621 86.6695 42.6971 86.1196 41.6656C85.5866 40.6167 85.3199 39.3016 85.3199 37.7199C85.3199 36.2413 85.5866 34.9863 86.1196 33.9548C86.6695 32.9233 87.3921 32.141 88.2859 31.608C89.1972 31.0579 90.1856 30.7828 91.2516 30.7828ZM92.1797 35.1153C91.5438 35.1153 91.0104 35.3731 90.5809 35.8889C90.1682 36.4047 89.9618 37.015 89.9618 37.7199C89.9618 38.4249 90.1769 39.018 90.6064 39.4992C91.0365 39.9807 91.6041 40.2215 92.309 40.2215C92.6869 40.2215 93.0735 40.1267 93.4695 39.9377C93.8642 39.7315 94.1999 39.4305 94.4746 39.0352C94.7674 38.6225 94.9135 38.0981 94.9135 37.462V36.1984C94.5349 35.8889 94.1054 35.631 93.6237 35.4247C93.1599 35.2184 92.6782 35.1153 92.1797 35.1153Z" fill="#C0C0C0"/>
<path d="M106.229 30.7828C107.089 30.7828 107.879 30.9118 108.602 31.1697C109.341 31.4103 109.934 31.7456 110.381 32.1754V35.6568C109.934 35.3818 109.427 35.1239 108.86 34.8832C108.292 34.6253 107.682 34.4964 107.028 34.4964C106.616 34.4964 106.246 34.5823 105.92 34.7543C105.61 34.909 105.455 35.1582 105.455 35.5021C105.455 35.7428 105.55 35.9233 105.739 36.0437C105.928 36.164 106.298 36.2929 106.848 36.4305L107.648 36.6368C109.934 37.2214 111.077 38.4506 111.077 40.3246C111.077 41.1841 110.82 41.9491 110.304 42.6198C109.805 43.2731 109.143 43.7887 108.318 44.167C107.51 44.5281 106.633 44.7086 105.688 44.7086C104.707 44.7086 103.796 44.5711 102.954 44.2959C102.112 44.0037 101.389 43.6512 100.788 43.2387V39.783C101.407 40.1611 102.103 40.4792 102.877 40.7371C103.667 40.9951 104.372 41.124 104.991 41.124C105.49 41.124 105.851 41.0638 106.074 40.9435C106.315 40.8232 106.435 40.6082 106.435 40.2988C106.435 40.058 106.298 39.8775 106.023 39.7573C105.747 39.6198 105.353 39.4649 104.837 39.293L103.521 38.8803C102.559 38.5881 101.854 38.1325 101.407 37.5136C100.96 36.8775 100.736 36.1038 100.736 35.1926C100.736 34.2815 100.977 33.4992 101.458 32.8459C101.939 32.1926 102.593 31.6854 103.418 31.3244C104.26 30.9634 105.197 30.7828 106.229 30.7828Z" fill="#C0C0C0"/>
<path d="M120.227 30.7831C121.568 30.7831 122.66 31.2387 123.502 32.1499C124.362 33.0611 124.791 34.4107 124.791 36.1987V44.322H120.356L120.33 36.895C120.33 36.2417 120.15 35.7861 119.788 35.5282C119.427 35.2531 119.023 35.1156 118.576 35.1156C118.095 35.1156 117.691 35.2445 117.364 35.5024C117.038 35.7431 116.754 36.0354 116.513 36.3792V44.322H112.077V27.0438H116.513V32.872C116.926 32.3046 117.424 31.8147 118.009 31.4021C118.61 30.9895 119.35 30.7831 120.227 30.7831Z" fill="#C0C0C0"/>
<path d="M124.568 27.1443V27.693H123.908V29.3624H123.281V27.693H122.62V27.1443H124.568Z" fill="#C0C0C0"/>
<path d="M127.142 27.1111V29.3724H126.516V28.275L126.056 28.7905H125.869L125.409 28.275V29.3724H124.782V27.1111H125.003L125.962 28.0755L126.921 27.1111H127.142Z" fill="#C0C0C0"/>
</svg>
