<svg xmlns="http://www.w3.org/2000/svg" viewBox="0 0 473.28 112.44">
    <defs>
        <style>.cls-1,.cls-2{fill:#fff;}.cls-2,.cls-3{fill-rule:evenodd;}.cls-3{fill:#d8e022;}</style>
    </defs>
    <g id="Layer_2" data-name="Layer 2">
        <g id="Layer_1-2" data-name="Layer 1">
            <path class="cls-1"
                  d="M0,81.54C.58,51,41.27,45.57,64.37,54.59,68.3,22.94,30.49,27.71,12.84,41.38l-7.7-16C33.33,4.49,90.62,7.57,89,52V82.2C89,87,90.26,89,94.82,89.61v20c-13.21,3.16-27.07.58-26.59-15C50.78,119.69.64,116.86,0,81.54Zm59.79,4.6c5.47-3.76,4.68-12,4.58-17.53C5.48,48.08,16,115.85,59.79,86.14Z"/>
            <path class="cls-1"
                  d="M240.49,111.44c-38.58,2-62.78-41.31-44.56-73.82,16-32.43,72.27-33.34,87.66-.09l-23.84,7.33C246.08,22.5,212.93,37.12,215,62.11c-2,25.29,31.74,39.89,45.3,17l23.84,7.34C276.47,102.8,258.73,111.71,240.49,111.44Z"/>
            <path class="cls-2"
                  d="M152.75,40.63a42.7,42.7,0,0,1,34.93-28.22c-36.74,29.31-12.2,75.28-65.48,100,.33-.2,32.53-52.13-1-85.89h0a62.91,62.91,0,0,0-25-15.66h0c23.1-2.44,45.81,9.47,56.53,29.75"/>
            <path class="cls-3" d="M150,.13c-12.09,1.55-9.39,20.49,2.65,18.6C164.75,17.18,162.05-1.77,150,.13Z"/>
        </g>
    </g>
</svg>
