<svg width="35" height="33" viewBox="0 0 35 33" fill="none" xmlns="http://www.w3.org/2000/svg">
<g clip-path="url(#clip0_72_7010)">
<path d="M6.08105 7.9987L27.4992 0.198854C29.4478 -0.510763 31.5554 0.753359 31.8469 2.80655L34.2077 19.4361C34.4991 21.4892 32.8266 23.29 30.7575 23.1508L8.01478 21.6201L6.08105 7.9987Z" fill="#6096FF"/>
<path d="M9.21875 21.7012L11.6348 31.1163C11.9615 32.3894 13.3337 33.0843 14.5533 32.5942L14.6743 32.5456C15.5273 32.2029 16.0728 31.361 16.0371 30.4424L15.7142 22.1383L9.21875 21.7012Z" fill="#012F33"/>
<path d="M6.08105 7.99878L1.87007 8.59658C0.680459 8.76546 -0.147009 9.86674 0.0218714 11.0564L1.34403 20.3698C1.51291 21.5594 2.61419 22.3869 3.8038 22.218L8.01478 21.6202L6.08105 7.99878Z" fill="#012F33"/>
</g>
<defs>
<clipPath id="clip0_72_7010">
<rect width="35" height="33" fill="white"/>
</clipPath>
</defs>
</svg>
