<svg id="Layer_1" height="512" viewBox="0 0 512 512" width="512" xmlns="http://www.w3.org/2000/svg"><g fill="rgb(0,0,0)"><rect height="69.3" rx="7.5" width="69.3" x="221.35" y="221.35"/><path d="m442.14 327.13c-5.29 0-10.36.91-15.09 2.57l-15.69-22.24c-2.34-3.32-6.15-5.3-10.22-5.3h-33.86v-33.66h40.94c5.45 19.12 23.07 33.16 43.91 33.16 25.18 0 45.66-20.48 45.66-45.66s-20.48-45.66-45.66-45.66c-20.84 0-38.46 14.04-43.91 33.16h-40.94v-33.66h33.86c4.06 0 7.87-1.98 10.22-5.3l15.69-22.24c4.73 1.66 9.8 2.57 15.09 2.57 25.18 0 45.66-20.48 45.66-45.66s-20.48-45.66-45.66-45.66-45.66 20.48-45.66 45.66c0 10.85 3.81 20.82 10.15 28.67l-11.96 16.97h-27.45c-1.19-21.55-18.51-38.87-40.06-40.06v-27.45l16.97-11.96c7.84 6.34 17.82 10.15 28.67 10.15 25.18 0 45.66-20.48 45.66-45.66s-20.48-45.66-45.66-45.66-45.66 20.48-45.66 45.66c0 5.29.91 10.36 2.57 15.09l-22.25 15.69c-3.32 2.34-5.3 6.15-5.3 10.22v33.86h-33.66v-40.94c19.12-5.45 33.16-23.07 33.16-43.91 0-25.18-20.48-45.66-45.66-45.66s-45.66 20.48-45.66 45.66c0 20.84 14.04 38.46 33.16 43.91v40.94h-33.66v-33.86c0-4.06-1.98-7.87-5.3-10.22l-22.25-15.69c1.66-4.73 2.57-9.8 2.57-15.09 0-25.18-20.48-45.66-45.66-45.66s-45.66 20.48-45.66 45.66 20.48 45.66 45.66 45.66c10.85 0 20.82-3.81 28.67-10.15l16.97 11.96v27.45c-21.55 1.19-38.87 18.51-40.06 40.06h-27.45l-11.96-16.97c6.34-7.84 10.15-17.82 10.15-28.67 0-25.18-20.48-45.66-45.66-45.66s-45.66 20.48-45.66 45.66 20.48 45.66 45.66 45.66c5.29 0 10.36-.91 15.09-2.57l15.69 22.24c2.34 3.32 6.15 5.3 10.22 5.3h33.86v33.66h-40.94c-5.45-19.12-23.07-33.16-43.91-33.16-25.18 0-45.66 20.48-45.66 45.66s20.48 45.66 45.66 45.66c20.84 0 38.46-14.04 43.91-33.16h40.94v33.66h-33.86c-4.06 0-7.87 1.98-10.22 5.3l-15.69 22.24c-4.73-1.66-9.8-2.57-15.09-2.57-25.18 0-45.66 20.48-45.66 45.66s20.48 45.66 45.66 45.66 45.66-20.48 45.66-45.66c0-10.85-3.81-20.82-10.15-28.67l11.96-16.97h27.45c1.19 21.55 18.51 38.87 40.06 40.06v27.45l-16.97 11.96c-7.84-6.34-17.82-10.15-28.67-10.15-25.18 0-45.66 20.48-45.66 45.66s20.48 45.66 45.66 45.66 45.66-20.48 45.66-45.66c0-5.29-.91-10.36-2.57-15.09l22.25-15.69c3.32-2.34 5.3-6.15 5.3-10.22v-33.86h33.66v40.94c-19.12 5.45-33.16 23.07-33.16 43.91 0 25.18 20.48 45.66 45.66 45.66s45.66-20.48 45.66-45.66c0-20.84-14.04-38.46-33.16-43.91v-40.94h33.66v33.86c0 4.06 1.98 7.87 5.3 10.22l22.25 15.69c-1.66 4.73-2.57 9.8-2.57 15.09 0 25.18 20.48 45.66 45.66 45.66s45.66-20.48 45.66-45.66-20.48-45.66-45.66-45.66c-10.85 0-20.82 3.81-28.67 10.15l-16.97-11.96v-27.45c21.55-1.19 38.87-18.51 40.06-40.06h27.45l11.96 16.97c-6.34 7.84-10.15 17.82-10.15 28.67 0 25.18 20.48 45.66 45.66 45.66s45.66-20.48 45.66-45.66-20.48-45.66-45.66-45.66zm10-91.79c11.39 0 20.66 9.27 20.66 20.66s-9.27 20.66-20.66 20.66-20.66-9.27-20.66-20.66 9.27-20.66 20.66-20.66zm-10-116.79c11.39 0 20.66 9.27 20.66 20.66s-9.27 20.66-20.66 20.66-20.66-9.27-20.66-20.66 9.27-20.66 20.66-20.66zm-69.35-69.35c11.39 0 20.66 9.27 20.66 20.66s-9.27 20.66-20.66 20.66-20.66-9.27-20.66-20.66 9.27-20.66 20.66-20.66zm-137.45 10.66c0-11.39 9.27-20.66 20.66-20.66s20.66 9.27 20.66 20.66-9.27 20.66-20.66 20.66-20.66-9.27-20.66-20.66zm-116.79 10c0-11.39 9.27-20.66 20.66-20.66s20.66 9.27 20.66 20.66-9.27 20.66-20.66 20.66-20.66-9.27-20.66-20.66zm-69.35 69.35c0-11.39 9.27-20.66 20.66-20.66s20.66 9.27 20.66 20.66-9.27 20.66-20.66 20.66-20.66-9.27-20.66-20.66zm10.66 137.45c-11.39 0-20.66-9.27-20.66-20.66s9.27-20.66 20.66-20.66 20.66 9.27 20.66 20.66-9.27 20.66-20.66 20.66zm10 116.79c-11.39 0-20.66-9.27-20.66-20.66s9.27-20.66 20.66-20.66 20.66 9.27 20.66 20.66-9.27 20.66-20.66 20.66zm69.35 69.35c-11.39 0-20.66-9.27-20.66-20.66s9.27-20.66 20.66-20.66 20.66 9.27 20.66 20.66-9.27 20.66-20.66 20.66zm137.45-10.66c0 11.39-9.27 20.66-20.66 20.66s-20.66-9.27-20.66-20.66 9.27-20.66 20.66-20.66 20.66 9.27 20.66 20.66zm116.79-10c0 11.39-9.27 20.66-20.66 20.66s-20.66-9.27-20.66-20.66 9.27-20.66 20.66-20.66 20.66 9.27 20.66 20.66zm-77.8-158.99c0 17.92-14.58 32.5-32.5 32.5h-54.3c-17.92 0-32.5-14.58-32.5-32.5v-54.3c0-17.92 14.58-32.5 32.5-32.5h54.3c17.92 0 32.5 14.58 32.5 32.5zm126.49 110.3c-11.39 0-20.66-9.27-20.66-20.66s9.27-20.66 20.66-20.66 20.66 9.27 20.66 20.66-9.27 20.66-20.66 20.66z"/></g></svg>