<svg id="Glyph" height="512" viewBox="0 0 24 24" width="512" xmlns="http://www.w3.org/2000/svg"><path d="m11.125 13.5151c-.0862-.05-.1647-.1123-.2491-.1651.0251.1511.05.3022.0841.4517.1462-.0459.2893-.1.4325-.1531-.0879-.0469-.1813-.0835-.2675-.1335z"/><path d="m11.393 10.3513c-.1434-.0538-.2867-.1074-.4329-.1531-.0335.15-.0588.3-.0839.4513.0844-.0526.1626-.115.2488-.1646s.1799-.0867.268-.1336z"/><path d="m11.0951 14.2831a3.033 3.033 0 0 0 .9049 1.462 3.0291 3.0291 0 0 0 .9052-1.462 8.7157 8.7157 0 0 1 -.9052-.3316 8.7611 8.7611 0 0 1 -.9049.3316z"/><path d="m12.607 13.6487c.1434.0538.2867.1074.4329.1531.0335-.15.0588-.3.0839-.4513-.0844.0526-.1626.115-.2488.1646s-.1799.0867-.268.1336z"/><path d="m12.875 10.4849c.0862.05.1647.1123.2491.1651-.0251-.1511-.05-.3022-.0841-.4517-.1462.0459-.2893.1-.4325.1531.0879.0469.1813.0835.2675.1335z"/><circle cx="12" cy="12" r=".25"/><path d="m9.92 12c.1126.1036.23.2007.3484.2978-.0035-.0994-.0184-.1978-.0184-.2978s.015-.1986.0184-.298c-.1184.0971-.2359.1944-.3484.298z"/><path d="m9.561 12.35a2.8265 2.8265 0 0 0 -.801 1.5411 3.1172 3.1172 0 0 0 1.7184.0464 8.6859 8.6859 0 0 1 -.1681-.9624 8.7922 8.7922 0 0 1 -.7493-.6251z"/><path d="m8.7568 10.1274a2.9425 2.9425 0 0 0 .8032 1.5233 8.7264 8.7264 0 0 1 .75-.6265 8.7724 8.7724 0 0 1 .1681-.962 2.963 2.963 0 0 0 -1.7213.0652z"/><path d="m12.9165 9.7127a2.8264 2.8264 0 0 0 -.9341-1.4647 3.1042 3.1042 0 0 0 -.8993 1.4648 8.7154 8.7154 0 0 1 .917.3357 8.775 8.775 0 0 1 .9164-.3358z"/><path d="m15.333 7.25h-6.666a1.4183 1.4183 0 0 0 -1.417 1.4165v6.667a1.4183 1.4183 0 0 0 1.417 1.4165h6.666a1.4183 1.4183 0 0 0 1.417-1.4165v-6.667a1.4183 1.4183 0 0 0 -1.417-1.4165zm.3467 6.8755c-.1494.26-.6777.4018-1.3145.4018a4.7632 4.7632 0 0 1 -.9655-.1138c-.3166.9785-.9517 1.8365-1.4 1.8365s-1.0821-.8578-1.3994-1.8365a4.7685 4.7685 0 0 1 -.9658.1138c-.6368 0-1.1651-.142-1.3155-.4028-.2234-.3848.1992-1.36.8849-2.1243-.6857-.763-1.1083-1.7377-.8849-2.1247s1.2792-.5091 2.2833-.2965c.3177-.9755.9509-1.829 1.3977-1.829s1.079.8535 1.3972 1.8289c1.0067-.2129 2.0609-.09 2.2835.2966s-.1993 1.3606-.8848 2.1245c.6863.7632 1.1081 1.7385.8841 2.1255z"/><path d="m13.5232 10.07a8.6477 8.6477 0 0 1 .1667.9549 8.8356 8.8356 0 0 1 .7495.6257 2.96 2.96 0 0 0 .8038-1.5232 1.9967 1.9967 0 0 0 -.9-.1538 4.1937 4.1937 0 0 0 -.82.0964z"/><path d="m20.5507 9.1064a.8988.8988 0 0 0 .4493-.8164v-3.29a2 2 0 0 0 -2-2h-14a2 2 0 0 0 -2 2v3.29a.8988.8988 0 0 0 .4493.8161 1 1 0 0 1 0 1.7872.8988.8988 0 0 0 -.4493.8167v.58a.8988.8988 0 0 0 .4493.8161 1 1 0 0 1 0 1.7872.8988.8988 0 0 0 -.4493.8167v3.29a2 2 0 0 0 2 2h14a2 2 0 0 0 2-2v-3.29a.8988.8988 0 0 0 -.4493-.8161 1 1 0 0 1 0-1.7872.8988.8988 0 0 0 .4493-.8167v-.58a.8988.8988 0 0 0 -.4493-.8161 1 1 0 0 1 0-1.7872zm-2.5507 1.6436a.25.25 0 0 1 0 .5h-.75v1.5h.75a.25.25 0 0 1 0 .5h-.75v1.5h.75a.25.25 0 0 1 0 .5h-.75v.0835a1.9193 1.9193 0 0 1 -1.917 1.9165h-.083v.75a.25.25 0 0 1 -.5 0v-.75h-1.5v.75a.25.25 0 0 1 -.5 0v-.75h-1.5v.75a.25.25 0 0 1 -.5 0v-.75h-1.5v.75a.25.25 0 0 1 -.5 0v-.75h-.083a1.9193 1.9193 0 0 1 -1.917-1.9165v-.0835h-.75a.25.25 0 0 1 0-.5h.75v-1.5h-.75a.25.25 0 0 1 0-.5h.75v-1.5h-.75a.25.25 0 0 1 0-.5h.75v-1.5h-.75a.25.25 0 0 1 0-.5h.75v-.0835a1.9193 1.9193 0 0 1 1.917-1.9165h.083v-.75a.25.25 0 0 1 .5 0v.75h1.5v-.75a.25.25 0 0 1 .5 0v.75h1.5v-.75a.25.25 0 0 1 .5 0v.75h1.5v-.75a.25.25 0 0 1 .5 0v.75h.083a1.9193 1.9193 0 0 1 1.917 1.9165v.0835h.75a.25.25 0 0 1 0 .5h-.75v1.5z"/><path d="m12.625 10.9175c-.2014-.1164-.4139-.2124-.6248-.3114-.2111.099-.424.1952-.6252.3114s-.3908.2525-.582.3857c-.02.2323-.043.4647-.043.6968s.0231.4647.0429.6966c.1912.1333.3808.27.5821.3859s.4139.2124.6248.3114c.2111-.099.424-.1952.6252-.3114s.3908-.2525.582-.3857c.02-.2323.043-.4647.043-.6968s-.0231-.4647-.0429-.6966c-.1912-.1334-.3808-.2695-.5821-.3859zm-.625 1.8325a.75.75 0 1 1 .75-.75.7511.7511 0 0 1 -.75.75z"/><path d="m13.69 12.9758a8.7916 8.7916 0 0 1 -.1681.9615 2.83 2.83 0 0 0 1.7361-.0769 3.0984 3.0984 0 0 0 -.8184-1.5109 8.72 8.72 0 0 1 -.7496.6263z"/><path d="m14.08 12c-.1126-.1036-.23-.2007-.3484-.2978.0034.0994.0183.1983.0183.2978s-.015.1986-.0184.298c.1185-.0971.236-.1944.3485-.298z"/></svg>