<svg clip-rule="evenodd" fill-rule="evenodd" height="1.707in" image-rendering="optimizeQuality" shape-rendering="geometricPrecision" text-rendering="geometricPrecision" viewBox="0 0 1707 1707" width="1.707in" xmlns="http://www.w3.org/2000/svg"><g id="Layer_x0020_1"><path d="m1389 1419h-46v64c49 13 84 58 84 110 0 63-51 114-113 114-63 0-114-51-114-114 0-52 36-97 84-110v-64h-247v64c48 13 83 58 83 110 0 63-51 114-113 114-63 0-114-51-114-114 0-52 36-97 84-110v-64h-247v64c48 13 84 58 84 110 0 63-51 114-114 114s-114-51-114-114c0-52 36-97 84-110v-64h-247v64c48 13 84 58 84 110 0 63-51 114-114 114s-114-51-114-114c0-52 36-97 84-110v-64h-45c-17 0-30-13-30-30v-1071c0-17 13-30 30-30h45v-65c-48-13-84-57-84-109 0-63 51-114 114-114s114 51 114 114c0 52-36 96-84 109v65h247v-65c-48-13-84-57-84-109 0-63 51-114 114-114s114 51 114 114c0 52-36 96-84 109v65h247v-65c-48-13-84-57-84-109 0-63 51-114 114-114 62 0 113 51 113 114 0 52-35 96-83 109v65h247v-65c-48-13-84-57-84-109 0-63 51-114 114-114 62 0 113 51 113 114 0 52-35 96-84 109v65h46c17 0 30 13 30 30v1071c0 17-13 30-30 30zm-1231-812h-128c-17 0-30-13-30-30 0-16 13-30 30-30h128v-120c0-16 13-30 30-30h70v912h-70c-17 0-30-13-30-29v-121h-128c-17 0-30-13-30-29 0-17 13-30 30-30h128v-125h-128c-17 0-30-13-30-30 0-16 13-29 30-29h128v-125h-128c-17 0-30-13-30-30 0-16 13-30 30-30h128zm1361 702h-70v-912h70c16 0 30 14 30 30v120h128c16 0 30 14 30 30 0 17-14 30-30 30h-128v124h128c16 0 30 14 30 30 0 17-14 30-30 30h-128v125h128c16 0 30 13 30 29 0 17-14 30-30 30h-128v125h128c16 0 30 13 30 30 0 16-14 29-30 29h-128v121c0 16-14 29-30 29zm-972-447c-9 11-18 21-27 32-36 45-86 123-52 182 24 41 78 51 122 51 34 0 69-5 103-13l12-3 3 12c19 63 64 175 145 175s126-112 145-175l4-12 12 3c33 8 69 13 103 13 44 0 98-10 122-51 33-59-16-138-52-182-9-11-18-21-28-32l-8-9 8-9c10-10 19-20 28-31 36-45 85-124 52-182-24-42-78-51-122-51-34 0-70 5-103 13l-12 3-4-12c-19-63-64-176-145-176s-126 113-145 176l-3 12-12-3c-34-8-69-13-103-13-44 0-98 9-122 51-34 58 16 137 52 182 9 11 18 21 27 31l9 9zm23-41c-8-10-16-19-24-29-26-32-74-101-49-145 17-29 62-34 93-34s63 5 94 12l13 3-3 12c-7 35-13 70-16 105l-1 6-5 4c-29 20-57 43-83 66l-10 9zm566 65c9 9 17 19 25 28 26 33 74 102 49 145-17 30-62 35-93 35s-64-5-94-12l-13-3 3-13c7-34 12-69 16-105l1-6 4-3c29-21 57-43 84-67l9-9zm-170 228c-14 46-52 151-113 151-60 0-99-105-113-151l-3-12 12-4c34-11 67-24 99-39l5-2 6 2c32 15 65 28 99 39l12 4zm-241-58c-3-16-6-32-8-48l-5-28 25 15c8 5 17 10 26 15s18 10 26 15l26 14-27 10c-15 6-30 11-45 16l-15 5zm-41 26c-31 7-63 12-94 12s-76-5-93-35c-25-43 23-112 49-145 8-9 16-19 24-28l9-10 10 9c26 24 54 46 83 67l5 3 1 6c3 36 9 71 16 105l3 13zm56-490c14-46 53-151 113-151 61 0 99 105 113 151l4 13-12 4c-34 11-67 24-99 38l-6 3-5-3c-32-14-65-27-99-38l-12-4zm179 66c15-6 30-12 45-17l14-4 3 14c4 16 7 32 9 48l4 28-24-15c-9-5-17-10-26-15s-18-10-27-15l-25-14zm110 87c-4-35-9-70-16-105l-3-12 13-3c30-7 62-12 94-12 31 0 76 5 93 34 25 44-23 113-49 145-8 10-16 19-25 29l-9 9-10-9c-26-23-54-46-83-66l-4-4zm-415 98c12-10 24-21 37-31l23-18-1 29c-1 10-1 20-1 30s0 21 1 31l1 28-23-17c-13-11-25-21-37-32l-11-10zm234 175c-24-12-46-24-69-37-22-12-44-26-65-40l-5-4-1-6c-2-26-3-52-3-78 0-25 1-51 3-77l1-6 5-4c21-14 43-28 65-41 23-13 45-25 68-36l6-3 6 3c23 11 46 23 68 36 23 13 44 27 66 41l5 4 1 6c1 26 2 52 2 77 0 26-1 52-2 78l-1 6-5 4c-22 14-43 28-66 40-22 13-45 25-68 37l-6 3zm69 7c9-5 18-10 27-15s17-10 26-15l24-15-4 28c-2 16-5 32-9 48l-3 14-14-5c-15-5-30-10-45-16l-27-10zm176-162c-12 11-25 22-37 32l-23 18 1-29c0-10 0-21 0-31s0-20 0-30l-1-29 23 18c12 10 25 21 37 31l11 10zm-304-181c-8 5-17 10-26 15s-18 10-26 15l-25 15 5-28c2-16 5-32 8-48l3-14 15 4c15 5 30 11 45 17l27 10z"/></g></svg>