<svg xmlns="http://www.w3.org/2000/svg" version="1.1" xmlns:xlink="http://www.w3.org/1999/xlink" width="512" height="512" x="0" y="0" viewBox="0 0 512 512" style="enable-background:new 0 0 512 512" xml:space="preserve"><g><path d="M475.08 268.92H36.92a8 8 0 0 0-8 8v29.649a8 8 0 0 0 5.126 7.466l32.415 12.478a194.567 194.567 0 0 0 20.457 49.346l-14.107 31.763a8 8 0 0 0 1.654 8.904l41.931 41.931a8.002 8.002 0 0 0 8.904 1.654l31.774-14.112a194.57 194.57 0 0 0 49.331 20.451l12.48 32.424a8 8 0 0 0 7.466 5.126h59.297a8 8 0 0 0 7.466-5.126l12.477-32.414a194.5 194.5 0 0 0 49.346-20.458l31.763 14.109a7.996 7.996 0 0 0 8.904-1.655l41.93-41.932a7.997 7.997 0 0 0 1.654-8.903l-14.112-31.774a194.564 194.564 0 0 0 20.452-49.331l32.425-12.48a8 8 0 0 0 5.126-7.466v-29.65c.001-4.418-3.58-8-7.999-8zm-119.085 16c-4.09 51.587-47.375 92.314-99.995 92.314-52.621 0-95.906-40.727-99.996-92.314zm111.085 16.156-31.179 12.002a8.002 8.002 0 0 0-4.909 5.613 178.7 178.7 0 0 1-21.727 52.406 7.999 7.999 0 0 0-.499 7.441l13.571 30.557-34.162 34.163-30.545-13.568a7.997 7.997 0 0 0-7.443.5 178.58 178.58 0 0 1-52.419 21.731 8 8 0 0 0-5.614 4.909L280.156 488h-48.312l-12.001-31.179a7.996 7.996 0 0 0-5.614-4.908 178.691 178.691 0 0 1-52.406-21.727 7.997 7.997 0 0 0-7.441-.499l-30.556 13.571-34.163-34.162 13.566-30.545a7.998 7.998 0 0 0-.5-7.442 178.688 178.688 0 0 1-21.73-52.421 8 8 0 0 0-4.909-5.613l-31.17-11.998V284.92h95.045C144.09 345.338 194.553 393.235 256 393.235c61.446 0 111.909-47.896 116.034-108.314h95.046zM282.389 107.184a8 8 0 0 0-8 8v132.089a8 8 0 0 0 8 8h36.634a8 8 0 0 0 8-8V115.184a8 8 0 0 0-8-8zm28.634 132.089h-20.634V123.184h20.634zm49.394-107.105a8 8 0 0 0-8 8v107.104a8 8 0 0 0 8 8h36.635a8 8 0 0 0 8-8V140.168a8 8 0 0 0-8-8zm28.635 107.105h-20.635v-91.104h20.635zM475.08 59.128h-36.635a8 8 0 0 0-8 8v180.144a8 8 0 0 0 8 8h36.635a8 8 0 0 0 8-8V67.128a8 8 0 0 0-8-8zm-8 180.144h-20.635V75.128h20.635zm-262.719 16h36.634a8 8 0 0 0 8-8v-70.281a8 8 0 0 0-8-8h-36.634a8 8 0 0 0-8 8v70.281a8 8 0 0 0 8 8zm8-70.281h20.634v54.281h-20.634zm3.945-74.072a8 8 0 0 1 1.534-11.209l78.028-59.247a7.998 7.998 0 0 1 7.998-.979l73.297 31.518 51.582-46.927-8.359.03h-.029a8 8 0 0 1-.029-16L449.481 8h.029a8 8 0 0 1 7.848 9.552l-5.653 28.599a8.003 8.003 0 0 1-7.839 6.45 8 8 0 0 1-7.857-9.553l.952-4.814-52.841 48.072a8.005 8.005 0 0 1-8.543 1.432L301.83 56.026l-74.314 56.427a7.96 7.96 0 0 1-4.832 1.629 7.988 7.988 0 0 1-6.378-3.163zM36.92 255.273h144.399a8 8 0 0 0 7.954-8.851c-3.308-30.91-23.693-56.085-51.213-66.621 9.642-8.208 15.776-20.422 15.776-34.048 0-24.656-20.06-44.716-44.716-44.716-24.657 0-44.717 20.06-44.717 44.716 0 13.626 6.133 25.839 15.776 34.048-27.52 10.535-47.906 35.711-51.214 66.621a7.998 7.998 0 0 0 7.955 8.851zm43.484-109.521c0-15.834 12.882-28.716 28.717-28.716 15.834 0 28.716 12.882 28.716 28.716 0 15.828-12.871 28.706-28.696 28.716h-.041c-15.825-.01-28.696-12.887-28.696-28.716zm28.695 44.717h.042c30.053.01 55.58 20.444 62.655 48.804H46.442c7.076-28.361 32.603-48.795 62.657-48.804z" fill="#595d61" opacity="1" data-original="#000000"></path></g></svg>