<svg width="39" height="37" viewBox="0 0 39 37" fill="none" xmlns="http://www.w3.org/2000/svg">
<g clip-path="url(#clip0_72_6994)">
<path d="M6.97975 14.8576C7.91437 15.0256 8.62354 15.8429 8.62354 16.8259V23.8259C8.62354 24.9305 7.72811 25.8259 6.62354 25.8259H4C1.79086 25.8259 0 24.0351 0 21.8259V18.8259C0 16.8704 1.40333 15.2426 3.25788 14.8946C3.96935 6.55053 10.9677 0 19.496 0C28.0243 0 35.0227 6.55052 35.7341 14.8946C37.5887 15.2425 38.9921 16.8703 38.9921 18.8259V21.8259C38.9921 24.0351 37.2012 25.8259 34.9921 25.8259H32.3685C31.264 25.8259 30.3685 24.9305 30.3685 23.8259V16.8259C30.3685 15.8429 31.0777 15.0256 32.0123 14.8576C31.2977 8.57825 25.9665 3.7 19.496 3.7C13.0255 3.7 7.69435 8.57824 6.97975 14.8576Z" fill="#012F33"/>
<path d="M32.0934 25.8072V25.887C32.0934 29.2836 29.34 32.037 25.9434 32.037H23.6139C23.0969 31.4425 22.3349 31.0667 21.4852 31.0667H18.7851C17.2275 31.0667 15.9648 32.3294 15.9648 33.887C15.9648 35.4446 17.2275 36.7072 18.7851 36.7072H21.4852C22.3349 36.7072 23.0968 36.3314 23.6139 35.737H25.9434C31.3834 35.737 35.7934 31.327 35.7934 25.887V25.7456C35.5344 25.7983 35.2663 25.826 34.9918 25.826H32.3683C32.275 25.826 32.1833 25.8196 32.0934 25.8072Z" fill="#6096FF"/>
</g>
<defs>
<clipPath id="clip0_72_6994">
<rect width="39" height="37" fill="white"/>
</clipPath>
</defs>
</svg>
